
<svg xmlns="http://www.w3.org/2000/svg" version="1.1" xmlns:xlink="http://www.w3.org/1999/xlink" preserveAspectRatio="none" x="0px" y="0px" width="124px" height="46px" viewBox="0 0 124 46">
<defs>
<g id="Layer1_0_FILL">
<path fill="#FFFFFF" stroke="none" d="
M 122.2 42
Q 124.35 37.35 123.75 24.55 123.1 11.6 122.05 6 121.7 4.3 121.3 3.3 121.3 3.25 121.3 3.2 121 2.4 120.65 2 119.75 1.1 118.25 0.5 117.55 0.25 116.7 0.1
L 95.6 0.1
Q 95.4 0.1 95.2 0.1
L 89.4 0.1
Q 86.3 0.1 83.4 0.1
L 80.95 0.15
Q 79.75 0.15 78.6 0.2 78.45 0.2 78.35 0.2 78.05 0.2 77.8 0.2 75.1 0.2 72.7 0.25 72.3 0.25 71.9 0.25 70.2 0.25 68.7 0.25 66.75 0.4 65.05 0.4 60.25 0.45 56.75 0.7
L 56.7 0.7
Q 52.55 0.85 50.25 1.1 48.15 1.3 45.6 1.5 36.95 1.85 23.2 1.3 23.05 1.3 23 1.3 22.8 1.3 22.6 1.3 21.8 1.25 21.1 1.25 18.05 1.2 15.5 1.3 13.55 1.4 11.85 1.65 7.05 2.3 4.4 3.9 4 4.15 3.65 4.4 2.1 5.5 1.45 7.05 -1.2 33 1.3 38.7 2.25 40.75 3.2 42.1 3.4 42.4 3.65 42.7 5.05 44.4 6.55 44.45 9.2 44.6 12.65 44.8 16.05 44.95 23.15 45.15
L 23.25 45.15
Q 26.3 45.15 29.85 45.3 36.25 45.6 46.35 45.85 47.15 45.85 48.05 45.9 50.65 45.85 53.35 45.8 58.2 45.65 63.35 45.6
L 63.45 45.6
Q 63.85 45.6 64.2 45.6 65.7 45.6 67.1 45.6
L 67.2 45.6
Q 82.25 45.3 92.95 45.2 93 45.2 93.1 45.2 106 44.95 112.6 44.8 117.15 44.75 118.8 44.75 120.8 44.7 122.05 42.3 122.1 42.15 122.2 42 Z"/>
</g>

<g id="Layer0_0_MEMBER_0_FILL">
<path fill="#000000" stroke="none" d="
M 122.2 42
Q 124.35 37.35 123.75 24.55 123.1 11.6 122.05 6 121.7 4.3 121.3 3.3 121.3 3.25 121.3 3.2 121 2.4 120.65 2 119.75 1.1 118.25 0.5 117.55 0.25 116.7 0.1
L 95.6 0.1
Q 95.4 0.1 95.2 0.1
L 89.4 0.1
Q 86.3 0.1 83.4 0.1
L 80.95 0.15
Q 79.75 0.15 78.6 0.2 78.45 0.2 78.35 0.2 78.05 0.2 77.8 0.2 75.1 0.2 72.7 0.25 72.3 0.25 71.9 0.25 70.2 0.25 68.7 0.25 66.75 0.4 65.05 0.4 60.25 0.45 56.75 0.7
L 56.7 0.7
Q 52.55 0.85 50.25 1.1 48.15 1.3 45.6 1.5 36.95 1.85 23.2 1.3 23.05 1.3 23 1.3 22.8 1.3 22.6 1.3 21.8 1.25 21.1 1.25 18.05 1.2 15.5 1.3 13.55 1.4 11.85 1.65 7.05 2.3 4.4 3.9 4 4.15 3.65 4.4 2.1 5.5 1.45 7.05 -1.2 33 1.3 38.7 2.25 40.75 3.2 42.1 3.4 42.4 3.65 42.7 5.05 44.4 6.55 44.45 9.2 44.6 12.65 44.8 16.05 44.95 23.15 45.15
L 23.25 45.15
Q 26.3 45.15 29.85 45.3 36.25 45.6 46.35 45.85 47.15 45.85 48.05 45.9 50.65 45.85 53.35 45.8 58.2 45.65 63.35 45.6
L 63.45 45.6
Q 63.85 45.6 64.2 45.6 65.7 45.6 67.1 45.6
L 67.2 45.6
Q 82.25 45.3 92.95 45.2 93 45.2 93.1 45.2 106 44.95 112.6 44.8 117.15 44.75 118.8 44.75 120.8 44.7 122.05 42.3 122.1 42.15 122.2 42
M 114.95 3.2
Q 115.75 3.35 116.45 3.55 117.9 4.05 118.8 4.85 119.55 5.6 120.15 8.3 121.2 13.1 121.8 24.25 122.75 41.55 117 41.65 115.4 41.65 110.95 41.7 104.5 41.85 91.95 42.05 91.85 42.05 91.8 42.05 81.35 42.15 66.7 42.4
L 66.6 42.4
Q 65.2 42.4 63.75 42.4 63.4 42.4 63 42.4
L 62.9 42.4
Q 57.9 42.45 53.15 42.55 51 42.6 48.9 42.6
L 48.25 42.6
Q 38.4 42.4 32.2 42.15 28.7 42 25.75 42
L 25.65 42
Q 18.7 41.85 15.4 41.7 12.05 41.55 9.45 41.4 6.8 41.3 4.35 36.45 1.9 31.55 4.5 9.2 6.3 5.45 14.9 4.5 16.4 4.35 18.2 4.25 20.4 4.15 23 4.2 24 4.2 25.1 4.25 25.3 4.25 25.5 4.25 25.55 4.25 25.7 4.25 39.1 4.7 47.55 4.4 50 4.25 52.05 4.05 54.3 3.85 58.35 3.7
L 58.4 3.7
Q 61.8 3.5 66.5 3.45 68.15 3.45 70.05 3.35 71.55 3.35 73.2 3.35 73.55 3.35 73.95 3.35 76.3 3.3 78.95 3.3 79.2 3.3 79.45 3.3 79.55 3.3 79.7 3.3 80.85 3.25 82 3.25
L 94.65 3.2
Q 95.65 3.2 96.7 3.2 96.9 3.2 97.05 3.2
L 114.95 3.2 Z"/>

<path fill="#FFFFFF" stroke="none" d="
M 116.45 3.55
Q 115.75 3.35 114.95 3.2
L 97.05 3.2
Q 96.9 3.2 96.7 3.2 95.65 3.2 94.65 3.2
L 82 3.25
Q 80.85 3.25 79.7 3.3 79.55 3.3 79.45 3.3 79.2 3.3 78.95 3.3 76.3 3.3 73.95 3.35 73.55 3.35 73.2 3.35 71.55 3.35 70.05 3.35 68.15 3.45 66.5 3.45 61.8 3.5 58.4 3.7
L 58.35 3.7
Q 54.3 3.85 52.05 4.05 50 4.25 47.55 4.4 39.1 4.7 25.7 4.25 25.55 4.25 25.5 4.25 25.3 4.25 25.1 4.25 24 4.2 23 4.2 20.4 4.15 18.2 4.25 16.4 4.35 14.9 4.5 6.3 5.45 4.5 9.2 1.9 31.55 4.35 36.45 6.8 41.3 9.45 41.4 12.05 41.55 15.4 41.7 18.7 41.85 25.65 42
L 25.75 42
Q 28.7 42 32.2 42.15 38.4 42.4 48.25 42.6
L 48.9 42.6
Q 51 42.6 53.15 42.55 57.9 42.45 62.9 42.4
L 63 42.4
Q 63.4 42.4 63.75 42.4 65.2 42.4 66.6 42.4
L 66.7 42.4
Q 81.35 42.15 91.8 42.05 91.85 42.05 91.95 42.05 104.5 41.85 110.95 41.7 115.4 41.65 117 41.65 122.75 41.55 121.8 24.25 121.2 13.1 120.15 8.3 119.55 5.6 118.8 4.85 117.9 4.05 116.45 3.55 Z"/>
</g>

<g id="Layer0_0_MEMBER_1_FILL">
<path fill="#000000" stroke="none" d="
M 32.75 27
L 32.5 27
Q 32.45 27.15 32.55 27.2 32.65 27.2 32.65 27.35 32.6 27.35 32.55 27.35 32.5 27.4 32.5 27.45 32.65 27.45 32.75 27.3 32.8 27.2 32.75 27
M 33.3 27.6
Q 33.3 26.9 33.1 26.5 33.1 26.9 33.15 27.4 33.15 27.85 33 28.15 33.15 28.25 33.15 28.4 33.15 28.5 33.15 28.65 33.15 28.8 33.25 28.9 33.25 28.25 33.3 27.6
M 21.15 10.75
Q 20.95 10.7 20.85 10.65 20.7 10.55 20.55 10.5 20.4 10.6 20.3 10.75 20.2 10.9 19.95 10.85
L 19.95 10.6
Q 19.75 10.6 19.6 10.7 19.5 10.8 19.25 10.75 19.2 10.65 19.3 10.65 19.4 10.65 19.35 10.5 19.3 10.55 19.2 10.6 19.1 10.65 18.95 10.6 18.95 10.55 18.9 10.5
L 18.85 10.45
Q 18.6 10.45 18.4 10.5 18.2 10.5 18 10.6 17.95 10.45 17.8 10.5 17.6 10.5 17.55 10.35 17.4 10.45 17.35 10.45
L 17.15 10.35
Q 17.1 10.45 17.15 10.55 17.2 10.7 17.05 10.85 17.2 11 17.1 11.25 17 11.5 17.15 11.65 17.05 11.85 17.1 12.1 17.15 12.35 17.2 12.6 17.25 12.85 17.05 13.05 17.15 13.05 17.2 13.05 17.3 13.05 17.3 13.15 17.3 13.25 17.25 13.3 17.2 13.4 17.05 13.4 17.15 13.55 17.15 13.7 17.15 13.8 17.05 13.95 17.2 14 17.2 14.15 17.2 14.3 17.3 14.4 17.15 14.45 17.1 14.55 17 14.6 16.95 14.75 17.1 14.7 17.15 14.8 17.25 14.85 17.3 14.9 17.1 14.95 17.25 15 17.35 15.1 17.3 15.25 17.2 15.25 17.15 15.35 17.1 15.4 17.05 15.5 17.15 15.6 17.15 15.75 17.2 15.95 17.3 16 17.2 16.05 17.15 16.15 17.15 16.3 17.05 16.35 17.15 16.35 17.2 16.4 17.25 16.5 17.3 16.55 17.15 16.65 17.25 16.8 17.3 16.9 17.15 17.1 17.25 17.15 17.35 17.05 17.4 17 17.45 17.1 17.3 17.1 17.25 17.2 17.25 17.3 17.05 17.2 17.1 17.5 17.1 17.6 17.15 17.7 17.05 17.9 17.15 17.95 17.2 17.95
L 17.3 17.95
Q 17.3 18.15 17.25 18.2 17.2 18.3 17.05 18.3 17.15 18.45 17.15 18.5 17.1 18.55 17.05 18.75 17.15 18.85 17.2 18.95 17.3 19.05 17.45 19.1 17.35 19.15 17.25 19.2 17.15 19.25 17.15 19.45 17.4 19.4 17.4 19.5 17.45 19.65 17.55 19.75 17.45 19.8 17.35 19.85 17.3 19.9 17.3 20 17.4 20.15 17.4 20.5 17.4 20.8 17.3 20.95 17.35 21 17.45 21 17.5 21 17.55 21.05 17.4 21.05 17.4 21.2 17.4 21.4 17.3 21.4 17.35 21.5 17.35 21.55 17.35 21.65 17.3 21.75 17.35 21.9 17.4 22.15 17.45 22.45 17.25 22.5 17.3 22.55 17.3 22.6 17.3 22.65 17.45 22.6 17.35 23 17.35 23.25 17.3 23.55 17.3 24.05 17.4 24.05 17.45 24.1 17.5 24.2 17.55 24.25 17.5 24.55 17.4 25 17.35 25.45 17.55 25.8 17.35 25.8 17.45 25.85 17.55 25.9 17.55 26
L 17.3 26
Q 17.35 26.15 17.45 26.2 17.6 26.3 17.55 26.5
L 17.75 26.5
Q 17.8 26.3 17.75 26.1 17.75 25.9 17.85 25.8 17.85 26.05 17.85 26.35 17.85 26.65 17.7 26.8 17.65 26.75 17.55 26.7 17.45 26.65 17.45 26.8 17.55 26.8 17.6 26.9 17.7 27 17.6 27.1 17.5 27.1 17.55 27 17.6 26.85 17.45 26.9 17.45 27.15 17.4 27.45 17.35 27.75 17.55 27.85 17.55 27.7 17.55 27.5 17.5 27.3 17.6 27.25 17.75 27.2 17.8 27.35 17.85 27.45 17.85 27.6 17.95 27.65 17.95 27.5 17.9 27.35 18 27.35 18.1 27.4 18.15 27.55 18.2 27.7 18.3 27.85 18.2 27.85 18.15 27.85
L 18.05 27.85
Q 18.2 27.9 18.2 28.05 18.25 28.2 18.4 28.25 18.4 28.3 18.4 28.35 18.05 28.25 17.95 27.95 17.85 27.7 17.65 27.45 17.65 27.6 17.65 27.7 17.7 27.85 17.75 27.85 17.55 27.95 17.55 28.25 17.55 28.55 17.45 28.65 17.55 28.8 17.55 29 17.55 29.2 17.45 29.3 17.55 29.35 17.55 29.5 17.55 29.7 17.65 29.75 17.55 29.8 17.55 29.7 17.55 29.65 17.45 29.65 17.5 30.05 17.5 30.3 17.5 30.55 17.45 30.8 17.5 30.85 17.55 30.95 17.6 31 17.65 31.05 17.5 31.1 17.55 31.2 17.6 31.3 17.65 31.4 17.55 31.4 17.5 31.5 17.45 31.55 17.45 31.6 17.6 31.7 17.65 31.85 17.65 31.95 17.6 32 17.5 32.1 17.45 32.1 17.5 32.2 17.55 32.35 17.6 32.5 17.65 32.6
L 17.45 32.6
Q 17.5 32.75 17.5 32.8 17.5 32.85 17.45 33 17.6 33.3 17.6 33.7 17.55 34.1 17.65 34.3 17.6 34.3 17.55 34.55 17.55 34.75 17.65 34.9 17.55 34.9 17.55 35 17.55 35.1 17.45 35.05 17.4 35.15 17.5 35.2 17.6 35.25 17.55 35.4 17.65 35.45 17.85 35.45 18.05 35.45 18.05 35.6 18.25 35.45 18.6 35.5 18.9 35.55 19.15 35.45
L 19.15 35.7
Q 19.3 35.55 19.5 35.45 19.7 35.4 20 35.45
L 20 35.7
Q 20.15 35.6 20.25 35.55 20.35 35.5 20.5 35.45
L 20.5 35.7
Q 20.8 35.55 20.95 35.1 21.05 34.65 20.85 34.3 20.95 34.3 20.95 34.2 20.9 34.05 21 34.1 20.95 33.95 20.95 33.9 20.95 33.85 21.05 33.7 21 33.45 20.9 33.15 20.85 32.8 20.75 32.5 20.85 32.5 20.85 32.55 20.85 32.65 20.95 32.6 20.9 32.4 20.95 32.35 21 32.25 21.05 32.15 20.95 32 21 31.8 21.05 31.65 21.05 31.5 21.05 31.3 20.85 31.1 20.95 31.15 20.95 31.05 20.95 31 21.05 31 21 30.6 21.05 30.4 21.05 30.15 20.95 29.9 21.15 29.85 21.1 29.65 21.05 29.5 21.15 29.3 20.95 29.2 20.95 29 21 28.75 21.1 28.5 21.15 28.25 20.95 28 21.1 27.95 21.1 27.75 21.1 27.6 21.15 27.45 20.9 27.5 20.95 27.35 21 27.2 21.05 27.1 20.95 27.1 20.95 27 20.95 26.9 20.85 26.8 20.95 26.8 20.95 26.6 20.95 26.45 20.95 26.25 20.75 26.4 20.7 26.7 20.65 27 20.55 27.25 20.45 26.8 20.65 26.35 20.85 25.9 20.9 25.4 20.95 25.4 20.95 25.45 20.95 25.5 21.05 25.5 21 25.2 21 25.1 21 25 20.95 24.8 21.1 24.8 21.05 24.75 21 24.65 20.95 24.6 21.15 24.6 21.05 24.4 21 24.25 20.95 24.2 21.15 24.05 21.1 23.75 21.1 23.45 20.95 23.35 21.1 23.2 21.1 22.95 21.05 22.7 21.15 22.5 21.1 22.5 21 22.5 20.95 22.5 20.95 22.45 21.1 22.4 21.1 22.1 21.05 21.85 20.95 21.8 21.1 21.7 21.05 21.65 21 21.65 20.95 21.5 21 21.5 21.05 21.5 21.1 21.45 21.15 21.4 21.1 21 20.95 20.65 20.85 20.25 20.9 19.9 21 19.85 21.05 19.9 21.05 19.95 21.15 20 21.1 19.75 21.1 19.65 21.1 19.45 20.95 19.35 21.1 19.3 21.05 19.25 20.95 19.2 20.95 19.15 21.1 18.55 21.1 17.8 21.1 17 21.1 16.25 21.1 15.45 21.15 14.9 21.1 14.9 21 14.9 20.95 14.9 20.95 14.85 21.15 14.55 21.1 14.1 21.1 13.7 21.05 13.25 21.05 12.85 21.25 12.55 21.15 12.5 21.1 12.45 21 12.4 20.95 12.35 21.2 12.05 21.1 11.55 21 11.05 21.15 10.75
M 20.85 21.85
Q 20.75 21.95 20.7 22.1 20.7 22.25 20.7 22.45 20.6 22.45 20.6 22.25 20.65 22.1 20.6 21.95 20.75 22 20.7 21.9 20.7 21.8 20.85 21.85
M 20.45 23.05
Q 20.5 22.95 20.5 22.85 20.65 22.8 20.6 22.95 20.6 23.05 20.6 23.2 20.45 23.2 20.45 23.05
M 18.65 14.4
Q 18.6 14.65 18.65 14.85 18.45 14.8 18.5 14.5 18.55 14.25 18.55 14.05 18.65 14.1 18.65 14.4
M 19.85 16.6
Q 19.65 16.55 19.65 16.35 19.6 16.15 19.55 16 19.55 15.9 19.55 15.75 19.55 15.55 19.55 15.25 19.75 15.45 19.75 15.85 19.75 16.25 19.85 16.6
M 18.2 19.25
Q 18.15 19.5 18.15 19.65 18 19.65 18.05 19.4 18.05 19.2 18.05 19 18.2 19.05 18.2 19.25
M 18.6 21.55
Q 18.7 21.5 18.65 21.35 18.8 21.4 18.75 21.55 18.65 21.75 18.55 21.75 18.55 21.65 18.6 21.55
M 17.65 23.75
Q 17.6 23.9 17.65 24.05 17.5 24.05 17.5 23.85 17.55 23.65 17.55 23.55 17.7 23.55 17.65 23.75
M 18.25 23.05
Q 18.3 23 18.3 22.95 18.45 23.15 18.3 23.45 18.15 23.7 18.15 24.05 18 24.1 17.95 24 17.9 23.95 17.85 23.9 17.85 23.75 17.9 23.6 18 23.5 17.95 23.3 18.1 23.25 18.05 23.4 18 23.55 18.1 23.55 18.2 23.5 18.15 23.35 18.15 23.2 18.15 23.1 18.25 23.1 18.25 23.05
M 17.95 24.4
Q 18.1 24.4 18.1 24.6 18.1 24.8 17.95 24.8
L 17.95 24.4
M 19.85 25.45
Q 19.75 25.25 19.95 25.15 19.95 25.35 19.95 25.45 19.95 25.6 20 25.7 19.9 25.7 19.85 25.45
M 20 25.2
Q 19.95 25.1 19.95 24.9
L 20.25 24.9 20.25 25.3
Q 20.05 25.3 20 25.2
M 17.85 25.15
Q 17.95 25.15 17.95 25.1 17.95 25 18.05 25.05 18 25.15 17.95 25.2 17.95 25.3 18.15 25.3 18.1 25.75 18.25 26.1 18.4 26.4 18.55 26.7 18.45 26.75 18.4 26.85 18.4 26.9 18.3 26.9 18.25 26.75 18.3 26.6 18.3 26.45 18.25 26.35 18.15 26.5 18.15 26.7 18.15 26.9 17.95 26.9 18 26.75 18.05 26.6 18.05 26.4 18.15 26.3 17.9 26.15 17.95 25.9 18.05 25.65 18 25.4 17.9 25.4 17.95 25.6 18 25.75 17.85 25.7
L 17.85 25.15
M 18.75 25.8
Q 18.9 25.9 18.85 26.2 18.85 26.55 18.85 26.8 18.7 26.65 18.75 26.35 18.8 26.05 18.75 25.8
M 19.35 26.9
L 19.35 26.6
Q 19.5 26.55 19.5 26.75 19.5 26.9 19.35 26.9
M 19.75 27
Q 19.8 26.75 19.8 26.6 19.85 26.5 19.75 26.25 19.85 26.3 19.9 26.35 19.95 26.4 19.95 26.2 20 26.2 20 26.4 20 26.6 19.9 26.8 19.85 26.95 19.75 27
M 19.35 29.3
L 19.45 29.3
Q 19.5 29.25 19.55 29.2 19.7 29.3 19.65 29.55 19.55 29.85 19.55 30
L 19.15 30
Q 19.15 29.8 19.05 29.7 18.95 29.6 18.95 29.45 19.15 29.4 19.2 29.5 19.25 29.65 19.35 29.75 19.4 29.75 19.4 29.6 19.35 29.45 19.35 29.3
M 18.1 29.25
Q 18.05 29.3 17.95 29.3
L 17.95 29.05 18.15 29.05
Q 18.15 29.2 18.1 29.25
M 18.75 28.95
L 18.75 28.65
Q 18.9 28.65 18.9 28.85 18.9 29 18.75 28.95
M 17.85 29.65
Q 17.85 29.55 17.85 29.5 17.8 29.4 17.95 29.45 17.9 29.6 17.95 29.65 18.05 29.7 18.05 29.75 17.95 29.8 17.95 29.7 17.95 29.65 17.85 29.65
M 18.05 30.8
Q 18.05 30.75 18.15 30.75 18.15 30.95 18.2 30.95 18.3 31 18.3 31.1 18.15 31.15 18.15 31.05 18.15 31 18.05 31 18.05 30.9 18.05 30.8
M 18.95 30.85
Q 18.85 30.7 18.95 30.45 19.15 30.5 19.15 30.85 19.2 31.15 18.95 31.3 18.85 31.25 18.75 31.1 18.65 30.95 18.65 30.75 18.8 30.75 18.85 30.9 18.85 31 18.95 31.1 19.1 31.05 18.95 30.85
M 19.75 30.75
Q 19.7 30.65 19.65 30.65 19.6 30.6 19.55 30.55 19.45 30.7 19.5 31.05 19.55 31.35 19.45 31.5 19.2 31.4 19.25 31.15 19.3 30.95 19.35 30.65 19.45 30.35 19.35 30.05 19.6 30.15 19.7 30.4 19.85 30.65 19.75 30.75
M 20.15 31.3
Q 19.95 31.25 19.9 31.2 19.85 31.05 19.85 30.9 19.95 30.9 20 31.05 20.05 31.2 20.15 31.3
M 19.05 31.6
L 19.25 31.6
Q 19.2 31.95 19.35 31.95 19.55 32 19.55 32.2 19.65 32.25 19.65 32.15 19.6 32.05 19.75 32.1 19.65 32.25 19.65 32.4 19.7 32.5 19.85 32.6 19.75 32.75 19.75 32.8 19.75 32.85 19.85 33 19.7 33 19.75 32.9 19.75 32.85 19.65 32.85 19.6 32.75 19.65 32.75 19.7 32.75 19.75 32.7 19.65 32.6 19.55 32.5 19.45 32.35 19.35 32.3 19.2 32.35 19.3 32.45 19.35 32.55 19.35 32.6 19.25 32.6 19.25 32.65 19.3 32.75 19.15 32.75 19.05 32.35 19.1 32.15 19.15 31.95 19.05 31.6
M 19.15 32.85
L 19.35 32.85
Q 19.2 33.05 19.4 33.2 19.55 33.35 19.55 33.7 19.35 33.55 19.25 33.35 19.15 33.15 19.15 32.85
M 19.65 34.45
Q 19.65 34.6 19.55 34.6
L 19.55 34.3
Q 19.65 34.3 19.65 34.45
M 20.7 24.8
L 20.85 24.8 20.85 25.3 20.7 25.3 20.7 24.8
M 20.35 32.1
Q 20.4 31.9 20.3 31.85 20.2 31.8 20.25 31.6 20.4 31.7 20.5 31.8 20.6 31.9 20.6 32.1
L 20.35 32.1
M 37.65 10.4
Q 37.7 10.25 37.7 10.1 37.5 10.1 37.35 10.1 37.25 10.15 37.15 10.2 37.15 10.05 36.95 10.1 36.75 10.1 36.6 10.1 36.55 10 36.55 9.95 36.5 9.85 36.4 9.9 36.55 10.15 36.55 10.55 36.5 10.95 36.6 11.2
L 36.4 11.2
Q 36.5 11.35 36.5 11.4
L 36.4 11.55
Q 36.55 11.65 36.6 11.9 36.6 12.2 36.4 12.3 36.6 13.1 36.55 13.85 36.5 14.6 36.6 15.35
L 36.4 15.35
Q 36.65 15.85 36.6 16.45 36.55 17.05 36.6 17.55 36.6 17.5 36.6 17.45
L 36.7 17.45
Q 36.65 17.6 36.75 17.65 36.8 17.7 36.8 17.8 36.7 17.85 36.7 17.75 36.7 17.65 36.6 17.7 36.55 17.85 36.6 17.95 36.65 18.05 36.7 18.15 36.5 18.45 36.55 18.95 36.6 19.45 36.55 19.9
L 36.6 19.9
Q 36.65 19.9 36.7 19.9 36.55 20.05 36.6 20.3 36.65 20.5 36.7 20.8 36.75 21.05 36.6 21.3 36.8 21.6 36.7 22.15 36.65 22.65 36.8 22.95 36.6 23 36.6 23.15 36.6 23.3 36.7 23.4 36.75 23.5 36.8 23.65 36.7 23.65 36.65 23.75 36.6 23.85 36.6 23.95 36.65 24.05 36.75 24.1 36.8 24.15 36.8 24.25
L 36.6 24.25
Q 36.55 24.45 36.65 24.55 36.75 24.6 36.8 24.7 36.75 24.7 36.7 24.8 36.7 24.9 36.6 24.9 36.7 25.15 36.65 25.45 36.6 25.7 36.8 25.95 36.7 26.1 36.65 26.25 36.6 26.4 36.6 26.6 36.65 26.6 36.75 26.6 36.8 26.6 36.8 26.65
L 36.8 27.1 36.6 27.1
Q 36.7 27.25 36.65 27.35 36.6 27.5 36.6 27.7 36.8 27.65 36.85 27.8 36.85 27.9 36.9 28 36.8 28.15 36.75 28.35 36.65 28.5 36.6 28.65 36.7 28.75 36.75 28.85 36.8 29 36.8 29.2
L 36.6 29.2
Q 36.55 29.3 36.65 29.3 36.75 29.3 36.7 29.4 36.65 29.45 36.6 29.4
L 36.55 29.3
Q 36.55 29.4 36.55 29.45 36.55 29.5 36.45 29.55 36.4 29.5 36.35 29.5
L 36.3 29.5
Q 36.35 29.4 36.4 29.35 36.5 29.3 36.55 29.2 36.35 29.25 36.3 29.15 36.25 29.05 36.3 28.9 36.2 28.85 36.2 28.95 36.2 29.05 36.05 29 36.05 28.8 35.95 28.7 35.8 28.6 35.85 28.3 35.7 28.25 35.6 28.15 35.5 28 35.45 28.1 35.5 28.1 35.5 28.2 35.5 28.3 35.45 28.3 35.45 28.25 35.4 28.2 35.35 28.2 35.3 28.15
L 35.3 27.7
Q 35.25 27.65 35.1 27.7 34.95 27.7 34.95 27.6 35.15 27.5 35.05 27.4 34.95 27.3 34.95 27.1 34.8 27.15 34.75 27.05 34.7 27 34.65 26.9
L 34.7 26.9
Q 34.75 26.9 34.75 26.8 34.6 26.85 34.6 26.8 34.65 26.7 34.65 26.6 34.45 26.6 34.3 26.5 34.25 26.4 34.05 26.35 34.05 26.7 33.95 26.95 33.85 27.25 33.8 27.6 33.75 27.2 33.85 26.85 34 26.45 34.05 26.1 34.05 26 34 25.95 33.95 25.9 34.05 25.85 33.9 25.85 34 25.75 34.1 25.7 34.05 25.6 33.8 25.55 33.75 25.25 33.65 24.95 33.75 24.85 33.6 24.8 33.5 24.85 33.45 24.9 33.4 24.85 33.5 24.75 33.45 24.6 33.4 24.5 33.3 24.4 33.25 24.3 33.4 24.15 33.2 24.05 33.25 23.85 33.3 23.65 33.25 23.55 33.2 23.7 33.15 23.6 33.05 23.5 33 23.45 33 23.4 33.05 23.4 33.1 23.35 33.1 23.25 32.85 23.2 32.7 22.85 32.6 22.55 32.75 22.3
L 32.5 22.3
Q 32.5 22.45 32.55 22.6 32.6 22.75 32.45 22.85 32.4 22.75 32.4 22.6 32.35 22.5 32.3 22.45 32.5 22.15 32.45 21.85 32.35 21.55 32.2 21.3 32.1 21 32.2 20.75 31.95 20.75 32 20.7 32.1 20.6 32.1 20.5 31.85 20.35 31.7 19.95 31.55 19.5 31.65 19.2 31.35 19.15 31.25 18.9 31.2 18.6 31.15 18.3 31.1 17.95 30.9 17.8 30.9 18 30.95 18.1 30.95 18.15 31 18.25 30.95 18.25 30.9 18.3 30.85 18.3 30.8 18.3 30.85 17.9 30.7 17.6 30.65 17.35 30.7 16.9
L 30.45 16.9
Q 30.4 17.3 30.45 17.7 30.5 18.15 30.4 18.4 30.3 17.9 30.3 17.15 30.3 16.45 30.3 16.1 30.15 15.95 29.95 15.6 29.85 15.25 30.05 14.95 29.8 14.95 29.75 14.75 29.7 14.6 29.8 14.5 29.55 14.5 29.55 14.25 29.5 14 29.35 13.9 29.35 13.85 29.45 13.8 29.5 13.8 29.45 13.7 29.35 13.55 29.2 13.35 29.1 13.2 29.25 13.05 29.1 13 29.1 13.1 29.1 13.2 29 13.15 29 13.3 29 13.45 29.05 13.55 28.95 13.65 29 13.1 28.9 12.65 28.75 12.2 28.8 11.95 28.65 11.85 28.55 11.7 28.45 11.6 28.5 11.3 28.4 11.25 28.3 11.2 28.2 11.15 28.15 11.1
L 28.2 11.1
Q 28.3 11.1 28.35 11.1 28.3 10.9 28.2 10.75 28.1 10.6 28.25 10.4 28.1 10.4 28.05 10.45 28 10.55 27.9 10.6 27.9 10.65 27.95 10.65
L 28 10.7
Q 27.85 10.75 27.85 10.65 27.85 10.6 27.85 10.4 27.9 10.45 28 10.4 28.05 10.4 28 10.3 27.95 10.25 27.85 10.25 27.75 10.2 27.75 10.1 27.05 10.15 26.4 10.15 25.7 10.15 25.05 10.1 25 10.3 24.95 10.45 24.95 10.65 25.05 10.85 24.9 10.8 24.85 10.9 24.8 10.95 24.7 10.95 24.9 11.2 24.85 11.5 24.85 11.85 24.8 12.15 24.75 12.45 24.85 12.65
L 24.6 12.65
Q 24.75 12.95 24.7 13.15 24.65 13.35 24.6 13.55 24.8 13.7 24.85 14 24.9 14.35 25.05 14.5 25.05 14.6 25 14.6 24.9 14.6 24.95 14.75 25.2 15.1 25.4 15.6 25.65 16.05 25.55 16.55 25.25 16 25 15.4 24.8 14.8 24.7 14.05 24.55 14.3 24.55 14.6 24.55 14.9 24.6 15.25 24.6 15.55 24.45 15.85 24.4 15.95 24.5 15.95 24.6 15.9 24.55 16.05 24.4 16.05 24.45 16.3 24.5 16.55 24.3 16.55 24.45 16.75 24.4 16.85 24.3 17 24.2 17.15 24.25 17.15 24.4 17.05 24.45 16.95 24.55 17.1 24.3 17.15 24.3 17.4 24.25 17.7 24.2 17.9 24.3 17.95 24.3 17.8 24.4 17.7 24.45 17.85 24.3 17.95 24.3 18.1 24.25 18.3 24.1 18.3 24.25 18.35 24.3 18.5 24.3 18.7 24.3 18.9
L 24.1 18.9
Q 24.2 19 24.15 19.15 24.05 19.25 23.95 19.4 24.05 19.4 24.2 19.4 24.3 19.4 24.3 19.45 24.3 19.5 24.25 19.5 24.15 19.5 24.1 19.5 24.15 19.75 24.15 19.85 24.1 19.95 24.2 20.1 24 20.1 24.05 20.2 24.1 20.4 23.95 20.35 24.05 20.45 24.05 20.6 24.1 20.7 24.2 20.8 24.05 20.9 24.1 21 24.15 21.1 24.2 21.2 24.1 21.25 24.05 21.35 24.05 21.45 23.95 21.55 24.15 21.75 24.05 22.05 23.95 22.35 23.85 22.55 24.05 22.6 23.95 22.85 23.9 23.2 24.1 23.25 23.95 23.35 23.95 23.6 23.95 23.85 24 24.15 24 24.4 23.85 24.5 23.85 24.65 23.9 24.6 24 24.6 23.95 24.75 23.8 24.75 23.85 24.8 23.9 24.9 23.95 24.9 23.75 25 23.75 25.15 24 25.4 23.9 25.7 23.85 25.95 23.95 26.2 23.85 26.25 23.8 26.3 23.75 26.4 23.75 26.5 24 26.45 24 26.65 23.95 26.85 24.1 26.9 23.95 26.95 23.9 26.9 23.85 26.85 23.75 26.8 23.85 27.05 23.75 27.2 23.65 27.4 23.6 27.7 23.7 27.7 23.75 27.65 23.75 27.55 23.85 27.6 23.85 27.7 23.9 27.7 24 27.7 23.95 27.8
L 23.6 27.8
Q 23.7 27.95 23.7 28 23.7 28.1 23.6 28.2 23.75 28.2 23.75 28.35 23.75 28.45 23.85 28.5 23.75 28.55 23.7 28.75 23.7 28.9 23.6 29 23.7 29.15 23.75 29.25 23.8 29.4 23.85 29.55 23.75 29.5 23.75 29.6 23.7 29.7 23.6 29.65
L 23.7 29.8
Q 23.7 29.85 23.6 30 23.7 30 23.75 30 23.85 30 23.85 30.05 23.7 30.1 23.75 30.3 23.75 30.5 23.6 30.55 23.6 30.65 23.65 30.65 23.75 30.65 23.75 30.75 23.55 31.55 23.6 32.5 23.65 33.45 23.45 34.15 23.6 34.2 23.55 34.45 23.5 34.7 23.6 34.8 23.65 34.6 23.75 34.75 23.85 34.9 23.95 34.9 23.9 34.8 23.85 34.5 23.8 34.2 23.95 34.15
L 23.95 34.6
Q 24.15 34.6 24.2 34.45 24.2 34.3 24.3 34.3 24.35 34.55 24.3 34.65 24.2 34.75 24.2 34.9 24.35 34.85 24.4 34.85
L 24.55 34.9
Q 24.55 34.8 24.65 34.8 24.75 34.75 24.75 34.7 25 34.85 25.25 34.75 25.55 34.65 25.95 34.7
L 25.95 34.9
Q 26.05 34.95 26.05 34.85 26 34.7 26.1 34.7 26.25 34.8 26.35 34.75 26.55 34.7 26.75 34.8 26.7 34.65 26.65 34.65 26.6 34.6 26.75 34.5 26.65 34.45 26.65 34.35 26.65 34.2 26.7 34.05
L 26.75 34.1
Q 26.75 34.15 26.8 34.15 26.8 33.8 26.8 33.3 26.75 32.85 26.95 32.5 26.8 32.4 26.8 32.05 26.75 31.7 26.95 31.6 26.8 31.3 26.85 30.8 26.95 30.4 26.8 29.75 27 29.7 27.05 29.55 26.95 29.5 26.9 29.65 26.85 29.7 26.8 29.6 26.95 29.4 27 29.2 27.05 28.95 27.15 28.8 27.05 28.65 27.05 28.6
L 27.15 28.4
Q 27.05 28.4 27 28.5 27 28.65 26.95 28.5 27.05 28.25 27 28.05 26.95 27.85 26.95 27.7 27.1 27.6 27.05 27.35 27 27.1 26.95 27
L 27.15 27
Q 27 26.6 27.1 26.35 27.15 26.1 27.05 25.85
L 27.25 25.85
Q 27.25 25.6 27.2 25.5 27.05 25.4 27.05 25.25 27.25 25.3 27.25 25.15 27.25 25.05 27.35 25.05 27.3 24.5 27.3 23.9 27.3 23.3 27.5 22.55 27.45 22.5 27.35 22.45 27.25 22.4 27.25 22.3
L 27.6 22.3
Q 27.55 22.2 27.5 22 27.45 21.85 27.35 21.7
L 27.6 21.7
Q 27.55 21.4 27.5 21.2 27.5 21 27.75 20.75 27.6 20.6 27.65 20.45 27.65 20.25 27.85 20.2 27.7 20.1 27.75 19.8 27.8 19.5 27.6 19.35 27.75 19.25 27.75 19.1 27.8 18.95 27.85 18.75 27.8 18.75 27.7 18.75 27.6 18.75 27.6 18.7 27.85 18.55 27.85 18.3 27.9 18.05 27.75 17.85 27.95 17.65 27.85 17.35 27.8 16.95 27.95 16.8 28.05 17 28.15 17.15 28.25 17.3 28.15 17.45 28.25 17.45 28.25 17.4 28.25 17.3 28.35 17.35 28.4 17.45 28.35 17.55 28.25 17.55 28.25 17.7 28.3 17.7 28.4 17.7 28.45 17.65 28.5 17.7 28.55 18.05 28.7 18.3 28.85 18.5 29 18.7 28.9 18.9 29 19.05 29.1 19.2 29.15 19.35 29.25 19.5 29.1 19.65 29.25 19.7 29.35 19.75 29.4 19.9 29.45 20 29.35 20 29.35 19.95 29.35 19.85 29.25 19.9
L 29.25 20.1 29.6 20.1
Q 29.6 20.3 29.65 20.4 29.7 20.45 29.6 20.6 29.65 20.65 29.75 20.7 29.85 20.75 29.9 20.8 29.85 20.85 29.85 20.95 29.8 21.05 29.8 21.2 30.05 21.2 30.1 21.4 30.1 21.55 30.1 21.75 30.1 21.95 30.3 22.05 30.3 22.25 30.4 22.3 30.5 22.45 30.45 22.65 30.65 22.7 30.7 22.85 30.8 23.05 30.7 23.15 30.75 23.15 30.8 23.2
L 30.8 23.25
Q 30.9 23.3 30.95 23.2 30.95 23.1 31 23.25 30.95 23.3 30.9 23.35 30.9 23.4 30.9 23.55 31 23.5 31.05 23.5 31.15 23.5 31.15 23.55 31.05 23.75 31.15 24 31.2 24.2 31.2 24.5 31.3 24.55 31.3 24.45 31.3 24.35 31.4 24.35
L 31.4 24.85
Q 31.6 25 31.75 25.2 31.9 25.45 31.75 25.6 31.85 25.6 31.9 25.6 31.9 25.65 31.9 25.7 32 25.75 32 25.65 32.05 25.55 32.1 25.65 32 25.7 32 25.8 32.05 25.9 32.2 25.95 32.1 26.2 32.2 26.45 32.35 26.65 32.4 26.9
L 32.65 26.9
Q 32.75 26.5 32.7 26 32.65 25.55 32.55 25.05 32.5 24.5 32.6 24.05 32.7 24.6 32.75 25.25 32.85 25.85 32.9 26.5 33.05 26.05 33.1 25.55 33.15 25.1 33.25 24.75 33.25 25.55 33.35 26.4 33.45 27.3 33.75 28 33.65 28.05 33.55 28.05 33.5 28.1 33.5 28.2 33.7 28.65 33.7 29.25 33.75 29.85 33.95 30.25 34 30.15 33.95 29.95 33.95 29.8 34.05 29.75 34.15 29.9 34.1 30.05 34.05 30.25 33.95 30.35 34.05 30.4 34.05 30.45 34.15 30.5 34.05 30.65 34.2 30.65 34.2 30.55 34.25 30.45 34.35 30.55 34.25 30.6 34.2 30.7 34.2 30.85 34.25 31 34.4 31.1 34.5 31.35 34.55 31.6 34.85 31.65 34.85 31.75 34.75 31.75 34.7 31.75 34.65 31.75 34.7 32 34.9 32.1 35.1 32.25 35.05 32.6 35.2 32.65 35.3 32.75 35.35 32.85 35.45 32.9 35.4 33 35.45 33.1 35.5 33.25 35.45 33.4 35.85 33.65 36.05 34.1 36.3 34.55 36.4 35.05 36.5 35.05 36.5 35 36.55 34.95 36.6 34.9 36.55 35.1 36.6 35.2 36.65 35.3 36.7 35.4 36.85 35.3 37.05 35.35 37.2 35.4 37.4 35.5 37.45 35.25 37.85 35.25 38.2 35.25 38.4 35.4 38.35 35.25 38.4 35.25 38.5 35.3 38.6 35.3 38.65 35.05 38.7 34.85 38.75 34.6 38.7 34.3 38.6 34.3 38.6 34.5 38.6 34.65 38.65 34.85 38.65 35 38.5 35.05 38.55 34.7 38.45 34.5 38.35 34.3 38.4 34.05
L 38.6 34.05
Q 38.65 33.6 38.5 33.25 38.4 32.85 38.55 32.4 38.6 32.45 38.65 32.5 38.7 32.5 38.7 32.55 38.6 33.15 38.7 33.9 38.85 34.7 38.9 35.4 39.05 35.3 39.15 35.2 39.3 35.1 39.45 35.3 39.45 35.2 39.45 35.1 39.45 35 39.6 35.05 39.55 34.85 39.55 34.75 39.5 34.65 39.6 34.5 39.55 34.45 39.45 34.2 39.4 34 39.6 33.8 39.45 33.55 39.55 33.1 39.6 32.65 39.7 32.2 39.55 32.2 39.6 32 39.6 31.8 39.45 31.8 39.55 31.6 39.55 31.4 39.55 31.2 39.45 31 39.65 30.95 39.6 30.9 39.5 30.85 39.45 30.75 39.65 30.8 39.6 30.65 39.55 30.5 39.7 30.55 39.65 30.4 39.6 30.35 39.6 30.3 39.7 30.25 39.6 30.2 39.55 30.15 39.5 30.1 39.45 29.95 39.55 29.85 39.65 29.75 39.75 29.7 39.8 29.55 39.6 29.45 39.65 29.2 39.7 28.95 39.6 28.8 39.8 28.7 39.7 28.4 39.7 28.1 39.6 28 39.8 27.9 39.7 27.7 39.65 27.5 39.6 27.35 39.55 27.15 39.8 27.1 39.55 26.9 39.65 26.7 39.75 26.55 39.8 26.2 39.7 26.25 39.65 26.25 39.6 26.25 39.6 26.2 39.8 25.9 39.75 25.5 39.7 25.1 39.9 24.85 39.7 24.85 39.8 24.8 39.9 24.7 39.9 24.6 39.8 24.5 39.7 24.4 39.6 24.35 39.6 24.15
L 39.9 24.15
Q 39.75 24 39.8 23.8 39.85 23.6 39.9 23.35 39.9 23.15 39.8 23 39.95 22.85 39.9 22.7 39.8 22.5 39.75 22.35 39.65 22.2 39.9 22.05 39.8 21.95 39.8 21.8 39.8 21.75 39.9 21.6
L 39.8 21.6
Q 39.8 21.55 39.9 21.55 39.75 21.05 39.8 20.65 39.85 20.25 40 19.75 39.7 19.6 39.8 19.35 39.9 19.15 40 18.9 39.95 18.9 39.85 18.9
L 39.8 18.85
Q 39.8 18.75 39.75 18.65 39.75 18.55 39.8 18.5 39.9 18.55 39.9 18.6 39.9 18.65 40 18.65 39.85 17.85 39.95 16.9 40 16 39.9 15.25 39.95 15.2 40 15.15 40.1 15.1 40.1 15.05 39.95 14.85 39.95 14.55 40 14.3 39.8 14.2 39.95 13.95 40 13.75 40.1 13.55 40 13.15
L 40.2 13.15
Q 40.2 13 40.05 12.95 39.9 12.9 39.9 12.75 40 12.75 40 12.8 40 12.9 40.1 12.9 40.15 12.55 40.1 12.4 40 12.2 40 11.95
L 40.2 11.95
Q 40.2 11.8 40.1 11.75 40 11.65 40 11.55 40.1 11.55 40.1 11.45 40.1 11.4 40.2 11.4 40.1 11.25 40.1 10.9 40.1 10.5 40.1 10.2 39.95 10.15 39.9 10.25 39.85 10.3 39.8 10.3 39.8 10.25 39.75 10.2 39.7 10.15 39.7 10.1 39.45 10.2 39.1 10.15 38.8 10.05 38.4 10.2 38.25 10.45 38.25 10.9 38.2 11.3 38.4 11.55 38.2 11.6 38.25 11.9 38.3 12.15 38.2 12.3 38.15 12.3 38.1 12.25 38.05 12.25 38.05 12.2 38.15 11.95 38 11.45 37.9 11 37.8 10.6 37.75 10.55 37.7 10.6 37.65 10.65 37.6 10.7 37.6 10.5 37.65 10.4
M 39.2 12.15
Q 39.2 12.00234375 39.1 11.95 39.2015625 12.00078125 39.3 12.05 39.35 12.15 39.35 12.3 39.25 12.25 39.2 12.15
M 28.9 14.75
Q 28.95 14.6 28.95 14.45 29.05 14.55 29.1 14.7 29.15 14.85 29.05 14.95 28.9 14.95 28.9 14.75
M 27.05 16.45
Q 27.05 16.35 27.1 16.3 27.2 16.25 27.15 16.05 27.3 16.1 27.25 16.3 27.2 16.45 27.05 16.45
M 26.75 17.2
Q 26.6 17.25 26.65 17.15 26.65 17 26.65 16.9 26.75 16.9 26.75 17.05 26.8 17.2 26.75 17.2
M 26.85 18.15
Q 26.8 18.15 26.8 18
L 27.05 18
Q 27.05 18.2 27.05 18.35 27.05 18.45 26.95 18.5 26.95 18.55 27 18.55 27.05 18.5 27.1 18.5 27.15 18.5 27.15 18.45 27.15 18.35 27.15 18.3 27.3 18.35 27.35 18.45 27.4 18.55 27.35 18.75 27.25 18.8 27.25 18.7 27.3 18.55 27.2 18.5 27.1 18.6 27.15 18.75 27.15 18.9 27.15 19 27 19.05 26.9 18.95 26.85 18.85 26.8 19 26.75 18.95 26.8 18.75 26.85 18.6 26.8 18.4 26.75 18.55 26.7 18.75 26.7 18.95 26.5 19 26.5 18.75 26.55 18.6 26.65 18.5 26.5 18.3 26.65 18.25 26.7 18.3 26.75 18.3 26.95 18.3 26.95 18.15 26.85 18.15
M 25.7 16.9
Q 26.05 17.65 26.25 18.5 26.45 19.4 26.75 20.2 26.6 20.25 26.65 20.15 26.65 20.05 26.5 20.1 26.35 19.25 26.05 18.5 25.75 17.7 25.7 16.9
M 29.9 15.95
Q 30.05 15.9 30.05 16 30.05 16.15 30.05 16.25
L 29.8 16.25
Q 29.8 16.1 29.85 16.05 29.9 16.05 29.9 15.95
M 29.7 16.95
Q 29.7 16.8 29.7 16.7 29.85 16.65 29.85 16.8 29.8 16.95 29.8 17.05 29.65 17.05 29.7 16.95
M 29.15 16.7
Q 29.15 16.85 29.25 16.85 29.25 17 29.15 17.1 29.1 17.2 29 17.2
L 29 16.55
Q 29.1 16.6 29.15 16.7
M 30.05 17.2
Q 30.05 17.35 29.9 17.35
L 29.9 17.05
Q 30.05 17 30.05 17.2
M 24.8 16.15
Q 24.9 16.15 24.95 16.15 24.9 16.35 25 16.35 25.1 16.4 25.05 16.55 24.9 16.55 24.85 16.4 24.85 16.3 24.7 16.25 24.75 16.15 24.8 16.15
M 25.05 16.8
Q 25.2 16.8 25.2 16.85 25.15 16.95 25.3 16.9
L 25.3 17.35
Q 25.2 17.25 25.15 17.1 25.1 16.95 25.05 16.8
M 30.3 20.85
Q 30.35 20.65 30.3 20.45 30.5 20.5 30.45 20.7 30.4 20.95 30.45 21.1 30.3 21.05 30.3 20.85
M 26.6 21.2
Q 26.6 21.4 26.8 21.3 26.75 21.45 26.7 21.6 26.6 21.75 26.5 21.85
L 26.5 21.1
Q 26.65 21.05 26.6 21.2
M 26.9 23.95
Q 26.95 23.75 26.95 23.65 27.05 23.65 27.05 23.8 27 24 27.05 24.15 26.9 24.15 26.9 23.95
M 38.3 15.15
Q 38.25 14.6 38.2 14.05 38.1 13.5 38.25 12.95 38.25 13.85 38.45 14.75 38.65 15.65 38.75 16.55 38.85 17.4 38.5 18.25 38.6 17.7 38.6 17.1 38.55 16.55 38.4 16.05 38.25 16 38.25 16.15 38.25 16.25 38.15 16.25 38.35 15.7 38.3 15.15
M 37.9 12.7
Q 37.8 12.9 37.7 12.95 37.65 12.7 37.75 12.65 37.8 12.6 37.8 12.4 38 12.5 37.9 12.7
M 37.5 14.35
Q 37.35 14.35 37.4 14.2 37.4 14 37.4 13.85 37.55 13.85 37.5 14.05 37.5 14.25 37.5 14.35
M 37.3 15.5
Q 37.25 15.55 37.3 15.7
L 37.05 15.7
Q 37.1 15.6 37.15 15.5 37.25 15.4 37.4 15.35 37.4 15.5 37.3 15.5
M 36.9 15.95
L 37.15 15.95
Q 37.1 16 37.05 16.15 37.05 16.3 36.9 16.35
L 36.9 15.95
M 30.8 18.9
Q 30.95 18.85 30.9 19 30.9 19.1 30.9 19.2 30.75 19.25 30.8 19.15 30.8 19 30.8 18.9
M 32.65 23.65
Q 32.55 23.65 32.5 23.6 32.5 23.5 32.4 23.55 32.4 23.45 32.4 23.3 32.4 23.15 32.5 23.15 32.5 23.35 32.55 23.45 32.6 23.55 32.65 23.65
M 38.7 19.2
Q 38.6 19.15 38.55 18.95 38.45 18.75 38.5 18.5 38.65 18.6 38.7 18.8 38.75 18.95 38.7 19.2
M 38.7 19.5
Q 38.9 19.65 38.85 20 38.85 20.4 39.1 20.5 39.2 20.25 39.05 20 38.95 19.75 39 19.4 39.2 19.6 39.2 19.95 39.25 20.35 39.2 20.75 39.05 20.55 39.05 20.7 39.05 20.9 38.9 20.95 38.85 20.65 38.8 20.3 38.7 19.95 38.7 19.5
M 36.9 19.7
Q 36.95 19.5 36.9 19.35 37.1 19.35 37.05 19.55 37.05 19.7 37.05 19.9 36.9 19.85 36.9 19.7
M 37.05 20
L 37.15 20 37.15 20.45 37.05 20.45 37.05 20
M 37.15 21.65
Q 37.15 21.55 37 21.6 36.9 21.65 36.9 21.8 36.95 21.95 36.9 22.05 36.7 21.95 36.85 21.75 36.95 21.5 36.9 21.3 37.05 21.4 37.1 21.5 37.2 21.65 37.3 21.7 37.15 21.75 37.15 21.65
M 38.8 23.7
Q 38.8 24.15 38.6 24.35 38.55 23.9 38.55 23.65 38.6 23.45 38.6 22.95 38.75 23.25 38.8 23.7
M 39.2 24.05
Q 39.1 24.15 39.2 24.35 39.3 24.55 39.35 24.75 39.2 24.7 39.2 24.6 39.15 24.5 39 24.5
L 39 24.05 39.2 24.05
M 37.45 25
Q 37.45 25.7 37.4 26.5 37.1 25.9 37.25 25.2 37.35 24.45 37.3 23.65 37.45 24.3 37.45 25
M 35.45 30.25
Q 35.5 29.65 35.45 29.2 35.6 29.7 35.6 30.15 35.65 30.6 35.75 31.1 35.45 30.85 35.45 30.25
M 38.15 29
Q 38.1 29.2 38.15 29.25 38.2 29.3 38.25 29.4 38.1 29.4 38.05 29.25 37.95 29.05 38.15 29
M 38.15 30.4
Q 38.15 30.1 38.15 29.9 38.3 29.95 38.25 30.25 38.2 30.55 38.25 30.75 38.1 30.7 38.15 30.4
M 38.6 31.95
Q 38.2 32 38.25 31.6 38.25 31.25 38.25 30.85 38.4 31.1 38.45 31.4 38.5 31.7 38.6 31.95
M 26.65 25.9
Q 26.8 25.9 26.75 26.1 26.7 26.35 26.75 26.5 26.55 26.45 26.6 26.25 26.65 26.05 26.65 25.9
M 25.95 25.9
Q 25.9 25.65 26 25.6 26.1 25.5 26.05 25.25 26.25 25.35 26.15 25.6 26.1 25.85 25.95 25.9
M 26.4 25.25
Q 26.45 25.4 26.45 25.7 26.45 26 26.35 26.3 26.3 26.6 26.15 26.7 26.2 26.3 26.25 25.95 26.35 25.6 26.4 25.25
M 26.15 27.1
Q 26.35 27.15 26.25 27.3 26.2 27.45 26.05 27.45 26 27.3 26.05 27.25 26.15 27.2 26.15 27.1
M 25.55 28.05
Q 25.65 27.45 25.85 26.9 25.7 27.5 25.65 28.15 25.55 28.75 25.3 29.2 25.45 28.65 25.55 28.05
M 24.15 27.65
Q 24.05 27.4 24.1 27 24.2 27.2 24.3 27.45 24.4 27.75 24.45 28.1 24.2 27.95 24.15 27.65
M 24.3 28.3
L 24.55 28.3
Q 24.55 28.45 24.55 28.5 24.55 28.55 24.55 28.65 24.45 28.65 24.4 28.55 24.3 28.45 24.3 28.3
M 25.05 30.85
Q 25.15 30.6 25.2 30.25 25.35 30.5 25.25 30.95 25.15 31.35 24.95 31.5 25 31.2 25.05 30.85
M 23.95 33.15
Q 24 33.05 23.95 32.95 24.1 32.9 24.1 33.05 24.1 33.2 24.1 33.3 23.95 33.3 23.95 33.15
M 23.75 33.9
Q 23.7 33.8 23.75 33.6 23.85 33.6 23.9 33.5 23.95 33.4 24.1 33.5 24.1 33.65 24 33.75 23.95 33.8 23.95 34.05 23.8 34 23.75 33.9
M 24.6 32.75
Q 24.75 32.9 24.65 33.3 24.5 33.7 24.3 33.8 24.35 33.55 24.5 33.3 24.6 33.05 24.6 32.75
M 25.85 33.6
Q 26 33.6 25.95 33.75 25.95 33.9 25.95 34.05
L 25.7 34.05
Q 25.65 33.85 25.75 33.8 25.85 33.8 25.85 33.6
M 25.35 33.85
Q 25.45 33.8 25.45 33.6 25.6 33.65 25.5 33.9 25.4 34.1 25.3 34.15 25.25 33.95 25.35 33.85
M 63.4 33.15
L 63.4 32.85
Q 63.15 32.9 63.1 32.8 63.05 32.7 63.1 32.5 62.95 32.5 62.95 32.6 63 32.65 63 32.75 63.1 32.8 63.2 32.95 63.3 33.05 63.1 33.15
L 63.4 33.15
M 75.45 33.2
Q 75.4984375 33.1515625 75.55 33.15
L 75.45 33.15
Q 75.4 33.2 75.45 33.25
L 75.45 33.2
M 49.2 26.8
Q 49.15 26.85 49.15 26.95 49.15 27.05 49.3 27.05 49.25 26.85 49.35 26.85 49.4 26.8 49.45 26.65 49.3 26.65 49.3 26.7 49.3 26.8 49.2 26.8
M 49.45 25.35
Q 49.35 25.5 49.55 25.55 49.5 25.4 49.55 25.35 49.65 25.25 49.65 25.15 49.5 25.15 49.45 25.35
M 55.55 32.2
Q 55.5 32.9 55.5 33.7 55.5 34.5 55.4 35.15 55.55 35.15 55.55 35.25 55.55 35.35 55.7 35.35 55.75 35.3 55.9 35.25 56.05 35.2 56.1 35.3 56.1 35.35 56.05 35.35 56 35.4 56 35.45 56.65 35.3 57.05 35.4 57.45 35.45 57.85 35.35 58.15 35.6 58.4 35.55 58.65 35.55 58.85 35.5 59.1 35.45 59.3 35.6 59.4 35.4 59.75 35.35 60.1 35.35 60.3 35.45 60.3 35.35 60.25 35.35 60.1 35.3 60.15 35.15
L 60.75 35.15
Q 60.8 35.1 60.85 34.95 60.85 34.85 61.05 34.85 61.1 34.95 61 34.95 60.9 34.95 60.95 35.05 61.1 34.95 61.3 34.8 61.5 34.65 61.75 34.85 61.75 34.55 62 34.5 62.25 34.45 62.5 34.35 62.5 34.2 62.55 34.15 62.6 34.05 62.75 34.1 62.75 33.8 62.6 33.6 62.5 33.4 62.5 33.15
L 62.75 33.15
Q 62.7 33.45 62.8 33.6 62.85 33.75 62.85 34.1 63.1 34.15 63.1 33.95 63.1 33.75 63.2 33.65 63.25 33.65 63.25 33.7 63.3 33.75 63.4 33.75 63.35 33.55 63.3 33.5 63.25 33.4 63.4 33.3 63.25 33.25 63.25 33.35 63.25 33.4 63.1 33.4 63.1 33.15 63 32.95 62.85 32.8 62.75 32.65 62.7 32.75 62.75 32.9 62.75 33.05 62.65 33.1 62.6 33.1 62.55 33.1 62.5 33.1 62.5 33.05 62.6 32.85 62.55 32.5 62.5 32.15 62.4 31.9 62.5 31.9 62.55 31.95 62.65 32 62.75 32.05 62.75 32.25 62.8 32.35 62.9 32.4 63.1 32.4 63 32.25 62.9 32.1 62.8 31.95 63 31.8 62.85 31.75 62.85 31.85 62.85 31.95 62.75 31.9
L 62.75 31.1
Q 62.6 31.1 62.55 31.25 62.55 31.45 62.4 31.5 62.15 31.6 62.05 31.35 61.9 31.1 62.1 31 62.15 31.05 62.2 31.2 62.25 31.3 62.4 31.3 62.35 31.05 62.4 30.95 62.5 30.85 62.5 30.7 62.35 30.65 62.35 30.8 62.4 30.95 62.25 30.9 62.25 30.8 62.25 30.7 62.25 30.65 62.15 30.7 62.15 30.85 62.05 30.85 61.95 30.9 61.85 30.95 61.75 30.95 61.7 31.2 61.6 31.15 61.6 31.05 61.65 30.9 61.5 31 61.55 31.1 61.5 31.15 61.45 31.2 61.25 31.2 61.3 31.25 61.35 31.35 61.45 31.45 61.35 31.5 61.25 31.5 61.2 31.4 61.2 31.3 61.05 31.3 61 31.45 60.95 31.5 60.85 31.55 60.65 31.5 60.5 32 60.5 32.65 60.55 33.3 60.55 33.95 60.55 34.6 60.45 35.05
L 60.45 33.4
Q 60.35 33.4 60.25 33.4 60.2 33.4 60.15 33.3 60.35 33.1 60.4 32.75 60.45 32.4 60.45 32 60.05 32 59.75 32.2 59.4 32.35 59.05 32.45 58.7 32.6 58.25 32.4 58.25 32.6 58.1 32.6 57.9 32.65 57.75 32.5 57.75 32.65 57.65 32.75 57.6 32.8 57.45 32.85
L 57.45 32.5
Q 57.3 32.5 57.2 32.55 57.1 32.6 57 32.65 56.65 32.5 56.3 32.35 55.95 32.25 55.55 32.2
M 55.8 33.15
Q 55.8 32.9 55.7 32.8 55.6 32.7 55.55 32.5 55.7 32.6 55.85 32.8 55.95 33.05 55.8 33.15
M 56.7 34.9
Q 56.65 34.75 56.65 34.6 56.75 34.65 56.85 34.8 56.9 34.9 56.9 35.05 56.75 35 56.7 34.9
M 61.7 31.7
Q 61.65 31.6 61.6 31.5
L 61.85 31.5 61.85 31.8
Q 61.75 31.75 61.7 31.7
M 42.6 10.45
L 42.4 10.35
Q 42.35 10.45 42.4 10.55 42.45 10.7 42.3 10.85 42.45 11 42.35 11.25 42.25 11.5 42.4 11.65 42.3 11.85 42.35 12.1 42.4 12.35 42.45 12.6 42.5 12.85 42.3 13.05 42.4 13.05 42.45 13.05 42.55 13.05 42.55 13.15 42.55 13.25 42.5 13.3 42.45 13.4 42.3 13.4 42.4 13.55 42.4 13.7 42.4 13.8 42.3 13.95 42.45 14 42.45 14.15 42.45 14.3 42.55 14.4 42.4 14.45 42.35 14.55 42.25 14.6 42.2 14.75 42.35 14.7 42.4 14.8 42.5 14.85 42.55 14.9 42.35 14.95 42.5 15 42.6 15.1 42.55 15.25 42.45 15.25 42.4 15.35 42.35 15.4 42.3 15.5 42.4 15.6 42.4 15.75 42.45 15.95 42.55 16 42.45 16.05 42.4 16.15 42.4 16.3 42.3 16.35 42.4 16.35 42.45 16.4 42.5 16.5 42.55 16.55 42.4 16.65 42.5 16.8 42.55 16.9 42.4 17.1 42.5 17.15 42.6 17.05 42.65 17 42.7 17.1 42.55 17.1 42.5 17.2 42.5 17.3 42.3 17.2 42.35 17.5 42.35 17.6 42.4 17.7 42.3 17.9 42.4 17.95 42.45 17.95
L 42.55 17.95
Q 42.55 18.15 42.5 18.2 42.45 18.3 42.3 18.3 42.4 18.45 42.4 18.5 42.35 18.55 42.3 18.75 42.4 18.85 42.45 18.95 42.55 19.05 42.7 19.1 42.6 19.15 42.5 19.2 42.4 19.25 42.4 19.45 42.65 19.4 42.65 19.5 42.7 19.65 42.8 19.75 42.7 19.8 42.6 19.85 42.55 19.9 42.55 20 42.65 20.15 42.65 20.5 42.65 20.8 42.55 20.95 42.6 21 42.7 21 42.75 21 42.8 21.05 42.65 21.05 42.65 21.2 42.65 21.4 42.55 21.4 42.6 21.5 42.6 21.55 42.6 21.65 42.55 21.75 42.6 21.9 42.65 22.15 42.7 22.45 42.5 22.5 42.55 22.55 42.55 22.6 42.55 22.65 42.7 22.6 42.6 23 42.6 23.25 42.55 23.55 42.55 24.05 42.65 24.05 42.7 24.1 42.75 24.2 42.8 24.25 42.75 24.55 42.65 25 42.6 25.45 42.8 25.8 42.6 25.8 42.7 25.85 42.8 25.9 42.8 26
L 42.55 26
Q 42.6 26.15 42.7 26.2 42.85 26.3 42.8 26.5
L 43 26.5
Q 43.05 26.3 43 26.1 43 25.9 43.1 25.8 43.1 26.05 43.1 26.35 43.1 26.65 42.95 26.8 42.9 26.75 42.8 26.7 42.7 26.65 42.7 26.8 42.8 26.8 42.85 26.9 42.95 27 42.85 27.1 42.75 27.1 42.8 27 42.85 26.85 42.7 26.9 42.7 27.15 42.65 27.45 42.6 27.75 42.8 27.85 42.8 27.7 42.8 27.5 42.75 27.3 42.85 27.25 43 27.2 43.05 27.35 43.1 27.45 43.1 27.6 43.2 27.65 43.2 27.5 43.15 27.35 43.25 27.35 43.35 27.4 43.4 27.55 43.45 27.7 43.55 27.85 43.45 27.85 43.4 27.85
L 43.3 27.85
Q 43.45 27.9 43.45 28.05 43.5 28.2 43.65 28.25 43.65 28.3 43.65 28.35 43.3 28.25 43.2 27.95 43.1 27.7 42.9 27.45 42.9 27.6 42.9 27.7 42.95 27.85 43 27.85 42.8 27.95 42.8 28.25 42.8 28.55 42.7 28.65 42.8 28.8 42.8 29 42.8 29.2 42.7 29.3 42.8 29.35 42.8 29.5 42.8 29.7 42.9 29.75 42.8 29.8 42.8 29.7 42.8 29.65 42.7 29.65 42.75 30.05 42.75 30.3 42.75 30.55 42.7 30.8 42.75 30.85 42.8 30.95 42.85 31 42.9 31.05 42.75 31.1 42.8 31.2 42.85 31.3 42.9 31.4 42.8 31.4 42.75 31.5 42.7 31.55 42.7 31.6 42.85 31.7 42.9 31.85 42.9 31.95 42.85 32 42.75 32.1 42.7 32.1 42.75 32.2 42.8 32.35 42.85 32.5 42.9 32.6
L 42.7 32.6
Q 42.75 32.75 42.75 32.8 42.75 32.85 42.7 33 42.85 33.3 42.85 33.7 42.8 34.1 42.9 34.3 42.85 34.3 42.8 34.55 42.8 34.75 42.9 34.9 42.8 34.9 42.8 35 42.8 35.1 42.7 35.05 42.65 35.15 42.75 35.2 42.85 35.25 42.8 35.4 42.9 35.45 43.1 35.45 43.3 35.45 43.3 35.6 43.5 35.45 43.85 35.5 44.15 35.55 44.4 35.45
L 44.4 35.7
Q 44.55 35.55 44.75 35.45 44.95 35.4 45.25 35.45
L 45.25 35.7
Q 45.4 35.6 45.5 35.55 45.6 35.5 45.75 35.45
L 45.75 35.7
Q 46.05 35.55 46.2 35.1 46.3 34.65 46.1 34.3 46.2 34.3 46.2 34.2 46.15 34.05 46.25 34.1 46.2 33.95 46.2 33.9 46.2 33.85 46.3 33.7 46.25 33.45 46.15 33.15 46.1 32.8 46 32.5 46.1 32.5 46.1 32.55 46.1 32.65 46.2 32.6 46.15 32.4 46.2 32.35 46.25 32.25 46.3 32.15 46.2 32 46.25 31.8 46.3 31.65 46.3 31.5 46.3 31.3 46.1 31.1 46.2 31.15 46.2 31.05 46.2 31 46.3 31 46.25 30.6 46.3 30.4 46.3 30.15 46.2 29.9 46.4 29.85 46.35 29.65 46.3 29.5 46.4 29.3 46.2 29.2 46.2 29 46.25 28.75 46.35 28.5 46.4 28.25 46.2 28 46.35 27.95 46.35 27.75 46.35 27.6 46.4 27.45 46.15 27.5 46.2 27.35 46.25 27.2 46.3 27.1 46.2 27.1 46.2 27 46.2 26.9 46.1 26.8 46.2 26.8 46.2 26.6 46.2 26.45 46.2 26.25 46 26.4 45.95 26.7 45.9 27 45.8 27.25 45.7 26.8 45.9 26.35 46.1 25.9 46.15 25.4 46.2 25.4 46.2 25.45 46.2 25.5 46.3 25.5 46.25 25.2 46.25 25.1 46.25 25 46.2 24.8 46.35 24.8 46.3 24.75 46.25 24.65 46.2 24.6 46.4 24.6 46.3 24.4 46.25 24.25 46.2 24.2 46.4 24.05 46.35 23.75 46.35 23.45 46.2 23.35 46.35 23.2 46.35 22.95 46.3 22.7 46.4 22.5 46.35 22.5 46.25 22.5 46.2 22.5 46.2 22.45 46.35 22.4 46.35 22.1 46.3 21.85 46.2 21.8 46.35 21.7 46.3 21.65 46.25 21.65 46.2 21.5 46.25 21.5 46.3 21.5 46.35 21.45 46.4 21.4 46.35 21 46.2 20.65 46.1 20.25 46.15 19.9 46.25 19.85 46.3 19.9 46.3 19.95 46.4 20 46.35 19.75 46.35 19.65 46.35 19.45 46.2 19.35 46.35 19.3 46.3 19.25 46.2 19.2 46.2 19.15 46.35 18.55 46.35 17.8 46.35 17 46.35 16.25 46.35 15.45 46.4 14.9 46.35 14.9 46.25 14.9 46.2 14.9 46.2 14.85 46.4 14.55 46.35 14.1 46.35 13.7 46.3 13.25 46.3 12.85 46.5 12.55 46.4 12.5 46.35 12.45 46.25 12.4 46.2 12.35 46.45 12.05 46.35 11.55 46.25 11.05 46.4 10.75 46.2 10.7 46.1 10.65 45.95 10.55 45.8 10.5 45.65 10.6 45.55 10.75 45.45 10.9 45.2 10.85
L 45.2 10.6
Q 45 10.6 44.85 10.7 44.75 10.8 44.5 10.75 44.45 10.65 44.55 10.65 44.65 10.65 44.6 10.5 44.55 10.55 44.45 10.6 44.35 10.65 44.2 10.6 44.2 10.55 44.15 10.5
L 44.1 10.45
Q 43.85 10.45 43.65 10.5 43.45 10.5 43.25 10.6 43.2 10.45 43.05 10.5 42.85 10.5 42.8 10.35 42.65 10.45 42.6 10.45
M 43.9 14.4
Q 43.85 14.65 43.9 14.85 43.7 14.8 43.75 14.5 43.8 14.25 43.8 14.05 43.9 14.1 43.9 14.4
M 45.1 16.6
Q 44.9 16.55 44.9 16.35 44.85 16.15 44.8 16 44.8 15.9 44.8 15.75 44.8 15.55 44.8 15.25 45 15.45 45 15.85 45 16.25 45.1 16.6
M 43.45 19.25
Q 43.4 19.5 43.4 19.65 43.25 19.65 43.3 19.4 43.3 19.2 43.3 19 43.45 19.05 43.45 19.25
M 43.85 21.55
Q 43.95 21.5 43.9 21.35 44.05 21.4 44 21.55 43.9 21.75 43.8 21.75 43.8 21.65 43.85 21.55
M 42.9 23.75
Q 42.85 23.9 42.9 24.05 42.75 24.05 42.75 23.85 42.8 23.65 42.8 23.55 42.95 23.55 42.9 23.75
M 43.5 23.05
Q 43.55 23 43.55 22.95 43.7 23.15 43.55 23.45 43.4 23.7 43.4 24.05 43.25 24.1 43.2 24 43.15 23.95 43.1 23.9 43.1 23.75 43.15 23.6 43.25 23.5 43.2 23.3 43.35 23.25 43.3 23.4 43.25 23.55 43.35 23.55 43.45 23.5 43.4 23.35 43.4 23.2 43.4 23.1 43.5 23.1 43.5 23.05
M 43.2 24.4
Q 43.35 24.4 43.35 24.6 43.35 24.8 43.2 24.8
L 43.2 24.4
M 46.1 21.85
Q 46 21.95 45.95 22.1 45.95 22.25 45.95 22.45 45.85 22.45 45.85 22.25 45.9 22.1 45.85 21.95 46 22 45.95 21.9 45.95 21.8 46.1 21.85
M 45.85 23.2
Q 45.7 23.2 45.7 23.05 45.75 22.95 45.75 22.85 45.9 22.8 45.85 22.95 45.85 23.05 45.85 23.2
M 45.95 24.8
L 46.1 24.8 46.1 25.3 45.95 25.3 45.95 24.8
M 45.5 24.9
L 45.5 25.3
Q 45.3 25.3 45.25 25.2 45.2 25.1 45.2 24.9
L 45.5 24.9
M 45.1 25.45
Q 45 25.25 45.2 25.15 45.2 25.35 45.2 25.45 45.2 25.6 45.25 25.7 45.15 25.7 45.1 25.45
M 43.1 25.15
Q 43.2 25.15 43.2 25.1 43.2 25 43.3 25.05 43.25 25.15 43.2 25.2 43.2 25.3 43.4 25.3 43.35 25.75 43.5 26.1 43.65 26.4 43.8 26.7 43.7 26.75 43.65 26.85 43.65 26.9 43.55 26.9 43.5 26.75 43.55 26.6 43.55 26.45 43.5 26.35 43.4 26.5 43.4 26.7 43.4 26.9 43.2 26.9 43.25 26.75 43.3 26.6 43.3 26.4 43.4 26.3 43.15 26.15 43.2 25.9 43.3 25.65 43.25 25.4 43.15 25.4 43.2 25.6 43.25 25.75 43.1 25.7
L 43.1 25.15
M 44 25.8
Q 44.15 25.9 44.1 26.2 44.1 26.55 44.1 26.8 43.95 26.65 44 26.35 44.05 26.05 44 25.8
M 44.6 26.9
L 44.6 26.6
Q 44.75 26.55 44.75 26.75 44.75 26.9 44.6 26.9
M 45.15 26.8
Q 45.1 26.95 45 27 45.05 26.75 45.05 26.6 45.1 26.5 45 26.25 45.1 26.3 45.15 26.35 45.2 26.4 45.2 26.2 45.25 26.2 45.25 26.4 45.25 26.6 45.15 26.8
M 44.6 29.3
L 44.7 29.3
Q 44.75 29.25 44.8 29.2 44.95 29.3 44.9 29.55 44.8 29.85 44.8 30
L 44.4 30
Q 44.4 29.8 44.3 29.7 44.2 29.6 44.2 29.45 44.4 29.4 44.45 29.5 44.5 29.65 44.6 29.75 44.65 29.75 44.65 29.6 44.6 29.45 44.6 29.3
M 43.2 29.05
L 43.4 29.05
Q 43.4 29.2 43.35 29.25 43.3 29.3 43.2 29.3
L 43.2 29.05
M 44 28.95
L 44 28.65
Q 44.15 28.65 44.15 28.85 44.15 29 44 28.95
M 43.1 29.65
Q 43.1 29.55 43.1 29.5 43.05 29.4 43.2 29.45 43.15 29.6 43.2 29.65 43.3 29.7 43.3 29.75 43.2 29.8 43.2 29.7 43.2 29.65 43.1 29.65
M 43.3 30.8
Q 43.3 30.75 43.4 30.75 43.4 30.95 43.45 30.95 43.55 31 43.55 31.1 43.4 31.15 43.4 31.05 43.4 31 43.3 31 43.3 30.9 43.3 30.8
M 44.2 30.85
Q 44.1 30.7 44.2 30.45 44.4 30.5 44.4 30.85 44.45 31.15 44.2 31.3 44.1 31.25 44 31.1 43.9 30.95 43.9 30.75 44.05 30.75 44.1 30.9 44.1 31 44.2 31.1 44.35 31.05 44.2 30.85
M 44.9 30.65
Q 44.85 30.6 44.8 30.55 44.7 30.7 44.75 31.05 44.8 31.35 44.7 31.5 44.45 31.4 44.5 31.15 44.55 30.95 44.6 30.65 44.7 30.35 44.6 30.05 44.85 30.15 44.95 30.4 45.1 30.65 45 30.75 44.95 30.65 44.9 30.65
M 45.4 31.3
Q 45.2 31.25 45.15 31.2 45.1 31.05 45.1 30.9 45.2 30.9 45.25 31.05 45.3 31.2 45.4 31.3
M 44.3 31.6
L 44.5 31.6
Q 44.45 31.95 44.6 31.95 44.8 32 44.8 32.2 44.9 32.25 44.9 32.15 44.85 32.05 45 32.1 44.9 32.25 44.9 32.4 44.95 32.5 45.1 32.6 45 32.75 45 32.8 45 32.85 45.1 33 44.95 33 45 32.9 45 32.85 44.9 32.85 44.85 32.75 44.9 32.75 44.95 32.75 45 32.7 44.9 32.6 44.8 32.5 44.7 32.35 44.6 32.3 44.45 32.35 44.55 32.45 44.6 32.55 44.6 32.6 44.5 32.6 44.5 32.65 44.55 32.75 44.4 32.75 44.3 32.35 44.35 32.15 44.4 31.95 44.3 31.6
M 45.55 31.85
Q 45.45 31.8 45.5 31.6 45.65 31.7 45.75 31.8 45.85 31.9 45.85 32.1
L 45.6 32.1
Q 45.65 31.9 45.55 31.85
M 44.6 32.85
Q 44.45 33.05 44.65 33.2 44.8 33.35 44.8 33.7 44.6 33.55 44.5 33.35 44.4 33.15 44.4 32.85
L 44.6 32.85
M 44.9 34.45
Q 44.9 34.6 44.8 34.6
L 44.8 34.3
Q 44.9 34.3 44.9 34.45
M 75.9 20.45
Q 75.9 20.85 75.8 21.1 75.75 21.3 75.9 21.65 76.05 21.65 76.05 21.55 76.05 21.45 76.2 21.5 76 21.3 76 20.9 76 20.5 76.2 20.35 76.05 20.3 76.05 20.4 76.05 20.5 75.9 20.45
M 76.2 17.9
L 76.2 18.2
Q 76.3 18.2 76.35 18.1 76.45 18 76.5 17.9
L 76.2 17.9
M 65.1 11.65
Q 65 11.85 65.05 12.1 65.1 12.35 65.15 12.6 65.2 12.85 65 13.05 65.1 13.05 65.15 13.05 65.25 13.05 65.25 13.15 65.25 13.25 65.2 13.3 65.15 13.4 65 13.4 65.1 13.55 65.1 13.7 65.1 13.8 65 13.95 65.15 14 65.15 14.15 65.15 14.3 65.25 14.4 65.1 14.45 65.05 14.55 64.95 14.6 64.9 14.75 65.05 14.7 65.1 14.8 65.2 14.85 65.25 14.9 65.05 14.95 65.2 15 65.3 15.1 65.25 15.25 65.15 15.25 65.1 15.35 65.05 15.4 65 15.5 65.1 15.6 65.1 15.75 65.15 15.95 65.25 16 65.15 16.05 65.1 16.15 65.1 16.3 65 16.35 65.1 16.35 65.15 16.4 65.2 16.5 65.25 16.55 65.1 16.65 65.2 16.8 65.25 16.9 65.1 17.1 65.2 17.15 65.3 17.05 65.35 17 65.4 17.1 65.25 17.1 65.2 17.2 65.2 17.3 65 17.2 65.05 17.5 65.05 17.6 65.1 17.7 65 17.9 65.1 17.95 65.15 17.95
L 65.25 17.95
Q 65.25 18.15 65.2 18.2 65.15 18.3 65 18.3 65.1 18.45 65.1 18.5 65.05 18.55 65 18.75 65.1 18.85 65.15 18.95 65.25 19.05 65.4 19.1 65.3 19.15 65.2 19.2 65.1 19.25 65.1 19.45 65.35 19.4 65.35 19.5 65.4 19.65 65.5 19.75 65.4 19.8 65.3 19.85 65.25 19.9 65.25 20 65.35 20.15 65.35 20.5 65.35 20.8 65.25 20.95 65.3 21 65.4 21 65.45 21 65.5 21.05 65.35 21.05 65.35 21.2 65.35 21.4 65.25 21.4 65.3 21.5 65.3 21.55 65.3 21.65 65.25 21.75 65.3 21.9 65.35 22.15 65.4 22.45 65.2 22.5 65.25 22.55 65.25 22.6 65.25 22.65 65.4 22.6 65.3 23 65.3 23.25 65.25 23.55 65.25 24.05 65.35 24.05 65.4 24.1 65.45 24.2 65.5 24.25 65.45 24.55 65.35 25 65.3 25.45 65.5 25.8 65.3 25.8 65.4 25.85 65.5 25.9 65.5 26
L 65.25 26
Q 65.3 26.15 65.4 26.2 65.55 26.3 65.5 26.5
L 65.7 26.5
Q 65.75 26.3 65.7 26.1 65.7 25.9 65.8 25.8 65.8 26.05 65.8 26.35 65.8 26.65 65.65 26.8 65.6 26.75 65.5 26.7 65.4 26.65 65.4 26.8 65.5 26.8 65.55 26.9 65.65 27 65.55 27.1 65.45 27.1 65.5 27 65.55 26.85 65.4 26.9 65.4 27.15 65.35 27.45 65.3 27.75 65.5 27.85 65.5 27.7 65.5 27.5 65.45 27.3 65.55 27.25 65.7 27.2 65.75 27.35 65.8 27.45 65.8 27.6 65.9 27.65 65.9 27.5 65.85 27.35 65.95 27.35 66.05 27.4 66.1 27.55 66.15 27.7 66.25 27.85 66.15 27.85 66.1 27.85
L 66 27.85
Q 66.15 27.9 66.15 28.05 66.2 28.2 66.35 28.25 66.35 28.3 66.35 28.35 66 28.25 65.9 27.95 65.8 27.7 65.6 27.45 65.6 27.6 65.6 27.7 65.65 27.85 65.7 27.85 65.5 27.95 65.5 28.25 65.5 28.55 65.4 28.65 65.5 28.8 65.5 29 65.5 29.2 65.4 29.3 65.5 29.35 65.5 29.5 65.5 29.7 65.6 29.75 65.5 29.8 65.5 29.7 65.5 29.65 65.4 29.65 65.45 30.05 65.45 30.3 65.45 30.55 65.4 30.8 65.45 30.85 65.5 30.95 65.55 31 65.6 31.05 65.45 31.1 65.5 31.2 65.55 31.3 65.6 31.4 65.5 31.4 65.45 31.5 65.4 31.55 65.4 31.6 65.55 31.7 65.6 31.85 65.6 31.95 65.55 32 65.45 32.1 65.4 32.1 65.45 32.2 65.5 32.35 65.55 32.5 65.6 32.6
L 65.4 32.6
Q 65.45 32.75 65.45 32.8 65.45 32.85 65.4 33 65.55 33.3 65.55 33.7 65.5 34.1 65.6 34.3 65.55 34.3 65.5 34.55 65.5 34.75 65.6 34.9 65.5 34.9 65.5 35 65.5 35.1 65.4 35.05 65.35 35.15 65.45 35.2 65.55 35.25 65.5 35.4 65.6 35.45 65.8 35.45 66 35.45 66 35.6 66.2 35.45 66.55 35.5 66.85 35.55 67.1 35.45
L 67.1 35.7
Q 67.25 35.55 67.45 35.45 67.65 35.4 67.95 35.45
L 67.95 35.7
Q 68.1 35.6 68.2 35.55 68.3 35.5 68.45 35.45
L 68.45 35.7
Q 68.75 35.55 68.9 35.1 69 34.65 68.8 34.3 68.9 34.3 68.9 34.2 68.85 34.05 68.95 34.1 68.9 33.95 68.9 33.9 68.9 33.85 69 33.7 68.95 33.45 68.85 33.15 68.8 32.8 68.7 32.5 68.8 32.5 68.8 32.55 68.8 32.65 68.9 32.6 68.85 32.4 68.9 32.35 68.95 32.25 69 32.15 68.9 32 68.95 31.8 69 31.65 69 31.5 69 31.3 68.8 31.1 68.9 31.15 68.9 31.05 68.9 31 69 31 68.95 30.6 69 30.4 69 30.15 68.9 29.9 69.1 29.85 69.05 29.65 69 29.5 69.1 29.3 68.9 29.2 68.9 29 68.95 28.75 69.05 28.5 69.1 28.25 68.9 28 69.05 27.95 69.05 27.75 69.05 27.6 69.1 27.45 68.85 27.5 68.9 27.35 68.95 27.2 69 27.1 68.9 27.1 68.9 27 68.9 26.9 68.8 26.8 68.9 26.8 68.9 26.6 68.9 26.45 68.9 26.25 68.7 26.4 68.65 26.7 68.6 27 68.5 27.25 68.4 26.8 68.6 26.35 68.8 25.9 68.85 25.4 68.9 25.4 68.9 25.45 68.9 25.5 69 25.5 68.95 25.2 68.95 25.1 68.95 25 68.9 24.8 69.05 24.8 69 24.75 68.95 24.65 68.9 24.6 69.1 24.6 69 24.4 68.95 24.25 68.9 24.2 69.1 24.05 69.05 23.75 69.05 23.45 68.9 23.35 69.05 23.2 69.05 22.95 69 22.7 69.1 22.5 69.05 22.5 68.95 22.5 68.9 22.5 68.9 22.45 69.05 22.4 69.05 22.1 69 21.85 68.9 21.8 69.05 21.7 69 21.65 68.95 21.65 68.9 21.5 68.95 21.5 69 21.5 69.05 21.45 69.1 21.4 69.05 21 68.9 20.65 68.8 20.25 68.85 19.9 68.95 19.85 69 19.9 69 19.95 69.1 20 69.05 19.75 69.05 19.65 69.05 19.45 68.9 19.35 69.05 19.3 69 19.25 68.9 19.2 68.9 19.15 69.05 18.55 69.05 17.8 69.05 17 69.05 16.25 69.05 15.45 69.1 14.9 69.05 14.9 68.95 14.9 68.9 14.9 68.9 14.85 69.1 14.55 69.05 14.1 69.05 13.7 69 13.25 69 12.85 69.2 12.55 69.1 12.5 69.05 12.45 68.95 12.4 68.9 12.35 69.15 12.05 69.05 11.55 68.95 11.05 69.1 10.75 68.9 10.7 68.8 10.65 68.65 10.55 68.5 10.5 68.35 10.6 68.25 10.75 68.15 10.9 67.9 10.85
L 67.9 10.6
Q 67.7 10.6 67.55 10.7 67.45 10.8 67.2 10.75 67.15 10.65 67.25 10.65 67.35 10.65 67.3 10.5 67.25 10.55 67.15 10.6 67.05 10.65 66.9 10.6 66.9 10.55 66.85 10.5
L 66.8 10.45
Q 66.55 10.45 66.35 10.5 66.15 10.5 65.95 10.6 65.9 10.45 65.75 10.5 65.55 10.5 65.5 10.35 65.35 10.45 65.3 10.45
L 65.1 10.35
Q 65.05 10.45 65.1 10.55 65.15 10.7 65 10.85 65.15 11 65.05 11.25 64.95 11.5 65.1 11.65
M 66.6 14.85
Q 66.4 14.8 66.45 14.5 66.5 14.25 66.5 14.05 66.6 14.1 66.6 14.4 66.55 14.65 66.6 14.85
M 67.8 16.6
Q 67.6 16.55 67.6 16.35 67.55 16.15 67.5 16 67.5 15.9 67.5 15.75 67.5 15.55 67.5 15.25 67.7 15.45 67.7 15.85 67.7 16.25 67.8 16.6
M 65.6 24.05
Q 65.45 24.05 65.45 23.85 65.5 23.65 65.5 23.55 65.65 23.55 65.6 23.75 65.55 23.9 65.6 24.05
M 66.55 21.55
Q 66.65 21.5 66.6 21.35 66.75 21.4 66.7 21.55 66.6 21.75 66.5 21.75 66.5 21.65 66.55 21.55
M 66.1 19.65
Q 65.95 19.65 66 19.4 66 19.2 66 19 66.15 19.05 66.15 19.25 66.1 19.5 66.1 19.65
M 66.2 23.05
Q 66.25 23 66.25 22.95 66.4 23.15 66.25 23.45 66.1 23.7 66.1 24.05 65.95 24.1 65.9 24 65.85 23.95 65.8 23.9 65.8 23.75 65.85 23.6 65.95 23.5 65.9 23.3 66.05 23.25 66 23.4 65.95 23.55 66.05 23.55 66.15 23.5 66.1 23.35 66.1 23.2 66.1 23.1 66.2 23.1 66.2 23.05
M 65.9 24.4
Q 66.05 24.4 66.05 24.6 66.05 24.8 65.9 24.8
L 65.9 24.4
M 68.55 22.25
Q 68.6 22.1 68.55 21.95 68.7 22 68.65 21.9 68.65 21.8 68.8 21.85 68.7 21.95 68.65 22.1 68.65 22.25 68.65 22.45 68.55 22.45 68.55 22.25
M 68.55 23.2
Q 68.4 23.2 68.4 23.05 68.45 22.95 68.45 22.85 68.6 22.8 68.55 22.95 68.55 23.05 68.55 23.2
M 68.65 24.8
L 68.8 24.8 68.8 25.3 68.65 25.3 68.65 24.8
M 67.9 24.9
L 68.2 24.9 68.2 25.3
Q 68 25.3 67.95 25.2 67.9 25.1 67.9 24.9
M 67.9 25.45
Q 67.9 25.6 67.95 25.7 67.85 25.7 67.8 25.45 67.7 25.25 67.9 25.15 67.9 25.35 67.9 25.45
M 66.1 25.3
Q 66.05 25.75 66.2 26.1 66.35 26.4 66.5 26.7 66.4 26.75 66.35 26.85 66.35 26.9 66.25 26.9 66.2 26.75 66.25 26.6 66.25 26.45 66.2 26.35 66.1 26.5 66.1 26.7 66.1 26.9 65.9 26.9 65.95 26.75 66 26.6 66 26.4 66.1 26.3 65.85 26.15 65.9 25.9 66 25.65 65.95 25.4 65.85 25.4 65.9 25.6 65.95 25.75 65.8 25.7
L 65.8 25.15
Q 65.9 25.15 65.9 25.1 65.9 25 66 25.05 65.95 25.15 65.9 25.2 65.9 25.3 66.1 25.3
M 66.7 25.8
Q 66.85 25.9 66.8 26.2 66.8 26.55 66.8 26.8 66.65 26.65 66.7 26.35 66.75 26.05 66.7 25.8
M 67.85 26.8
Q 67.8 26.95 67.7 27 67.75 26.75 67.75 26.6 67.8 26.5 67.7 26.25 67.8 26.3 67.85 26.35 67.9 26.4 67.9 26.2 67.95 26.2 67.95 26.4 67.95 26.6 67.85 26.8
M 67.3 26.9
L 67.3 26.6
Q 67.45 26.55 67.45 26.75 67.45 26.9 67.3 26.9
M 67.3 29.3
L 67.4 29.3
Q 67.45 29.25 67.5 29.2 67.65 29.3 67.6 29.55 67.5 29.85 67.5 30
L 67.1 30
Q 67.1 29.8 67 29.7 66.9 29.6 66.9 29.45 67.1 29.4 67.15 29.5 67.2 29.65 67.3 29.75 67.35 29.75 67.35 29.6 67.3 29.45 67.3 29.3
M 65.9 29.05
L 66.1 29.05
Q 66.1 29.2 66.05 29.25 66 29.3 65.9 29.3
L 65.9 29.05
M 66.7 28.95
L 66.7 28.65
Q 66.85 28.65 66.85 28.85 66.85 29 66.7 28.95
M 66.6 30.75
Q 66.75 30.75 66.8 30.9 66.8 31 66.9 31.1 67.05 31.05 66.9 30.85 66.8 30.7 66.9 30.45 67.1 30.5 67.1 30.85 67.15 31.15 66.9 31.3 66.8 31.25 66.7 31.1 66.6 30.95 66.6 30.75
M 66 30.8
Q 66 30.75 66.1 30.75 66.1 30.95 66.15 30.95 66.25 31 66.25 31.1 66.1 31.15 66.1 31.05 66.1 31 66 31 66 30.9 66 30.8
M 66 29.75
Q 65.9 29.8 65.9 29.7 65.9 29.65 65.8 29.65 65.8 29.55 65.8 29.5 65.75 29.4 65.9 29.45 65.85 29.6 65.9 29.65 66 29.7 66 29.75
M 67.7 30.75
Q 67.65 30.65 67.6 30.65 67.55 30.6 67.5 30.55 67.4 30.7 67.45 31.05 67.5 31.35 67.4 31.5 67.15 31.4 67.2 31.15 67.25 30.95 67.3 30.65 67.4 30.35 67.3 30.05 67.55 30.15 67.65 30.4 67.8 30.65 67.7 30.75
M 68.45 31.8
Q 68.55 31.9 68.55 32.1
L 68.3 32.1
Q 68.35 31.9 68.25 31.85 68.15 31.8 68.2 31.6 68.35 31.7 68.45 31.8
M 67.95 31.05
Q 68 31.2 68.1 31.3 67.9 31.25 67.85 31.2 67.8 31.05 67.8 30.9 67.9 30.9 67.95 31.05
M 67.6 32.15
Q 67.55 32.05 67.7 32.1 67.6 32.25 67.6 32.4 67.65 32.5 67.8 32.6 67.7 32.75 67.7 32.8 67.7 32.85 67.8 33 67.65 33 67.7 32.9 67.7 32.85 67.6 32.85 67.55 32.75 67.6 32.75 67.65 32.75 67.7 32.7 67.6 32.6 67.5 32.5 67.4 32.35 67.3 32.3 67.15 32.35 67.25 32.45 67.3 32.55 67.3 32.6 67.2 32.6 67.2 32.65 67.25 32.75 67.1 32.75 67 32.35 67.05 32.15 67.1 31.95 67 31.6
L 67.2 31.6
Q 67.15 31.95 67.3 31.95 67.5 32 67.5 32.2 67.6 32.25 67.6 32.15
M 67.1 32.85
L 67.3 32.85
Q 67.15 33.05 67.35 33.2 67.5 33.35 67.5 33.7 67.3 33.55 67.2 33.35 67.1 33.15 67.1 32.85
M 67.5 34.6
L 67.5 34.3
Q 67.6 34.3 67.6 34.45 67.6 34.6 67.5 34.6
M 61.8 11.7
Q 61.45 11.4 60.85 11.35 60.9 11.2 60.8 11.25 60.7 11.25 60.75 11.1 60.65 11.1 60.65 11.15 60.65 11.25 60.55 11.25 60.45 11 60.25 10.95 60 10.85 59.85 10.95 59.85 10.9 59.8 10.9 59.75 10.85 59.75 10.75 59.65 10.75 59.55 10.75 59.4 10.8 59.45 10.65 59.25 10.75 59.2 10.7 59.1 10.65 58.95 10.75
L 58.95 10.55
Q 58.8 10.65 58.7 10.6 58.6 10.5 58.45 10.65
L 58.45 10.4
Q 58.25 10.65 57.95 10.6 57.7 10.6 57.45 10.4 57.45 10.5 57.45 10.6 57.45 10.7 57.35 10.65
L 57.35 10.4
Q 56.85 10.4 56.6 10.65
L 56.6 10.4
Q 56.45 10.55 56.2 10.65 56 10.7 55.8 10.55 55.75 10.7 55.6 10.75 55.4 10.75 55.3 10.65 55.1 10.75 54.85 10.9 54.6 11 54.4 11.1 54.3 11 54.15 11.05 54.05 11.1 53.9 11.2 53.75 11.25 53.6 11.1 53.6 11.35 53.4 11.4 53.15 11.5 53 11.55 52.8 11.6 52.75 11.85 52.7 11.85 52.7 11.8 52.7 11.7 52.6 11.75 52.6 11.85 52.5 11.9 52.45 11.95 52.5 12.1 52.25 12.05 52.25 12.2 52.2 12.4 51.95 12.3 51.7 12.75 51.4 13.1 51.05 13.45 50.85 13.95
L 50.65 13.95
Q 50.65 14 50.65 14.1 50.65 14.2 50.55 14.2 50.5 14.3 50.6 14.3 50.7 14.35 50.65 14.5 50.5 14.55 50.5 14.6 50.45 14.7 50.25 14.6 50.3 14.85 50.25 15.05 50.2 15.25 50 15.3
L 50 15.75 49.9 15.75
Q 49.85 15.8 49.75 15.8 49.8 16.2 49.65 16.4 49.5 16.6 49.55 17 49.3 17.25 49.15 17.8 49 18.35 49.2 18.65 49.1 18.65 49.1 18.75 49.05 18.85 48.9 18.85 48.95 19.15 48.85 19.6 48.75 20.05 48.9 20.3 48.75 20.35 48.75 20.25 48.8 20.15 48.65 20.2 48.75 20.5 48.7 20.7 48.7 20.95 48.75 21.15 48.65 21.15 48.65 21.05 48.7 20.95 48.55 21 48.5 21.2 48.6 21.2 48.75 21.15 48.75 21.25 48.8 21.3 48.75 21.35 48.75 21.4 48.7 21.4 48.65 21.4 48.65 21.35 48.65 21.3 48.55 21.3 48.65 21.45 48.65 21.65 48.65 21.9 48.55 22 48.6 22 48.7 22 48.75 22 48.75 22.05 48.75 22.2 48.7 22.35 48.6 22.5 48.55 22.6 48.7 22.7 48.7 22.8 48.75 22.95 48.9 23 48.9 23.2 48.9 23.45 48.95 23.7 48.75 23.7
L 48.75 23.3
Q 48.7 23.3 48.65 23.35 48.6 23.35 48.55 23.4 48.65 23.55 48.7 23.75 48.85 23.9 48.75 24.2
L 48.55 24.2
Q 48.65 24.3 48.75 24.35 48.85 24.45 48.75 24.7 48.95 24.65 48.95 24.45 49 24.3 49.1 24.2 48.95 24.85 48.9 25.45 48.8 26 48.75 26.35 48.9 26.5 48.9 26.8 48.9 27.1 49.1 27.25
L 49.1 26.5
Q 49.25 26.45 49.3 26.25 49.35 26.05 49.45 25.95 49.25 25.5 49.3 24.9 49.3 24.3 49.1 23.95 49.2 24 49.2 23.9 49.2 23.8 49.3 23.8 49.15 23.55 49.2 23.3 49.25 23.05 49.3 22.75 49.4 21.75 49.35 20.75 49.25 19.75 49.25 18.85 49.4 19.7 49.55 20.75 49.7 21.75 49.45 22.55 49.45 22.65 49.55 22.6 49.7 22.6 49.65 22.75 49.4 22.7 49.45 22.8 49.45 22.95 49.55 23.05 49.6 23.2 49.45 23.3 49.4 23.3 49.4 23.25 49.4 23.2 49.3 23.2 49.5 23.35 49.5 23.65 49.5 23.95 49.55 24.25 49.55 24.55 49.75 24.7 49.8 24.6 49.75 24.45 49.75 24.35 49.85 24.3 49.9 24.6 49.75 25.05 49.6 25.45 49.75 25.7
L 49.55 25.7 49.55 27.75
Q 49.7 27.7 49.75 27.55 49.75 27.4 49.85 27.25 49.9 27.65 49.7 27.95 49.55 28.3 49.45 28.7 49.4 28.6 49.45 28.35 49.45 28.1 49.3 28.05 49.5 27.9 49.4 27.65 49.25 27.45 49.3 27.15 49.05 27.25 49.1 27.6 49.15 27.95 49.1 28.15 49.15 28.15 49.2 28.1 49.3 28.1 49.3 28.15 49.2 28.25 49.2 28.3 49.2 28.35 49.3 28.4 49.15 28.5 49.2 28.7 49.25 28.85 49.3 29 49.35 29.2 49.2 29.3 49.3 29.35 49.3 29.25 49.3 29.2 49.45 29.2 49.4 29.3 49.3 29.45 49.4 29.45 49.5 29.35 49.55 29.25 49.65 29.4 49.55 29.65 49.55 29.8 49.55 30 49.65 30.2 49.55 30.3 49.6 30.4 49.65 30.45 49.55 30.7 49.6 30.7 49.65 30.7 49.75 30.65 49.75 30.7 49.8 31.15 50 31.45 50.2 31.7 50.15 32.2 50.3 32.1 50.4 32.2 50.45 32.25 50.55 32.35 50.5 32.4 50.45 32.4 50.4 32.4 50.4 32.5 50.65 32.45 50.65 32.6 50.65 32.8 50.65 33 50.8 33.05 50.95 33.05 51.1 33.05 51.25 33.2 51.25 33.25 51.25 33.35 51.25 33.45 51.25 33.5 51.4 33.6 51.6 33.7 51.8 33.75 51.85 33.95 52.15 33.9 52.25 34.05 52.35 34.15 52.5 34.3 52.45 34.35 52.4 34.4 52.35 34.4 52.35 34.45 52.5 34.5 52.5 34.4 52.5 34.35 52.6 34.35 52.6 34.15 52.6 33.95 52.6 33.75 52.5 33.65 52.6 33.65 52.6 33.45 52.55 33.3 52.75 33.3
L 52.75 34.35
Q 52.9 34.4 53.05 34.45 53.2 34.5 53.2 34.7
L 53.3 34.65 53.45 34.7 53.45 34.1
Q 53.6 34.1 53.6 34.05 53.6 33.95 53.7 33.95 53.75 34.15 53.65 34.25 53.55 34.3 53.6 34.45 53.85 34.05 53.9 33.35 53.95 32.7 54.3 32.3 54.3 32.6 54.15 32.85 54.1 33.1 54.05 33.4 54.15 33.4 54.15 33.35 54.15 33.25 54.3 33.3 54.1 33.65 53.95 34.05 53.8 34.45 53.7 34.95 53.9 34.95 53.9 34.8 53.95 34.6 54 34.45 54 34.8 54.25 34.9 54.45 35 54.7 35.05 54.65 34.85 54.7 34.7 54.8 34.55 54.9 34.45 54.95 34.7 54.85 34.85 54.75 34.95 54.8 35.15 54.95 35.05 55 35.1 55.05 35.15 55.3 35.15 55.15 34.6 55.3 34.05 55.45 33.55 55.4 32.75 55.15 32.95 55.15 33.4 55.15 33.9 55.1 34.25
L 55.05 34.2 55.05 34.15
Q 54.9 34.1 54.9 34.2 54.9 34.3 54.8 34.25 55.1 33.75 54.95 33.25 54.8 32.75 54.7 32.3 54.85 32.45 54.9 32.7 54.95 32.95 55.15 33.1 55.1 32.75 55.2 32.55 55.3 32.35 55.4 32.2 55.15 32.2 55.1 32.05 55.1 31.9 54.9 31.9 54.8 31.95 54.7 32 54.6 32.05 54.45 32 54.5 31.8 54.35 31.75 54.25 31.75 54.3 31.5 54.05 31.55 53.9 31.45 53.75 31.35 53.6 31.3 53.55 31.4 53.65 31.4 53.75 31.4 53.7 31.5 53.6 31.55 53.55 31.6 53.5 31.7 53.35 31.65
L 53.35 31 53.2 30.95
Q 53.3 30.9 53.3 30.8 53.15 30.8 53.1 30.75 53.05 30.7 52.95 30.7 52.95 30.75 52.95 30.85 52.95 30.95 52.85 30.9 52.8 30.65 52.9 30.55 53 30.45 52.95 30.2 52.45 30 52.25 29.45 52.1 28.9 51.95 28.35 51.7 28.55 51.7 29 51.75 29.5 51.6 29.85 51.55 29.85 51.5 29.85 51.45 29.8 51.35 29.8 51.35 30 51.4 30.25 51.45 30.55 51.35 30.7 51.15 30.4 51.25 29.85 51.35 29.35 51.25 29.1 51.35 29.05 51.35 29.15 51.35 29.25 51.5 29.2 51.45 29.05 51.55 29 51.6 28.95 51.6 28.85 51.55 28.65 51.5 28.15 51.45 27.65 51.6 27.25 51.5 27.05 51.55 26.9 51.55 26.75 51.6 26.55 51.55 26.55 51.5 26.65 51.45 26.75 51.35 26.65 51.5 26.45 51.45 26.2 51.4 26 51.35 25.7 51.35 25.45 51.5 25.3 51.25 25.05 51.25 24.45 51.2 23.9 51.35 23.4 51.2 23.25 51.25 23.05 51.35 22.9 51.35 22.75 51.45 22.15 51.35 21.65 51.3 21.1 51.35 20.55 51.5 20.65 51.5 20.9 51.5 21.15 51.5 21.4 51.6 21.25 51.7 21.05 51.75 20.9 51.85 20.7 51.45 20.5 51.35 19.95 51.25 19.45 51.25 19.1
L 51.5 19.1
Q 51.45 19.25 51.55 19.3 51.65 19.35 51.6 19.5 51.5 19.6 51.5 19.85 51.5 20.1 51.5 20.3
L 51.85 20.3
Q 51.7 20.15 51.75 20 51.85 19.8 51.9 19.65 52 19.45 51.85 19.35 52.05 19.2 52.1 18.9 52.15 18.65 52.2 18.35 52.25 18.1 52.5 17.95 52.5 17.65 52.6 17.45 52.75 17.2 52.75 16.9
L 52.95 16.9
Q 52.9 16.65 53.05 16.55 53.15 16.4 53.2 16.25 53.1 16.25 53 16.25 52.9 16.25 52.95 16.15 53.15 16.2 53.15 16.05 53.15 15.85 53.35 15.9 53.3 15.8 53.35 15.75 53.35 15.65 53.35 15.5
L 53.6 15.5 53.6 15.05
Q 53.7 15 53.8 14.9 53.85 14.85 53.8 14.7 54 14.7 54.1 14.6 54.15 14.45 54.2 14.3 54.35 14.3 54.4 14.2 54.5 14.1 54.45 13.95
L 54.7 13.95 54.7 13.6
Q 54.9 13.6 55.05 13.5 55.2 13.45 55.4 13.4 55.45 13.15 55.65 13 55.9 12.85 56.25 12.85 56.25 12.75 56.25 12.7 56.25 12.65 56.3 12.6 56.45 12.75 56.6 12.7 56.75 12.6 56.95 12.5 57.1 12.45 57.25 12.6 57.35 12.45 57.65 12.45 57.9 12.45 58.15 12.45 58.4 12.5 58.55 12.3 58.55 12.5 58.7 12.5 58.85 12.5 58.85 12.6 58.95 12.65 58.95 12.55 58.95 12.45 59.05 12.5 59.25 12.7 59.45 12.75 59.7 12.85 60.05 12.85 60.05 12.95 60.15 13 60.2 13 60.15 13.2 60.35 13.25 60.35 13.15 60.4 13.05 60.55 13.1 60.6 13.25 60.75 13.35 60.85 13.45 61.05 13.3 61.1 13.45 61 13.4 60.9 13.4 60.95 13.55 61.25 13.55 61.45 13.6 61.65 13.7 61.85 13.8 61.85 13.7 61.85 13.55 61.8 13.35 61.9 13.3 62 13.3 62 13.45 62 13.6 62 13.75 61.95 13.85 62.05 13.8 62.05 13.55 62.25 13.45 62.45 13.4 62.75 13.4 62.75 13.25 62.9 13.2 63.05 13.2 63.1 13.1 63.1 12.9 62.95 12.75 62.8 12.55 63 12.45 62.9 12.45 62.9 12.4 62.85 12.4 62.85 12.3 62.75 12.35 62.65 12.4 62.55 12.5 62.4 12.45 62.15 12 61.8 11.7
M 49.75 21.4
Q 49.55 21.2 49.65 20.95 49.8 20.7 49.75 20.45 49.95 20.6 49.85 20.85 49.75 21.15 49.75 21.4
M 50.4 21.65
Q 50.4 21.5 50.4 21.4 50.55 21.4 50.55 21.5 50.5 21.65 50.55 21.75 50.4 21.75 50.4 21.65
M 50 24.5
Q 50.2 24.5 50.2 24.7 50.2 24.9 50 24.95
L 50 24.5
M 54.7 13.1
Q 54.8 13.05 54.8 13.2 54.8 13.3 54.8 13.4 54.65 13.45 54.65 13.3 54.7 13.2 54.7 13.1
M 51.35 13.75
Q 51.35 13.85 51.5 13.8
L 51.5 14.2
Q 51.4 14.1 51.35 14 51.3 13.85 51.25 13.7 51.35 13.7 51.35 13.75
M 51.6 15.05
Q 51.6 15.2 51.6 15.3 51.7 15.4 51.75 15.5 51.6 15.5 51.55 15.4 51.5 15.3 51.35 15.3 51.4 15.15 51.45 15.1 51.5 15.05 51.6 15.05
M 51.4 15.75
Q 51.35 16.05 51.35 16.25 51.2 16.2 51.25 15.9 51.3 15.6 51.25 15.4 51.45 15.45 51.4 15.75
M 51.35 16.95
Q 51.4 16.75 51.35 16.6 51.55 16.6 51.5 16.8 51.5 17 51.5 17.15 51.35 17.1 51.35 16.95
M 51.75 18.35
Q 51.75 18.2 51.75 18.1 51.9 18.1 51.85 18.2 51.85 18.35 51.85 18.45 51.7 18.45 51.75 18.35
M 51.5 17.7
Q 51.35 17.7 51.35 17.6 51.4 17.45 51.35 17.35 51.5 17.35 51.5 17.45 51.5 17.6 51.5 17.7
M 50.95 22.75
Q 50.8 22.65 50.9 22.4 51 22.2 51.1 22.1 51.1 22.3 51 22.4 50.95 22.5 50.95 22.75
M 50.75 22
Q 50.7 22.25 50.75 22.4 50.55 22.35 50.6 22.15 50.65 21.95 50.65 21.75 50.8 21.8 50.75 22
M 50.95 25.05
Q 51 24.9 50.95 24.8 51.15 24.8 51.1 24.95 51.05 25.05 51.1 25.15 50.95 25.2 50.95 25.05
M 50.85 25.3
Q 51 25.25 51 25.4 51 25.6 50.85 25.55
L 50.85 25.3
M 50.75 25.95
Q 50.75 25.8 50.75 25.7 50.9 25.65 50.9 25.8 50.85 25.9 50.85 26.05 50.7 26.05 50.75 25.95
M 52.25 30.45
L 52.25 30.2 52.5 30.2
Q 52.5 30.3 52.45 30.35 52.35 30.4 52.25 30.45
M 50.65 27.3
Q 50.7 27.6 50.65 27.85 50.65 28.15 50.55 28.25 50.5 28 50.55 27.75 50.55 27.45 50.4 27.35 50.45 27.25 50.5 27.15 50.55 27.1 50.55 26.9 50.65 27.05 50.65 27.3
M 53.35 32
L 53.6 32 53.6 33.1
Q 53.4 32.95 53.35 32.65 53.35 32.35 53.35 32
M 53.85 32.8
Q 53.8 33 53.8 33.15 53.65 33.15 53.65 32.95 53.7 32.8 53.7 32.65 53.85 32.65 53.85 32.8
M 53.45 33.15
Q 53.6 33.1 53.6 33.2 53.6 33.3 53.7 33.3
L 53.7 33.85
Q 53.6 33.75 53.55 33.55 53.5 33.4 53.45 33.15
M 51 31.6
Q 50.95 31.7 50.85 31.8 50.9 31.6 50.95 31.5 51 31.35 51.1 31.3 51.1 31.45 51 31.6
M 51.85 33
L 51.75 33 51.75 32.5 51.85 32.5 51.85 33
M 50.4 25.4
Q 50.25 25.2 50.35 24.85 50.5 24.5 50.65 24.3 50.6 24.6 50.5 24.85 50.4 25.1 50.4 25.4
M 49.9 26.8
Q 49.95 26.7 49.95 26.6 50 26.45 50 26.25 50.15 26.4 50.15 26.65 50.15 26.9 50.15 27.2 50.1 27.25 50.1 27.1 50.15 26.95 50.1 26.85 50.05 26.7 49.9 26.8
M 50.4 27.45
Q 50.35 27.6 50.3 27.75 50.25 27.85 50.15 27.9 50.15 27.7 50.2 27.6 50.25 27.5 50.4 27.45
M 50 29.25
Q 50 29.35 49.9 29.3 49.95 29.15 49.95 28.95 50 28.75 50.1 28.55 50.2 28.75 50.2 29 50.15 29.3 50.15 29.5 50.1 29.65 50.1 29.45 50.1 29.3 50.1 29.2 50 29.2 50 29.25
M 50.55 28.85
L 50.55 28.45
Q 50.65 28.45 50.65 28.65 50.65 28.9 50.55 28.85
M 81.65 30.65
Q 81.65 30.2 81.5 30 81.55 30.45 81.45 31.1 81.3 31.7 81.35 32.25
L 81.8 32.25
Q 81.75 31.95 81.75 31.5 81.7 31.05 81.65 30.65
M 75.45 29.15
Q 75.4 29.15 75.35 29.15 75.3 29.15 75.25 29.15 75.25 29.35 75.3 29.55 75.35 29.75 75.55 29.65 75.5 29.5 75.45 29.4 75.45 29.3 75.45 29.15
M 75.55 28.95
Q 75.5 28.85 75.45 28.85
L 75.45 29.15 75.55 29.15
Q 75.55 29 75.55 28.95
M 81.65 10.35
Q 81.35 10.5 81.05 10.45 80.75 10.4 80.5 10.35 80.2 10.35 80.05 10.45 79.7 10.3 79.15 10.2 78.6 10.1 78.3 10.15 78.25 10.05 78.05 10.15 77.85 10.25 77.75 10.2
L 77.65 10.2 77.55 10.15
Q 77.55 10 77.5 10.1 77.4 10.2 77.4 10.1 77.25 10.1 77.2 10.2 77.1 10.3 77.05 10.35 76.95 10.2 76.85 10.25 76.75 10.3 76.6 10.35
L 76.6 10.1
Q 76.3 10.1 75.95 10.1 75.6 10.1 75.45 10 75.45 10.2 75.4 10.25 75.4 10.35 75.25 10.45 75.35 10.45 75.45 10.45 75.55 10.45 75.55 10.55 75.45 10.6 75.35 10.7 75.3 10.8 75.15 10.85 75.2 11.5 75.05 11.95 74.95 12.4 75.15 12.75 74.9 12.8 74.9 13.05 74.85 13.25 74.9 13.5
L 74.6 13.5
Q 74.75 13.75 74.7 13.9 74.65 14.1 74.65 14.3 74.55 14.45 74.75 14.75 74.7 14.8 74.65 14.8 74.55 14.85 74.45 14.85 74.4 15 74.5 15 74.6 15 74.6 15.1
L 74.3 15.1
Q 74.5 15.35 74.45 15.65 74.4 16 74.3 16.3 74.2 16.6 74.3 16.9
L 74.05 16.9
Q 74.25 17.15 74.2 17.4 74.15 17.7 74.05 17.95 73.95 18.25 74.05 18.45
L 73.85 18.45
Q 74 18.9 73.9 19.4 73.75 19.9 73.5 20.2 73.65 20.35 73.65 20.4 73.65 20.45 73.5 20.55 73.5 20.7 73.7 20.65 73.85 20.6 73.85 20.75 73.6 20.7 73.55 20.8 73.55 20.9 73.55 21 73.5 21.15 73.4 21.15 73.5 21.35 73.45 21.5 73.4 21.6 73.5 21.8 73.4 21.8 73.35 21.9 73.3 21.95 73.1 21.95 73.1 22.05 73.25 22.1 73.4 22.15 73.4 22.35 73.3 22.4 73.25 22.45 73.2 22.55 73.1 22.55 73.05 22.7 73.15 22.8 73.2 22.85 73.25 22.95 72.95 23.35 72.95 23.8 72.9 24.25 72.95 24.7 72.95 25.15 72.75 25.55 72.85 25.85 72.7 26.4 72.5 26.9 72.35 27.3 72.45 27.3 72.5 27.2 72.55 27.1 72.6 27.25 72.45 27.3 72.5 27.4 72.55 27.45 72.6 27.6
L 72.35 27.6
Q 72.3 27.7 72.4 27.7 72.5 27.7 72.45 27.85 72.35 27.85 72.3 27.9 72.2 28 72.2 28.1 72.25 28.1 72.35 28.1 72.45 28.1 72.45 28.15 72.35 28.2 72.35 28.35 72.35 28.45 72.45 28.5 72.25 28.5 72.25 28.7 72.25 28.85 72.05 28.85 72.25 29.25 72.15 29.75 72 30.25 71.8 30.55 71.95 30.75 71.85 31 71.75 31.25 71.65 31.45 71.8 31.9 71.7 32.5 71.6 33.05 71.55 33.65 71.4 33.6 71.4 33.7 71.4 33.75 71.35 33.8 71.45 33.9 71.35 34 71.25 34.1 71.4 34.2 71.2 34.55 71.2 34.85 71.2 35.1 71.15 35.6 71.25 35.6 71.35 35.6 71.45 35.6 71.4 35.7 71.6 35.55 71.8 35.65 71.95 35.75 72.35 35.7 72.35 35.65 72.35 35.55 72.35 35.5 72.4 35.45 72.6 35.45 72.65 35.55 72.75 35.6 72.75 35.7 72.9 35.6 73.05 35.6 73.2 35.65 73.25 35.85 73.4 35.8 73.45 35.75 73.45 35.65 73.65 35.7 73.75 35.35 73.8 34.9 73.85 34.5 73.9 34.1 74 34.5 73.95 35 73.9 35.5 74.05 35.85 74.3 35.75 74.55 35.75 74.75 35.8 75 35.85 75 35.7 75.15 35.65 75.25 35.6 75.25 35.45 75.15 35.15 75.2 34.8 75.3 34.45 75.15 34.1
L 75.45 34.1
Q 75.45 33.95 75.25 34 75.1 34.05 75.15 33.9 75.45 33.85 75.4 33.65 75.3 33.45 75.4 33.3
L 75.25 33.3 75.25 32.95 75.55 32.95
Q 75.5 32.85 75.45 32.75 75.4 32.65 75.45 32.45 75.5 32.5 75.55 32.45 75.6 32.4 75.65 32.35 75.65 32.45 75.55 32.5 75.5 32.55 75.65 32.6 75.7 32.5 75.85 32.4 76 32.35 76.2 32.35 76.2 32.45 76.2 32.55 76.2 32.65 76.35 32.6 76.3 32.4 76.35 32.35 76.45 32.3 76.55 32.25 76.95 32.5 77.4 32.45 77.9 32.4 78.3 32.25
L 78.3 32.45 78.85 32.45
Q 78.85 32.4 78.85 32.35 78.85 32.25 78.9 32.25 79.15 32.4 79.45 32.45 79.6 32.5 79.55 32.35 79.5 32.2 79.6 32.25 79.65 32.35 79.6 32.4 79.6 32.5 79.75 32.45 79.75 32.4 79.75 32.35 79.75 32.25 79.85 32.25 80 32.25 80.1 32.3 80.15 32.35 80.2 32.45 80.45 32.4 80.65 32.25 80.9 32.1 81.1 32.25 81.15 32.05 81.1 32 81 31.9 80.95 31.8 81.1 31.7 81.15 31.35 81.2 31 81.2 30.65 81.25 30.25 81.35 30.05 81.15 30.2 80.9 30.1 80.7 30 80.7 30.2 80.65 30.2 80.6 30.15 80.6 30.05 80.6 30 80.25 30.05 80.1 30.05 80 30.05 79.6 30 79.6 30.05 79.6 30.15 79.6 30.2 79.55 30.2 79.35 30.15 79.15 30.1 78.9 30.05 78.7 30 78.7 30.05 78.7 30.3 78.75 30.5 78.75 30.75 78.75 30.95 78.65 30.95 78.6 30.95 78.5 30.95 78.45 30.95 78.45 30.9 78.5 30.8 78.55 30.5 78.6 30.2 78.55 30 78.25 30 77.95 30.1 77.7 30.15 77.4 30.2 77.35 30 77.25 30 77.15 30 77 30.15 76.85 30.2 76.75 30.2 76.65 30.15 76.65 30.05 76.6 30 76.5 30 76.45 30.15 76.25 30.15 76.05 30.15 75.9 30.2 75.9 30.15 75.9 30.05 75.9 30 75.8 30 75.6 29.95 75.65 30.05 75.65 30.2 75.55 30.2 75.55 30.05 75.45 30.15 75.3 30.25 75.25 30.15 75.45 30 75.4 29.85 75.3 29.7 75.25 29.5
L 75.15 29.5
Q 75.15 29.1 75.25 28.95 75.35 28.75 75.45 28.85 75.45 28.7 75.4 28.65 75.35 28.55 75.25 28.45 75.55 27.7 75.6 26.95 75.65 26.15 75.8 25.55 75.6 25.5 75.6 25.65 75.6 25.8 75.45 25.75 75.65 25.35 75.75 25 75.8 24.6 75.65 24.25 75.5 24.25 75.55 24.4 75.6 24.6 75.5 24.6 75.3 24.4 75.5 24.2 75.7 24.05 76.05 24.1 75.85 24 75.85 23.95 75.85 23.9 75.9 23.55 75.7 23.5 75.65 23.6 75.6 23.75 75.55 23.8 75.55 23.6 75.65 23.45 75.75 23.3 75.9 23.2 75.9 23.1 75.8 23.05 75.75 23 75.8 22.85
L 76.05 22.85
Q 75.95 22.55 76 22.35 76 22.2 76.05 21.8 75.95 21.8 75.85 21.9 75.8 21.95 75.65 21.95 75.6 22.35 75.6 22.8 75.6 23.3 75.45 23.55 75.3 22.5 75.5 21.5 75.7 20.45 75.95 19.45 76.05 19.5 76.05 19.55 76.1 19.6 76.2 19.65 76.1 19.45 76.2 19.4 76.3 19.35 76.35 19.25 76.2 19.2 76.2 19 76.2 18.85 76.2 18.65 76.2 18.5 76.05 18.45 76.05 18.6 76.05 18.75 76.1 18.9 75.95 18.95 75.85 18.8 75.95 18.5 76 18.2 75.8 18.15 76 17.95 75.95 17.7 75.9 17.45 75.8 17.2 75.7 17 75.7 16.9 75.8 16.95 75.85 17.05 75.9 17.15 76.05 17.15
L 76.05 16.5
Q 76.2 16.5 76.2 16.4 76.2 16.35 76.35 16.35 76.4 16.2 76.5 16 76.6 15.8 76.85 15.75 76.65 15.55 76.7 15.35 76.75 15.1 76.85 14.9 76.8 14.9 76.85 14.85
L 76.9 14.85
Q 77.1 14.6 76.95 14.1 76.8 13.6 76.7 13.2 76.6 12.75 76.95 12.65 76.95 12.8 77 13.15 77.1 13.5 77.2 13.85 77.3 14.25 77.4 14.35 77.6 14.25 77.65 14.3 77.75 14.35 77.8 14.45 77.9 14.5 78.05 14.3 78.1 14.35 78.3 14.25 78.45 14.15 78.45 14.2 78.75 14.2 79 14.35 79.2 14.45 79.45 14.35 79.55 14.5 79.65 14.45 79.75 14.35 79.9 14.3 80.2 14.45 80.5 14.45 80.8 14.45 81.1 14.2 81.1 14.25 81.25 14.15 81.4 14.05 81.35 14.15 81.3 14.3 81.35 14.4 81.35 14.5 81.2 14.8 81.4 14.8 81.5 14.9 81.6 14.95 81.65 15.1
L 81.35 15.1
Q 81.6 15.5 81.6 15.8 81.6 16.15 81.35 16.5 81.55 16.5 81.5 16.4 81.5 16.35 81.65 16.35 81.9 16.6 81.75 16.85 81.65 17.1 81.5 17.3 81.65 17.3 81.65 17.2 81.65 17.15 81.8 17.15 81.7 17.5 81.7 17.65 81.7 17.8 81.65 18.15 81.75 18.15 81.85 18.2 81.9 18.2 81.95 18.3 81.8 18.35 81.8 18.5 81.75 18.7 81.65 18.85 81.75 18.8 81.9 18.7 82 18.6 82.1 18.75 82.1 18.9 82 18.95 81.9 19 81.8 19.1 81.9 19.2 81.9 19.25 81.9 19.3 81.8 19.45 81.95 19.55 82 19.7 82.1 19.9 82.15 20.1 82.1 20.15 82 20.2 81.9 20.25 81.95 20.4 82.2 20.45 82.1 20.65 82.05 20.85 81.95 21 82.2 21.05 82.15 21.25 82.15 21.4 82.15 21.55 82.1 21.75 82.3 21.8 82.15 21.8 82.15 21.95 82.15 22.05 82.1 22.2 82.15 22.2 82.25 22.2 82.3 22.2 82.3 22.3 82.15 22.55 82.2 22.75 82.3 22.95 82.15 23.2 82.2 23.2 82.3 23.2 82.4 23.2 82.45 23.25 82.5 23.45 82.45 23.6 82.4 23.7 82.3 23.8
L 82.6 23.8
Q 82.6 23.6 82.6 23.35 82.5 23.1 82.7 23.1
L 82.7 23.8
Q 82.65 23.9 82.45 23.9 82.35 23.95 82.3 24.05 82.5 24.1 82.6 24.35 82.65 24.6 82.6 24.85 82.5 25.15 82.45 25.3 82.55 25.3 82.6 25.35 82.65 25.4 82.7 25.45 82.55 25.7 82.65 25.95 82.7 26.15 82.6 26.45 82.75 26.5 82.7 26.8 82.7 27.05 82.85 27.2 82.75 27.15 82.7 27.25 82.65 27.35 82.6 27.35 82.7 27.4 82.8 27.45 82.9 27.5 83 27.55 82.8 27.75 82.85 28.1 82.9 28.45 83.15 28.55 82.95 28.95 83 29.15 83.05 29.35 83.15 29.55 83.2 29.75 82.95 30.15 82.8 30 82.55 30 82.25 30.05 82.1 29.95 82.2 30.45 82.1 31.1 81.95 31.75 81.95 32.25 82.2 32.2 82.75 32.2 83.3 32.2 83.65 32.4 83.65 32.55 83.55 32.6 83.45 32.6 83.5 32.75 83.65 32.7 83.65 32.8 83.65 32.95 83.65 33.1 83.95 33.05 84 33.25 84.05 33.45 84.05 33.75 84.45 34.1 84.6 34.65 84.75 35.25 84.8 35.7
L 84.85 35.65 84.85 35.6
Q 85.2 35.65 85.6 35.6 85.95 35.6 86.3 35.7 86.85 35.4 87.45 35.35 88.05 35.35 88.8 35.3 88.9 34.95 88.9 34.7 88.85 34.5 88.95 34.3 88.8 34.15 88.75 33.9 88.7 33.65 88.45 33.55 88.6 33.5 88.6 33.35 88.55 33.25 88.5 33.15 88.45 33.05 88.6 32.95 88.45 32.75 88.25 32.45 88.05 32.2 88.3 31.95 88.1 31.65 88 31.1 87.85 30.6 88.05 30.3 87.95 30.15 87.95 30.1 87.95 30.05 88.05 29.9 87.95 29.85 87.85 29.8 87.75 29.8 87.6 29.75 87.8 29.65 87.65 29.55 87.5 29.5 87.5 29.35
L 87.75 29.35
Q 87.55 28.95 87.45 28.35 87.3 27.75 87.4 27.4 87.05 27.1 87.05 26.65 87.05 26.25 87.15 25.9 86.85 25.95 86.85 25.8 86.85 25.65 86.7 25.55 86.75 25.55 86.8 25.5 86.85 25.5 86.85 25.4 86.55 25.15 86.6 24.9 86.6 24.65 86.7 24.45 86.65 24.35 86.55 24.3 86.5 24.25 86.45 24.2 86.6 24.05 86.55 24 86.45 23.9 86.35 23.8 86.25 23.65 86.3 23.45 86.4 23.45 86.5 23.45 86.6 23.45 86.6 23.35 86.45 23.35 86.3 23.35 86.15 23.35 86.15 23.25 86.1 22.7 86.1 22.2 86.15 21.75 85.8 21.4 85.8 21.25 85.9 21.25 86 21.25 85.95 21.1 85.75 20.65 85.6 20.1 85.5 19.6 85.25 19.2 85.35 19.15 85.35 19.25 85.35 19.35 85.55 19.3 85.4 18.85 85.3 18.6 85.2 18.35 85.4 18 85.3 18.05 85.2 18.05 85.1 18.05 85.1 17.95 85.1 17.85 85.1 17.65 85.05 17.5 85.25 17.55 85.2 17.45 85.1 17.35 85.05 17.25 85.1 17.05 84.75 17.05 84.8 16.65 84.85 16.3 84.8 16 84.75 15.95 84.6 15.95 84.5 16 84.5 15.9 84.55 15.85 84.6 15.8 84.6 15.7 84.75 15.7 84.7 15.5 84.65 15.25 84.6 15 84.6 14.55 84.55 14.55 84.45 14.55 84.35 14.55 84.3 14.5 84.5 14.4 84.45 14.25 84.4 14.1 84.3 13.95 84.2 13.8 84.2 13.7
L 84.25 13.7
Q 84.35 13.7 84.3 13.65 84.3 13.55 84.2 13.5 84.05 13.45 84.05 13.35 84 13 84 12.75 84 12.5 83.8 12.45 83.8 12.35 83.95 12.3 84 12.25 84.05 12.1 83.95 12.05 83.9 12.2 83.85 12.3 83.8 12.2 83.95 12.05 83.85 11.95 83.75 11.75 83.7 11.65 83.65 11.45 83.8 11.4 83.65 11.4 83.6 11.35 83.5 11.35 83.5 11.25 83.6 11.2 83.6 11.1 83.65 11 83.65 10.85 83.05 10.7 82.55 10.7 82.1 10.7 81.75 10.45 81.65 10.45 81.65 10.6 81.7 10.75 81.5 10.7 81.45 10.55 81.55 10.5 81.65 10.45 81.65 10.35
M 81.8 15.2
Q 81.8 15.05 81.9 14.95 81.95 14.85 82.1 14.8 82.05 14.9 82 15.05 81.95 15.15 81.8 15.2
M 82.3 17.15
Q 82.25 17.35 82.3 17.55 82.1 17.55 82.15 17.3 82.15 17.05 82.15 16.9 82.35 16.9 82.3 17.15
M 82.6 17.8
Q 82.6 17.45 82.55 17.2 82.5 16.95 82.45 16.75 82.65 16.85 82.7 17.2 82.8 17.6 82.6 17.8
M 84.6 17.55
L 84.6 18.2
Q 84.5 17.95 84.3 17.7 84.1 17.5 83.9 17.3 84.2 17.25 84.25 17.4 84.3 17.55 84.6 17.55
M 84.95 20.05
Q 84.9 20 84.8 19.9 84.75 19.85 84.8 19.75 84.95 19.8 85 19.95 85.1 20.1 85.25 20.15 85.2 20.3 85.1 20.5 85.05 20.65 85.1 20.9 84.9 20.8 84.95 20.5 85 20.2 84.8 20.1 85 20.1 84.95 20.05
M 84.7 19.2
Q 84.6 19.1 84.5 19 84.35 18.95 84.3 18.85 84.55 18.8 84.55 18.6 84.55 18.4 84.75 18.35 84.75 18.65 84.75 18.9 84.75 19.2 84.8 19.45 84.75 19.45 84.75 19.4 84.7 19.35 84.6 19.35 84.75 19.25 84.7 19.2
M 82.7 19.3
Q 83.05 19.45 83 19.85 82.9 20.25 82.7 20.45
L 82.7 19.3
M 85.4 22.2
L 85.1 22.2 85.1 21.8
Q 85.25 21.85 85.3 21.9 85.4 22 85.4 22.2
M 84.6 22.05
Q 84.75 22.25 84.75 22.6 84.8 23 84.75 23.35 84.75 23.75 84.6 23.9
L 84.6 22.05
M 84.25 23.1
Q 84.35 22.75 84.3 22.3 84.55 22.6 84.45 23.1 84.3 23.6 84.05 23.8 84.15 23.45 84.25 23.1
M 84 24.5
Q 84.05 24.35 84.05 24.25 84.2 24.25 84.2 24.35 84.2 24.5 84.2 24.6 84 24.65 84 24.5
M 87 29.15
Q 86.95 29.2 86.85 29.35 86.8 29.45 86.85 29.65 86.65 29.55 86.7 29.4 86.7 29.2 86.6 29.1 86.7 29.15 86.8 29.15 86.9 29.15 86.85 29 87.05 29.05 87 29.15
M 87.15 29
Q 87.35 29 87.3 29.25 87.25 29.45 87.3 29.65 87.1 29.6 87.15 29.4 87.15 29.15 87.15 29
M 85.25 33.8
Q 85.4 33.35 85.8 33.1 85.55 33.45 85.5 33.95 85.4 34.45 84.95 34.65 85.1 34.2 85.25 33.8
M 86.15 34.55
L 86.15 34.1
Q 86.3 34.1 86.3 34.35 86.3 34.55 86.15 34.55
M 76.95 12.35
Q 76.9 12.15 76.85 11.8 76.85 11.5 77.1 11.5 77.05 11.4 77 11.25 76.95 11.15 76.95 10.95 77.2 11.05 77.25 11.35 77.25 11.65 77.25 12 77.1 12 77 12.1 76.95 12.2 76.95 12.35
M 74.7 25.25
Q 74.75 25 75 25 75.05 25.2 74.95 25.3 74.8 25.35 74.9 25.55
L 74.95 25.65
Q 75 25.7 75.05 25.75 75.15 25.55 75.2 25.25 75.2 24.95 75.45 24.85 75.35 25.2 75.25 25.5 75.2 25.8 75.15 26.1 75 26.1 75 26 75 25.9 75 25.8 74.95 25.7 74.75 25.75 74.7 25.5 74.7 25.25
M 73.65 25.55
Q 73.7 25.7 73.5 25.65 73.55 25.25 73.65 24.95 73.75 24.6 73.95 24.35 73.95 24.7 73.8 24.95 73.65 25.2 73.85 25.4 73.65 25.35 73.65 25.55
M 73.25 28.5
Q 73.3 28.75 73.35 29.2 73.4 29.65 73.4 30.15 73.35 30.65 73.1 30.95 73.1 30.75 73.1 30.5 73.1 30.3 73.25 30.2
L 73.05 30
Q 72.95 30.05 72.95 30.15 72.95 30.2 72.95 30.3 72.85 30.25 72.9 30.1 72.9 29.95 72.9 29.8
L 73.25 29.8
Q 73.15 29.5 73.15 29.15 73.1 28.8 73.25 28.5
M 74.75 28.5
L 75 28.5
Q 75 28.75 75 28.95 74.95 29.1 74.75 29.1 74.8 28.85 74.8 28.8 74.8 28.75 74.75 28.5
M 74.15 32.65
Q 74 33.25 73.85 33.75 73.8 33.1 73.9 32.5 74 31.9 74.2 31.45 74.3 32.05 74.15 32.65
M 72.6 32
Q 72.8 32.05 72.75 32.35 72.75 32.6 72.75 32.85 72.55 32.8 72.6 32.5 72.65 32.2 72.6 32
M 72.45 33.1
Q 72.6 33.25 72.65 33.65 72.7 34 72.65 34.35 72.6 34.75 72.45 34.9
L 72.45 33.1
M 71.65 34.3
Q 71.6 34.65 71.65 35 71.65 35.35 71.4 35.45
L 71.4 34.3 71.65 34.3
M 79 32.1
Q 79 31.95 79.1 31.85 79.2 31.8 79.15 31.55 79.35 31.65 79.3 31.85 79.2 32.1 79 32.1
M 78.45 32.1
L 78.45 31.8
Q 78.6 31.75 78.6 31.95 78.6 32.15 78.45 32.1
M 103.5 10.25
Q 103.1 10.15 102.55 10.2 102.05 10.25 101.45 10.35 101.3 10.4 101.35 10.25 101.35 10.15 101.25 10.15 101.15 10.15 101.1 10.25 101.05 10.35 100.95 10.35 100.75 10.15 100.4 10.2 100 10.25 99.65 10.35 99.55 10.5 99.5 10.7 99.5 10.9 99.35 11 99.2 11 99.2 10.75 99.25 10.5 99.35 10.45 99.05 10.45 98.95 10.45 98.85 10.45 98.75 10.25 98.6 10.25 98.55 10.35 98.5 10.45 98.35 10.45 98 10.45 97.5 10.5 97 10.6 96.7 10.55 96.65 10.65 96.65 11 96.65 11.35 96.5 11.55
L 96.5 10.55
Q 96.25 10.5 96.1 10.55 95.9 10.6 95.8 10.65 95.45 10.5 95.15 10.55 94.8 10.65 94.55 10.55 94.45 10.65 94.25 10.65 94.05 10.65 94.1 10.85 93.95 10.85 93.85 10.75 93.8 10.65 93.75 10.55 93.65 10.55 93.7 10.7 93.7 10.85 93.6 10.85 93.45 10.7 93.2 10.75 92.95 10.85 92.75 10.85 92.6 10.9 92.55 10.65 92.4 10.85 92.2 10.9 92 10.95 91.75 10.85 91.65 11.1 91.65 11.3 91.65 11.5 91.65 11.75 91.6 11.7 91.55 11.65
L 91.45 11.65
Q 91.6 11.95 91.65 12.3 91.7 12.65 91.45 12.8 91.65 12.95 91.65 13.2 91.65 13.4 91.45 13.55 91.65 13.75 91.65 14.3 91.6 14.8 91.45 15.15 91.55 15.7 91.5 15.9 91.5 16.15 91.6 16.45 91.6 16.6 91.55 16.65 91.5 16.7 91.35 16.75 91.5 16.95 91.5 17.35 91.5 17.75 91.35 17.95 91.35 18.1 91.5 18.1 91.6 18.1 91.6 18.25 91.65 18.4 91.5 18.35 91.4 18.3 91.35 18.4 91.5 18.7 91.45 18.9 91.4 19.15 91.35 19.4 91.4 19.45 91.4 19.5 91.45 19.6 91.45 19.65 91.45 20 91.35 20.45 91.3 20.95 91.45 21.35 91.45 21.4 91.4 21.45 91.35 21.5 91.25 21.5 91.25 22.2 91.35 22.75 91.35 23.25 91.35 23.8 91.3 24.4 91.15 25.15 91.2 25.2 91.25 25.25 91.35 25.3 91.35 25.4 91.4 25.5 91.35 25.5 91.25 25.5 91.15 25.55 91.25 25.7 91.25 26.05 91.2 26.45 91.35 26.65 91.2 26.65 91.2 26.6 91.15 26.5 91.05 26.55 91 26.7 91.1 26.75 91.25 26.8 91.25 26.9 91.1 26.9 91.1 27.05 91.15 27.15 91.05 27.2 91.1 27.35 91.1 27.2 91.15 27.1 91.25 27.15 91.25 27.65 91.15 27.9 91.1 28.15 91.35 28.6 91.45 28.2 91.55 27.8 91.65 27.4 91.9 27.15 91.75 27.75 91.65 28.15 91.5 28.5 91.35 29 91.2 29 91.25 28.85 91.3 28.65 91.2 28.6 91.15 28.9 91.1 29.1 91.05 29.3 91.25 29.45 91.3 29.6 91.2 29.55 91.05 29.55 91.05 29.65 91.15 30.05 91.05 30.45 91 30.9 90.95 31.25 91 31.35 91.1 31.2 91.15 31.05 91.25 31.2 91.25 31.4 91.1 31.5 90.95 31.55 90.95 31.7 91.05 32.55 91 33.2 90.95 33.9 91.05 34.6 91.1 34.75 90.95 34.7 90.8 34.7 90.75 34.8 90.7 34.95 90.85 34.95 91 34.95 91.05 35.05 91 35.25 90.95 35.4 90.95 35.6 90.95 36 91.15 36.1 91.45 36.05 91.75 36 91.95 35.95 92.35 36.1 92.65 36.1 92.95 36 93.25 36 93.55 35.95 93.95 36.15 94.05 35.8 94.1 35.45 94.1 35.15 94 34.7 94.25 34.75 94.2 34.6 94.15 34.45 94.1 34.35 94.15 34.3 94.2 34.35 94.25 34.4 94.3 34.35 94.25 33.85 94.35 33.4 94.45 32.9 94.3 32.5 94.35 32.4 94.45 32.3 94.55 32.25 94.55 32.1 94.5 31.95 94.5 31.8 94.45 31.6 94.3 31.5 94.35 31.45 94.5 31.4 94.6 31.35 94.7 31.3 94.65 31.15 94.55 31.05 94.5 30.95 94.45 30.8 94.6 30.75 94.6 30.65 94.65 30.45 94.8 30.45 94.6 30.15 94.75 29.9 94.85 29.7 94.7 29.3
L 94.85 29.3
Q 94.75 29 94.85 28.65 94.95 28.25 94.85 28 94.95 28.05 94.95 27.95 94.95 27.9 95.1 27.9 95.1 27.8 94.95 27.85 94.85 27.9 94.85 27.75 95 27.05 95.15 26.35 95.25 25.7 95.2 25.05 95.3 25.1 95.3 25 95.3 24.9 95.3 24.85 95.4 24.85 95.6 24.85 95.8 24.8 95.7 24.75 96.2 24.8 96.9 24.7 97.55 24.6 98.2 24.65 98.3 24.3 98.15 24 98.05 23.65 98.1 23.2 98.2 23.55 98.35 23.9 98.4 24.3 98.35 24.5 98.6 24.5 98.7 24.7 98.75 24.85 98.95 24.95 98.95 25.05 98.85 25.1 98.75 25.15 98.75 25.25 98.95 25.25 98.95 25.45 99 25.7 98.85 25.8 98.9 25.8 98.95 25.8 99 25.75 99.05 25.75 98.9 26.05 99.05 26.35 99.15 26.7 99.25 26.95 99.4 27.25 99.25 27.35 99.2 27.5 99.35 27.5 99.45 27.45 99.45 27.55 99.35 27.9 99.45 28 99.55 28.15 99.45 28.3 99.55 28.4 99.6 28.3 99.7 28.2 99.85 28.25 99.75 28.65 99.9 28.95 99.95 29.25 99.95 29.65 100 29.7 100.1 29.85 100.2 30 100.05 30 100.1 30.15 100.15 30.05 100.2 30 100.25 30 100.1 30.45 100.25 30.9 100.4 31.35 100.35 31.9 100.45 31.95 100.45 31.85 100.45 31.75 100.55 31.8 100.65 31.95 100.55 32 100.45 32.05 100.45 32.2 100.75 32.65 100.8 33.1 100.85 33.55 100.95 34.15 101.15 34.1 101.15 34.35 101.15 34.55 101.25 34.6 101.3 34.7 101.2 34.7 101.15 34.7 101.05 34.7 101.1 35.1 101.45 35.35 101.8 35.6 102.1 35.3 102.1 35.5 102.25 35.5 102.4 35.5 102.45 35.6 102.8 35.5 103.05 35.6 103.25 35.7 103.5 35.6 103.55 35.65 103.5 35.75 103.5 35.85 103.5 35.95 103.85 35.85 104.2 35.9 104.55 36 104.9 36.15 105.05 35.95 104.95 35.8 104.85 35.6 104.75 35.55 104.8 35.1 104.7 34.55 104.55 34 104.3 33.65 104.45 33.45 104.35 33.2 104.3 32.95 104.3 32.6 104.3 32.55 104.25 32.55 104.15 32.55 104.1 32.5 104.05 32.35 104.2 32.4 104.3 32.45 104.3 32.35 104.15 31.9 103.9 31.3 103.65 30.7 103.9 30.2 103.65 30.05 103.7 29.9 103.75 29.8 103.5 29.65 103.6 29.2 103.5 28.85 103.4 28.5 103.3 28.15 103.2 27.8 103.25 27.35 103.25 27.25 103.1 27.25 102.95 27.25 103 27.15
L 103.25 27.15
Q 103 26.7 102.8 26.05 102.65 25.35 102.75 24.95 102.75 24.85 102.6 24.8 102.5 24.75 102.45 24.7 102.5 24.65 102.55 24.6 102.6 24.55 102.65 24.5 102.5 24.35 102.4 24.15 102.3 23.9 102.35 23.6 102.8 23.45 103.1 23.4 103.4 23.4 103.6 23.1 103.8 23.2 103.85 23.15 103.9 23.05 104.05 23.2 104.3 23.05 104.45 22.85 104.65 22.6 105 22.6 105.1 22.6 105.05 22.55 105.05 22.5015625 105 22.5 105.0541015625 22.5 105.2 22.5 105.35 22.45 105.55 22.45 105.6 22.35 105.5 22.35 105.4 22.35 105.4 22.2 105.75 22.15 105.85 21.8 105.9 21.5 106.2 21.3 106.25 20.85 106.1 20.65 106.15 20.6 106.2 20.5 106.3 20.4 106.4 20.4 106.45 20.15 106.3 20.1 106.15 20 106.2 19.8 106.35 19.75 106.3 19.9 106.3 20 106.35 20 106.4 19.75 106.45 19.5 106.55 19.25 106.3 19.2 106.35 19.15 106.45 19.2 106.55 19.2 106.65 19.15 106.7 19 106.55 19.05 106.4 19.1 106.4 18.95 106.55 18.6 106.6 18.35 106.6 18.1 106.8 17.75 106.65 17.65 106.6 17.6 106.55 17.6 106.4 17.7 106.45 17.25 106.4 16.95 106.3 16.65 106.55 16.45 106.3 16.4 106.3 16.1 106.3 15.8 106.3 15.5 106.55 16 106.6 16.5 106.6 17 106.55 17.45 106.65 17.5 106.65 17.4 106.65 17.35 106.8 17.35 106.7 16.7 106.8 15.9 106.9 15.1 106.8 14.4 106.8 14.3 106.9 14.3 106.95 14.3 107.05 14.3 106.9 14.05 106.9 13.8 106.9 13.5 106.9 13.2 106.9 12.95 106.8 12.75 106.9 12.7 106.9 12.8 106.95 12.9 107.05 12.85 106.85 12.65 106.85 12.45 106.9 12.25 106.95 11.85 106.75 11.55 106.55 11.2 106.35 10.9 106 10.75 105.85 11.65 105.7 12.5 105.55 13.35 105.7 14.2 105.8 14.3 105.85 14.35 105.85 14.4 105.95 14.4 105.85 14.75 105.95 15.3 106.1 15.85 106.2 16.25 106 16.2 105.95 15.9 105.95 15.6 105.9 15.4 105.85 15.8 105.8 16.25 105.75 16.65 105.55 16.95 105.65 16.1 105.7 15.3 105.75 14.45 105.55 13.7 105.3 14 105.15 14.6 105.05 15.15 105.2 15.65 104.95 15.85 104.95 16.3 104.95 16.8 105 17.25 105 17.75 104.85 18.05 104.8 17 104.9 16.1 105.05 15.2 105 14.4 105.35 13.8 105.35 12.9 105.4 11.9 105.55 11
L 105.55 12.1
Q 105.7 11.8 105.75 11.35 105.75 10.95 105.95 10.7 105.9 10.6 105.8 10.55 105.65 10.55 105.55 10.45 105.55 10.35 105.6 10.35 105.7 10.35 105.65 10.25 105.45 10.35 105.1 10.25 104.75 10.15 104.4 10.1 104.05 10.1 103.9 10.35
L 103.9 10 103.6 10
Q 103.65 10.15 103.55 10.15 103.5 10.15 103.5 10.25
M 105 12.05
Q 105.05 11.75 105.1 11.45 105.35 12.2 105.1 12.8 104.9 13.45 104.75 14.1 104.65 14.55 104.6 15 104.6 15.4 104.6 16 104.5 15.6 104.5 15 104.5 14.35 104.6 13.8 104.6 13.55 104.75 13.25 104.9 12.95 105 12.6 105 12.3 105 12.05
M 103.9 13.1
Q 104 13.4 104.1 13.6 104.15 13.85 104.2 14.05 104 14.2 104.15 14.4 104.25 14.6 104.3 14.75 104.2 14.9 104.2 15.25 104.2 15.5 104.25 15.75 104.3 16 104.3 16.05 104.25 16.15 104.2 16.4 104.2 16.6 104.1 16.75 104.15 16.9 104.3 16.95 104.3 17.35 104.3 17.55 104.3 17.75 104.2 17.95 104.2 18.1 104.35 18.1 104.45 18.1 104.4 18.25 104.35 18.25 104.35 18.2 104.35 18.15 104.3 18.15 104.3 18.35 104.25 18.6 104.25 18.85 104.3 19.05 104.15 19.1 104.2 19.25 104.2 19.45 104.1 19.55 104 19.55 104 19.5 104 19.45 103.9 19.45 103.85 19.45 103.85 19.5 103.85 19.55 103.9 19.65
L 103.95 19.65
Q 104.05 19.65 104.1 19.65 104 19.9 103.8 20.15 103.6 20.3 103.5 20.65 103.3 20.65 103.2 20.5 103.1 20.4 102.9 20.45 102.85 20.55 102.95 20.55 103.05 20.5 103 20.65 102.8 20.65 102.7 20.75 102.6 20.8 102.5 20.65 102.4 20.75 102.4 20.9 102.4 21 102.35 21.15 102.25 21.15 102.25 21.05 102.25 21 102.25 20.9 102.1 21.05 101.8 21.1 101.55 21.15 101.55 21.5 101.45 21.55 101.45 21.45 101.45 21.3 101.45 21.25 101.2 21.25 100.95 21.35 100.75 21.45 100.55 21.5 100.55 21.4 100.4 21.4 100.25 21.4 100.25 21.25 100.1 21.3 99.8 21.4 99.5 21.45 99.2 21.4 98.9 21.4 98.85 21.25 98.7 21.3 98.65 21.4
L 98.55 21.25
Q 98.45 21.25 98.45 21.35 98.5 21.45 98.5 21.5 98.35 21.5 98.3 21.4 98.25 21.3 98.2 21.25 98.05 21.3 98.15 21.65 98.2 21.95 97.95 22
L 97.95 21.35 97.75 21.35
Q 97.8 21.55 97.8 21.65 97.8 21.75 97.85 22 97.7 21.9 97.65 21.75 97.6 21.6 97.6 21.35 97.4 21.3 97.15 21.35 96.9 21.4 96.9 21.25 96.65 21.3 96.45 21.3 96.25 21.3 96 21.25 95.95 21.35 95.8 21.4 95.65 21.45 95.55 21.5 95.5 21.4 95.4 21.35 95.3 21.3 95.2 21.25 95.2 20.9 95.25 20.7 95.3 20.55 95.2 20.25 95.3 20.25 95.3 20.2 95.3 20.1 95.4 20.15 95.45 19.95 95.35 19.9 95.25 19.85 95.4 19.75 95.35 19.7 95.35 19.65 95.3 19.55 95.2 19.55 95.25 19.1 95.25 18.8 95.3 18.5 95.2 18.25 95.35 18.25 95.3 18.05 95.3 17.9 95.4 17.85 95.4 17.8 95.35 17.85 95.25 17.85 95.2 17.85 95.35 17.6 95.3 17.35 95.25 17.1 95.25 16.85 95.2 16.6 95.4 16.45 95.4 16.35 95.3 16.35 95.2 16.4 95.2 16.3 95.15 16.15 95.25 16.15 95.3 16.1 95.4 16.15 95.4 16 95.3 16 95.2 16 95.2 15.85
L 95.4 15.85
Q 95.25 15.65 95.25 15.45 95.25 15.25 95.3 15.1 95.3 15 95.25 14.95
L 95.2 14.9
Q 95.25 14.75 95.35 14.6 95.4 14.45 95.4 14.2
L 95.3 14.2
Q 95.3 13.85 95.35 13.6 95.35 13.35 95.3 13 95.45 13.1 95.6 13.05 95.7 13 95.85 13 95.95 13 96 13.2 96.1 13.15 96.1 12.95 96.05 12.8 96.05 12.7 96.2 12.65 96.15 12.8 96.15 12.95 96.25 13 96.35 12.8 96.25 12.7 96.15 12.55 96.2 12.3
L 96.5 12.3
Q 96.45 12.55 96.45 12.65 96.5 12.7 96.5 13 96.8 13 96.95 12.95 97.1 12.85 97.3 12.85 97.4 12.8 97.4 12.6 97.35 12.4 97.5 12.45
L 97.5 12.85
Q 97.7 12.9 97.9 12.8 98.1 12.7 98.1 12.85 98.3 12.7 98.65 12.7 99.05 12.7 99.3 12.85 99.35 12.8 99.35 12.75 99.4 12.75 99.45 12.75 99.45 12.7 99.4 12.65 99.35 12.65 99.35 12.55 99.55 12.65 99.75 12.65 100 12.7 100.15 12.85 100.25 12.8 100.1 12.75 100 12.7 100.05 12.55 100.2 12.6 100.45 12.55 100.65 12.5 100.65 12.7 101 12.5 101.35 12.5 101.65 12.5 101.9 12.45 102 12.45 102.05 12.5 102.1 12.6 102.1 12.75 102.3 12.7 102.35 12.65 102.45 12.6 102.55 12.55 102.6 12.75 102.85 12.75 103.1 12.75 103.35 12.75 103.35 12.85 103.25 12.9 103.2 12.9 103.25 13.1 103.45 13.05 103.45 12.85 103.45 12.6 103.6 12.55 103.65 12.7 103.55 12.75 103.5 12.8 103.5 13 103.55 13.1 103.65 13.1 103.8 13.05 103.9 13.1
M 104.5 16.5
Q 104.55 16.55 104.6 16.55 104.6 16.95 104.6 17.4 104.65 17.9 104.6 18.35 104.6 18.5 104.55 18.45 104.55 18.35 104.6 18.25
L 104.6 17.85
Q 104.6 17.75 104.55 17.7 104.45 17.7 104.4 17.65
L 104.4 16.5 104.5 16.5
M 105.1 19.45
L 105.1 19.9 105 19.9 105 19.45 105.1 19.45
M 104.85 19.2
L 104.6 19.2 104.6 18.7
Q 104.75 18.75 104.75 18.9 104.8 19.1 104.85 19.2
M 103.9 20.65
Q 103.9 20.8 103.8 20.9 103.75 21 103.6 21 103.7 20.9 103.75 20.8 103.75 20.7 103.9 20.65
M 105.15 20.65
Q 105.2 20.8 105.2 21 105.05 20.9 105.05 20.75 105 20.6 105 20.45 105.1 20.5 105.15 20.65
M 101.6 22.15
Q 101.55 22.15 101.45 22.3 101.65 22.7 101.55 23.2 101.45 23.75 101.55 24.05 101.25 24 101.35 23.75 101.45 23.5 101.45 23.2 101.25 23.25 101.25 23.45 101.25 23.65 101.25 23.85 101.25 24.1 101.05 24.05 101.05 24 101 24 101 23.95 100.95 23.95 101.15 23.6 101.25 23.15 101.3 22.7 101.3 22.1 101.45 22.1 101.5 22 101.55 21.95 101.55 21.75 101.65 21.8 101.7 21.95 101.8 22.05 101.8 22.2 101.7 22.1 101.6 22.15
M 102.25 24.55
Q 102.1 24.55 102.05 24.45 102 24.35 102 24.2 102.15 24.2 102.2 24.3 102.25 24.4 102.25 24.55
M 101.9 24.55
Q 102 24.55 102.05 24.6 102.1 24.7 102.25 24.65 102.25 24.85 102.25 25.1 102.2 25.35 102.35 25.4 102.2 25.55 102.3 25.8 102.35 26.05 102.4 26.3 102.45 26.5 102.25 26.65 102.35 26.5 102.3 26.4 102.3 26.3 102.1 26.25 102.25 26.1 102.2 25.8 102.15 25.45 101.9 25.4 101.9 25.2 102 25.15 102.05 25.05 102 24.85 101.85 25 101.7 25.25 101.6 25.45 101.55 25.75 101.2 25.75 101.15 26.1 101.05 26.4 100.8 26.55 100.8 26.3 100.95 26.1 101.1 25.9 100.95 25.75 101 25.65 101.05 25.45 101.1 25.3 101.25 25.3 101.2 25.45 101.15 25.55 101.05 25.65 101.05 25.8 101.25 25.8 101.3 25.6 101.4 25.4 101.45 25.25 101.45 25.2 101.4 25.15 101.3 25.15 101.25 25.15 101.3 25.05 101.35 24.9 101.4 24.75 101.55 24.7
L 101.55 25.05
Q 101.75 25 101.75 24.85 101.8 24.65 101.9 24.55
M 105.2 22.1
Q 105.25 21.9 105.2 21.75 105.35 21.75 105.35 22 105.3 22.2 105.3 22.3 105.15 22.3 105.2 22.1
M 93 12.3
Q 93 12.1 93 11.85 93.15 12 93.2 12.3 93.25 12.65 93.25 13
L 92.85 13
Q 92.9 12.9 92.95 12.8 93 12.7 93.15 12.7 93 12.55 93 12.3
M 92.45 12.1
Q 92.65 12.05 92.6 12.2 92.55 12.3 92.65 12.3 92.7 12.25 92.7 12.1 92.7 11.95 92.75 11.85 92.95 11.95 92.8 12.2 92.7 12.45 92.7 12.7 92.55 12.6 92.5 12.45 92.45 12.3 92.45 12.1
M 95.1 12
Q 95.2 11.95 95.2 12.1 95.2 12.2 95.2 12.3 95.3 12.35 95.3 12.25 95.3 12.2 95.4 12.2 95.35 12.45 95.3 12.7 95.25 12.95 95.1 13.1 95.15 12.7 95.1 12.55 95.1 12.35 95.1 12
M 96.65 12
Q 96.6 12.1 96.6 12.2 96.5 12.25 96.5 12.1 96.55 11.95 96.5 11.85 96.65 11.85 96.65 12
M 97.4 11.85
Q 97.4 11.75 97.4 11.65 97.55 11.6 97.5 11.75 97.5 11.9 97.5 12 97.35 12 97.4 11.85
M 97.6 11.35
Q 97.5 11.4 97.5 11.25 97.5 11.1 97.5 11 97.65 10.95 97.6 11.1 97.6 11.25 97.6 11.35
M 94.5 12.6
Q 94.4 12.65 94.3 12.7
L 94.3 12.45 94.55 12.45
Q 94.55 12.55 94.5 12.6
M 94.85 12.5
Q 94.85 12.8 94.7 12.85
L 94.7 12.1
Q 94.85 12.2 94.85 12.5
M 92.25 12.75
L 92.25 12.45
Q 92.4 12.4 92.4 12.6 92.4 12.75 92.25 12.75
M 93.25 15.5
Q 93.25 15.7 93.15 15.75 92.95 15.75 93 15.55 93.05 15.35 93.15 15.3 93.25 15.25 93.25 15.5
M 92.85 19.65
Q 92.75 19.7 92.75 19.8 92.7 19.75 92.75 19.6 92.75 19.45 92.85 19.45 92.95 19.6 92.85 19.65
M 94.9 22.3
Q 94.7 23.05 94.45 23.55 94.5 22.85 94.7 22.25 94.8 21.65 94.95 21 95.1 21.6 94.9 22.3
M 94.7 24.15
Q 94.75 24.25 94.8 24.3 94.6 24.6 94.7 24.95 94.75 25.3 94.8 25.65 94.65 25.65 94.65 25.55 94.7 25.4 94.7 25.3 94.55 25.25 94.55 25.4 94.6 25.55 94.45 25.55 94.6 25.3 94.5 24.95 94.45 24.6 94.45 24.3 94.4 24 94.7 23.85 94.65 24.05 94.7 24.15
M 98.85 21.6
Q 98.85 21.55 98.85 21.5 98.95 21.65 99 21.7 99 21.75 99.2 21.65 99.15 21.9 99.2 22.05 99.25 22.25 99.25 22.45 99.2 22.45 99.15 22.25 99.05 22.1 99.05 21.9 98.95 21.85 98.95 21.95 98.95 22 98.95 22.1 98.8 22.05 98.75 21.95 98.7 21.85 98.75 21.65 98.8 21.65 98.85 21.6
M 100.55 22.75
Q 100.65 22.85 100.7 23.15 100.75 23.5 100.7 23.75 100.65 24.05 100.45 24.05 100.55 23.75 100.5 23.45 100.4 23.1 100.55 22.75
M 99.85 24.3
Q 99.65 24.3 99.7 24.1 99.7 23.85 99.7 23.7 99.85 23.75 99.85 23.95 99.8 24.15 99.85 24.3
M 99.3 23.85
Q 99.35 24.1 99.45 24.45 99.2 24.25 99.15 23.85 99.15 23.45 98.95 23.2 99.05 23.25 99.1 23.3 99.15 23.35 99.2 23.45 99.25 23.45 99.25 23.3 99.2 23.2 99.35 23.2 99.25 23.55 99.3 23.85
M 100.95 25.15
Q 100.9 25 101 24.95 101.05 24.9 101.05 24.7 101.2 24.8 101.15 25 101.05 25.15 100.95 25.15
M 99.6 27.05
Q 99.7 27.05 99.7 27.2 99.7 27.35 99.95 27.25 99.9 27.4 99.8 27.5 99.7 27.65 99.7 27.85 99.9 27.75 99.95 27.55 100 27.3 100.35 27.35 100.25 27.65 100.15 27.85 100.05 28.05 99.7 28 99.7 27.95 99.7 27.9 99.65 27.85 99.6 27.85
L 99.6 27.05
M 100.65 26.8
L 100.45 26.8 100.45 26.35
Q 100.55 26.4 100.55 26.35
L 100.55 26.25
Q 100.75 26.35 100.65 26.5 100.55 26.6 100.65 26.8
M 100.25 28.65
Q 100.4 28.7 100.3 29 100.25 29.35 100.4 29.45 100.5 29.35 100.55 29.15 100.55 28.95 100.8 29 100.8 29.25 100.65 29.4 100.55 29.6 100.45 29.8 100.15 29.7 100.1 29.35 100 29 100.05 28.6 100.2 28.55 100.2 28.7 100.15 28.85 100.15 28.95 100.3 28.95 100.3 28.85 100.3 28.75 100.25 28.65
M 100.95 29.9
Q 100.95 29.8 101.05 29.7 101.15 29.6 101.25 29.6 101.25 29.7 101.2 29.7 101.1 29.75 101.15 29.9
L 100.95 29.9
M 92.7 28.15
L 92.75 27.9
Q 92.75 28 92.75 28.25 92.75 28.5 92.7 28.6
L 92.65 28.6
Q 92.6 28.6 92.55 28.65 92.55 28.8 92.65 28.8 92.7 28.8 92.7 28.95 92.3 29.4 92 29.9 91.75 30.45 91.35 30.9 91.5 30.35 91.8 29.95 92.15 29.55 92.25 29 92.4 29.05 92.35 28.9 92.3 28.8 92.45 28.85 92.45 28.6 92.55 28.45 92.65 28.35 92.55 28.15
L 92.7 28.15
M 93.55 35.2
Q 93.55 35.05 93.55 34.95 93.7 34.9 93.7 35.05 93.7 35.2 93.7 35.3 93.55 35.35 93.55 35.2
M 102.25 26.9
Q 102.4 26.9 102.35 27.05 102.35 27.15 102.35 27.25 102.25 27.3 102.25 27.15 102.25 27.05 102.25 26.9
M 101.3 26.65
L 101.3 26.35
Q 101.4 26.4 101.5 26.45 101.55 26.55 101.55 26.65
L 101.3 26.65
M 101.8 27.35
Q 101.8 27.5 101.7 27.65 101.65 27.75 101.55 27.85
L 101.55 27.35 101.8 27.35
M 101.65 27.25
Q 101.5 27.25 101.4 27.2 101.3 27.1 101.3 26.9 101.7 26.85 101.65 27.25
M 102.25 27.65
Q 102.35 27.6 102.35 27.45 102.5 28.6 102.6 29.75 102.7 30.95 102.9 32 102.8 32 102.8 31.95 102.75 31.9 102.7 31.9 102.6 32.35 102.65 32.95 102.75 33.6 102.55 33.95 102.45 32.8 102.45 31.75 102.5 30.7 102.45 29.7 102.45 28.75 102.1 27.85 102.15 27.7 102.25 27.65
M 103.5 28.95
Q 103.4 29.15 103.25 29.35 103.15 29.55 103.1 29.8 103 29.8 102.95 29.7 102.9 29.55 102.75 29.6 102.8 29.45 102.75 29.2 102.75 29 102.9 29
L 102.9 29.45
Q 103.05 29.4 103 29.15 102.95 28.9 102.9 28.85
L 103.1 28.85 103.1 29.1
Q 103.25 29.1 103.3 29 103.35 28.9 103.5 28.95
M 101.45 29.3
L 101.55 29.3 101.55 29.8 101.45 29.8 101.45 29.3
M 102.75 32.4
Q 102.9 32.35 102.9 32.45 102.9 32.55 103 32.5 102.95 32.95 103.05 33.25 103.1 33.55 103.1 33.95 102.85 33.75 102.85 33.25 102.9 32.75 102.75 32.4 Z"/>
</g>
</defs>

<g transform="matrix( 1, 0, 0, 1, 0,0) ">
<use xlink:href="#Layer1_0_FILL"/>
</g>

<g transform="matrix( 1, 0, 0, 1, 0,0) ">
<use xlink:href="#Layer0_0_MEMBER_0_FILL"/>
</g>

<g transform="matrix( 1, 0, 0, 1, 0,0) ">
<use xlink:href="#Layer0_0_MEMBER_1_FILL"/>
</g>
</svg>
