
<svg xmlns="http://www.w3.org/2000/svg" version="1.1" xmlns:xlink="http://www.w3.org/1999/xlink" preserveAspectRatio="none" x="0px" y="0px" width="340px" height="64px" viewBox="0 0 340 64">
<defs>
<linearGradient id="Gradient_1" gradientUnits="userSpaceOnUse" x1="6.837499999999995" y1="32.2" x2="70.2625" y2="32.2" spreadMethod="pad">
<stop  offset="0%" stop-color="#006B9B"/>

<stop  offset="34.509803921568626%" stop-color="#007CAF"/>

<stop  offset="77.6470588235294%" stop-color="#0092CB"/>

<stop  offset="100%" stop-color="#009BD9"/>
</linearGradient>

<radialGradient id="Gradient_2" gradientUnits="userSpaceOnUse" cx="0" cy="0" r="27.65" fx="0" fy="0" gradientTransform="matrix( 1, 0, 0, -1.5000000000000002, 30.15,31.15) " spreadMethod="pad">
<stop  offset="0%" stop-color="#0B6BB3"/>

<stop  offset="36.470588235294116%" stop-color="#22609D"/>

<stop  offset="100%" stop-color="#324A7A"/>
</radialGradient>

<linearGradient id="Gradient_3" gradientUnits="userSpaceOnUse" x1="18.4375" y1="28.612499999999997" x2="58.962500000000006" y2="51.9875" spreadMethod="pad">
<stop  offset="45.88235294117647%" stop-color="#2F5187"/>

<stop  offset="100%" stop-color="#007ABD"/>
</linearGradient>

<radialGradient id="Gradient_4" gradientUnits="userSpaceOnUse" cx="0" cy="0" r="43.46715893924976" fx="0" fy="0" gradientTransform="matrix( 0.6427266166405262, -0.7660956182238755, -0.7660956182238755, -0.6427266166405262, 56.3,21.9) " spreadMethod="pad">
<stop  offset="0%" stop-color="#2B7BBA"/>

<stop  offset="25.49019607843137%" stop-color="#2A70A9"/>

<stop  offset="71.76470588235294%" stop-color="#276195"/>

<stop  offset="100%" stop-color="#265C8E"/>
</radialGradient>

<linearGradient id="Gradient_5" gradientUnits="userSpaceOnUse" x1="19.7375" y1="29.0625" x2="61.66250000000001" y2="36.4375" spreadMethod="pad">
<stop  offset="0%" stop-color="#38497F"/>

<stop  offset="100%" stop-color="#2364A6"/>
</linearGradient>

<radialGradient id="Gradient_6" gradientUnits="userSpaceOnUse" cx="0" cy="0" r="43.467158939249764" fx="0" fy="0" gradientTransform="matrix( 0.6427266166405261, -0.7660956182238754, -0.7660956182238754, -0.6427266166405261, 155.35,189.95) " spreadMethod="pad">
<stop  offset="0%" stop-color="#2B7BBA"/>

<stop  offset="25.49019607843137%" stop-color="#2A70A9"/>

<stop  offset="71.76470588235294%" stop-color="#276195"/>

<stop  offset="100%" stop-color="#265C8E"/>
</radialGradient>

<linearGradient id="Gradient_7" gradientUnits="userSpaceOnUse" x1="105.88749999999999" y1="200.25" x2="169.3125" y2="200.25" spreadMethod="pad">
<stop  offset="0%" stop-color="#006B9B"/>

<stop  offset="34.509803921568626%" stop-color="#007CAF"/>

<stop  offset="77.6470588235294%" stop-color="#0092CB"/>

<stop  offset="100%" stop-color="#009BD9"/>
</linearGradient>

<linearGradient id="Gradient_8" gradientUnits="userSpaceOnUse" x1="117.4875" y1="196.6625" x2="158.0125" y2="220.0375" spreadMethod="pad">
<stop  offset="45.88235294117647%" stop-color="#2F5187"/>

<stop  offset="100%" stop-color="#007ABD"/>
</linearGradient>

<linearGradient id="Gradient_9" gradientUnits="userSpaceOnUse" x1="118.7875" y1="197.1125" x2="160.7125" y2="204.4875" spreadMethod="pad">
<stop  offset="0%" stop-color="#38497F"/>

<stop  offset="100%" stop-color="#2364A6"/>
</linearGradient>

<radialGradient id="Gradient_10" gradientUnits="userSpaceOnUse" cx="0" cy="0" r="27.650000000000006" fx="0" fy="0" gradientTransform="matrix( 0.9999999999999999, 0, 0, -1.4999999999999998, 129.2,199.2) " spreadMethod="pad">
<stop  offset="0%" stop-color="#0B6BB3"/>

<stop  offset="36.470588235294116%" stop-color="#22609D"/>

<stop  offset="100%" stop-color="#324A7A"/>
</radialGradient>

<g id="Layer0_0_FILL">
<path fill="#3B3D3E" stroke="none" d="
M 98.35 15.6
Q 89.05 15.6 83.35 21.7 77.25 28.2 77.25 39.8 77.25 51.35 83.15 57.8 88.75 63.9 98.2 63.9 106.55 63.9 111.8 59.15 116.65 54.75 118.15 46.95
L 110.25 46.95
Q 108.65 46.95 108.15 48.45
L 108.15 48.5
Q 107.05 51.95 104.55 53.8 102 55.6 98.4 55.6 92.7 55.6 89.7 50.85 87.05 46.65 87.05 39.9 87.05 31.2 91 27.05 94 23.9 98.4 23.9 105.95 23.9 108.15 30.4 108.55 31.8 110.1 31.8
L 118.15 31.8
Q 117.7 25.7 113.2 21.15 107.7 15.6 98.35 15.6
M 144.05 28.7
L 135.1 28.7 135.1 62.65
Q 138.8 62.65 141.4 60.05 144.05 57.4 144.05 53.75
L 144.05 28.7
M 144.05 16.05
L 135.1 16.05 135.1 25.1 144.05 25.1 144.05 16.05
M 124.5 18.25
Q 121.9 20.55 121.9 24.2
L 121.9 62.65 130.85 62.65 130.85 16.05
Q 127.05 16.05 124.5 18.25
M 172.3 30.35
Q 168.35 27.8 163.05 27.8 154.8 27.8 150.6 33.1 146.8 37.95 146.8 46.65 146.8 53.4 149.85 57.8 153.9 63.55 162.5 63.55 170.6 63.55 174.8 58.25 177.65 54.7 178 50.3
L 169.9 50.3
Q 169 50.3 168.85 51.15 168.4 53.05 167.15 54.4 165.5 56.2 162.9 56.2 158.5 56.2 156.9 52.05 156 49.7 156 45.15 156 41.25 157.45 38.65 159.25 35.3 163.05 35.3 165.55 35.15 167.1 36.75 168.3 37.95 168.8 39.95
L 168.85 40
Q 169 40.8 169.9 40.8
L 178.1 40.8
Q 177.55 33.7 172.3 30.35
M 225 28.7
L 216.05 28.7 216.05 62.7
Q 219.75 62.7 222.4 60.1 225 57.45 225 53.75
L 225 28.7
M 212.15 28.7
L 205.2 28.7
Q 201.15 28.7 198.5 31.75
L 189.9 41.6 189.9 16.05 180.95 16.05 180.95 62.65 189.9 62.65 189.9 51.95 193.6 48.1 201.75 62.65 212.45 62.65 200.15 41.85 212.15 28.7
M 251.8 16.05
L 251.8 33.1 251.7 33.1
Q 248.25 27.8 241.85 27.8 235.9 27.8 232 32.15 227.75 36.9 227.75 45.3 227.75 53 231.1 57.95 234.95 63.6 242.05 63.6 245.1 63.6 247.55 62.45 250.35 61.1 251.9 58.4
L 252 58.4 252 62.7 258.9 62.7
Q 259.65 62.7 260.2 62.15 260.75 61.6 260.75 60.8
L 260.75 16.05 251.8 16.05
M 250.65 39
Q 252.2 41.7 252.2 46.45 252.2 50.6 250.35 53.25 248.25 56.25 244.3 56.25 240.45 56.25 238.45 52.6 236.95 49.8 236.95 45.95 236.95 41.45 238.6 38.75 240.6 35.55 244.55 35.55 248.75 35.55 250.65 39
M 307.35 28.7
L 298.4 28.7 298.4 62.7
Q 302.1 62.7 304.75 60.1 307.35 57.45 307.35 53.75
L 307.35 28.7
M 295.8 46.55
Q 295.8 36.1 290.3 31.35 286.25 27.8 279.8 27.8 270.2 27.8 266.05 34.85 263.5 39.25 263.5 45 263.5 63.6 280.45 63.6 285.4 63.6 289.2 61.25 293.75 58.4 295.4 52.7
L 287.2 52.7
Q 286.3 52.7 285.85 53.55
L 285.85 53.6
Q 285.15 54.95 283.6 55.7 282.15 56.45 280.45 56.45 275.75 56.45 273.85 53.25 272.8 51.5 272.45 48.1
L 295.8 48.1 295.8 46.55
M 284 36.65
Q 286.2 38.55 286.6 42.3
L 272.7 42.3
Q 273.5 35.15 279.7 35.15 282.25 35.15 284 36.65
M 307.35 24.7
L 307.35 16.35 298.4 16.35 298.4 24.7 307.35 24.7
M 334.4 29.6
Q 330.85 27.8 325.8 27.8 319.4 27.8 315.95 29.85 311.3 32.65 310.6 39.7
L 318.3 39.7
Q 319.15 39.7 319.35 38.8
L 319.4 38.75
Q 320.25 34.95 324.7 34.95 327.2 34.95 328.5 35.5 330.6 36.45 330.6 38.9 330.6 41.15 327.45 41.6
L 319.4 42.8
Q 314.9 43.5 312.35 46.1 309.5 48.95 309.5 53.7 309.5 58.6 312.75 61.3 315.6 63.6 319.85 63.6 323.85 63.6 326.85 61.9 328.65 60.9 330.85 58.65
L 330.85 58.7
Q 331.05 60.4 332.3 61.55 333.55 62.7 335.25 62.7
L 339.35 62.7 339.35 37.65
Q 339.35 32.15 334.4 29.6
M 324.55 48
Q 329.2 47.25 330.6 46.15
L 330.6 50.5
Q 330.6 53.45 328.1 55.4 325.75 57.2 322.6 57.2 321 57.2 319.9 56.35 318.45 55.25 318.45 53.1 318.45 50.6 320.25 49.35 321.55 48.5 324.55 48 Z"/>

<path fill="#009BD9" stroke="none" d="
M 225 16.05
L 216.05 16.05 216.05 25.1 225 25.1 225 16.05 Z"/>
</g>

<g id="flash0_ai_Camada_1__Clip_Group__0_Layer3_0_FILL">
<path fill="url(#Gradient_1)" stroke="none" d="
M 70.25 32.2
Q 70.25 19.1 60.95 9.8 51.7 0.5 38.55 0.5 25.4 0.5 16.1 9.8 6.8 19.05 6.8 32.2 6.8 45.35 16.1 54.65 25.4 63.95 38.55 63.95 47.05 63.95 54.35 59.7 61 63.15 66.2 63.75 68.8 64.1 70.1 63.7
L 70.25 32.2 Z"/>
</g>

<g id="Mask_flash0_ai_Camada_1__Clip_Group__0_2_MASK_0_FILL">
<path fill="#FFFFFF" stroke="none" d="
M 70.25 32.2
Q 70.25 19.1 60.95 9.8 51.7 0.5 38.55 0.5 25.4 0.5 16.1 9.8 6.8 19.05 6.8 32.2 6.8 45.35 16.1 54.65 25.4 63.95 38.55 63.95 47.05 63.95 54.35 59.7 61 63.15 66.2 63.75 68.8 64.1 70.1 63.7
L 70.25 32.2 Z"/>
</g>

<g id="flash0_ai_Camada_1__Clip_Group__0_Layer2_0_MEMBER_0_FILL">
<path fill="url(#Gradient_2)" stroke="none" d="
M 56.95 25.4
Q 51.75 14.5 41.1 9.55 28.9 3.95 16.55 7.75 6 10.9 0 18.8 -0.1 26.75 3.55 34.45 7.85 43.55 16.3 49.4 26.6 56.55 39.3 56 50.75 55.45 59.25 49.2 62.4 36.75 56.95 25.4 Z"/>
</g>

<g id="flash0_ai_Camada_1__Clip_Group__0_Layer2_0_MEMBER_1_FILL">
<path fill="url(#Gradient_3)" stroke="none" d="
M 60.1 45.35
Q 62.05 32.3 54.7 21.35 47.35 10.45 34.7 7.25 28.45 11.75 24.4 18.3 20.25 25.05 19.05 32.95 17.25 45 22.6 55.85 27.85 66.45 38.1 72.25 46.75 69.1 52.6 62.05 58.65 54.75 60.1 45.35 Z"/>
</g>

<g id="flash0_ai_Camada_1__Clip_Group__0_Layer2_0_MEMBER_2_FILL">
<path fill="url(#Gradient_4)" stroke="none" d="
M 71.95 2.9
Q 67.65 1.15 63 0.4 47.15 -1.95 34.3 7.55 21.4 17.1 19.05 32.95 17.5 42.85 21.05 52.15 26.15 54.7 32.05 55.6 47.5 57.9 60.05 48.65 72.6 39.35 74.9 23.95 76.55 12.95 71.95 2.9 Z"/>
</g>

<g id="flash0_ai_Camada_1__Clip_Group__0_Layer2_0_MEMBER_3_FILL">
<path fill="url(#Gradient_5)" stroke="none" d="
M 44 11.15
L 41.1 9.55 36.45 7.75 35.1 7.35 34.85 7.3 34.7 7.25 34.65 7.3 31.7 9.65 30.5 10.75 30.35 10.95 26.55 15.2 25.65 16.4 25.45 16.75 24.6 17.95 24.4 18.35 22.5 21.7 20.35 27.1 18.75 35.15 18.75 35.65
Q 18.75 35.75 18.6 37.8
L 18.65 40.4 18.8 42.65 19.65 47.6
Q 19.9 48.8 20.25 49.75
L 20.3 50.05 21 52.1 21.05 52.15
Q 23 53.15 24.8 53.75
L 25.05 53.85 29.75 55.2 33.95 55.85 40.75 55.9 46.55 54.95
Q 48.05 54.55 48.15 54.5
L 48.25 54.5 49.9 53.95
Q 54.95 52.2 59.25 49.2
L 59.7 47.3 59.75 47.15 60.3 43.65 60.4 41.85
Q 60.5 40.2 60.4 38.55
L 60.4 38.3 59.75 33.5 59.75 33.45 59.4 31.85 59.4 31.8 58.95 30.25
Q 56.25 21.55 49.45 15.2
L 49.35 15.15 48.25 14.15 47 13.15 44 11.15 Z"/>
</g>

<g id="flash0_ai_Camada_1__Clip_Group__0_Layer2_1_FILL">
<path fill="#FFFFFF" stroke="none" d="
M 54.3 31.6
Q 53.4 30.65 52 30.65 50.7 30.65 50.2 31.05 49.35 31.65 49.05 33.6
L 49.05 31.35
Q 49.05 29.65 48.6 28.85 47.9 27.5 45.9 27.5 43.3 27.5 42.9 29.75
L 42.85 27.3
Q 42.85 26.05 41.95 25.25 41.05 24.45 39.75 24.45 37.35 24.45 36.8 26.75
L 36.75 14.9
Q 36.75 13.7 35.75 12.8 34.8 11.95 33.65 11.95 32.45 11.95 31.5 12.75 30.45 13.65 30.5 14.9
L 30.55 33.8
Q 29.2 29.6 27.35 28.5 26.3 27.85 25.3 27.85 24.35 27.85 23.9 28.55 23.4 29.35 23.85 30.65 28.1 43.35 31.2 47.35 35.15 52.45 42.8 52.45
L 42.95 52.45
Q 48.4 52.45 51.9 48.3 55.2 44.4 55.15 39.3
L 55.1 33.65
Q 55.1 32.45 54.3 31.6 Z"/>
</g>

<g id="Layer0_0_MEMBER_1_FILL">
<path fill="#3B3D3E" stroke="none" d="
M 275.75 218.85
Q 274.85 218.85 274.7 219.7 274.25 221.6 273 222.95 271.35 224.75 268.75 224.75 264.35 224.75 262.75 220.6 261.85 218.25 261.85 213.7 261.85 209.8 263.3 207.2 265.1 203.85 268.9 203.85 271.4 203.7 272.95 205.3 274.15 206.5 274.65 208.5
L 274.7 208.55
Q 274.85 209.35 275.75 209.35
L 283.95 209.35
Q 283.4 202.25 278.15 198.9 274.2 196.35 268.9 196.35 260.65 196.35 256.45 201.65 252.65 206.5 252.65 215.2 252.65 221.95 255.7 226.35 259.75 232.1 268.35 232.1 276.45 232.1 280.65 226.8 283.5 223.25 283.85 218.85
L 275.75 218.85
M 249.9 197.25
L 240.95 197.25 240.95 231.2
Q 244.65 231.2 247.25 228.6 249.9 225.95 249.9 222.3
L 249.9 197.25
M 295.75 184.6
L 286.8 184.6 286.8 231.2 295.75 231.2 295.75 220.5 299.45 216.65 307.6 231.2 318.3 231.2 306 210.4 318 197.25 311.05 197.25
Q 307 197.25 304.35 200.3
L 295.75 210.15 295.75 184.6
M 240.95 184.6
L 240.95 193.65 249.9 193.65 249.9 184.6 240.95 184.6
M 219.05 189.7
Q 213.55 184.15 204.2 184.15 194.9 184.15 189.2 190.25 183.1 196.75 183.1 208.35 183.1 219.9 189 226.35 194.6 232.45 204.05 232.45 212.4 232.45 217.65 227.7 222.5 223.3 224 215.5
L 216.1 215.5
Q 214.5 215.5 214 217
L 214 217.05
Q 212.9 220.5 210.4 222.35 207.85 224.15 204.25 224.15 198.55 224.15 195.55 219.4 192.9 215.2 192.9 208.45 192.9 199.75 196.85 195.6 199.85 192.45 204.25 192.45 211.8 192.45 214 198.95 214.4 200.35 215.95 200.35
L 224 200.35
Q 223.55 194.25 219.05 189.7
M 230.35 186.8
Q 227.75 189.1 227.75 192.75
L 227.75 231.2 236.7 231.2 236.7 184.6
Q 232.9 184.6 230.35 186.8
M 328.25 228.65
Q 330.85 226 330.85 222.3
L 330.85 197.25 321.9 197.25 321.9 231.25
Q 325.6 231.25 328.25 228.65
M 401.25 221.25
L 393.05 221.25
Q 392.15 221.25 391.7 222.1
L 391.7 222.15
Q 391 223.5 389.45 224.25 388 225 386.3 225 381.6 225 379.7 221.8 378.65 220.05 378.3 216.65
L 401.65 216.65 401.65 215.1
Q 401.65 204.65 396.15 199.9 392.1 196.35 385.65 196.35 376.05 196.35 371.9 203.4 369.35 207.8 369.35 213.55 369.35 232.15 386.3 232.15 391.25 232.15 395.05 229.8 399.6 226.95 401.25 221.25
M 385.55 203.7
Q 388.1 203.7 389.85 205.2 392.05 207.1 392.45 210.85
L 378.55 210.85
Q 379.35 203.7 385.55 203.7
M 445.2 206.2
Q 445.2 200.7 440.25 198.15 436.7 196.35 431.65 196.35 425.25 196.35 421.8 198.4 417.15 201.2 416.45 208.25
L 424.15 208.25
Q 425 208.25 425.2 207.35
L 425.25 207.3
Q 426.1 203.5 430.55 203.5 433.05 203.5 434.35 204.05 436.45 205 436.45 207.45 436.45 209.7 433.3 210.15
L 425.25 211.35
Q 420.75 212.05 418.2 214.65 415.35 217.5 415.35 222.25 415.35 227.15 418.6 229.85 421.45 232.15 425.7 232.15 429.7 232.15 432.7 230.45 434.5 229.45 436.7 227.2
L 436.7 227.25
Q 436.9 228.95 438.15 230.1 439.4 231.25 441.1 231.25
L 445.2 231.25 445.2 206.2
M 426.1 217.9
Q 427.4 217.05 430.4 216.55 435.05 215.8 436.45 214.7
L 436.45 219.05
Q 436.45 222 433.95 223.95 431.6 225.75 428.45 225.75 426.85 225.75 425.75 224.9 424.3 223.8 424.3 221.65 424.3 219.15 426.1 217.9
M 413.2 197.25
L 404.25 197.25 404.25 231.25
Q 407.95 231.25 410.6 228.65 413.2 226 413.2 222.3
L 413.2 197.25
M 366.6 184.6
L 357.65 184.6 357.65 201.65 357.55 201.65
Q 354.1 196.35 347.7 196.35 341.75 196.35 337.85 200.7 333.6 205.45 333.6 213.85 333.6 221.55 336.95 226.5 340.8 232.15 347.9 232.15 350.95 232.15 353.4 231 356.2 229.65 357.75 226.95
L 357.85 226.95 357.85 231.25 364.75 231.25
Q 365.5 231.25 366.05 230.7 366.6 230.15 366.6 229.35
L 366.6 184.6
M 344.45 207.3
Q 346.45 204.1 350.4 204.1 354.6 204.1 356.5 207.55 358.05 210.25 358.05 215 358.05 219.15 356.2 221.8 354.1 224.8 350.15 224.8 346.3 224.8 344.3 221.15 342.8 218.35 342.8 214.5 342.8 210 344.45 207.3
M 404.25 184.9
L 404.25 193.25 413.2 193.25 413.2 184.9 404.25 184.9 Z"/>

<path fill="#009BD9" stroke="none" d="
M 330.85 193.65
L 330.85 184.6 321.9 184.6 321.9 193.65 330.85 193.65 Z"/>
</g>

<g id="Layer0_0_MEMBER_2_MEMBER_0_FILL">
<path fill="url(#Gradient_6)" stroke="none" d="
M 119.35 218.1
L 119.3 217.8
Q 119.1744140625 217.458984375 119.05 217.05
L 119.15 217.45
Q 119.2486328125 217.7875 119.35 218.1
M 118.1 212.85
L 118.6 215.05 117.85 210.7 117.65 206
Q 117.5701171875 209.5044921875 118.1 212.85
M 117.8 203.7
L 117.8 203.5
Q 117.6998046875 204.613671875 117.65 205.7 117.8 203.7966796875 117.8 203.7
M 118.75 198.4
L 118.1 201
Q 117.9564453125 201.9607421875 117.85 202.9
L 118.75 198.4
M 129.2 223.3
Q 130.1375 223.503125 131.1 223.65 131.95078125 223.7767578125 132.8 223.85
L 129.2 223.3
M 123.85 221.8
Q 123.6515625 221.7337890625 123.45 221.65 123.77421875 221.7845703125 124.1 221.9
L 123.85 221.8
M 133.7 175.35
L 133.75 175.3
Q 133.5515625 175.4509765625 133.35 175.6 133.16484375 175.737109375 132.95 175.85
L 130.45 178 133.7 175.35
M 146.15 169.65
Q 146.033984375 169.616015625 145.9 169.55 145.710546875 169.5267578125 145.5 169.45
L 145.45 169.45
Q 139.3271484375 171.2755859375 133.75 175.3
L 133.9 175.35 134.15 175.4 135.5 175.8 140.15 177.6 146.05 181.2 148.4 183.2 148.5 183.25
Q 155.3 189.6 158 198.3
L 158.45 199.85 158.45 199.9 158.8 201.5 158.8 201.55 159.45 206.35 159.45 206.6
Q 159.55 208.25 159.45 209.9
L 159.35 211.7 158.8 215.2 158.75 215.35 158.3 217.25
Q 154 220.25 148.95 222
L 147.3 222.55 147.2 222.55
Q 147.1 222.6 145.6 223
L 139.8 223.95 133.1 223.9
Q 146.910546875 225.2990234375 158.35 217.25 158.721484375 216.9791015625 159.1 216.7 165.5349609375 211.9314453125 169.25 205.55
L 169.3 200.25
Q 169.3 187.15 160 177.85 153.9216796875 171.7390625 146.15 169.65
M 120 193.35
L 119.8 194.1 121.55 189.75 123.65 186 124.5 184.8 124.7 184.45 125.6 183.25 128.85 179.6 127.05 181.35
Q 122.342578125 186.6609375 120 193.35 Z"/>

<path fill="url(#Gradient_7)" stroke="none" d="
M 123.7 228.9
Q 124.3513671875 229.2107421875 125 229.5 123.13359375 226.8953125 121.65 223.9 120.7603515625 222.095703125 120.05 220.25 117.6494140625 219.04609375 115.35 217.45 110.6900390625 214.223828125 107.3 210 107.43828125 210.44140625 107.55 210.85 110.03828125 217.6388671875 115.15 222.7 119.679296875 227.1564453125 123.7 228.9
M 159.1 216.7
Q 158.721484375 216.9791015625 158.35 217.25 156.81171875 222.9291015625 153.4 227.75 160.0615234375 231.2013671875 165.25 231.8 167.85 232.15 169.15 231.75
L 169.25 205.55
Q 165.5349609375 211.9314453125 159.1 216.7
M 119.3 174.3
Q 118.766015625 174.69375 118.25 175.1 126.02578125 173.3322265625 133.75 175.3 139.3271484375 171.2755859375 145.45 169.45 142.13671875 168.6517578125 138.5 168.55 138.440625 168.5515625 138.35 168.55 137.9876953125 168.55 137.6 168.55 137.5138671875 168.55 137.4 168.55 127.4541015625 168.426953125 119.3 174.3 Z"/>

<path fill="url(#Gradient_8)" stroke="none" d="
M 124.1 221.9
Q 123.77421875 221.7845703125 123.45 221.65 121.734375 221.0171875 120.1 220.2
L 120.05 220.15 119.8 219.4
Q 119.76640625 219.296484375 119.7 219.15 119.6572265625 219.012109375 119.6 218.85 119.475390625 218.4771484375 119.35 218.1 119.2486328125 217.7875 119.15 217.45 119.55546875 218.87421875 120.05 220.25 120.7603515625 222.095703125 121.65 223.9 123.13359375 226.8953125 125 229.5
L 125 229.5
Q 130.804296875 232 137.6 232 146.1 232 153.4 227.75
L 153.4 227.75
Q 156.81171875 222.9291015625 158.35 217.25 146.910546875 225.2990234375 133.1 223.9
L 133 223.9 132.8 223.85
Q 131.95078125 223.7767578125 131.1 223.65 130.1375 223.503125 129.2 223.3
L 128.8 223.25 128.35 223.1
Q 126.16875 222.6375 124.1 221.9 Z"/>

<path fill="url(#Gradient_9)" stroke="none" d="
M 119.8 194.1
L 119.4 195.15 118.75 198.4 117.85 202.9 117.8 203.2 117.8 203.5 117.8 203.7
Q 117.8 203.7966796875 117.65 205.7 117.651953125 205.7865234375 117.65 205.85
L 117.65 206 117.85 210.7 118.6 215.05 118.7 215.65
Q 118.86015625 216.419140625 119.05 217.05 119.1744140625 217.458984375 119.3 217.8
L 119.35 218.1
Q 119.475390625 218.4771484375 119.6 218.85 119.6572265625 219.012109375 119.7 219.15 119.76640625 219.296484375 119.8 219.4
L 120.05 220.15 120.1 220.2
Q 121.734375 221.0171875 123.45 221.65 123.6515625 221.7337890625 123.85 221.8
L 124.1 221.9
Q 126.16875 222.6375 128.35 223.1
L 128.8 223.25 129.2 223.3 132.8 223.85 133 223.9 133.1 223.9 139.8 223.95 145.6 223
Q 147.1 222.6 147.2 222.55
L 147.3 222.55 148.95 222
Q 154 220.25 158.3 217.25
L 158.75 215.35 158.8 215.2 159.35 211.7 159.45 209.9
Q 159.55 208.25 159.45 206.6
L 159.45 206.35 158.8 201.55 158.8 201.5 158.45 199.9 158.45 199.85 158 198.3
Q 155.3 189.6 148.5 183.25
L 148.4 183.2 146.05 181.2 140.15 177.6 135.5 175.8 134.15 175.4 133.9 175.35 133.75 175.3 133.7 175.35 130.45 178 129.55 178.8 128.85 179.6 125.6 183.25 124.7 184.45 124.5 184.8 123.65 186 121.55 189.75 119.8 194.1
M 132.7 180
Q 133.85 180 134.8 180.85 135.8 181.75 135.8 182.95
L 135.85 194.8
Q 136.4 192.5 138.8 192.5 140.1 192.5 141 193.3 141.9 194.1 141.9 195.35
L 141.95 197.8
Q 142.35 195.55 144.95 195.55 146.95 195.55 147.65 196.9 148.1 197.7 148.1 199.4
L 148.1 201.65
Q 148.4 199.7 149.25 199.1 149.75 198.7 151.05 198.7 152.45 198.7 153.35 199.65 154.15 200.5 154.15 201.7
L 154.2 207.35
Q 154.25 212.45 150.95 216.35 147.45 220.5 142 220.5
L 141.85 220.5
Q 134.2 220.5 130.25 215.4 127.15 211.4 122.9 198.7 122.45 197.4 122.95 196.6 123.4 195.9 124.35 195.9 125.35 195.9 126.4 196.55 128.25 197.65 129.6 201.85
L 129.55 182.95
Q 129.5 181.7 130.55 180.8 131.5 180 132.7 180 Z"/>

<path fill="url(#Gradient_10)" stroke="none" d="
M 119.8 194.1
L 120 193.35
Q 122.342578125 186.6609375 127.05 181.35
L 128.85 179.6 129.55 178.8 130.45 178 132.95 175.85
Q 133.16484375 175.737109375 133.35 175.6 133.5515625 175.4509765625 133.75 175.3 126.02578125 173.3322265625 118.25 175.1
L 118.2 175.1
Q 116.643359375 176.356640625 115.15 177.85 105.85 187.1 105.85 200.25 105.85 205.410546875 107.25 209.95
L 107.3 210
Q 110.6900390625 214.223828125 115.35 217.45 117.6494140625 219.04609375 120.05 220.25 119.55546875 218.87421875 119.15 217.45
L 119.05 217.05
Q 118.86015625 216.419140625 118.7 215.65
L 118.6 215.05 118.1 212.85
Q 117.5701171875 209.5044921875 117.65 206
L 117.65 205.85
Q 117.651953125 205.7865234375 117.65 205.7 117.6998046875 204.613671875 117.8 203.5
L 117.8 203.2 117.85 202.9
Q 117.9564453125 201.9607421875 118.1 201
L 118.75 198.4 119.4 195.15 119.8 194.1 Z"/>
</g>

<g id="Layer0_0_MEMBER_2_MEMBER_1_MEMBER_0_FILL">
<path fill="#FFFFFF" stroke="none" d="
M 135.8 182.95
Q 135.8 181.75 134.8 180.85 133.85 180 132.7 180 131.5 180 130.55 180.8 129.5 181.7 129.55 182.95
L 129.6 201.85
Q 128.25 197.65 126.4 196.55 125.35 195.9 124.35 195.9 123.4 195.9 122.95 196.6 122.45 197.4 122.9 198.7 127.15 211.4 130.25 215.4 134.2 220.5 141.85 220.5
L 142 220.5
Q 147.45 220.5 150.95 216.35 154.25 212.45 154.2 207.35
L 154.15 201.7
Q 154.15 200.5 153.35 199.65 152.45 198.7 151.05 198.7 149.75 198.7 149.25 199.1 148.4 199.7 148.1 201.65
L 148.1 199.4
Q 148.1 197.7 147.65 196.9 146.95 195.55 144.95 195.55 142.35 195.55 141.95 197.8
L 141.9 195.35
Q 141.9 194.1 141 193.3 140.1 192.5 138.8 192.5 136.4 192.5 135.85 194.8
L 135.8 182.95 Z"/>
</g>
</defs>

<g transform="matrix( 1, 0, 0, 1, 0.35,0.05) ">
<use xlink:href="#Layer0_0_FILL"/>
</g>

<g transform="matrix( 1, 0, 0, 1, -6.45,-0.45) ">
<g transform="matrix( 1, 0, 0, 1, 0,0) ">
<use xlink:href="#flash0_ai_Camada_1__Clip_Group__0_Layer3_0_FILL"/>
</g>

<mask id="Mask_Mask_1">
<g transform="matrix( 1, 0, 0, 1, 0,0) ">
<use xlink:href="#Mask_flash0_ai_Camada_1__Clip_Group__0_2_MASK_0_FILL"/>
</g>
</mask>

<g mask="url(#Mask_Mask_1)">
<g transform="matrix( 1, 0, 0, 1, 0,0) ">
<use xlink:href="#flash0_ai_Camada_1__Clip_Group__0_Layer2_0_MEMBER_0_FILL"/>
</g>

<g transform="matrix( 1, 0, 0, 1, 0,0) ">
<use xlink:href="#flash0_ai_Camada_1__Clip_Group__0_Layer2_0_MEMBER_1_FILL"/>
</g>

<g transform="matrix( 1, 0, 0, 1, 0,0) ">
<use xlink:href="#flash0_ai_Camada_1__Clip_Group__0_Layer2_0_MEMBER_2_FILL"/>
</g>

<g transform="matrix( 1, 0, 0, 1, 0,0) ">
<use xlink:href="#flash0_ai_Camada_1__Clip_Group__0_Layer2_0_MEMBER_3_FILL"/>
</g>

<g transform="matrix( 1, 0, 0, 1, 0,0) ">
<use xlink:href="#flash0_ai_Camada_1__Clip_Group__0_Layer2_1_FILL"/>
</g>
</g>
</g>

<g transform="matrix( 1, 0, 0, 1, -105.5,-168.5) ">
<use xlink:href="#Layer0_0_MEMBER_1_FILL"/>
</g>

<g transform="matrix( 1, 0, 0, 1, -105.5,-168.5) ">
<use xlink:href="#Layer0_0_MEMBER_2_MEMBER_0_FILL"/>
</g>

<g transform="matrix( 1, 0, 0, 1, -105.5,-168.5) ">
<use xlink:href="#Layer0_0_MEMBER_2_MEMBER_1_MEMBER_0_FILL"/>
</g>
</svg>
