
<svg xmlns="http://www.w3.org/2000/svg" version="1.1" xmlns:xlink="http://www.w3.org/1999/xlink" preserveAspectRatio="none" x="0px" y="0px" width="99px" height="93px" viewBox="0 0 99 93">
<defs>
<g id="Layer2_0_FILL">
<path fill="#FFFFFF" stroke="none" d="
M 99 93
L 99 0 0 0 0 93 99 93 Z"/>
</g>

<g id="Layer1_0_FILL">
<path fill="#FFFFFF" stroke="none" d="
M 99 93
L 99 0 0 0 0 93 99 93 Z"/>
</g>

<g id="Layer0_0_FILL">
<path fill="#B2B2B2" stroke="none" d="
M 78.05 0.85
L 78.05 0.75 75.6 0.75 75.6 0.85 78.05 0.85
M 25.15 83.5
L 22.9 83.5 25.15 83.55 25.15 83.5
M 65.1 85.75
L 65.05 85.75 65.1 86.3 65.1 85.75
M 42.75 85.75
L 42.75 86.3 42.9 86.3 42.9 85.75 42.75 85.75
M 20.85 85.75
L 20.8 85.75 20.8 86.3 20.85 86.3 20.85 85.75
M 85.5 91.3
L 85.5 91.35 85.85 91.35 85.85 91.3 85.5 91.3
M 84.3 1.7
L 83.95 1.7 84.3 1.75 84.3 1.7
M 12.95 91.35
L 14.95 91.35 12.95 91.3 12.95 91.35
M 12.95 1.75
L 14.7 1.7 12.95 1.7 12.95 1.75
M 48.9 1.95
L 48.9 1.9 44.15 1.9 44.15 2 48.9 1.95 Z"/>

<path fill="#000000" stroke="none" d="
M 98.35 1.9
Q 98.3 1.2 97.7 0.95
L 93.8 0.95 91.85 0.95 89.9 0.85 82.4 0.85 82.2 0.85 78.05 0.85 75.6 0.85 75.2 0.85 71.05 0.85 61.55 0.85 59.7 0.85 58.35 0.85 53.6 0.85 48.85 0.85 39.3 0.85 37.5 0.85 36.4 0.85 31.6 0.85 26.75 0.85 9.1 0.85 7 0.95 4.95 0.95 1.15 0.95 1.05 0.95 0.65 1.3 0.65 5.15 0.7 7.3 0.7 11.25 0.7 15.25 0.7 20.2 0.8 23.1 0.8 27.1 0.8 31 0.8 40.05 0.8 44.05 0.8 47.9 0.7 51.75 0.7 54.7 0.8 54.7 0.8 60.1 0.8 64.05 0.8 70.5 0.7 73.85 0.7 77.9 0.7 81.9 0.7 85.8 0.65 88 0.65 89.7
Q 0.55 91.15 0.9 92.15
L 1.15 92.2 97.7 92.2
Q 98.55 91.9 98.3 90.55
L 98.25 74.55 98.15 74.55 98.05 70.5 98.05 64.75 98.05 60.9 98.05 56.85 98 55.45 98.05 55.45 98.25 52.6 98.15 52.6 98.05 48.6 98.05 44.65 98.05 40.75 98.05 36.8 98 34.9 98.05 34.9 98.05 30.95 98.05 27.1 98.05 23.1 98.05 19.15 98.25 19.15 98.35 1.9
M 97.2 1.9
Q 97.1515625 1.9484375 97.15 2
L 97.2 2.05 97.25 3.4 97.25 11.25 97.25 15.25 97.2 18.1 97.2 19.05 97.2 23.1 97.2 27.1 97.2 31 97.15 33.25 97.15 38.5 97.2 40.75 97.2 44.65 97.2 48.6 97.2 52.6 97.2 55.45 97.15 55.45 97.15 58.65 97.2 60.9 97.2 64.75 97.2 67.4 97.2 67.85 97.2 70.5 97.2 74.55 97.2 75.4 97.25 77.9 97.25 81.9 97.25 89.75 97.25 91.25 97.15 91.25 95.75 91.3 93.8 91.3 91.85 91.3 89.8 91.3 89.8 91.35 87.85 91.35 85.85 91.35 85.5 91.35 85.5 91.5 83.95 91.35 77.35 91.35 76.25 91.35 75.6 91.4 75.6 91.35 75.6 91.3 75.3 91.3 75.3 91.35 71.05 91.35 66.35 91.35 63.75 91.3 61.55 91.3 59.7 91.35 58.5 91.5 56 91.35 48.9 91.35 44.15 91.35 41.4 91.3 39.3 91.3 37.5 91.35 37.45 91.35 36.5 91.5 33.95 91.35 26.95 91.35 22.1 91.35 19.45 91.3 17.3 91.3 15.55 91.35 14.95 91.35 12.95 91.35 11 91.35 9.1 91.3 7 91.3 4.95 91.3 3 91.3 1.65 91.25 1.6 91.25 1.6 91.2 1.55 89.7 1.6 89.7 1.6 81.9 1.6 77.9 1.6 74.55 1.65 74.55 1.65 71.05 1.65 70.5 1.65 67.85 1.65 67.4 1.65 64.05 1.65 60.1 1.65 56.15 1.7 56.15 1.7 54.7 1.65 54.7 1.6 51.9 1.65 51.9 1.7 49.3 1.65 47.9 1.65 44.05 1.65 40.05 1.65 36.1 1.7 36.1
Q 1.7 35.35 1.7 34.6
L 1.65 34.6 1.65 31 1.65 27.1 1.65 23.1 1.65 21.5 1.65 17.95 1.6 15.25 1.6 11.25 1.6 3.4 1.55 1.9 1.6 1.9 1.65 1.9 1.65 1.75 3 1.75 4.95 1.75 7 1.75 9.1 1.75 9.1 1.7 11 1.7 12.95 1.7 14.7 1.7 15.85 1.7 15.85 1.9 22.1 1.9 22.1 1.75 27 1.75 36.4 1.75 37.5 1.75 38 1.9 38.1 1.9 39.3 1.9 44.15 1.9 44.15 1.75 48.95 1.75 58.35 1.75 59.7 1.75 60.15 1.9 60.7 1.9 60.7 1.95 60.8 1.95 61.55 1.9 66.35 1.9 66.35 1.75 71.25 1.75 72.75 1.9 75.2 1.9 75.6 1.9 75.6 1.75 82.2 1.75 82.4 1.75 82.4 1.7 83.95 1.7 84.3 1.7 85.85 1.7 87.85 1.7 89.8 1.7 89.8 1.75 94.4 1.75 95.75 1.75 97.15 1.9 97.2 1.9
M 86.8 12.4
L 86.8 12.45 82.4 12.45 15.55 12.45 12.95 12.4 11.15 12.4 11.15 14.25 11.15 78.8 11.15 79.4 11.15 80.75 11.75 80.75 85.5 80.75 86.85 80.75 87.7 80.75 87.7 79.4 87.75 79.4 87.75 13.8 87.7 12.4 86.8 12.4
M 82.2 13.6
L 82.2 13.5 82.4 13.5 86.8 13.5 86.8 79.6 85.5 79.6 85.5 79.7 75.6 79.7 75.6 79.65 15.55 79.6 12.05 79.6 12.05 15.1 12 13.5 12.05 13.5 75.6 13.6 75.6 13.65 79.95 13.65 82.2 13.6
M 85.9 14.7
L 85.1 14.65 84.2 14.65 83.35 14.6 83.3 14.6 82.85 14.55 82.4 14.55 15.55 14.55 15.55 14.6 15.4 14.6 14.2 14.65 13.7 14.65 13.7 14.7 12.95 14.7 12.9 14.7 12.7 15 12.75 15.55 12.8 15.55 12.8 77.6 12.95 78.4 13.7 78.4 13.7 78.5 14.2 78.5 15.55 78.55 15.55 78.6 85.5 78.6 85.5 78.55 85.5 78.5 85.5 78.4 85.8 78.5 85.95 78 85.95 17.95 85.9 15.55 85.95 15.55 86.05 15.55
Q 86.4 15.1 85.9 14.7
M 82.2 15.6
L 82.2 15.55 82.4 15.55 83.3 15.55 84.2 15.55 85 15.6 85 15.7 85 77.5 84.2 77.6 15.55 77.6 15.55 77.65 14.65 77.6 13.75 77.5 13.75 17.8 13.7 15.7 13.75 15.7 13.75 15.55 14.65 15.55 79.55 15.6 82.2 15.6 Z"/>

<path fill="#646464" stroke="none" d="
M 75.6 91.35
L 75.6 91.4 76.25 91.35 75.6 91.35
M 12.05 15.1
L 12.05 13.5 12 13.5 12.05 15.1
M 62 85.3
L 62 85.4 62.1 85.4 62.1 85.35 62.45 85.1 62.35 85.1 62 85.3
M 40.15 85.1
L 40.1 85.1 39.8 85.3 39.8 85.4 39.95 85.4 39.95 85.35 40.15 85.1
M 18.15 85.1
L 18.1 85.1 17.8 85.3 17.8 85.4 17.9 85.4 17.9 85.35 18.15 85.1
M 58.5 91.35
L 58.5 91.5 59.7 91.35 58.5 91.35
M 36.5 91.35
L 36.5 91.5 37.45 91.35 36.5 91.35 Z"/>

<path fill="#9F9F9F" stroke="none" d="
M 75.6 91.25
L 75.3 91.25 75.3 91.3 75.6 91.3 75.6 91.25
M 14.65 15.6
L 14.65 15.55 13.75 15.55 13.75 15.7 14.65 15.6
M 14.65 77.6
L 14.65 77.5 13.75 77.5 14.65 77.6
M 91.3 56.35
L 91.3 56.4 91.85 56.4 91.3 56.35
M 82.2 5.5
L 82.4 5.45 80.9 5.45 82.2 5.5
M 59.7 91.25
L 59.7 91.3 59.7 91.35 61.55 91.3 61.55 91.25 59.7 91.25
M 37.5 91.3
L 37.5 91.35 39.3 91.3 39.3 91.25 37.5 91.25 37.5 91.3 Z"/>

<path fill="#515151" stroke="none" d="
M 75.2 1.9
L 75.2 2 75.6 2 75.6 1.9 75.2 1.9
M 69.8 86.65
L 70.35 86.7 70.35 86.65 69.8 86.65
M 48.15 86.7
L 48.15 86.65 47.55 86.65 48.15 86.7
M 25.45 86.65
L 26.1 86.7 26.1 86.65 25.45 86.65
M 37.5 1.75
L 37.5 1.9 38 1.9 37.5 1.75
M 38.1 1.95
L 38.15 2 39.3 2 39.3 1.9 38.1 1.9 38.1 1.95
M 59.7 1.75
L 59.7 1.9 60.15 1.9 59.7 1.75
M 60.8 1.95
L 60.9 2 61.55 2 61.55 1.9 60.8 1.95 Z"/>

<path fill="#5E5E5E" stroke="none" d="
M 82.2 1.9
L 82.2 1.75 75.6 1.75 75.6 1.9 75.8 1.9 78.05 1.9 82.2 1.9
M 5.6 6.85
L 5.6 7.85 5.7 7.85 5.6 6.85
M 93.25 6.85
L 93.1 6.85 93.15 7.85 93.25 6.85 Z"/>

<path fill="#FEFEFE" stroke="none" d="
M 97.15 2
L 97.15 1.9 95.75 1.9 94.4 1.75 89.8 1.75 87.85 1.75 85.85 1.7 84.3 1.7 84.3 1.75 83.95 1.7 82.4 1.7 82.4 1.75 82.4 1.9 82.2 1.9 78.05 1.9 78.05 1.95 77.35 2 75.8 1.9 75.6 1.9 75.6 2 75.2 2 72.4 1.9 72.3 1.9 72.3 1.95 71.25 1.9 66.35 1.9 61.55 1.9 61.55 2 60.9 2 60.8 1.95 60.7 1.95 60.7 1.9 60.15 1.9 59.7 1.9 58.35 1.9 53.5 1.9 53.5 1.95 52.65 2 49.85 1.9 49.6 1.9 49.6 1.95 49.15 1.9 48.95 1.9 48.9 1.9 48.9 1.95 44.15 2 39.3 2 38.15 2 38.1 1.95 38.1 1.9 38 1.9 37.5 1.9 36.4 1.9 27.4 1.9 27.4 1.95 27.05 1.9 27 1.9 22.1 1.9 15.85 1.9 15.85 1.7 14.7 1.7 12.95 1.75 11 1.75 9.1 1.75 7 1.75 7 1.9 4.95 1.9 3.15 1.9 3.15 1.95 1.65 2 1.65 11.25 1.65 15.25 1.65 17.95 1.65 21.5 1.7 23.1 1.7 27.1 1.7 31 1.7 31.1
Q 1.7 32.9 1.7 34.6 1.7 35.35 1.7 36.1
L 1.7 40.05 1.7 44.05 1.7 47.9 1.7 49.3 1.65 51.9 1.65 54.7 1.7 54.7 1.7 56.15 1.7 60.1 1.7 64.05 1.7 67.4 1.7 67.85 1.7 70.5 1.7 70.6 1.65 71.05 1.65 74.55 1.65 77.9 1.65 81.9 1.65 89.7 1.65 91.2 4 91.25 4.95 91.25 7 91.25 7 91.3 9.1 91.3 11 91.3 12.95 91.3 14.95 91.35 15.55 91.35 15.55 91.25 17.3 91.25 22.1 91.25 22.1 91.3 26.95 91.3 36.4 91.3 37.5 91.3 37.5 91.25 39.3 91.25 44.15 91.25 44.15 91.3 48.9 91.3 58.35 91.3 59.7 91.3 59.7 91.25 61.55 91.25 66.35 91.25 66.35 91.3 71.05 91.3 75.3 91.25 75.6 91.25 75.6 91.3 77.35 91.3 85.5 91.3 85.85 91.3 87.85 91.3 89.8 91.3 91.85 91.3 91.85 91.25 93.8 91.25 95.75 91.25 97.15 91.25 97.25 91.25 97.25 89.75 97.2 89.75 97.2 87.7 97.15 87.7 97.2 87.1 97.2 81.9 97.2 77.9 97.2 75.4 97.2 74.55 97.15 74.55 97.15 70.5 97.15 67.85 97 67.85 97 67.4 97.15 67.4 97.15 64.75 97.15 60.9 97.15 60.7 97 60.7 97 55.45 97.15 55.45 97.2 55.45 97.2 52.6 97.15 52.6 97.15 48.6 97.15 44.65 97.15 40.75 97 40.75 97 31.1 97.15 31.1 97.15 31 97.15 27.1 97.15 23.1 97.15 19.05 97.2 19.05 97.2 18.1 97.2 15.25 97.2 11.25 97.2 3.4 97.25 3.4 97.2 2.05 97.15 2
M 96.45 2.55
L 96.6 2.65 96.65 84.65
Q 96.65 85.45 96.65 86.25 96.65 86.6 96.65 87
L 96.65 87.7 96.7 87.7 96.65 88.45 96.6 90.55 96.55 90.6 75.6 90.6 75.6 90.55 2.25 90.55 2.25 89.85 2.2 87.65 2.25 87.65 2.25 5.2 2.2 2.65 2.25 2.65 2.25 2.55 3 2.5 3.15 2.55 95.75 2.55
Q 96.2 2.2 96.45 2.55
M 84.9 15.7
L 84.2 15.55 83.3 15.55 84.9 15.7
M 13.75 15.7
L 13.75 17.8 14.65 15.6 13.75 15.7
M 3.3 3.5
L 3.15 3.5 3.15 3.55 3.3 3.55 3.3 3.5 Z"/>

<path fill="#010101" stroke="none" d="
M 96.6 2.65
L 96.45 2.55
Q 96.2 2.2 95.75 2.55
L 3.15 2.55 3 2.5 2.25 2.55 2.25 2.65 2.25 5.2 2.25 87.65 2.25 89.85 2.25 90.55 75.6 90.55 75.6 90.6 96.55 90.6 96.6 90.55 96.6 87.7 96.65 88.45 96.65 87.7 96.65 87
Q 96.65 86.6 96.65 86.25 96.65 85.45 96.65 84.65
L 96.6 2.65
M 95.65 87.7
L 95.7 87.7 95.6 89.55 95.6 89.7 89.4 89.6 20.8 89.6 15.55 89.7 3.3 89.7 3.3 89.55 3.15 87.65 3.25 87.65 3.25 67.4 3.2 67.4 3.15 3.55 3.15 3.5 3.3 3.5 15.55 3.5 95.6 3.5 95.65 87.7
M 93.25 6.55
L 93.25 6.45
Q 93.65 5.45 92.8 5.45
L 87.6 5.45
Q 85 5.45 82.4 5.45
L 82.2 5.5 80.9 5.45 80.25 5.45
Q 79.15 5.45 78.15 5.45
L 15.55 5.45 6.5 5.45 6.45 5.45 5.4 5.55
Q 5.4 7.25 5.4 8.1
L 5.4 85.05
Q 5.5 85.1 5.5 86.65
L 5.5 86.9 5.4 87.1 5.5 87 5.5 87.1 5.55 86.45 5.6 86.45 5.6 86.65 5.5 87.1 93.35 87.1 93.25 87.05 93.3 85.1 93.45 85.1 93.5 82.55
Q 93.4 80.75 93.4 78.6
L 93.45 74.75 93.5 74.75 93.5 50.85
Q 93.5 34.25 93.5 17.7 93.5 17.05 93.5 16.5
L 93.45 10.5 93.5 10.5 93.5 8.1
Q 93.35 7.65 93.25 6.55
M 93.1 6.85
L 93.25 6.85 93.15 7.85 93.1 6.85
M 91.45 6.85
Q 92.05 6.9 92.15 7.2
L 92.25 7.2 92.25 8.15 91.55 8.75 91.45 8.75 91.45 8.8 91.35 8.85 91.35 8.9 90.8 8.85 90.75 8.85 90.75 8.75 90.65 8.75
Q 90.2 8.55 90.2 7.95
L 90.65 7.3 90.65 7.2 91.4 6.85 91.45 6.85
M 92.6 10.15
L 92.65 10.2 92.7 11 92.65 11 92.65 11.05 92.3 11.95 92.25 12 91.45 11.95 91.4 11.95 91.15 11.5 91.15 11.45 91.1 11.45 91 10.5 91.15 10.5 91.15 10.15
Q 91.85 9.6 92.6 10.15
M 84.75 7.5
L 84.75 7.55
Q 84.45 8.7 83.25 8.4
L 83.2 8.2 83.05 8.2 83.05 7.1 83.2 7.1 83.2 6.95
Q 84.05 6.55 84.75 7.5
M 81.3 7.1
L 81.3 8.25 80.75 8.55 80.75 8.6 79.5 8.7 79.3 8.45 79.25 8.4 79.1 8.4 79.1 7.3 79.25 7.3 79.25 7.2 79.3 7.2 79.75 6.95 79.75 6.9 79.85 6.9 80.95 6.8 80.95 6.85 81.2 6.95 81.3 7.1
M 87.1 6.85
L 88.05 6.9
Q 88.9 7.9 87.85 8.45
L 86.9 8.45 86.9 8.4 86.5 8.15 86.5 6.95 87.1 6.85
M 90.8 14.25
L 90.95 14.25 90.95 14.15 91 14.15 91 14.1 91.2 14 91.3 14 91.3 13.8 92.1 13.8 92.1 14
Q 92.65 14.65 92.1 15.55
L 92.1 15.6 91.3 15.55 91.2 15.55 91 15.35 90.95 15.3 90.95 15.25 90.8 14.25
M 90.75 17.8
L 90.8 17.8 91.15 17.25 91.85 17.25 92.15 17.4 92.15 18.85 92.1 18.9
Q 91.4 19.45 90.8 18.65
L 90.75 18.65 90.75 17.8
M 90.95 20.65
L 91 20.6 92.15 20.6 92.25 20.65
Q 92.6 21.6 91.85 22.15
L 91.85 22.2 90.95 22.15 90.65 21.95 90.5 21.95 90.5 21.2 90.65 21.2 90.95 20.65
M 90.95 24.45
L 90.8 23.8 91.15 23.5 91.3 23.45 91.3 23.4 91.85 23.4 91.85 23.45 91.85 23.5
Q 92.5 24.2 91.65 24.7
L 91.65 24.75 91.15 24.7 91 24.7 90.95 24.5 90.95 24.45
M 91.35 30
L 92.3 30.05 92.6 30.25 92.6 31.1 92.1 32.15 92.05 32.15
Q 91.1 31.9 90.95 30.9
L 91.35 30.05 91.35 30
M 92.45 26.7
Q 92.75 27.6 92.3 28.35
L 92.3 28.4
Q 91.45 28.75 90.95 28.3
L 90.95 28.1 90.8 27.45 90.95 27.45 90.95 27.05
Q 91.4 26.15 92.3 26.7
L 92.45 26.7
M 91.4 33.85
Q 92.1 33.85 92.6 34.2
L 92.6 35.1 91.85 35.5 91.2 35.5 90.8 34.6 90.75 34.6 90.75 33.85 90.8 33.85 90.8 33.8 91.4 33.8 91.4 33.85
M 90.8 37.75
L 91 37.65 91.15 37.65 91.15 37.45 91.3 37.3 91.35 37.3 91.35 37.15
Q 92 37.15 92.1 37.45
L 92.1 37.6
Q 92.15 38.75 91.15 38.4
L 91.1 38.4
Q 90.8 38.2 90.8 37.75
M 90.95 44.4
L 90.95 44.35 90.8 43.5 90.95 43.5 92.3 43.4
Q 92.75 44.2 92.3 45
L 92.3 45.1
Q 91.1 45.65 90.95 44.4
M 90.8 47.25
L 91.1 47.1 91.65 47.1
Q 92.5 47.55 91.85 48.3
L 91.85 48.35 91.3 48.3 91.15 48.3 90.8 47.95 90.8 47.25
M 92.6 37.45
L 92.6 37.6 92.5 37.45 92.6 37.45
M 92.05 39.7
L 92.1 39.7 92.6 40.75 92.6 41.45 92.3 41.7 91.3 41.7
Q 91 41.2 90.95 40.5 91.3 39.9 92.05 39.7
M 91.85 49.55
Q 92.6 50.15 92.25 51.1
L 92.25 51.15 92.15 51.15 92.15 51.2 91 51.15 90.95 51.15 90.75 50.85 90.65 50.75 90.5 49.85 90.65 49.85 90.65 49.8 90.95 49.55 90.95 49.5 91.75 49.55 91.85 49.55
M 91.85 54.55
L 91.15 54.55 90.8 53.9 90.75 53.9 90.75 53.1 90.8 53.1
Q 91.4 52.5 92.1 52.85
L 92.15 52.9 92.15 54.25 91.85 54.55
M 91.85 56.4
Q 92.45 56.45 92.6 56.8
L 92.6 57.7 91.4 58 90.8 58 90.75 57.95 90.75 57.35 90.8 57.35 91.2 56.45 91.3 56.4 91.3 56.35 91.85 56.4
M 92.6 60.7
L 92.6 61.55 92.3 61.75 92.3 61.85 91.35 61.75 91.3 61.75
Q 91 61.35 90.95 60.65 91.3 60.05 92.05 59.7
L 92.1 59.7 92.6 60.7
M 90.95 64.3
L 90.8 63.65 90.95 63.65 90.95 63.55 92.3 63.5
Q 92.75 64.3 92.3 65.15
L 92.3 65.2
Q 91.15 65.65 90.95 64.4
L 90.95 64.3
M 90.8 69.9
L 90.8 69.2 91.1 69 91.15 69 91.15 68.95 91.65 68.95 91.65 69
Q 92.3 69.3 92.1 69.9 92.1 69.95 92.05 70 92 70.05 91.85 70.1
L 91.85 70.25 91.3 70.1 91.15 70.1 90.8 69.9
M 92.15 74.85
L 92.15 76.25 91.85 76.35 91.85 76.45 91.3 76.35 91.15 76.35 90.8 75.85 90.75 75.85 90.75 75 90.8 75
Q 90.9 74.85 91 74.75
L 92.05 74.75 92.15 74.85
M 91.2 77.6
L 91.3 77.6 91.3 77.5 92.1 77.5 92.1 77.6
Q 92.7 78.3 92.1 79.15
L 92.1 79.25 91.3 79.15 91.2 79.15 91 78.95 90.95 78.95 90.8 77.9 90.95 77.9 90.95 77.8 91 77.8 91 77.75 91.2 77.6
M 91.15 81.5
L 91.4 81.2 92.3 81.2 92.6 82.15 92.65 82.15 92.7 83 92.65 83 92.6 83.05
Q 91.7 83.55 91.15 82.85
L 91.15 82.55 91.1 82.55 91 81.75 91.15 81.75 91.15 81.5
M 91.45 84.45
L 91.55 84.45 92.25 85 92.25 85.95 92.15 85.95 91.45 86.3 91.4 86.3 90.5 85.75 90.45 85.75 90.25 85.1
Q 90.2 85 90.2 84.65
L 90.65 84.45 90.75 84.45 90.75 84.35 90.8 84.35 90.8 84.3 91.35 84.3 91.35 84.35 91.45 84.4 91.45 84.45
M 82.65 84.8
L 82.85 84.5 82.9 84.45 83.8 84.45 84.3 84.5 84.3 84.65 84.55 85 84.6 85 84.6 86.15 84.3 86.45 84.2 86.45 83.35 86.3 83.3 86.3 82.8 86.25 82.65 86 82.55 86 82.55 85.95 82.4 85.95 82.4 84.85 82.55 84.85 82.55 84.8 82.65 84.8
M 81.05 85.3
L 81.15 85.8 81.05 85.8 81.05 85.95 80.7 86.25 80.7 86.3 80.05 86.25 79.7 85.8 79.65 85.8 79.6 85.75 79.5 85.1 79.6 85.1 79.6 85 79.7 85 79.7 84.85 79.7 84.8
Q 79.85 84.75 79.95 84.75 80.1 84.65 80.4 84.65
L 80.55 84.75
Q 80.65 84.75 80.75 84.8
L 80.75 84.85 81.05 85.1 81.05 85.3
M 86.9 84.75
L 86.9 84.65 86.9 84.5 87.85 84.65
Q 88.9 85.2 88.05 86.3
L 87.1 86.3
Q 86.65 86.3 86.5 86.15
L 86.5 85 86.9 84.75
M 76 86.25
L 76 86.3 75.9 86.3 76 86.25
M 77.6 7.2
Q 77.6728515625 7.26328125 77.75 7.3
L 77.8 7.95 77.75 7.95 77.75 8.1 77.35 8.45 77.35 8.55 76.7 8.45 76.6 8.45
Q 76.4 8.45 76.25 8.3 76.2 8.25 76.2 8.2
L 76.2 8.15 76.15 7.5 76.2 7.5 76.2 7.3 76.4 7.3
Q 76.669921875 6.8501953125 77.55 7.2 77.5732421875 7.213671875 77.6 7.2
M 76.9 84.95
L 76.9 84.85 77.05 84.85
Q 77.380859375 84.802734375 77.6 84.85 77.84453125 84.9154296875 77.95 85.1
L 78 85.1 78 85.2
Q 78.15 85.8 77.85 86.15
L 77.85 86.3 77.75 86.3 77.7 86.4 77.6 86.35 77.05 86.3
Q 76.9 86.1 76.55 86.15
L 76.4 86.1 76.25 85.8 76.25 85.35 76.4 85.2 76.9 84.95
M 75.25 6.9
L 75.3 6.95
Q 75.6 7.5 75.35 8.25
L 75.3 8.25 75.25 8.35 75.2 8.35 75.2 8.4 74.2 8.35 73.9 8.1 73.7 7.95 73.6 7.85 73.6 7.3
Q 73.95 7.1 74.3 6.95
L 74.35 6.9 74.35 6.85
Q 74.95 6.55 75.25 6.9
M 71.25 6.55
L 71.25 6.6 71.75 6.95 71.75 7.1 71.8 7.1
Q 71.9 7.75 71.7 7.95
L 71.7 8.1 71.4 8.2 71.4 8.25 70.75 8.4 69.6 8.35
Q 69.1 7.9 69.35 6.95
L 69.8 6.55 70.75 6.55 70.75 6.45
Q 71.05 6.45 71.25 6.55
M 65.05 6.95
L 65.1 6.95 65.1 6.9 65.15 6.9 65.15 6.85 65.85 6.6 65.9 6.6 66.15 6.55 66.25 6.55 66.25 6.45 67.15 6.5 67.15 6.55
Q 67.4 6.6 67.4 6.85
L 67.45 6.9 67.5 6.9 67.5 7.85 67.4 8.1 67.35 8.1 67.15 8.2 67.15 8.25 66.55 8.35 66.5 8.4 65.9 8.35 65.85 8.35 65.55 7.95 65.5 7.9 65.15 7.75 65.1 7.75 65.05 6.95
M 63.6 8.1
L 63.45 8.15 63.45 8.2 63.3 8.25 63.3 8.35 63.3 8.4
Q 63.1 8.55 62.65 8.4
L 62.65 8.35 62.55 8.25 62.5 8.25 62.2 7.95 62.1 7.9
Q 61.95 7.8 61.95 7.3
L 62.3 7.1 62.35 7.1 63.1 7.1 63.4 7.3 63.6 8.1
M 54.75 7.2
L 55.25 6.9 55.35 6.9 56.45 6.8 56.45 6.85 56.7 6.95 56.7 7.1 56.9 8.2 56.7 8.2 56.7 8.25 56.4 8.55 56.4 8.6 55.8 8.7 55.05 8.7 54.95 8.6 54.75 8.45 54.7 8.4 54.65 8.4 54.5 7.3 54.7 7.3 54.7 7.2 54.75 7.2
M 53.2 7.3
L 53.2 7.95 52.85 8.45 52.85 8.55 52.15 8.45 52.1 8.45
Q 51.75 8.45 51.75 8.2
L 51.7 8.2 51.7 7.5 51.75 7.5 51.75 7.3 51.8 7.3 53.2 7.3
M 59.8 6.9
L 59.85 6.95
Q 60.15 7.5 59.85 8.25
L 59.8 8.35 59.7 8.35 59.7 8.4 58.85 8.35 58.75 8.35 58.35 8.1 58.35 7.95 58.25 7.85 58.2 7.85 58.2 7.3 58.25 7.3
Q 58.5 7.1 58.9 6.95
L 58.9 6.9 58.9 6.85
Q 59.6 6.55 59.8 6.9
M 44.9 6.55
L 45.25 6.85 45.25 6.9 45.3 6.9 45.35 7.8 45.3 7.8 45.3 7.85 45.15 8.1 44.9 8.2 44.9 8.25 44.35 8.35 44.35 8.4 43.65 8.35 43.6 8.35 43.35 7.95 42.9 7.75 42.75 6.95 42.9 6.95 42.9 6.9 42.9 6.85 43.6 6.6 43.65 6.6 43.95 6.55 44 6.55 44 6.45 44.9 6.5 44.9 6.55
M 41.1 7.3
L 41.25 7.3 41.35 8.1 41.25 8.15 41.25 8.2 41.05 8.25 41.05 8.35 41.05 8.4
Q 40.8 8.55 40.5 8.4
L 40.4 8.25 40.25 8.25 40 7.95 39.95 7.9
Q 39.65 7.8 39.7 7.3
L 40 7.1 40.05 7.1 40.8 7.1 41.1 7.3
M 49.5 6.95
L 49.5 7.1 49.55 7.1 49.55 7.2
Q 49.6 7.75 49.45 7.95
L 49.45 8.1 49.15 8.2 49.15 8.25 48.55 8.4 47.3 8.35 47.25 8.35
Q 46.9 7.9 47.05 6.95
L 47.55 6.6 47.55 6.55 48.55 6.55 48.55 6.45
Q 48.85 6.45 49.05 6.55
L 49.05 6.6 49.5 6.95
M 34.5 6.8
L 34.5 6.85 34.75 6.95 34.75 8.25 34.3 8.55 34.3 8.6 34.25 8.6 33.8 8.7 32.95 8.7 32.95 8.6 32.8 8.45 32.65 8.4 32.6 8.4 32.55 7.3 32.65 7.3 32.65 7.2 32.8 7.2 33.25 6.9 33.4 6.9 34.5 6.8
M 31.2 7.95
L 31.2 8.1 30.85 8.45 30.85 8.55 30.15 8.45 30.05 8.45
Q 29.75 8.45 29.75 8.2
L 29.7 8.2 29.65 7.5 29.75 7.5 29.75 7.3 31.2 7.3 31.25 7.95 31.2 7.95
M 37.55 6.9
L 37.55 6.95
Q 37.95 7.5 37.55 8.25
L 37.55 8.35 37.5 8.35 37.5 8.4 36.65 8.35 36.5 8.35 36.15 8.1 36.15 7.95 35.95 7.85 35.9 7.85 35.9 7.3 35.95 7.3 36.65 6.95 36.65 6.9 36.65 6.85
Q 37.2 6.55 37.55 6.9
M 23 6.55
L 23.2 6.85 23.2 6.9 23.35 6.9 23.35 7.85 23.15 8.1 23 8.2 22.3 8.35 22.3 8.4 21.7 8.35 21.6 8.35 21.35 7.95 20.9 7.75 20.85 7.75 20.8 6.95 20.85 6.95 20.85 6.9 20.9 6.9 20.9 6.85 21.6 6.6 21.7 6.6 21.9 6.55 22.05 6.55 22.05 6.45 22.8 6.5 23 6.55
M 25.3 8.35
Q 24.95 7.9 25.05 6.95
L 25.45 6.6 25.45 6.55 26.5 6.55 26.5 6.45 27 6.55 27.05 6.6 27.55 6.95 27.55 7.1
Q 27.65 7.75 27.45 7.95
L 27.45 8.1 27.2 8.2 27.1 8.25 26.5 8.4 25.35 8.35 25.3 8.35
M 14 7.3
L 14.6 6.95 14.6 6.9 14.6 6.85
Q 15.3 6.55 15.55 6.9
L 15.55 6.95
Q 15.9 7.5 15.6 8.25
L 15.55 8.25 15.55 8.35 15.5 8.4 14.6 8.35 14.55 8.35 14.1 8.1 14.1 7.95 14 7.85 13.95 7.85 13.95 7.3 14 7.3
M 12.25 6.95
L 12.3 7.1 12.3 8.15 12.25 8.2 11.95 8.4 11.95 8.45 10.95 8.45
Q 10.45 8.35 10.4 7.75
L 10.75 6.9 10.85 6.9 10.85 6.85 11.65 6.85
Q 12.1 6.8 12.25 6.95
M 18.1 7.1
L 18.8 7.1 19.15 7.3
Q 19.45 7.5 19.25 8.1
L 19.2 8.15 19.2 8.2 19.1 8.25 19.1 8.35 19.1 8.4
Q 18.8 8.55 18.5 8.4
L 18.3 8.25 18.25 8.25 17.9 7.95 17.9 7.9
Q 17.65 7.8 17.75 7.3
L 18 7.1 18.1 7.1
M 16.95 6.6
L 17 6.55 18.1 6.55 16.95 6.6
M 7.9 6.95
L 8.35 7.4 8.4 7.4
Q 8.95 8.35 8.15 8.75
L 8.05 8.75 8.05 8.85 8.05 8.9 7.45 8.85 7.35 8.75 7.25 8.75
Q 6.45 8.4 6.6 7.2 7.1 6.5 7.9 6.95
M 5.6 7.85
L 5.6 6.85 5.7 7.85 5.6 7.85
M 6.1 10.2
L 6.15 10.2 6.15 10.15
Q 6.85 9.3 7.75 10.2
L 7.8 10.5 7.85 11.45 7.8 11.45 7.8 11.5 7.35 11.95 7.25 12 6.6 11.95
Q 6.2 11.5 6.15 11
L 6.1 11 6.1 10.2
M 7.9 14.25
L 7.9 15.3 7.7 15.55 7.7 15.6 6.85 15.55 6.8 15.55
Q 6.45 15.1 6.5 14.15
L 6.7 14 6.85 14 6.85 13.8 7.7 13.8 7.7 14 7.85 14.25 7.9 14.25
M 6.6 17.55
L 6.7 17.55 6.7 17.4
Q 7.8 16.75 8 17.8
L 8.05 17.8 8.15 18.65 8.05 18.65 8 18.7 6.7 18.85 6.6 18.85 6.6 17.55
M 8.15 20.85
L 8.15 20.95
Q 8.4 21.25 8.35 21.95
L 8.3 21.95 7.9 22.15 7.9 22.2 7 22.15 6.9 22.15
Q 6.45 21.75 6.5 20.8
L 6.7 20.6 7.85 20.6 8.15 20.85
M 7 23.45
L 7 23.4 7.55 23.45 7.7 23.45 7.9 23.8 8 23.8 8 24 7.9 24.5 7.9 24.7 7.8 24.7 7.8 24.75 7.15 24.7 7.05 24.7 6.85 24.35 6.8 24.35 6.7 23.75 6.85 23.75 6.85 23.55 6.9 23.45 7 23.45
M 6.6 26.55
L 6.7 26.55 6.7 26.5 7.45 26.55
Q 7.9 26.75 7.9 27.4
L 7.9 28.3
Q 7.35 28.75 6.55 28.4
L 6.55 28.35
Q 6.15 27.95 6.45 26.9
L 6.6 26.55
M 6.25 30.3
L 6.45 30.3 6.45 30.25 6.5 30.05 6.55 30.05 6.55 30 7.55 30.05 7.7 30.05 7.9 31.2 7.9 31.35 6.85 32 6.8 32
Q 6.45 31.65 6.45 31
L 6.25 31 6.25 30.3
M 7.8 33.5
L 7.8 33.6 7.9 33.9 7.9 34 7.85 34.6 7.85 34.65 7.7 34.7 7.7 34.8 7 34.7 6.9 34.7 6.9 34.65 6.8 34.65 6.7 34.65
Q 6.45 34.6 6.5 34.05
L 6.55 34.05 6.55 33.85 6.8 33.6 6.85 33.6 6.85 33.5
Q 6.9 33.3 7.25 33.3
L 7.35 33.3
Q 7.7 33.3 7.8 33.5
M 6.9 36.6
L 7 36.6 7.45 36.55 7.85 36.95 7.9 37.45 7.9 37.6 7.8 37.65 7.8 37.75 7.05 37.65 7.05 37.6 6.9 37.45 6.85 37.45 6.85 36.8 6.85 36.6 6.9 36.6
M 7.85 39.75
L 7.9 39.75 7.7 41 6.5 41 6.45 40.75 6.25 40.75 6.25 40.05 6.45 40.05 6.45 39.75
Q 6.5 39.25 6.85 39.1
L 7 39.05 7.25 39.05 7.85 39.75
M 6.45 43
Q 7 42.1 7.9 42.75
L 7.9 43.6
Q 7.85 44.95 6.55 44.4
L 6.55 44.35
Q 6.15 43.85 6.45 43
M 7.8 46.3
L 7.8 46.35 7.9 46.6 8 47.25 7.9 47.25 7.7 47.6 6.9 47.6 6.85 47.25 6.8 47.25 6.7 46.65 6.85 46.65 6.85 46.6 7.05 46.35 7.15 46.35 7.15 46.3 7.8 46.3
M 7.9 48.75
L 8.3 49.1 8.35 49.8 8.3 49.8 8.3 49.85 7.85 50.55 6.7 50.55 6.6 50.45
Q 6.45 50.25 6.5 49.85 6.6 49.25 6.9 48.75
L 7.9 48.75
M 8 52.25
L 8.05 52.4 8.15 53.15 8.05 53.15 7.85 53.55
Q 7.25 54.15 6.7 53.55
L 6.6 53.55 6.6 52.15 6.7 52.15 6.7 52.1
Q 7.45 51.65 8 52.25
M 6.9 55.65
L 7.7 55.65
Q 7.9 56 8 56.45
L 8.05 56.45 8.15 57.15 8.05 57.15 7.9 57.15 7.9 57.3 7.45 57.15 7.25 57.15
Q 6.6 57.3 6.45 56.85
L 6.25 56.85 6.25 56.1 6.45 56.1 6.45 56.05
Q 6.5 55.75 6.9 55.65
M 7 59.1
L 7.25 59.1 7.85 59.85 7.9 59.95 7.7 61.05 7.55 61.1 6.55 61.1 6.5 61.05 6.45 60.7 6.25 60.7 6.25 60.1 6.45 60.1 6.45 59.95
Q 6.5 59.4 6.85 59.15
L 7 59.1
M 7.9 62.85
L 7.9 63.7
Q 7.85 64.95 6.55 64.4
L 6.55 64.3
Q 6.15 63.95 6.45 63.05 7 62.2 7.9 62.85
M 12.25 85
L 12.3 85 12.3 86.15 12.25 86.15 11.65 86.3 10.75 86.3
Q 10.45 85.8 10.4 85
L 10.95 84.75 11 84.65 11 84.5 11.9 84.65 11.95 84.65 12.25 85
M 14.6 84.85
L 14.65 84.85 14.65 84.8
Q 15.35 84.6 15.55 84.95 15.6 85 15.6 85.05
L 15.65 85.1 15.75 85.1 15.75 85.3 15.85 85.8 15.75 85.8 15.75 85.95 15.55 86.3 15.4 86.3 15.4 86.4 14.65 86.3 14.6 86.3 14.1 86.15 14.1 86.1 14 85.8 13.95 85.8 13.75 85.45 13.95 85.35 14 85.35 14.2 85.1 14.2 85 14.6 84.85
M 19.15 84.95
L 19.15 85
Q 19.45 85.35 19.2 85.8
L 19.15 85.8 19.15 85.9 19 86 18.95 86.1 17.9 86 17.9 85.65 17.8 85.4 17.8 85.3 18.1 85.1 18.15 85.1 18.25 85.1 18.25 85 18.25 84.95
Q 18.75 84.5 19.15 84.95
M 7.8 74.75
Q 7.9 74.85 8 75
L 8.05 75 8.15 75.7 8.05 75.85 7.85 76.25 6.7 76.15 6.6 76.15 6.6 74.85 6.7 74.85 6.7 74.8
Q 6.8 74.75 6.85 74.75 7.3 74.4 7.75 74.7
L 7.8 74.75
M 6.8 79.15
Q 6.45 78.8 6.5 77.8
L 6.7 77.6 6.85 77.6 6.85 77.5 7.7 77.5 7.7 77.6 7.85 77.9 7.9 77.9 7.9 78.95 7.7 79.15 7.7 79.25 6.85 79.15 6.8 79.15
M 7.8 81.7
L 7.8 81.75 7.85 82.55 7.8 82.55 7.8 83
Q 6.9 83.55 6.15 83
L 6.1 83 6.1 82.15 6.15 82.15 6.6 81.2 7.35 81.2 7.8 81.7
M 6.6 85
Q 6.85 84.5 7.25 84.45
L 7.35 84.45 7.35 84.35 7.45 84.35 7.45 84.3 8.05 84.3 8.05 84.35 8.05 84.45
Q 8.35 84.45 8.4 84.5 8.75 84.75 8.5 85.1
L 8.3 85.95 8.2 85.95 7.25 86.3 7.15 86.3 6.6 85.8 6.6 85
M 32.65 84.8
L 32.8 84.8 32.95 84.5 32.95 84.45 33.9 84.45 34.4 84.5 34.5 84.65 34.75 85 34.75 86.25 34.5 86.45 34.3 86.45 33.5 86.3 33.25 86.3 32.95 86.25 32.8 86 32.65 86 32.65 85.95 32.6 85.95 32.55 84.85 32.65 84.85 32.65 84.8
M 30.95 84.8
L 30.95 84.85 31.2 85.1 31.2 85.3 31.25 85.8 31.2 85.8 31.2 85.95 30.95 86.25 30.95 86.3 30.15 86.25 29.75 85.8 29.75 85.75 29.7 85.75 29.65 85.1 29.75 85.1 29.75 84.95 29.9 84.85 29.9 84.8
Q 30.5 84.5 30.95 84.8
M 36.8 84.85
L 36.8 84.8
Q 37.45 84.5 37.55 85.05
L 37.7 85.1 37.75 85.1 37.75 85.3 37.8 85.8 37.75 85.8 37.75 85.95 37.5 86.3 37.45 86.3 37.45 86.4 37.4 86.4 36.8 86.3 36.75 86.3 36.65 86.3 36.15 86.15 36.15 86.1 35.95 85.8 35.9 85.8 35.75 85.45 35.9 85.35 35.95 85.35 36.15 85.2 36.15 85.1 36.55 84.95 36.65 84.85 36.8 84.85
M 40.25 85
L 40.25 84.95
Q 40.75 84.5 41.1 84.95
L 41.25 85
Q 41.45 85.35 41.25 85.8
L 41 86 41 86.1 40 86 39.95 86 39.95 85.95 39.95 85.65 39.8 85.4 39.8 85.3 40.1 85.1 40.15 85.1 40.25 85.1 40.25 85
M 39.05 86.45
L 39.15 86.45 39.15 86.65
Q 39.1 86.6 39.05 86.45
M 21.7 84.95
L 21.7 84.85 22.5 84.95 22.5 85 23.15 85.1 23.2 85.3 23.2 85.35 23.35 85.4 23.35 86.3 23.2 86.3 23.2 86.45 23.15 86.45 23.15 86.6 22.1 86.65 21.75 86.65 21.7 86.65 20.9 86.3 20.85 86.3 20.8 86.3 20.8 85.75 20.85 85.75 20.85 85.65 21.7 85 21.7 84.95
M 25.15 85
L 25.15 84.95 25.45 84.85 25.45 84.8 26.35 84.8 26.35 84.85 26.5 84.85 27.25 85.05 27.25 85.1
Q 27.45 85.1 27.55 85.35
L 27.55 86.15 27.05 86.65 26.1 86.65 26.1 86.7 25.45 86.65 25.05 86.15 25.05 85.1 25.15 85
M 53 84.8
L 53 84.85 53.2 85.1 53.2 85.95 52.9 86.25 52.9 86.3 52.15 86.25 52.1 86.25 51.8 85.8 51.75 85.75 51.7 85.75 51.7 85.1 51.75 85.1 51.75 85 51.8 85 51.8 84.95 51.85 84.85 51.85 84.8
Q 52.45 84.5 53 84.8
M 54.5 84.85
L 54.7 84.85 54.7 84.8 54.75 84.8 54.95 84.5 55.05 84.45 55.95 84.45 56.45 84.5 56.45 84.65 56.7 85 56.9 86.15 56.7 86.15 56.7 86.25 56.45 86.45 56.4 86.45 55.6 86.3 55.25 86.3 54.95 86.25 54.75 86 54.7 86 54.7 85.95 54.65 85.95 54.5 84.85
M 58.2 85.8
L 58.05 85.45 58.2 85.35 58.25 85.35 58.35 85.2 58.35 85.1 58.85 84.85 58.95 84.85 58.95 84.8
Q 59.7 84.5 59.9 85.05
L 59.9 85.1 60 85.1 60 85.8 59.7 86.3 59.65 86.4 58.95 86.3 58.9 86.3 58.35 86.15 58.35 86.1 58.25 85.8 58.2 85.8
M 42.9 85.75
L 42.9 85.65 43.65 84.95 43.65 84.85 44.5 84.95 44.5 85 45.15 85.1 45.25 85.3 45.25 85.35 45.3 85.4 45.35 86.3 45.3 86.3 45.25 86.45 45.15 86.45 45.15 86.6 44.15 86.65 43.7 86.65 43.65 86.65 42.9 86.3 42.75 86.3 42.75 85.75 42.9 85.75
M 47.55 84.85
L 47.55 84.8 48.45 84.8 48.45 84.85 48.55 84.85
Q 49.05 84.95 49.25 85.05
L 49.25 85.1 49.5 85.35 49.55 86.15 49.5 86.15 49.05 86.65 48.15 86.65 48.15 86.7 47.55 86.65 47.05 86.15 47.05 85.1 47.2 85 47.2 84.95
Q 47.25 84.85 47.5 84.85
L 47.55 84.85
M 57.3 86.8
L 56.65 86.65 57.45 86.7 57.3 86.8
M 71.7 85.35
L 71.75 85.35 71.8 86.15 71.75 86.15 71.7 86.15 71.25 86.65 70.35 86.65 70.35 86.7 69.8 86.65 69.35 86.15 69.35 85.1 69.45 85 69.45 84.95
Q 69.5 84.85 69.65 84.85
L 69.8 84.85 69.8 84.8 70.6 84.8 70.6 84.85 70.75 84.85
Q 71.25 84.95 71.4 85.05
L 71.6 85.1 71.7 85.35
M 74.4 84.85
L 74.4 84.8
Q 75.2 84.5 75.35 85.05
L 75.35 85.1 75.35 85.2 75.45 85.3 75.45 85.95 75.2 86.3 75.05 86.3 75.05 86.4 75 86.4 74.4 86.3 74.35 86.3 73.9 86.15 73.7 86.1 73.6 85.8 73.55 85.45 73.6 85.35 73.7 85.2 74.2 84.95 74.2 84.85 74.4 84.85
M 62.5 85
L 62.5 84.95
Q 63.1 84.5 63.4 84.95
L 63.4 85
Q 63.75 85.35 63.45 85.8
L 63.4 85.8 63.4 85.9 63.2 86 63.2 86.1 62.2 86 62.1 86 62 85.4 62 85.3 62.35 85.1 62.45 85.1 62.5 85
M 61.3 86.45
L 61.45 86.45
Q 62.35 86.4 62.45 86.65
L 62.45 86.7
Q 61.8 86.8 61.45 86.65 61.35 86.6 61.3 86.45
M 65.05 85.75
L 65.1 85.75 65.1 85.65 65.9 85 65.9 84.95 65.9 84.85 66.7 84.95 66.7 85 67 85.05 67.4 85.1 67.4 85.3 67.45 85.35 67.5 85.35 67.5 86.3 67.45 86.45 67.4 86.45 67.4 86.6 66.35 86.65 66 86.65 65.9 86.65 65.15 86.3 65.1 86.3 65.05 85.75
M 7.8 69
L 7.9 69.2 8 69.9 7.9 69.9 7.7 70.1 7.7 70.25 7 70.1 6.9 70.1 6.85 70 6.8 69.9 6.7 69.35 6.7 69.3 6.85 69.3 6.85 69.2 7.05 69 7.15 69 7.15 68.95 7.8 68.95 7.8 69
M 6.5 72.45
Q 6.6 71.9 6.9 71.45
L 7 71.45 7 71.4 7.9 71.4 7.9 71.45 8.3 71.7 8.35 72.4 8.3 72.4 8.3 72.45 7.85 73 6.6 73
Q 6.5 72.9 6.5 72.6 6.5 72.55 6.5 72.45
M 7.15 66.45
L 7.15 66.4 7.8 66.4 7.8 66.45 7.9 66.65 8 67.3 7.9 67.3 7.9 67.4 6.85 67.4 6.8 67.4 6.7 66.75 6.85 66.75 6.85 66.65 7.05 66.45 7.15 66.45
M 89.8 9.8
L 89.8 12.15 89.8 28.4 89.8 30.95 89.8 43.85 89.8 46.1 89.8 63.95 89.8 66 89.8 67.85 89.8 83.4 89.75 83.4 83.8 83.45 82.4 83.45 82.4 83.5 75.6 83.5 75.6 83.55 27.55 83.55 25.15 83.55 22.9 83.5 9.15 83.4 9.1 83.4 9.15 80.55 9.15 67.4 9.1 67.4 9.1 42.55 9.15 37.9 9.15 12.05 9.1 9.8 9.1 9.7 15.55 9.7 75.6 9.7 75.6 9.75 86.95 9.75 89.8 9.75 89.8 9.8
M 90.75 66.6
L 91.05 66.45 91.95 66.45
Q 92.1 66.5 92.15 66.6 92.2 66.65 92.25 66.8 92.45 67.1 92.45 67.6 92.4 67.8 92.35 68
L 91.05 68 90.85 67.7 90.75 67.6 90.75 66.6
M 90.65 71.7
L 90.65 71.6 90.95 71.45 90.95 71.4 91.85 71.4 91.85 71.45
Q 92 71.5 92.05 71.6 92.1 71.65 92.15 71.8 92.35 72.1 92.35 72.6 92.3 72.8 92.25 73
L 90.95 73 90.75 72.7 90.65 72.7 90.65 72.6 90.5 71.7 90.65 71.7 Z"/>

<path fill="#4C4C4C" stroke="none" d="
M 15.55 89.55
L 15.55 89.7 20.8 89.6 15.55 89.55
M 97.2 75.4
L 97.2 77.9 97.25 77.9 97.2 75.4
M 97.25 15.25
L 97.2 15.25 97.2 18.1 97.25 15.25
M 1.6 74.55
L 1.6 77.9 1.65 77.9 1.65 74.55 1.6 74.55
M 1.65 54.7
L 1.65 51.9 1.6 51.9 1.65 54.7
M 1.65 17.95
L 1.65 15.25 1.6 15.25 1.65 17.95 Z"/>

<path fill="#BBBBBB" stroke="none" d="
M 15.55 3.55
L 15.55 3.5 3.3 3.5 3.3 3.55 15.55 3.55
M 95.6 89.7
L 95.6 89.55 89.4 89.6 95.6 89.7
M 85.5 78.5
L 85.5 78.55 85.65 78.55 85.8 78.5 85.5 78.5
M 85.1 14.6
L 85.1 14.65 85.8 14.65 85.65 14.6 85.1 14.6
M 3.3 89.55
L 3.3 89.7 15.55 89.7 15.55 89.55 3.3 89.55 Z"/>

<path fill="#636363" stroke="none" d="
M 90.65 72.7
L 90.75 72.7 90.65 72.6 90.65 72.7
M 90.65 71.7
L 90.5 71.7 90.65 72.6 90.65 71.7
M 8.3 21.85
L 8.3 21.95 8.35 21.95
Q 8.4 21.25 8.15 20.95
L 8.3 21.85
M 90.65 49.85
L 90.5 49.85 90.65 50.75 90.65 49.85 Z"/>

<path fill="#686868" stroke="none" d="
M 90.95 71.4
L 90.95 71.45 91.85 71.45 91.85 71.4 90.95 71.4
M 7 71.4
L 7 71.45 7.9 71.45 7.9 71.4 7 71.4
M 62.5 84.95
L 62.5 85 63.4 85 63.4 84.95
Q 63.1 84.5 62.5 84.95
M 40.25 84.95
L 40.25 85 41.25 85 41.1 84.95
Q 40.75 84.5 40.25 84.95
M 19.15 85
L 19.15 84.95
Q 18.75 84.5 18.25 84.95
L 18.25 85 19.15 85
M 7.8 37.75
L 7.8 37.65 7.05 37.65 7.8 37.75
M 7.9 22.2
L 7.9 22.15 7 22.15 7.9 22.2
M 90.95 49.5
L 90.95 49.55 91.75 49.55 90.95 49.5
M 91.85 22.2
L 91.85 22.15 90.95 22.15 91.85 22.2 Z"/>

<path fill="#FBFBFB" stroke="none" d="
M 90.65 71.6
L 90.65 71.7 90.65 72.6 90.75 72.7 90.95 73 92.25 73
Q 92.3 72.8 92.35 72.6 92.35 72.1 92.15 71.8 92.1 71.65 92.05 71.6 92 71.5 91.85 71.45
L 90.95 71.45 90.65 71.6
M 91.05 66.45
L 90.75 66.6 90.75 67.6 90.85 67.7 91.05 68 92.35 68
Q 92.4 67.8 92.45 67.6 92.45 67.1 92.25 66.8 92.2 66.65 92.15 66.6 92.1 66.5 91.95 66.45
L 91.05 66.45
M 82.2 13.7
L 82.2 13.65 79.95 13.65 75.6 13.65 75.6 13.6 12.05 13.5 12.05 15.1 12.05 79.6 15.55 79.6 15.55 79.5 85.5 79.5 85.5 79.6 86.8 79.6 86.8 13.5 82.4 13.5 82.2 13.7
M 83.7 14.55
L 83.7 14.6 84.2 14.6 85.1 14.6 85.65 14.6 85.8 14.65 85.9 14.7
Q 86.4 15.1 86.05 15.55
L 85.95 15.55 85.95 17.95 85.95 78 85.8 78.5 85.65 78.55 85.5 78.55 85.5 78.6 15.55 78.6 14.2 78.6 14.1 78.6 13.2 78.5 13.1 78.5 12.95 78.4 12.8 77.6 12.8 15.55 12.75 15.55 12.7 15 12.9 14.7 12.95 14.7 12.95 14.65 13.2 14.65 13.2 14.6 14.2 14.6 15.4 14.6 15.55 14.6 15.55 14.55 15.55 14.45 82.25 14.45
Q 82.4 14.45 82.4 14.55
L 82.85 14.55 83.7 14.55
M 65.1 85.75
L 65.1 86.3 65.15 86.3 65.9 86.6 66 86.65 66.35 86.65 67.35 86.45 67.4 86.45 67.45 86.45 67.45 85.35 67.4 85.3 67.4 85.1 67.35 85.1 67 85.05 66.7 85 65.9 84.95 65.9 85 65.1 85.65 65.1 85.75
M 71.75 85.35
L 71.7 85.35 71.6 85.1 71.4 85.1 70.75 84.95 69.45 85 69.35 85.1 69.35 86.15 69.8 86.65 70.35 86.65 71.25 86.65 71.7 86.15 71.75 86.15 71.75 85.35
M 47.2 85
L 47.05 85.1 47.05 86.15 47.55 86.65 48.15 86.65 49.05 86.65 49.5 86.15 49.5 85.35 49.25 85.1 49.15 85.1 48.55 84.95 47.2 85
M 42.9 85.65
L 42.9 85.75 42.9 86.3 43.7 86.6 43.7 86.65 44.15 86.65 45.15 86.45 45.25 86.45 45.25 85.35 45.25 85.3 45.15 85.1 44.5 85 43.65 84.95 42.9 85.65
M 55.05 84.45
L 54.95 84.5 54.75 84.8 54.75 86 54.95 86.25 55.25 86.3 55.6 86.3 56.4 86.45 56.45 86.45 56.7 86.25 56.7 86.15 56.7 85 56.45 84.65 56.4 84.65 55.95 84.45 55.05 84.45
M 25.05 85.1
L 25.05 86.15 25.45 86.65 26.1 86.65 27.05 86.65 27.55 86.15 27.55 85.35
Q 27.45 85.1 27.25 85.1
L 27.2 85.1 26.5 84.95 25.15 85 25.05 85.1
M 22.5 85
L 21.7 84.95 21.7 85 20.85 85.65 20.85 85.75 20.85 86.3 20.9 86.3 21.75 86.6 21.75 86.65 22.1 86.65 23.15 86.45 23.2 86.45 23.2 86.3 23.2 85.35 23.2 85.3 23.15 85.1 23.05 85.1 22.5 85
M 32.8 84.8
L 32.8 86 32.95 86.25 33.25 86.3 33.5 86.3 34.3 86.45 34.5 86.45 34.75 86.25 34.75 85 34.5 84.65 34.3 84.65 33.9 84.45 32.95 84.45 32.95 84.5 32.8 84.8
M 6.5 77.8
Q 6.45 78.8 6.8 79.15
L 6.85 79.15 7.7 79.15 7.9 78.95 7.9 77.9 7.85 77.9 7.7 77.6 6.85 77.6 6.7 77.6 6.5 77.8
M 7.7 55.65
L 6.9 55.65
Q 6.5 55.75 6.45 56.05
L 6.45 56.1 6.45 56.85
Q 6.6 57.3 7.25 57.15
L 7.45 57.15 7.9 57.15 8.05 57.15 8.05 56.45 8 56.45
Q 7.9 56 7.7 55.65
M 7.8 33.6
L 7.75 33.6 7.35 33.3 7.25 33.3
Q 6.9 33.3 6.85 33.5
L 6.85 33.6 6.85 33.65 6.55 34.05
Q 6.5 34.55 6.8 34.65
L 6.9 34.65 7.8 34.65 7.85 34.6 7.9 34 7.9 33.9 7.8 33.6
M 7.9 15.3
L 7.9 14.25 7.85 14.25 7.7 14 6.85 14 6.7 14 6.5 14.15
Q 6.45 15.1 6.8 15.55
L 6.85 15.55 7.7 15.55 7.9 15.3
M 23.2 6.85
L 23 6.55 22.05 6.55 21.9 6.55 21.7 6.6 21.7 6.65 20.9 6.9 20.85 6.9 20.85 6.95 20.9 7.75
Q 21.25 7.75 21.35 7.85
L 21.35 7.95 21.7 8.25 21.7 8.35 22.3 8.35 22.3 8.25 23 8.2 23.15 8.1 23.2 6.9 23.2 6.85
M 34.75 6.95
L 34.5 6.85 33.4 6.9 33.25 6.9 32.8 7.2 32.8 8.45 32.95 8.6 32.95 8.7 33.8 8.7 34.25 8.6 34.3 8.6 34.3 8.55 34.75 8.25 34.75 6.95
M 45.25 6.85
L 44.9 6.55 44 6.55 43.95 6.55 43.65 6.6 43.65 6.65 42.9 6.9 42.9 6.95 42.9 7.75
Q 43.25 7.75 43.3 7.85
L 43.35 7.95 43.65 8.35 44.35 8.35 44.35 8.25 44.85 8.2 44.9 8.2 45.15 8.1 45.25 6.9 45.25 6.85
M 55.25 6.9
L 54.75 7.2 54.75 8.45 54.95 8.6 55.05 8.7 55.8 8.7 56.25 8.6 56.4 8.6 56.4 8.55 56.7 8.25 56.7 8.2 56.7 7.1 56.7 6.95 56.45 6.85 56.4 6.85 55.35 6.9 55.25 6.9
M 65.1 6.9
L 65.1 6.95 65.15 7.55 65.15 7.75 65.55 7.85 65.55 7.95 65.9 8.25 65.9 8.35 66.55 8.35 66.55 8.25 67.15 8.2 67.35 8.1 67.4 8.1 67.45 6.9 67.4 6.85
Q 67.4 6.6 67.15 6.55
L 66.25 6.55 66.15 6.55 65.9 6.6 65.9 6.65 65.15 6.9 65.1 6.9
M 82.85 84.5
L 82.65 84.8 82.65 86 82.8 86.25 83.3 86.3 83.35 86.3 84.2 86.45 84.3 86.45 84.6 86.15 84.6 85 84.55 85 84.3 84.65 84.2 84.65 83.8 84.45 82.9 84.45 82.85 84.5
M 91.4 81.2
L 91.15 81.5 91.15 81.75 91.15 82.55 91.15 82.85
Q 91.7 83.55 92.6 83.05
L 92.65 83 92.65 82.15 92.6 82.15 92.3 81.2 91.4 81.2
M 91.3 77.6
L 91.2 77.6 91 77.75 91 77.8 91 78.95 91.2 79.15 91.3 79.15 92.1 79.15
Q 92.7 78.3 92.1 77.6
L 91.3 77.6
M 92.6 56.8
Q 92.45 56.45 91.85 56.4
L 91.3 56.4 91.2 56.45 90.8 57.35 90.8 58 91.4 58 92.6 57.7 92.6 56.8
M 92.25 51.1
Q 92.6 50.15 91.85 49.55
L 91.75 49.55 90.95 49.55 90.65 49.8 90.65 49.85 90.65 50.75 90.75 50.85 90.95 51.15 91 51.15 92.15 51.15 92.25 51.15 92.25 51.1
M 92.6 34.2
Q 92.1 33.85 91.4 33.85
L 90.8 33.85 90.8 34.6 91.2 35.5 91.85 35.5 92.6 35.1 92.6 34.2
M 91 14.1
L 91 14.15 91 15.35 91.2 15.55 91.3 15.55 92.1 15.55
Q 92.65 14.65 92.1 14
L 91.3 14 91.2 14 91 14.1
M 81.3 8.25
L 81.3 7.1 81.2 6.95 80.95 6.85 80.9 6.85 79.85 6.9 79.75 6.9 79.75 6.95 79.3 7.2 79.3 8.45 79.5 8.7 80.75 8.6 80.75 8.55 81.3 8.25
M 92.65 10.2
L 92.6 10.15
Q 91.85 9.6 91.15 10.15
L 91.15 10.5 91.15 11.45 91.15 11.5 91.4 11.95 91.45 11.95 92.3 11.95 92.65 11.05 92.65 11 92.65 10.2
M 97.2 87.7
L 97.2 87.1 97.15 87.7 97.2 87.7 Z"/>

<path fill="#969696" stroke="none" d="
M 11.75 80.75
L 11.15 80.75 11.65 80.8 11.75 80.75
M 75.45 85.3
L 75.35 85.2
Q 75.45 85.8 75.2 86.15
L 75.2 86.3 75.45 85.95 75.45 85.3
M 70.75 84.85
L 70.6 84.85 69.8 84.85 69.65 84.85
Q 69.5 84.85 69.45 84.95
L 69.45 85 70.75 84.95 70.75 84.85
M 47.55 84.85
L 47.5 84.85
Q 47.25 84.85 47.2 84.95
L 47.2 85 48.55 84.95 48.55 84.85 48.45 84.85 47.55 84.85
M 59.7 86.15
L 59.7 86.3 60 85.8 60 85.1 59.9 85.1
Q 60 85.8 59.7 86.15
M 25.15 84.95
L 25.15 85 26.5 84.95 26.5 84.85 26.35 84.85 25.45 84.85 25.15 84.95
M 37.75 85.1
L 37.7 85.1 37.5 86.15 37.5 86.3 37.75 85.95 37.75 85.8 37.75 85.3 37.75 85.1
M 15.75 85.1
L 15.65 85.1 15.55 86.15 15.55 86.3 15.75 85.95 15.75 85.8 15.75 85.3 15.75 85.1
M 21.35 7.85
Q 21.25 7.75 20.9 7.75
L 21.35 7.95 21.35 7.85
M 43.35 7.95
L 43.3 7.85
Q 43.25 7.75 42.9 7.75
L 43.35 7.95
M 65.55 7.85
L 65.15 7.75 65.5 7.9 65.55 7.95 65.55 7.85 Z"/>

<path fill="#454545" stroke="none" d="
M 15.55 12.45
L 15.55 12.4 12.95 12.4 15.55 12.45
M 86.8 12.45
L 86.8 12.4 82.4 12.4 82.4 12.45 86.8 12.45
M 15.55 77.65
L 15.55 77.6 14.65 77.6 15.55 77.65
M 98.25 70.5
L 98.05 70.5 98.15 74.55 98.25 74.55 98.25 70.5
M 98.25 48.6
L 98.05 48.6 98.15 52.6 98.25 52.6 98.25 48.6
M 98.05 23.1
L 98.25 23.1 98.25 19.15 98.05 19.15 98.05 23.1
M 0.8 70.5
L 0.7 70.5 0.7 73.85 0.8 70.5
M 0.8 47.9
L 0.7 47.9 0.7 51.75 0.8 47.9
M 0.8 23.1
L 0.7 20.2 0.7 23.1 0.8 23.1 Z"/>

<path fill="#D7D7D7" stroke="none" d="
M 86.8 80.8
L 86.85 80.75 85.5 80.75 86.8 80.8 Z"/>

<path fill="#B8B8B8" stroke="none" d="
M 85.5 79.6
L 85.5 79.5 15.55 79.5 15.55 79.6 75.6 79.65 75.6 79.7 85.5 79.7 85.5 79.6 Z"/>

<path fill="#2C2C2C" stroke="none" d="
M 12.95 78.4
L 13.1 78.5 13.2 78.5 13.7 78.5 13.7 78.4 12.95 78.4
M 13.7 14.7
L 13.7 14.65 13.2 14.65 12.95 14.65 12.95 14.7 13.7 14.7 Z"/>

<path fill="#9B9B9B" stroke="none" d="
M 84.2 77.5
L 84.2 77.6 85 77.5 84.2 77.5
M 84.2 15.55
L 84.9 15.7 85 15.7 85 15.6 84.2 15.55
M 11.65 6.9
L 11.65 6.85 10.85 6.85 10.85 6.9 11.65 6.9
M 25.35 8.35
L 26.5 8.4 26.5 8.35 25.35 8.35
M 48.55 8.4
L 48.55 8.35 47.3 8.35 48.55 8.4
M 70.75 8.4
L 70.75 8.35 69.6 8.35 70.75 8.4
M 37.5 0.75
L 37.5 0.85 39.3 0.85 37.5 0.75
M 59.7 0.75
L 59.7 0.85 61.55 0.85 59.7 0.75 Z"/>

<path fill="#3C3C3C" stroke="none" d="
M 82.2 15.55
L 82.2 15.6 79.55 15.6 82.05 15.7
Q 82.35 15.7 82.4 15.55
L 82.2 15.55
M 15.55 78.6
L 15.55 78.55 14.2 78.5 14.2 78.6 15.55 78.6
M 14.2 14.6
L 14.2 14.65 15.4 14.6 14.2 14.6
M 52.9 86.25
L 52.15 86.25 52.9 86.3 52.9 86.25
M 30.95 86.3
L 30.95 86.25 30.15 86.25 30.95 86.3
M 56.7 8.2
L 56.9 8.2 56.7 7.1 56.7 8.2
M 80.7 86.3
L 80.7 86.25 80.05 86.25 80.7 86.3 Z"/>

<path fill="#282828" stroke="none" d="
M 13.75 15.7
L 13.7 15.7 13.75 17.8 13.75 15.7
M 85.95 17.95
L 85.95 15.55 85.9 15.55 85.95 17.95
M 37.75 85.8
L 37.8 85.8 37.75 85.3 37.75 85.8
M 15.75 85.3
L 15.75 85.8 15.85 85.8 15.75 85.3 Z"/>

<path fill="#343434" stroke="none" d="
M 85.5 78.5
L 85.8 78.5 85.5 78.4 85.5 78.5
M 85.9 14.7
L 85.8 14.65 85.1 14.65 85.9 14.7
M 51.7 85.1
L 51.7 85.75 51.75 85.75 51.75 85.1 51.7 85.1
M 29.75 85.1
L 29.65 85.1 29.7 85.75 29.75 85.75 29.75 85.1
M 79.6 85.75
L 79.6 85.1 79.5 85.1 79.6 85.75
M 90.95 77.9
L 90.8 77.9 90.95 78.95 90.95 77.9
M 90.8 63.65
L 90.95 64.3 90.95 63.65 90.8 63.65
M 90.95 44.35
L 90.95 43.5 90.8 43.5 90.95 44.35
M 90.95 27.45
L 90.8 27.45 90.95 28.1 90.95 27.45
M 90.95 14.25
L 90.8 14.25 90.95 15.25 90.95 14.25
M 83.95 91.35
L 85.5 91.5 85.5 91.35 83.95 91.35
M 87.85 91.3
L 87.85 91.35 89.8 91.35 89.8 91.3 87.85 91.3
M 89.8 1.75
L 89.8 1.7 87.85 1.7 87.85 1.75 89.8 1.75
M 58.5 91.35
L 58.35 91.35 56 91.35 58.5 91.5 58.5 91.35
M 36.5 91.35
L 36.4 91.35 33.95 91.35 36.5 91.5 36.5 91.35
M 11 91.35
L 11 91.3 9.1 91.3 11 91.35
M 11 1.75
L 11 1.7 9.1 1.7 9.1 1.75 11 1.75 Z"/>

<path fill="#ABABAB" stroke="none" d="
M 82.4 14.55
Q 82.4 14.45 82.25 14.45
L 15.55 14.45 15.55 14.55 82.4 14.55 Z"/>

<path fill="#6C6C6C" stroke="none" d="
M 84.2 14.6
L 84.2 14.65 85.1 14.65 85.1 14.6 84.2 14.6
M 58.85 84.95
L 58.85 84.85 58.35 85.1 58.85 84.95
M 14.6 84.95
L 14.6 84.85 14.2 85 14.2 85.1 14.6 84.95 Z"/>

<path fill="#2F2F2F" stroke="none" d="
M 84.2 14.6
L 83.7 14.6 83.35 14.6 84.2 14.65 84.2 14.6 Z"/>

<path fill="#979797" stroke="none" d="
M 83.7 14.6
L 83.7 14.55 82.85 14.55 83.3 14.6 83.35 14.6 83.7 14.6
M 92.3 61.85
L 92.3 61.75 91.35 61.75 92.3 61.85
M 91.35 30.05
L 92.3 30.05 91.35 30 91.35 30.05 Z"/>

<path fill="#A3A3A3" stroke="none" d="
M 14.2 78.6
L 14.2 78.5 13.7 78.5 13.2 78.5 14.1 78.6 14.2 78.6
M 13.2 14.6
L 13.2 14.65 13.7 14.65 14.2 14.65 14.2 14.6 13.2 14.6 Z"/>

<path fill="#757575" stroke="none" d="
M 82.2 13.5
L 82.2 13.6 79.95 13.65 82.2 13.65 82.2 13.7 82.4 13.5 82.2 13.5
M 7.15 66.4
L 7.15 66.45 7.8 66.45 7.8 66.4 7.15 66.4
M 7.8 69
L 7.8 68.95 7.15 68.95 7.15 69 7.8 69
M 7.8 46.35
L 7.8 46.3 7.15 46.3 7.15 46.35 7.8 46.35
M 6.9 36.8
L 6.9 36.6 6.85 36.6 6.85 36.8 6.9 36.8
M 7.8 24.7
L 7.15 24.7 7.8 24.75 7.8 24.7
M 91.15 68.95
L 91.15 69 91.65 69 91.65 68.95 91.15 68.95
M 92.05 37.45
L 92.1 37.45
Q 92 37.15 91.35 37.15
L 91.35 37.3
Q 91.85 37.15 92.05 37.45
M 91.65 24.7
L 91.15 24.7 91.65 24.75 91.65 24.7 Z"/>

<path fill="#4B4B4B" stroke="none" d="
M 87.75 79.4
L 87.7 79.4 87.7 80.75 87.75 80.75 87.75 79.4
M 87.75 12.4
L 87.7 12.4 87.75 13.8 87.75 12.4
M 66.35 91.35
L 66.35 91.3 63.75 91.3 66.35 91.35
M 44.15 91.35
L 44.15 91.3 41.4 91.3 44.15 91.35
M 22.1 91.35
L 22.1 91.3 19.45 91.3 22.1 91.35 Z"/>

<path fill="#888888" stroke="none" d="
M 11.15 79.4
L 11.15 78.8 11.1 78.8 11.1 79.4 11.15 79.4 Z"/>

<path fill="#1E1E1E" stroke="none" d="
M 11.1 14.25
L 11.1 14.55 11 18.9 11.05 71.4 11.1 71.4 11.1 78.8 11.15 78.8 11.15 14.25 11.1 14.25 Z"/>

<path fill="#585858" stroke="none" d="
M 11.15 14.25
L 11.15 12.4 11.1 14.25 11.15 14.25 Z"/>

<path fill="#AEAEAE" stroke="none" d="
M 11.1 14.55
L 11 14.55 11 18.9 11.1 14.55 Z"/>

<path fill="#B3B3B3" stroke="none" d="
M 25.15 83.5
L 25.15 83.55 27.55 83.55 25.15 83.5
M 67.5 85.35
L 67.45 85.35 67.45 86.45 67.5 86.3 67.5 85.35
M 45.3 85.4
L 45.25 85.35 45.25 86.45 45.3 86.3 45.3 85.4
M 23.35 85.4
L 23.2 85.35 23.2 86.3 23.35 86.3 23.35 85.4
M 75.2 0.85
L 75.2 0.75 71.05 0.75 71.05 0.85 75.2 0.85
M 31.6 0.85
L 31.6 0.75 26.75 0.75 26.75 0.85 31.6 0.85
M 53.6 0.85
L 53.6 0.75 48.85 0.75 48.85 0.85 53.6 0.85 Z"/>

<path fill="#3E3E3E" stroke="none" d="
M 15.55 9.75
L 15.55 9.7 9.1 9.7 9.1 9.8 9.15 9.8 15.55 9.75
M 82.4 83.4
L 82.4 83.45 83.8 83.45 82.4 83.4
M 89.75 9.8
L 89.8 9.8 89.8 9.75 86.95 9.75 89.75 9.8 Z"/>

<path fill="#B4B4B4" stroke="none" d="
M 89.8 67.85
L 89.75 67.85 89.75 83.4 89.8 83.4 89.8 67.85
M 89.8 63.95
L 89.75 63.95 89.8 66 89.8 63.95
M 89.75 43.85
L 89.8 46.1 89.8 43.85 89.75 43.85
M 89.8 28.4
L 89.75 28.4 89.8 30.95 89.8 28.4
M 89.8 12.15
L 89.8 9.8 89.75 9.8 89.8 12.15
M 9.1 83.4
L 9.15 83.4 9.15 80.55 9.1 83.4
M 9.1 42.55
L 9.2 41.65 9.15 37.9 9.1 42.55
M 9.15 9.8
L 9.1 9.8 9.15 12.05 9.15 9.8
M 6.9 36.8
L 6.85 36.8 6.85 37.45 6.9 37.45 6.9 36.8
M 6.9 34.65
L 6.9 34.7 7 34.7 7.7 34.7 7.85 34.65 7.85 34.6 7.8 34.65 6.9 34.65 Z"/>

<path fill="#BCBCBC" stroke="none" d="
M 6.85 66.75
L 6.7 66.75 6.8 67.4 6.85 67.4 6.85 66.75
M 6.85 69.3
L 6.7 69.3 6.7 69.35 6.8 69.9 6.85 70 6.85 69.3
M 6.7 46.65
L 6.8 47.25 6.85 47.25 6.85 46.65 6.7 46.65
M 6.85 23.75
L 6.7 23.75 6.8 24.35 6.85 24.35 6.85 23.75 Z"/>

<path fill="#F9F9F9" stroke="none" d="
M 7.15 66.45
L 7.05 66.45 6.85 66.65 6.85 66.75 6.85 67.4 7.9 67.4 7.9 67.3 7.9 66.65 7.8 66.45 7.15 66.45
M 7.9 69.2
L 7.8 69 7.15 69 7.05 69 6.85 69.2 6.85 69.3 6.85 70 6.9 70.1 7 70.1 7.7 70.1 7.9 69.9 7.9 69.2
M 62.1 85.35
L 62.1 85.4
Q 62.1 85.8 62.2 85.95
L 62.2 86 63.2 86 63.4 85.9 63.4 85.8 63.4 85 62.5 85 62.45 85.1 62.1 85.35
M 39.95 85.4
Q 39.95 85.55 39.95 85.65
L 39.95 85.95 40 86 41 86 41.25 85.8
Q 41.45 85.35 41.25 85
L 40.25 85 40.25 85.1 40.15 85.1 39.95 85.35 39.95 85.4
M 18.25 85.1
L 18.15 85.1 17.9 85.35 17.9 85.4
Q 17.9 85.55 17.9 85.65
L 17.9 86 19 86 19.15 85.9 19.15 85.8 19.2 85.8
Q 19.45 85.35 19.15 85
L 18.25 85 18.25 85.1
M 7.15 46.35
L 7.05 46.35 6.85 46.6 6.85 46.65 6.85 47.25 6.9 47.6 7.7 47.6 7.9 47.25 7.9 46.6 7.8 46.35 7.15 46.35
M 7 36.6
L 6.9 36.6 6.9 36.8 6.9 37.45 7.05 37.6 7.05 37.65 7.8 37.65 7.9 37.6 7.9 37.45 7.85 36.95 7.45 36.55 7 36.6
M 7.55 30.05
L 6.55 30.05 6.5 30.05 6.45 30.25 6.45 30.3 6.45 31
Q 6.45 31.65 6.8 32
L 6.85 32 7.9 31.35 7.9 31.2 7.7 30.05 7.55 30.05
M 7.55 23.45
L 7 23.45 6.9 23.45 6.85 23.55 6.85 23.75 6.85 24.35 7.05 24.7 7.15 24.7 7.8 24.7 7.9 24.7 7.9 24.5 7.9 24.35 8 24 8 23.8 7.9 23.8 7.7 23.45 7.55 23.45
M 25.05 6.95
Q 24.95 7.9 25.3 8.35
L 25.35 8.35 26.5 8.35 27.05 8.2 27.2 8.2 27.45 8.1 27.45 7.95
Q 27.65 7.75 27.55 7.1
L 27.55 6.95 27.05 6.6 27 6.6 26.5 6.55 25.45 6.55 25.45 6.6 25.05 6.95
M 49.5 7.1
L 49.5 6.95 49.05 6.6 48.55 6.55 47.55 6.55 47.55 6.6 47.05 6.95
Q 46.9 7.9 47.25 8.35
L 47.3 8.35 48.55 8.35 49.1 8.2 49.15 8.2 49.45 8.1 49.45 7.95 49.45 7.8 49.55 7.2 49.5 7.1
M 71.75 7.2
L 71.75 7.1 71.75 6.95 71.25 6.6 70.75 6.55 69.8 6.55 69.35 6.95
Q 69.1 7.9 69.6 8.35
L 70.75 8.35 71.35 8.2 71.4 8.2 71.7 8.1 71.7 7.95 71.7 7.8 71.75 7.2
M 92.6 61.55
L 92.6 60.7 92.1 59.7 92.05 59.7
Q 91.3 60.05 90.95 60.65 91 61.35 91.3 61.75
L 91.35 61.75 92.3 61.75 92.6 61.55
M 92.1 39.7
L 92.05 39.7
Q 91.3 39.9 90.95 40.5 91 41.2 91.3 41.7
L 92.3 41.7 92.6 41.45 92.6 40.75 92.1 39.7 Z"/>

<path fill="#464646" stroke="none" d="
M 7.9 67.3
L 8 67.3 7.9 66.65 7.9 67.3
M 7.9 69.9
L 8 69.9 7.9 69.2 7.9 69.9
M 31.2 85.8
L 31.25 85.8 31.2 85.3 31.2 85.8
M 8 47.25
L 7.9 46.6 7.9 47.25 8 47.25
M 31.2 7.95
L 31.25 7.95 31.2 7.3 31.2 7.95
M 77.75 7.95
L 77.8 7.95 77.75 7.3 77.75 7.95
M 81.15 85.8
L 81.05 85.3 81.05 85.8 81.15 85.8 Z"/>

<path fill="#5A5A5A" stroke="none" d="
M 8.3 71.7
L 8.3 72.4 8.35 72.4 8.3 71.7
M 8.3 49.8
L 8.35 49.8 8.3 49.1 8.3 49.8 Z"/>

<path fill="#FAFAFA" stroke="none" d="
M 6.9 71.45
Q 6.6 71.9 6.5 72.45 6.5 72.55 6.5 72.6 6.5 72.9 6.6 73
L 7.85 73 8.3 72.45 8.3 72.4 8.3 71.7 7.9 71.45 7 71.45 6.9 71.45
M 74.4 84.85
L 74.2 84.85 74.2 84.95 73.7 85.2 73.6 85.35 73.6 85.8 73.7 86.1 73.9 86.15
Q 74.2 86.1 74.4 86.3
L 75 86.4 75.05 86.3 75.2 86.3 75.2 86.15
Q 75.45 85.8 75.35 85.2
L 75.35 85.1 75.3 85.1
Q 75.05 84.75 74.4 84.85
M 58.95 84.85
L 58.85 84.85 58.85 84.95 58.35 85.1 58.35 85.2 58.25 85.35 58.25 85.8 58.35 86.1 58.35 86.15
Q 58.75 86.1 58.95 86.3
L 59.65 86.4 59.7 86.3 59.7 86.15
Q 60 85.8 59.9 85.1
L 59.85 85.1
Q 59.7 84.75 58.95 84.85
M 36.65 84.85
L 36.55 84.95 36.15 85.1 36.15 85.2 35.95 85.35 35.95 85.8 36.15 86.1 36.15 86.15 36.75 86.3 36.8 86.3 37.4 86.4 37.45 86.3 37.5 86.3 37.5 86.15 37.7 85.1 37.55 85.1
Q 37.45 84.75 36.8 84.85
L 36.65 84.85
M 7.8 81.75
L 7.8 81.7 7.35 81.2 6.6 81.2 6.15 82.15 6.15 83
Q 6.9 83.55 7.8 83
L 7.8 82.55 7.8 81.75
M 14.65 84.85
L 14.6 84.85 14.6 84.95 14.2 85.1 14 85.35 14 85.8 14.1 86.1 14.1 86.15
Q 14.6 86.1 14.65 86.3
L 15.4 86.4 15.4 86.3 15.55 86.3 15.55 86.15 15.65 85.1 15.6 85.1
Q 15.6 85.05 15.55 85 15.35 84.75 14.65 84.85
M 12.3 85
L 12.25 85 11.95 84.65 11.9 84.65 11 84.65 10.95 84.75 10.4 85
Q 10.45 85.8 10.75 86.3
L 11.65 86.3 12.25 86.15 12.3 86.15 12.3 85
M 7.25 59.1
L 7 59.1 6.85 59.15
Q 6.5 59.4 6.45 59.95
L 6.45 60.1 6.45 60.7 6.5 61.05 6.55 61.1 7.55 61.1 7.7 61.05 7.9 59.95 7.85 59.85 7.25 59.1
M 8.3 49.1
L 7.9 48.75 6.9 48.75
Q 6.6 49.25 6.5 49.85 6.45 50.25 6.6 50.45
L 6.7 50.55 7.85 50.55 8.3 49.85 8.3 49.8 8.3 49.1
M 7.9 39.75
L 7.85 39.75 7.25 39.05 7 39.05 6.85 39.1
Q 6.5 39.25 6.45 39.75
L 6.45 40.05 6.45 40.75 6.5 41 7.7 41 7.9 39.75
M 8.15 20.95
L 8.15 20.85 7.85 20.6 6.7 20.6 6.5 20.8
Q 6.45 21.75 6.9 22.15
L 7 22.15 7.9 22.15 8.3 21.95 8.3 21.85 8.15 20.95
M 6.15 10.15
L 6.15 10.2 6.15 11
Q 6.2 11.5 6.6 11.95
L 7.35 11.95 7.8 11.5 7.8 11.45 7.8 10.5 7.75 10.2
Q 6.85 9.3 6.15 10.15
M 11.65 6.85
L 11.65 6.9 10.85 6.9 10.75 6.9 10.4 7.75
Q 10.45 8.35 10.95 8.45
L 11.95 8.45 11.95 8.4 12.25 8.2 12.3 8.15 12.3 7.1 12.25 6.95
Q 12.1 6.8 11.65 6.85
M 14.6 6.95
L 14 7.3 14 7.85 14.1 7.95 14.1 8.1
Q 14.5 8.1 14.6 8.25
L 14.6 8.35 15.55 8.35 15.55 8.25 15.55 6.95 14.6 6.9 14.6 6.95
M 36.65 6.9
L 36.65 6.95 35.95 7.3 35.95 7.85 36.15 7.95 36.15 8.1
Q 36.45 8.1 36.55 8.25
L 36.65 8.35 37.5 8.35 37.55 8.35 37.55 8.25
Q 37.95 7.5 37.55 6.95
L 36.65 6.9
M 58.9 6.95
Q 58.5 7.1 58.25 7.3
L 58.25 7.85 58.35 7.95 58.35 8.1
Q 58.7 8.1 58.85 8.25
L 58.85 8.35 59.7 8.35 59.8 8.35 59.85 8.25
Q 60.15 7.5 59.85 6.95
L 58.9 6.9 58.9 6.95
M 74.3 6.95
Q 73.95 7.1 73.6 7.3
L 73.6 7.85 73.7 7.95 73.9 8.1 74.2 8.25 74.2 8.35 75.2 8.35 75.25 8.35 75.3 8.25 75.3 6.95 74.35 6.9 74.3 6.95
M 76.9 84.85
L 76.9 84.95 76.4 85.2 76.25 85.35 76.25 85.8 76.4 86.1 76.55 86.15
Q 76.9 86.1 77.05 86.3
L 77.6 86.35 77.7 86.4 77.75 86.3 77.85 86.3 77.85 86.15
Q 78.15 85.8 78 85.2
L 78 85.1 77.95 85.1
Q 77.84453125 84.9154296875 77.6 84.85 77.380859375 84.802734375 77.05 84.85
L 76.9 84.85
M 86.9 84.65
L 86.9 84.75 86.5 85 86.5 86.15
Q 86.65 86.3 87.1 86.3
L 88.05 86.3
Q 88.9 85.2 87.85 84.65
L 86.9 84.65
M 92.15 76.25
L 92.15 74.85 92.05 74.75 91 74.75
Q 90.9 74.85 90.8 75
L 90.8 75.85 91.15 76.35 91.3 76.35 91.85 76.35 92.15 76.25
M 91.15 54.55
L 91.85 54.55 92.15 54.25 92.15 52.9 92.1 52.85
Q 91.4 52.5 90.8 53.1
L 90.8 53.9 91.15 54.55
M 91 20.6
L 90.95 20.65 90.65 21.2 90.65 21.95 90.95 22.15 91.85 22.15
Q 92.6 21.6 92.25 20.65
L 92.15 20.6 91 20.6
M 90.8 17.8
L 90.8 18.65
Q 91.4 19.45 92.1 18.9
L 92.15 18.85 92.15 17.4 91.85 17.25 91.15 17.25 90.8 17.8
M 88.05 6.9
L 87.1 6.85 86.5 6.95 86.5 8.15 86.9 8.4 86.9 8.45 87.85 8.45
Q 88.9 7.9 88.05 6.9 Z"/>

<path fill="#868686" stroke="none" d="
M 7.7 70.25
L 7.7 70.1 7 70.1 7.7 70.25
M 7 23.4
L 7 23.45 7.55 23.45 7 23.4
M 22.3 8.35
L 21.7 8.35 22.3 8.4 22.3 8.35
M 44.35 8.4
L 44.35 8.35 43.65 8.35 44.35 8.4
M 65.9 8.35
L 66.5 8.4 66.55 8.35 65.9 8.35
M 91.85 70.1
L 91.3 70.1 91.85 70.25 91.85 70.1
M 91.3 48.3
L 91.85 48.35 91.85 48.3 91.3 48.3
M 91.85 23.4
L 91.3 23.4 91.3 23.45 91.85 23.45 91.85 23.4 Z"/>

<path fill="#9E9E9E" stroke="none" d="
M 65.9 86.6
L 65.15 86.3 65.9 86.65 66 86.65 65.9 86.6
M 43.7 86.6
L 42.9 86.3 43.65 86.65 43.7 86.65 43.7 86.6
M 51.8 85
L 51.75 85 51.75 85.1 51.75 85.75 51.8 85.8 51.8 85
M 21.75 86.6
L 20.9 86.3 21.7 86.65 21.75 86.65 21.75 86.6
M 79.7 85
L 79.6 85 79.6 85.1 79.6 85.75 79.65 85.8 79.7 85.8 79.7 85
M 95.7 87.7
L 95.65 87.7 95.6 89.55 95.7 87.7
M 3.15 87.65
L 3.3 89.55 3.3 87.65 3.25 87.65 3.15 87.65 Z"/>

<path fill="#717171" stroke="none" d="
M 67.4 86.6
L 67.4 86.45 67.35 86.45 66.35 86.65 67.4 86.6
M 45.15 86.6
L 45.15 86.45 44.15 86.65 45.15 86.6
M 23.15 86.6
L 23.15 86.45 22.1 86.65 23.15 86.6
M 11 84.5
L 11 84.65 11.9 84.65 11 84.5
M 6.6 11.95
L 7.25 12 7.35 11.95 6.6 11.95
M 22.3 8.25
L 22.3 8.35 23 8.2 22.3 8.25
M 44.35 8.35
L 44.9 8.25 44.9 8.2 44.85 8.2 44.35 8.25 44.35 8.35
M 66.55 8.25
L 66.55 8.35 67.15 8.25 67.15 8.2 66.55 8.25
M 74.2 8.25
L 73.9 8.1 74.2 8.35 74.2 8.25
M 86.9 84.5
L 86.9 84.65 87.85 84.65 86.9 84.5
M 87.85 91.35
L 87.85 91.3 85.85 91.3 85.85 91.35 87.85 91.35
M 87.85 1.75
L 87.85 1.7 85.85 1.7 87.85 1.75
M 12.95 91.3
L 11 91.3 11 91.35 12.95 91.35 12.95 91.3
M 11 1.75
L 12.95 1.75 12.95 1.7 11 1.7 11 1.75 Z"/>

<path fill="#7F7F7F" stroke="none" d="
M 67.35 85.1
L 67.4 85.1 67 85.05 67.35 85.1
M 23.05 85.1
L 23.15 85.1 22.5 85 23.05 85.1
M 26.5 8.35
L 26.5 8.4 27.1 8.25 27.2 8.2 27.05 8.2 26.5 8.35
M 48.55 8.4
L 49.15 8.25 49.15 8.2 49.1 8.2 48.55 8.35 48.55 8.4
M 71.4 8.25
L 71.4 8.2 71.35 8.2 70.75 8.35 70.75 8.4 71.4 8.25
M 97.25 77.9
L 97.2 77.9 97.2 81.9 97.25 81.9 97.25 77.9
M 97.25 11.25
L 97.2 11.25 97.2 15.25 97.25 15.25 97.25 11.25
M 1.65 77.9
L 1.6 77.9 1.6 81.9 1.65 81.9 1.65 77.9
M 1.65 11.25
L 1.6 11.25 1.6 15.25 1.65 15.25 1.65 11.25
M 44.15 2
L 44.15 1.9 39.3 1.9 39.3 2 44.15 2
M 0.65 81.9
L 0.65 85.8 0.7 85.8 0.7 81.9 0.65 81.9
M 0.7 11.25
L 0.7 7.3 0.65 7.3 0.65 11.25 0.7 11.25 Z"/>

<path fill="#8D8D8D" stroke="none" d="
M 66.7 85
L 66.7 84.95 65.9 84.85 65.9 84.95 66.7 85
M 44.5 85
L 44.5 84.95 43.65 84.85 43.65 84.95 44.5 85
M 21.7 84.85
L 21.7 84.95 22.5 85 22.5 84.95 21.7 84.85 Z"/>

<path fill="#797979" stroke="none" d="
M 61.45 86.65
L 62.45 86.65
Q 62.35 86.4 61.45 86.45
L 61.45 86.65
M 30.15 8.4
L 29.75 8.2
Q 29.75 8.45 30.05 8.45
L 30.15 8.45 30.15 8.4
M 51.8 8.2
L 51.75 8.2
Q 51.75 8.45 52.1 8.45
L 52.15 8.45 52.15 8.4 51.8 8.2
M 76.2 8.2
Q 76.2 8.25 76.25 8.3 76.4 8.45 76.6 8.45
L 76.7 8.45 76.7 8.4 76.4 8.2 76.2 8.2
M 66.35 91.3
L 66.35 91.35 71.05 91.35 71.05 91.3 66.35 91.3
M 48.9 91.35
L 48.9 91.3 44.15 91.3 44.15 91.35 48.9 91.35
M 26.95 91.35
L 26.95 91.3 22.1 91.3 22.1 91.35 26.95 91.35 Z"/>

<path fill="#666666" stroke="none" d="
M 61.45 86.65
Q 61.8 86.8 62.45 86.7
L 62.45 86.65 61.45 86.65
M 61.45 86.45
L 61.3 86.45
Q 61.35 86.6 61.45 86.65
L 61.45 86.45
M 53 84.85
L 53 84.8
Q 52.45 84.5 51.85 84.8
L 51.85 84.85 53 84.85
M 39.15 86.45
L 39.05 86.45
Q 39.1 86.6 39.15 86.65
L 39.15 86.45
M 30.95 84.85
L 30.95 84.8
Q 30.5 84.5 29.9 84.8
L 29.9 84.85 30.95 84.85
M 19.1 7.3
L 19.15 7.3 18.8 7.1 19.1 7.3
M 14.6 6.85
L 14.6 6.9 15.55 6.95 15.55 6.9
Q 15.3 6.55 14.6 6.85
M 37.55 6.95
L 37.55 6.9
Q 37.2 6.55 36.65 6.85
L 36.65 6.9 37.55 6.95
M 41.05 7.3
L 41.1 7.3 40.8 7.1 41.05 7.3
M 59.85 6.95
L 59.8 6.9
Q 59.6 6.55 58.9 6.85
L 58.9 6.9 59.85 6.95
M 75.3 6.95
L 75.25 6.9
Q 74.95 6.55 74.35 6.85
L 74.35 6.9 75.3 6.95
M 80.75 84.8
Q 80.65 84.75 80.55 84.75
L 80.4 84.65
Q 80.1 84.65 79.95 84.75 79.85 84.75 79.7 84.8
L 79.7 84.85 80.75 84.85 80.75 84.8 Z"/>

<path fill="#7B7B7B" stroke="none" d="
M 63.4 85.8
L 63.45 85.8
Q 63.75 85.35 63.4 85
L 63.4 85.8
M 75 86.4
L 75.05 86.4 75.05 86.3 75 86.4
M 37.45 86.3
L 37.4 86.4 37.45 86.4 37.45 86.3
M 34.5 6.85
L 34.5 6.8 33.4 6.9 34.5 6.85
M 56.4 6.85
L 56.45 6.85 56.45 6.8 55.35 6.9 56.4 6.85
M 80.9 6.85
L 80.95 6.85 80.95 6.8 79.85 6.9 80.9 6.85
M 97.2 60.9
L 97.15 60.9 97.15 64.75 97.2 64.75 97.2 60.9
M 97.2 40.75
L 97.15 40.75 97.15 44.65 97.2 44.65 97.2 40.75
M 97.2 27.1
L 97.15 27.1 97.15 31 97.2 31 97.2 27.1
M 1.7 60.1
L 1.65 60.1 1.65 64.05 1.7 64.05 1.7 60.1
M 1.7 40.05
L 1.65 40.05 1.65 44.05 1.7 44.05 1.7 40.05
M 1.7 27.1
L 1.65 27.1 1.65 31 1.7 31 1.7 27.1 Z"/>

<path fill="#989898" stroke="none" d="
M 63.2 86.1
L 63.2 86 62.2 86 63.2 86.1
M 41 86.1
L 41 86 40 86 41 86.1
M 17.9 86
L 18.95 86.1 19 86 17.9 86
M 37.5 1.75
L 36.4 1.75 36.4 1.9 37.5 1.9 37.5 1.75
M 58.35 1.75
L 58.35 1.9 59.7 1.9 59.7 1.75 58.35 1.75 Z"/>

<path fill="#A5A5A5" stroke="none" d="
M 62.1 86
L 62.2 86 62.2 85.95
Q 62.1 85.8 62.1 85.4
L 62 85.4 62.1 86
M 40 86
L 39.95 85.95 39.95 86 40 86
M 39.95 85.65
Q 39.95 85.55 39.95 85.4
L 39.8 85.4 39.95 85.65
M 17.9 85.4
L 17.8 85.4 17.9 85.65
Q 17.9 85.55 17.9 85.4 Z"/>

<path fill="#8C8C8C" stroke="none" d="
M 74.35 86.3
L 74.4 86.3
Q 74.2 86.1 73.9 86.15
L 74.35 86.3
M 58.9 86.3
L 58.95 86.3
Q 58.75 86.1 58.35 86.15
L 58.9 86.3
M 36.15 86.15
L 36.65 86.3 36.75 86.3 36.15 86.15
M 14.6 86.3
L 14.65 86.3
Q 14.6 86.1 14.1 86.15
L 14.6 86.3 Z"/>

<path fill="#6F6F6F" stroke="none" d="
M 73.6 85.35
L 73.55 85.45 73.6 85.8 73.6 85.35
M 58.05 85.45
L 58.2 85.8 58.25 85.8 58.25 85.35 58.2 85.35 58.05 85.45
M 35.75 85.45
L 35.9 85.8 35.95 85.8 35.95 85.35 35.9 85.35 35.75 85.45
M 14 85.35
L 13.95 85.35 13.75 85.45 13.95 85.8 14 85.8 14 85.35
M 14.6 8.25
Q 14.5 8.1 14.1 8.1
L 14.55 8.35 14.6 8.35 14.6 8.25 Z"/>

<path fill="#848484" stroke="none" d="
M 74.4 84.8
L 74.4 84.85
Q 75.05 84.75 75.3 85.1
L 75.35 85.1 75.35 85.05
Q 75.2 84.5 74.4 84.8
M 58.95 84.8
L 58.95 84.85
Q 59.7 84.75 59.85 85.1
L 59.9 85.1 59.9 85.05
Q 59.7 84.5 58.95 84.8
M 36.8 84.8
L 36.8 84.85
Q 37.45 84.75 37.55 85.1
L 37.7 85.1 37.55 85.05
Q 37.45 84.5 36.8 84.8
M 14.65 84.8
L 14.65 84.85
Q 15.35 84.75 15.55 85 15.6 85.05 15.6 85.1
L 15.65 85.1 15.6 85.05
Q 15.6 85 15.55 84.95 15.35 84.6 14.65 84.8
M 90.5 85.75
L 90.5 85.65 90.25 85.1 90.45 85.75 90.5 85.75
M 98.25 64.75
L 98.05 64.75 98.05 70.5 98.25 70.5 98.25 64.75
M 98.05 48.6
L 98.25 48.6 98.25 44.65 98.05 44.65 98.05 48.6
M 98.25 23.1
L 98.05 23.1 98.05 27.1 98.25 27.1 98.25 23.1
M 0.8 64.05
L 0.7 64.05 0.7 70.5 0.8 70.5 0.8 64.05
M 0.8 44.05
L 0.7 44.05 0.7 47.9 0.8 47.9 0.8 44.05
M 0.8 23.1
L 0.7 23.1 0.7 27.1 0.8 27.1 0.8 23.1 Z"/>

<path fill="#262626" stroke="none" d="
M 70.6 84.85
L 70.6 84.8 69.8 84.8 69.8 84.85 70.6 84.85
M 47.55 84.8
L 47.55 84.85 48.45 84.85 48.45 84.8 47.55 84.8
M 25.45 84.85
L 26.35 84.85 26.35 84.8 25.45 84.8 25.45 84.85 Z"/>

<path fill="#494949" stroke="none" d="
M 71.75 86.15
L 71.8 86.15 71.75 85.35 71.75 86.15
M 49.5 85.35
L 49.5 86.15 49.55 86.15 49.5 85.35
M 97.2 67.4
L 97.15 67.4 97.15 67.85 97.2 67.85 97.2 67.4
M 97.15 60.9
L 97.2 60.9 97.15 58.65 97.15 60.7 97.15 60.9
M 97.2 40.75
L 97.15 38.5 97.15 40.75 97.2 40.75
M 97.15 33.25
L 97.2 31 97.15 31 97.15 31.1 97.15 33.25
M 1.65 67.85
L 1.7 67.85 1.7 67.4 1.65 67.4 1.65 67.85
M 1.7 60.1
L 1.7 56.15 1.65 56.15 1.65 60.1 1.7 60.1
M 1.7 34.6
Q 1.7 32.9 1.7 31.1
L 1.7 31 1.65 31 1.65 34.6 1.7 34.6
M 1.7 36.1
L 1.65 36.1 1.65 40.05 1.7 40.05 1.7 36.1
M 37.5 0.75
L 36.4 0.75 36.4 0.85 37.5 0.85 37.5 0.75
M 59.7 0.85
L 59.7 0.75 58.35 0.75 58.35 0.85 59.7 0.85 Z"/>

<path fill="#747474" stroke="none" d="
M 71.6 85.1
L 71.4 85.05
Q 71.25 84.95 70.75 84.85
L 70.75 84.95 71.4 85.1 71.6 85.1
M 48.55 84.85
L 48.55 84.95 49.15 85.1 49.25 85.1 49.25 85.05
Q 49.05 84.95 48.55 84.85
M 26.5 84.85
L 26.5 84.95 27.2 85.1 27.25 85.1 27.25 85.05 26.5 84.85 Z"/>

<path fill="#4D4D4D" stroke="none" d="
M 56.65 86.65
L 57.3 86.8 57.45 86.7 56.65 86.65
M 27 6.6
L 27.05 6.6 27 6.55 26.5 6.45 26.5 6.55 27 6.6
M 48.55 6.55
L 49.05 6.6 49.05 6.55
Q 48.85 6.45 48.55 6.45
L 48.55 6.55
M 71.25 6.6
L 71.25 6.55
Q 71.05 6.45 70.75 6.45
L 70.75 6.55 71.25 6.6
M 97.15 2
Q 97.1515625 1.9484375 97.2 1.9
L 97.15 1.9 97.15 2
M 1.6 89.7
L 1.55 89.7 1.6 91.2 1.6 89.7
M 1.6 1.9
L 1.55 1.9 1.6 3.4 1.6 1.9 Z"/>

<path fill="#363636" stroke="none" d="
M 45.3 86.3
L 45.35 86.3 45.3 85.4 45.3 86.3
M 7.7 34.8
L 7.7 34.7 7 34.7 7.7 34.8
M 23 6.55
L 22.8 6.5 22.05 6.45 22.05 6.55 23 6.55
M 45.3 7.8
L 45.35 7.8 45.3 6.9 45.3 7.8
M 44.9 6.55
L 44.9 6.5 44 6.45 44 6.55 44.9 6.55
M 67.15 6.55
L 67.15 6.5 66.25 6.45 66.25 6.55 67.15 6.55 Z"/>

<path fill="#3D3D3D" stroke="none" d="
M 56.7 86.15
L 56.9 86.15 56.7 85 56.7 86.15 Z"/>

<path fill="#737373" stroke="none" d="
M 56.45 84.65
L 56.45 84.5 55.95 84.45 56.4 84.65 56.45 84.65
M 34.5 84.65
L 34.4 84.5 33.9 84.45 34.3 84.65 34.5 84.65
M 17.9 7.3
L 18.1 7.2 18.1 7.1 18 7.1 17.75 7.3
Q 17.65 7.8 17.9 7.9
L 17.9 7.85
Q 17.8 7.75 17.9 7.3
M 40 7.1
L 39.7 7.3
Q 39.65 7.8 39.95 7.9
L 40 7.95 39.95 7.85
Q 39.8 7.75 39.95 7.3
L 40.05 7.2 40.05 7.1 40 7.1
M 62.1 7.3
L 62.35 7.2 62.35 7.1 62.3 7.1 61.95 7.3
Q 61.95 7.8 62.1 7.9
L 62.2 7.95 62.2 7.85
Q 62.1 7.75 62.1 7.3
M 84.2 84.65
L 84.3 84.65 84.3 84.5 83.8 84.45 84.2 84.65 Z"/>

<path fill="#C0C0C0" stroke="none" d="
M 54.75 84.8
L 54.7 84.8 54.7 84.85 54.7 85.95 54.7 86 54.75 86 54.75 84.8
M 32.8 84.8
L 32.65 84.8 32.65 84.85 32.65 85.95 32.65 86 32.8 86 32.8 84.8
M 32.8 7.2
L 32.65 7.2 32.65 7.3 32.65 8.4 32.8 8.45 32.8 7.2
M 54.75 7.2
L 54.7 7.2 54.7 7.3 54.7 8.4 54.75 8.45 54.75 7.2
M 82.55 84.8
L 82.55 84.85 82.55 85.95 82.55 86 82.65 86 82.65 84.8 82.55 84.8
M 79.3 7.2
L 79.25 7.2 79.25 7.3 79.25 8.4 79.3 8.45 79.3 7.2
M 0.7 77.9
L 0.65 77.9 0.65 81.9 0.7 81.9 0.7 77.9
M 0.7 11.25
L 0.65 11.25 0.65 15.25 0.7 15.25 0.7 11.25 Z"/>

<path fill="#474747" stroke="none" d="
M 54.7 84.85
L 54.5 84.85 54.65 85.95 54.7 85.95 54.7 84.85
M 32.65 84.85
L 32.55 84.85 32.6 85.95 32.65 85.95 32.65 84.85
M 32.65 7.3
L 32.55 7.3 32.6 8.4 32.65 8.4 32.65 7.3
M 54.7 7.3
L 54.5 7.3 54.65 8.4 54.7 8.4 54.7 7.3
M 82.55 84.85
L 82.4 84.85 82.4 85.95 82.55 85.95 82.55 84.85
M 79.25 7.3
L 79.1 7.3 79.1 8.4 79.25 8.4 79.25 7.3
M 98.05 55.45
L 98 55.45 98.05 56.85 98.05 55.45
M 98.05 36.8
L 98.05 34.9 98 34.9 98.05 36.8 Z"/>

<path fill="#F6F6F6" stroke="none" d="
M 51.85 84.85
L 51.8 84.95 51.8 85 51.8 85.8 52.1 86.25 52.15 86.25 52.9 86.25 53.2 85.95 53.2 85.1 53 84.85 51.85 84.85
M 31.2 85.8
L 31.2 85.3 31.2 85.1 30.95 84.85 29.9 84.85 29.75 84.95 29.75 85.1 29.75 85.75 29.75 85.8 30.15 86.25 30.95 86.25 31.2 85.95 31.2 85.8
M 7.9 63.7
L 7.9 62.85
Q 7 62.2 6.45 63.05 6.15 63.95 6.55 64.3
L 6.55 64.4
Q 7.85 64.95 7.9 63.7
M 7.9 42.75
Q 7 42.1 6.45 43 6.15 43.85 6.55 44.35
L 6.55 44.4
Q 7.85 44.95 7.9 43.6
L 7.9 42.75
M 19.15 7.3
L 19.1 7.3 18.8 7.1 18.1 7.1 18.1 7.2 17.9 7.3
Q 17.8 7.75 17.9 7.85
L 17.9 7.9 17.9 7.95
Q 18.25 7.95 18.25 8.2
L 18.3 8.25 18.5 8.4 19 8.35 19.1 8.35 19.1 8.25 19.2 8.2 19.2 8.15 19.15 7.3
M 31.2 8.1
L 31.2 7.95 31.2 7.3 29.75 7.3 29.75 7.5 29.75 8.2 30.15 8.4 30.15 8.45 30.85 8.45 31.2 8.1
M 41.1 7.3
L 41.05 7.3 40.8 7.1 40.05 7.1 40.05 7.2 39.95 7.3
Q 39.8 7.75 39.95 7.85
L 40 7.95 40.4 8.2 40.4 8.25 40.5 8.4 41 8.35 41.05 8.35 41.05 8.25 41.25 8.2 41.25 8.15 41.25 7.3 41.1 7.3
M 53.2 7.95
L 53.2 7.3 51.8 7.3 51.8 8.2 52.15 8.4 52.15 8.45 52.85 8.45 53.2 7.95
M 63.3 8.35
L 63.3 8.25 63.45 8.2 63.45 8.15 63.4 7.3 63.1 7.1 62.35 7.1 62.35 7.2 62.1 7.3
Q 62.1 7.75 62.2 7.85
L 62.2 7.95 62.55 8.2 62.55 8.25 62.65 8.35 62.65 8.4 63.2 8.35 63.3 8.35
M 77.75 7.3
Q 77.6728515625 7.26328125 77.6 7.2 77.5732421875 7.213671875 77.55 7.2 76.669921875 6.8501953125 76.4 7.3
L 76.4 8.2 76.7 8.4 76.7 8.45 77.35 8.45 77.75 8.1 77.75 7.95 77.75 7.3
M 81.05 85.3
L 81.05 85.1 80.75 84.85 79.7 84.85 79.7 85 79.7 85.8 80.05 86.25 80.7 86.25 81.05 85.95 81.05 85.8 81.05 85.3
M 90.95 63.65
L 90.95 64.3 90.95 64.4
Q 91.15 65.65 92.3 65.2
L 92.3 65.15
Q 92.75 64.3 92.3 63.5
L 90.95 63.55 90.95 63.65
M 90.95 43.5
L 90.95 44.35 90.95 44.4
Q 91.1 45.65 92.3 45.1
L 92.3 45
Q 92.75 44.2 92.3 43.4
L 90.95 43.5 Z"/>

<path fill="#8E8E8E" stroke="none" d="
M 8.4 84.5
L 8.5 85 8.5 85.1
Q 8.75 84.75 8.4 84.5
M 7.7 79.25
L 7.7 79.15 6.85 79.15 7.7 79.25
M 7.7 14
L 7.7 13.8 6.85 13.8 6.85 14 7.7 14
M 92.1 79.25
L 92.1 79.15 91.3 79.15 92.1 79.25
M 92.1 13.8
L 91.3 13.8 91.3 14 92.1 14 92.1 13.8 Z"/>

<path fill="#292929" stroke="none" d="
M 7.45 84.3
L 7.45 84.35 8.05 84.35 8.05 84.3 7.45 84.3
M 8.05 8.9
L 8.05 8.85 7.45 8.85 8.05 8.9
M 91.35 84.35
L 91.35 84.3 90.8 84.3 90.8 84.35 91.35 84.35
M 91.35 8.9
L 91.35 8.85 90.8 8.85 91.35 8.9 Z"/>

<path fill="#B1B1B1" stroke="none" d="
M 7.45 84.35
L 7.35 84.35 7.35 84.45 8.05 84.45 8.05 84.35 7.45 84.35
M 8.05 8.85
L 8.05 8.75 7.35 8.75 7.45 8.85 8.05 8.85
M 83.95 91.35
L 85.5 91.35 85.5 91.3 77.35 91.3 77.35 91.35 83.95 91.35 Z"/>

<path fill="#F7F7F7" stroke="none" d="
M 7.25 84.45
Q 6.85 84.5 6.6 85
L 6.6 85.8 7.15 86.3 7.25 86.3 8.2 85.95 8.3 85.95 8.5 85.1 8.5 85 8.4 84.5
Q 8.35 84.45 8.05 84.45
L 7.35 84.45 7.25 84.45
M 8 75
Q 7.9 74.85 7.8 74.75
L 7.75 74.7
Q 7.3 74.4 6.85 74.75 6.8 74.75 6.7 74.8
L 6.7 74.85 6.7 76.15 7.85 76.25 8.05 75.85 8.05 75 8 75
M 8.05 52.4
L 8 52.25
Q 7.45 51.65 6.7 52.1
L 6.7 52.15 6.7 53.55
Q 7.25 54.15 7.85 53.55
L 8.05 53.15 8.05 52.4
M 6.7 26.55
L 6.6 26.55 6.45 26.9
Q 6.15 27.95 6.55 28.35
L 6.55 28.4
Q 7.35 28.75 7.9 28.3
L 7.9 27.4
Q 7.9 26.75 7.45 26.55
L 6.7 26.55
M 6.7 17.4
L 6.7 17.55 6.7 18.85 8 18.7 8.05 18.65 8.05 17.8 8 17.8
Q 7.8 16.75 6.7 17.4
M 8.35 7.4
L 7.9 6.95
Q 7.1 6.5 6.6 7.2 6.45 8.4 7.25 8.75
L 7.35 8.75 8.05 8.75 8.15 8.75
Q 8.95 8.35 8.4 7.4
L 8.35 7.4
M 91.55 84.45
L 91.45 84.45 90.75 84.45 90.65 84.45 90.2 84.65
Q 90.2 85 90.25 85.1
L 90.5 85.65 90.5 85.75 91.4 86.3 91.45 86.3 92.15 85.95 92.25 85.95 92.25 85 91.55 84.45
M 90.8 69.2
L 90.8 69.9 91.15 70.1 91.3 70.1 91.85 70.1
Q 92 70.05 92.05 70 92.1 69.95 92.1 69.9 92.3 69.3 91.65 69
L 91.15 69 91.1 69 90.8 69.2
M 91.1 47.1
L 90.8 47.25 90.8 47.95 91.15 48.3 91.3 48.3 91.85 48.3
Q 92.5 47.55 91.65 47.1
L 91.1 47.1
M 92.3 28.35
Q 92.75 27.6 92.45 26.7
L 92.3 26.7
Q 91.4 26.15 90.95 27.05
L 90.95 27.45 90.95 28.1 90.95 28.3
Q 91.45 28.75 92.3 28.4
L 92.3 28.35
M 92.3 30.05
L 91.35 30.05 90.95 30.9
Q 91.1 31.9 92.05 32.15
L 92.1 32.15 92.6 31.1 92.6 30.25 92.3 30.05
M 90.8 23.8
L 90.95 24.45 90.95 24.5 91 24.7 91.15 24.7 91.65 24.7
Q 92.5 24.2 91.85 23.5
L 91.85 23.45 91.3 23.45 91.15 23.5 90.8 23.8
M 84.75 7.55
L 84.75 7.5
Q 84.05 6.55 83.2 6.95
L 83.2 7.1 83.2 8.2 83.25 8.4
Q 84.45 8.7 84.75 7.55
M 92.15 7.2
Q 92.05 6.9 91.45 6.85
L 91.4 6.85 90.65 7.2 90.65 7.3 90.2 7.95
Q 90.2 8.55 90.65 8.75
L 90.75 8.75 91.45 8.75 91.55 8.75 92.25 8.15 92.25 7.2 92.15 7.2 Z"/>

<path fill="#383838" stroke="none" d="
M 6.1 83
L 6.15 83 6.15 82.15 6.1 82.15 6.1 83
M 7.9 57.3
L 7.9 57.15 7.45 57.15 7.9 57.3
M 6.15 10.2
L 6.1 10.2 6.1 11 6.15 11 6.15 10.2
M 92.65 83
L 92.7 83 92.65 82.15 92.65 83
M 91.4 33.85
L 91.4 33.8 90.8 33.8 90.8 33.85 91.4 33.85
M 92.65 11
L 92.7 11 92.65 10.2 92.65 11 Z"/>

<path fill="#2B2B2B" stroke="none" d="
M 7.8 82.55
L 7.85 82.55 7.8 81.75 7.8 82.55
M 7.8 11.45
L 7.85 11.45 7.8 10.5 7.8 11.45
M 91.15 82.55
L 91.15 81.75 91 81.75 91.1 82.55 91.15 82.55
M 91.15 11.45
L 91.15 10.5 91 10.5 91.1 11.45 91.15 11.45 Z"/>

<path fill="#AAAAAA" stroke="none" d="
M 6.85 77.5
L 6.85 77.6 7.7 77.6 7.7 77.5 6.85 77.5
M 7.7 15.6
L 7.7 15.55 6.85 15.55 7.7 15.6
M 91.3 77.6
L 92.1 77.6 92.1 77.5 91.3 77.5 91.3 77.6
M 92.1 15.55
L 91.3 15.55 92.1 15.6 92.1 15.55 Z"/>

<path fill="#C4C4C4" stroke="none" d="
M 6.7 74.85
L 6.6 74.85 6.6 76.15 6.7 76.15 6.7 74.85
M 6.7 52.15
L 6.6 52.15 6.6 53.55 6.7 53.55 6.7 52.15
M 6.7 17.55
L 6.6 17.55 6.6 18.85 6.7 18.85 6.7 17.55
M 98.05 64.75
L 98.25 64.75 98.05 60.9 98.05 64.75
M 98.05 44.65
L 98.25 44.65 98.05 40.75 98.05 44.65
M 98.25 27.1
L 98.05 27.1 98.05 30.95 98.25 27.1
M 0.8 60.1
L 0.7 60.1 0.7 64.05 0.8 64.05 0.8 60.1
M 0.8 40.05
L 0.7 40.05 0.7 44.05 0.8 44.05 0.8 40.05
M 0.8 27.1
L 0.7 27.1 0.7 31 0.8 31 0.8 27.1 Z"/>

<path fill="#4F4F4F" stroke="none" d="
M 8.05 75.85
L 8.15 75.7 8.05 75 8.05 75.85
M 8.05 53.15
L 8.15 53.15 8.05 52.4 8.05 53.15
M 8.05 18.65
L 8.15 18.65 8.05 17.8 8.05 18.65
M 90.8 75.85
L 90.8 75 90.75 75 90.75 75.85 90.8 75.85
M 90.8 53.1
L 90.75 53.1 90.75 53.9 90.8 53.9 90.8 53.1
M 90.8 17.8
L 90.75 17.8 90.75 18.65 90.8 18.65 90.8 17.8
M 72.3 1.9
L 72.4 1.9 72.75 1.9 71.25 1.75 71.25 1.9 72.3 1.9 Z"/>

<path fill="#2E2E2E" stroke="none" d="
M 6.45 60.7
L 6.45 60.1 6.25 60.1 6.25 60.7 6.45 60.7
M 6.45 40.05
L 6.25 40.05 6.25 40.75 6.45 40.75 6.45 40.05
M 6.45 30.3
L 6.25 30.3 6.25 31 6.45 31 6.45 30.3 Z"/>

<path fill="#313131" stroke="none" d="
M 6.25 56.1
L 6.25 56.85 6.45 56.85 6.45 56.1 6.25 56.1 Z"/>

<path fill="#535353" stroke="none" d="
M 8.15 57.15
L 8.05 56.45 8.05 57.15 8.15 57.15
M 49.45 7.8
L 49.45 7.95
Q 49.6 7.75 49.55 7.2
L 49.45 7.8
M 49.55 7.1
L 49.5 7.1 49.55 7.2 49.55 7.1
M 71.8 7.1
L 71.75 7.1 71.75 7.2 71.7 7.8 71.7 7.95
Q 71.9 7.75 71.8 7.1
M 90.75 57.35
L 90.75 57.95 90.8 58 90.8 57.35 90.75 57.35
M 90.8 33.85
L 90.75 33.85 90.75 34.6 90.8 34.6 90.8 33.85 Z"/>

<path fill="#828282" stroke="none" d="
M 6.55 34.05
L 6.5 34.05
Q 6.45 34.6 6.7 34.65
L 6.8 34.65
Q 6.5 34.55 6.55 34.05
M 96.65 87.7
L 96.65 88.45 96.7 87.7 96.65 87.7
M 96.65 88.45
L 96.6 87.7 96.6 90.55 96.65 88.45
M 2.25 87.65
L 2.2 87.65 2.25 89.85 2.25 87.65
M 2.25 2.65
L 2.2 2.65 2.25 5.2 2.25 2.65 Z"/>

<path fill="#6D6D6D" stroke="none" d="
M 6.85 33.65
L 6.85 33.6 6.8 33.6 6.55 33.85 6.55 34.05 6.85 33.65
M 36.55 8.25
Q 36.45 8.1 36.15 8.1
L 36.5 8.35 36.65 8.35 36.55 8.25
M 58.85 8.25
Q 58.7 8.1 58.35 8.1
L 58.75 8.35 58.85 8.35 58.85 8.25
M 95.75 91.3
L 95.75 91.25 93.8 91.25 93.8 91.3 95.75 91.3
M 94.4 1.75
L 95.75 1.9 95.75 1.75 94.4 1.75
M 4.95 91.25
L 4 91.25 3 91.25 3 91.3 4.95 91.3 4.95 91.25
M 3 1.75
L 3 1.9 3.15 1.9 4.95 1.9 4.95 1.75 3 1.75 Z"/>

<path fill="#919191" stroke="none" d="
M 7.8 33.6
L 7.8 33.5
Q 7.7 33.3 7.35 33.3
L 7.75 33.6 7.8 33.6
M 7.55 30.05
L 6.55 30 6.55 30.05 7.55 30.05 Z"/>

<path fill="#B6B6B6" stroke="none" d="
M 6.7 26.5
L 6.7 26.55 7.45 26.55 6.7 26.5 Z"/>

<path fill="#575757" stroke="none" d="
M 7.9 24.5
L 8 24 7.9 24.35 7.9 24.5
M 91.85 0.95
L 91.85 0.85 89.9 0.85 91.85 0.95
M 7 0.85
L 7 0.95 9.1 0.85 7 0.85 Z"/>

<path fill="#787878" stroke="none" d="
M 17 6.55
L 16.95 6.6 18.1 6.55 17 6.55
M 21.7 8.35
L 21.7 8.25 21.35 7.95 21.6 8.35 21.7 8.35
M 43.65 8.35
L 43.35 7.95 43.6 8.35 43.65 8.35
M 65.9 8.35
L 65.9 8.25 65.55 7.95 65.85 8.35 65.9 8.35 Z"/>

<path fill="#7D7D7D" stroke="none" d="
M 19.2 8.15
L 19.25 8.1
Q 19.45 7.5 19.15 7.3
L 19.2 8.15
M 41.25 8.15
L 41.35 8.1 41.25 7.3 41.25 8.15
M 63.45 8.15
L 63.6 8.1 63.4 7.3 63.45 8.15
M 82.2 0.85
L 82.2 0.75 78.05 0.75 78.05 0.85 82.2 0.85
M 36.4 0.85
L 36.4 0.75 31.6 0.75 31.6 0.85 36.4 0.85
M 58.35 0.85
L 58.35 0.75 53.6 0.75 53.6 0.85 58.35 0.85 Z"/>

<path fill="#6A6A6A" stroke="none" d="
M 19.1 8.35
L 19 8.35 18.5 8.4
Q 18.8 8.55 19.1 8.4
L 19.1 8.35
M 41.05 8.35
L 41 8.35 40.5 8.4
Q 40.8 8.55 41.05 8.4
L 41.05 8.35
M 63.3 8.4
L 63.3 8.35 63.2 8.35 62.65 8.4
Q 63.1 8.55 63.3 8.4
M 91 37.65
L 90.8 37.75
Q 90.8 38.2 91.1 38.4
L 91.15 38.4 91.1 38.35
Q 90.8 38.2 90.95 37.8
L 91.15 37.65 91 37.65
M 92.3 11.95
L 91.45 11.95 92.25 12 92.3 11.95 Z"/>

<path fill="#858585" stroke="none" d="
M 18.3 8.25
L 18.25 8.2
Q 18.25 7.95 17.9 7.95
L 18.25 8.25 18.3 8.25
M 15.5 8.4
L 15.55 8.35 14.6 8.35 15.5 8.4
M 37.5 8.4
L 37.5 8.35 36.65 8.35 37.5 8.4
M 40.4 8.25
L 40.4 8.2 40 7.95 40.25 8.25 40.4 8.25
M 59.7 8.4
L 59.7 8.35 58.85 8.35 59.7 8.4
M 62.55 8.2
L 62.2 7.95 62.5 8.25 62.55 8.25 62.55 8.2
M 75.2 8.4
L 75.2 8.35 74.2 8.35 75.2 8.4 Z"/>

<path fill="#909090" stroke="none" d="
M 15.55 6.95
L 15.55 8.25 15.6 8.25
Q 15.9 7.5 15.55 6.95
M 75.3 8.25
L 75.35 8.25
Q 75.6 7.5 75.3 6.95
L 75.3 8.25 Z"/>

<path fill="#898989" stroke="none" d="
M 14 7.3
L 13.95 7.3 13.95 7.85 14 7.85 14 7.3
M 35.95 7.3
L 35.9 7.3 35.9 7.85 35.95 7.85 35.95 7.3
M 58.25 7.85
L 58.25 7.3 58.2 7.3 58.2 7.85 58.25 7.85
M 56.4 8.6
L 56.25 8.6 55.8 8.7 56.4 8.6 Z"/>

<path fill="#AFAFAF" stroke="none" d="
M 20.85 6.95
L 20.8 6.95 20.85 7.75 20.9 7.75 20.85 6.95
M 42.9 6.95
L 42.75 6.95 42.9 7.75 42.9 6.95
M 65.1 6.95
L 65.05 6.95 65.1 7.75 65.15 7.75 65.15 7.55 65.1 6.95 Z"/>

<path fill="#878787" stroke="none" d="
M 21.7 6.6
L 21.6 6.6 20.9 6.85 20.9 6.9 21.7 6.65 21.7 6.6
M 43.65 6.6
L 43.6 6.6 42.9 6.85 42.9 6.9 43.65 6.65 43.65 6.6
M 65.15 6.85
L 65.15 6.9 65.9 6.65 65.9 6.6 65.85 6.6 65.15 6.85 Z"/>

<path fill="#B0B0B0" stroke="none" d="
M 23.35 6.9
L 23.2 6.9 23.15 8.1 23.35 7.85 23.35 6.9
M 45.3 6.9
L 45.25 6.9 45.15 8.1 45.3 7.85 45.3 7.8 45.3 6.9
M 67.5 6.9
L 67.45 6.9 67.4 8.1 67.5 7.85 67.5 6.9
M 48.9 91.3
L 48.9 91.35 56 91.35 58.35 91.35 58.35 91.3 48.9 91.3
M 26.95 91.3
L 26.95 91.35 33.95 91.35 36.4 91.35 36.4 91.3 26.95 91.3 Z"/>

<path fill="#323232" stroke="none" d="
M 29.75 7.5
L 29.65 7.5 29.7 8.2 29.75 8.2 29.75 7.5
M 51.75 7.5
L 51.7 7.5 51.7 8.2 51.75 8.2 51.75 7.5
M 76.2 7.5
L 76.15 7.5 76.2 8.15 76.2 7.5
M 93.5 10.5
L 93.45 10.5 93.5 16.5 93.6 12.85 93.5 12.85 93.5 11.6 93.5 10.5 Z"/>

<path fill="#434343" stroke="none" d="
M 30.85 8.55
L 30.85 8.45 30.15 8.45 30.85 8.55
M 52.15 8.45
L 52.85 8.55 52.85 8.45 52.15 8.45
M 77.35 8.55
L 77.35 8.45 76.7 8.45 77.35 8.55 Z"/>

<path fill="#A1A1A1" stroke="none" d="
M 51.75 7.3
L 51.75 7.5 51.75 8.2 51.8 8.2 51.8 7.3 51.75 7.3
M 76.2 7.3
L 76.2 7.5 76.2 8.15 76.2 8.2 76.4 8.2 76.4 7.3 76.2 7.3
M 15.55 91.35
L 17.3 91.3 17.3 91.25 15.55 91.25 15.55 91.35 Z"/>

<path fill="#5B5B5B" stroke="none" d="
M 76 86.3
L 76 86.25 75.9 86.3 76 86.3 Z"/>

<path fill="#ACACAC" stroke="none" d="
M 91.45 84.45
L 91.45 84.4 91.35 84.35 90.8 84.35 90.75 84.35 90.75 84.45 91.45 84.45
M 91.85 76.45
L 91.85 76.35 91.3 76.35 91.85 76.45
M 91.45 8.8
L 91.45 8.75 90.75 8.75 90.75 8.85 90.8 8.85 91.35 8.85 91.45 8.8 Z"/>

<path fill="#D8D8D8" stroke="none" d="
M 90.95 77.8
L 90.95 77.9 90.95 78.95 91 78.95 91 77.8 90.95 77.8
M 91 14.15
L 90.95 14.15 90.95 14.25 90.95 15.25 90.95 15.3 91 15.35 91 14.15 Z"/>

<path fill="#BABABA" stroke="none" d="
M 92.15 51.2
L 92.15 51.15 91 51.15 92.15 51.2 Z"/>

<path fill="#565656" stroke="none" d="
M 92.6 37.6
L 92.6 37.45 92.5 37.45 92.6 37.6 Z"/>

<path fill="#616161" stroke="none" d="
M 91.35 37.3
L 91.3 37.3 91.15 37.45 91.15 37.65 91.35 37.3 Z"/>

<path fill="#F2F2F2" stroke="none" d="
M 90.95 37.8
Q 90.8 38.2 91.1 38.35
L 91.15 38.4
Q 92.15 38.75 92.1 37.6
L 92.1 37.45 92.05 37.45
Q 91.85 37.15 91.35 37.3
L 91.15 37.65 90.95 37.8 Z"/>

<path fill="#555555" stroke="none" d="
M 90.65 21.2
L 90.5 21.2 90.5 21.95 90.65 21.95 90.65 21.2 Z"/>

<path fill="#8A8A8A" stroke="none" d="
M 83.05 7.1
L 83.05 8.2 83.2 8.2 83.2 7.1 83.05 7.1
M 5.4 87.1
L 5.5 87.1 5.5 87 5.4 87.1
M 5.6 86.45
L 5.55 86.45 5.5 87.1 5.6 86.65 5.6 86.45
M 5.5 86.9
L 5.4 86.9 5.4 87.1 5.5 86.9 Z"/>

<path fill="#A9A9A9" stroke="none" d="
M 15.55 5.45
L 15.55 5.3 6.5 5.25 6.5 5.45 15.55 5.45 Z"/>

<path fill="#A7A7A7" stroke="none" d="
M 82.4 5.25
L 82.4 5.45
Q 85 5.45 87.6 5.45
L 82.4 5.25 Z"/>

<path fill="#C7C7C7" stroke="none" d="
M 93.6 10.5
L 93.5 10.5 93.5 11.6 93.6 12.85 93.6 10.5 Z"/>

<path fill="#DADADA" stroke="none" d="
M 77.35 91.35
L 77.35 91.3 75.6 91.3 75.6 91.35 76.25 91.35 77.35 91.35
M 58.35 91.35
L 58.5 91.35 59.7 91.35 59.7 91.3 58.35 91.3 58.35 91.35
M 36.4 91.3
L 36.4 91.35 36.5 91.35 37.45 91.35 37.5 91.35 37.5 91.3 36.4 91.3 Z"/>

<path fill="#DBDBDB" stroke="none" d="
M 78.05 1.95
L 78.05 1.9 75.8 1.9 77.35 2 78.05 1.95
M 75.2 2
L 75.2 1.9 72.75 1.9 72.4 1.9 75.2 2
M 27.4 1.95
L 27.4 1.9 27.05 1.9 27.4 1.95
M 49.6 1.95
L 49.6 1.9 49.15 1.9 49.6 1.95
M 52.65 2
L 53.5 1.95 53.5 1.9 49.85 1.9 52.65 2
M 72.3 1.95
L 72.3 1.9 71.25 1.9 72.3 1.95 Z"/>

<path fill="#999999" stroke="none" d="
M 82.2 1.75
L 82.2 1.9 82.4 1.9 82.4 1.75 82.2 1.75 Z"/>

<path fill="#A2A2A2" stroke="none" d="
M 71.05 91.3
L 71.05 91.35 75.3 91.35 75.3 91.3 75.3 91.25 71.05 91.3 Z"/>

<path fill="#303030" stroke="none" d="
M 95.75 91.25
L 95.75 91.3 97.15 91.25 95.75 91.25
M 95.75 1.75
L 95.75 1.9 97.15 1.9 95.75 1.75
M 3 91.3
L 3 91.25 1.65 91.25 3 91.3
M 3 1.9
L 3 1.75 1.65 1.75 1.65 1.9 3 1.9 Z"/>

<path fill="#ADADAD" stroke="none" d="
M 91.85 91.25
L 91.85 91.3 93.8 91.3 93.8 91.25 91.85 91.25
M 97.2 67.85
L 97.15 67.85 97.15 70.5 97.2 70.5 97.2 67.85
M 97.2 64.75
L 97.15 64.75 97.15 67.4 97.2 67.4 97.2 64.75
M 97.2 48.6
L 97.2 44.65 97.15 44.65 97.15 48.6 97.2 48.6
M 97.2 23.1
L 97.15 23.1 97.15 27.1 97.2 27.1 97.2 23.1
M 1.7 64.05
L 1.65 64.05 1.65 67.4 1.7 67.4 1.7 64.05
M 1.7 67.85
L 1.65 67.85 1.65 70.5 1.7 70.5 1.7 67.85
M 7 91.3
L 7 91.25 4.95 91.25 4.95 91.3 7 91.3
M 1.7 44.05
L 1.65 44.05 1.65 47.9 1.7 47.9 1.7 44.05
M 1.7 23.1
L 1.65 23.1 1.65 27.1 1.7 27.1 1.7 23.1
M 7 1.9
L 7 1.75 4.95 1.75 4.95 1.9 7 1.9 Z"/>

<path fill="#BFBFBF" stroke="none" d="
M 97.25 81.9
L 97.2 81.9 97.2 87.1 97.2 87.7 97.2 89.75 97.25 89.75 97.25 81.9
M 97.25 3.4
L 97.2 3.4 97.2 11.25 97.25 11.25 97.25 3.4 Z"/>

<path fill="#C6C6C6" stroke="none" d="
M 97.2 70.5
L 97.15 70.5 97.15 74.55 97.2 74.55 97.2 70.5
M 97.2 48.6
L 97.15 48.6 97.15 52.6 97.2 52.6 97.2 48.6
M 97.15 23.1
L 97.2 23.1 97.2 19.05 97.15 19.05 97.15 23.1
M 1.65 71.05
L 1.7 70.6 1.7 70.5 1.65 70.5 1.65 71.05
M 66.35 91.3
L 66.35 91.25 61.55 91.25 61.55 91.3 63.75 91.3 66.35 91.3
M 39.3 91.25
L 39.3 91.3 41.4 91.3 44.15 91.3 44.15 91.25 39.3 91.25
M 17.3 91.3
L 19.45 91.3 22.1 91.3 22.1 91.25 17.3 91.25 17.3 91.3
M 1.65 47.9
L 1.7 49.3 1.7 47.9 1.65 47.9
M 1.7 23.1
L 1.65 21.5 1.65 23.1 1.7 23.1 Z"/>

<path fill="#D3D3D3" stroke="none" d="
M 97.15 67.4
L 97 67.4 97 67.85 97.15 67.85 97.15 67.4
M 97.15 55.45
L 97 55.45 97 60.7 97.15 60.7 97.15 58.65 97.15 55.45 Z"/>

<path fill="#D5D5D5" stroke="none" d="
M 97.15 31.1
L 97 31.1 97 40.75 97.15 40.75 97.15 38.5 97.15 33.25 97.15 31.1 Z"/>

<path fill="#EBEBEB" stroke="none" d="
M 1.65 89.7
L 1.6 89.7 1.6 91.2 1.6 91.25 1.65 91.25 3 91.25 4 91.25 1.65 91.2 1.65 89.7 Z"/>

<path fill="#BEBEBE" stroke="none" d="
M 1.65 81.9
L 1.6 81.9 1.6 89.7 1.65 89.7 1.65 81.9 Z"/>

<path fill="#C9C9C9" stroke="none" d="
M 3.15 1.95
L 3.15 1.9 3 1.9 1.65 1.9 1.6 1.9 1.6 3.4 1.6 11.25 1.65 11.25 1.65 2 3.15 1.95 Z"/>

<path fill="#333333" stroke="none" d="
M 27 1.9
L 27 1.75 22.1 1.75 22.1 1.9 27 1.9
M 48.95 1.9
L 48.95 1.75 44.15 1.75 44.15 1.9 48.9 1.9 48.95 1.9
M 71.25 1.9
L 71.25 1.75 66.35 1.75 66.35 1.9 71.25 1.9 Z"/>

<path fill="#5D5D5D" stroke="none" d="
M 36.4 1.9
L 36.4 1.75 27 1.75 27 1.9 27.05 1.9 27.4 1.9 36.4 1.9
M 58.35 1.9
L 58.35 1.75 48.95 1.75 48.95 1.9 49.15 1.9 49.6 1.9 49.85 1.9 53.5 1.9 58.35 1.9 Z"/>

<path fill="#484848" stroke="none" d="
M 82.4 0.85
L 82.4 0.75 82.2 0.75 82.2 0.85 82.4 0.85 Z"/>

<path fill="#939393" stroke="none" d="
M 93.8 0.85
L 91.85 0.85 91.85 0.95 93.8 0.95 93.8 0.85
M 7 0.95
L 7 0.85 4.95 0.85 4.95 0.95 7 0.95 Z"/>

<path fill="#D1D1D1" stroke="none" d="
M 97.7 0.95
L 97.7 0.85 93.8 0.85 93.8 0.95 97.7 0.95
M 4.95 0.95
L 4.95 0.85 1.15 0.85 1.15 0.95 4.95 0.95 Z"/>

<path fill="#3F3F3F" stroke="none" d="
M 0.7 85.8
L 0.65 85.8 0.65 88 0.7 85.8
M 0.65 7.3
L 0.7 7.3 0.65 5.15 0.65 7.3 Z"/>
</g>
</defs>

<g transform="matrix( 1, 0, 0, 1, 0,0) ">
<use xlink:href="#Layer2_0_FILL"/>
</g>

<g transform="matrix( 1, 0, 0, 1, 0,0) ">
<use xlink:href="#Layer1_0_FILL"/>
</g>

<g transform="matrix( 1, 0, 0, 1, 0,0) ">
<use xlink:href="#Layer0_0_FILL"/>
</g>
</svg>
