
<svg xmlns="http://www.w3.org/2000/svg" version="1.1" xmlns:xlink="http://www.w3.org/1999/xlink" preserveAspectRatio="none" x="0px" y="0px" width="99px" height="93px" viewBox="0 0 99 93">
<defs>
<g id="Layer2_0_FILL">
<path fill="#FFFFFF" stroke="none" d="
M 99.05 93.05
L 99.05 0.05 0.05 0.05 0.05 93.05 99.05 93.05 Z"/>
</g>

<g id="Layer1_0_FILL">
<path fill="#000000" stroke="none" d="
M 99.05 93.05
L 99.05 0.05 0.05 0.05 0.05 93.05 99.05 93.05
M 95.1 3.8
L 95.1 89.25 4.1 89.25 4.1 3.8 95.1 3.8 Z"/>

<path fill="#FFFFFF" stroke="none" d="
M 95.1 89.25
L 95.1 3.8 4.1 3.8 4.1 89.25 95.1 89.25 Z"/>
</g>

<g id="Layer0_0_FILL">
<path fill="#000000" stroke="none" d="
M 2.5 -5.55
Q 1.45 -3.75 3.4 -2.25
L 2.35 -2.35
Q 0.95 -4.4 -1.35 -3.9
L -1.75 -1.7
Q -0.2 -0.15 1.7 -0.55 1.95 -0.7 2.25 -0.7
L 2.25 2.15
Q -0.1 0.85 -2.65 1.1 -3.3 1.25 -3.8 1.6
L -3.95 1.6
Q -5.6 2.65 -7.25 3.3 -8.55 5.6 -8.4 8.15 -8.3 8.8 -7.9 9.05 -5.45 11 -3.55 13.15
L -3.65 14.2
Q -5.6 12.5 -7.5 13.8
L -7.8 14.45 -5.85 16 -7 16.1
Q -8.3 17.25 -7.8 18.8
L -5.85 19.7 -7.4 20.6
Q -7.5 21.25 -7.5 21.75 -7.5 23.45 -7 25.1 -6.35 24.05 -5.6 22.8 -5.35 22.4 -4.8 21.9 -2.25 19.2 -1.6 15.6 -1.75 15.6 -1.75 15.35 -2.25 14.3 -2.5 13.15 -3.15 11.65 -4.55 10.2 -5.45 9.45 -6.1 8.7 -7 7.65 -6.75 6.35 -6.75 5.85 -6.35 5.2 -5.35 3.55 -3.8 3.15 -2.4 2.65 -0.6 3.15
L -1.75 6.1 -3.8 5.6
Q -5.6 7 -4.05 9.05
L -1.85 9.55 -1.35 9.45
Q -2.4 10.45 -1.75 11.75 -0.85 13.15 0.55 14.2 0.8 13.3 1.2 12.5 2.5 10.75 1.1 9.05
L 2.75 8.55 3.15 7.8 3.25 6.9
Q 2.85 6.1 2.35 5.75 1.7 5.35 0.7 5.45
L -0.1 6.1 0.3 4.45 1.45 3.8 8.15 4.85 10.55 4.3
Q 11.7 3.55 12.9 3.15 13.4 3.05 13.5 2.5 14.3 1.1 14.95 -0.3
L 15.95 -0.05
Q 18.25 -0.7 18.4 -3 18.8 -5.7 21.2 -6.7 23.4 -6.95 25.2 -5.7
L 23.15 -5.55 22.75 -4.9 24.95 -3.65 25.85 -4.15 27.35 -3.1 28.25 -3.65 28 -5.05 28.65 -6.95 28.15 -7.6 26.45 -7.75 25.85 -6.45
Q 24.15 -7.85 22.35 -8 20.55 -8.25 18.8 -7.1
L 15.2 -1.85 14.65 -1.95 15.3 -2.25
Q 16.35 -3.4 15.85 -4.9 14.3 -5.8 12.6 -5.45
L 12 -4.65
Q 12 -4.8 11.85 -4.9 12 -5.7 11.85 -6.35 11.7 -6.95 11.1 -7.25 9.4 -7.75 8 -8
L 8.75 -3.9 10.2 -3.65
Q 8.75 -3.4 8.75 -1.95 9.65 -0.15 12 -0.15
L 12.75 -0.45
Q 12.6 0.2 12.1 0.85 11.6 1.5 10.8 2 9.15 3.05 7.35 2.9 6.35 2.9 5.55 2.65 3.75 1.9 3.4 -0.3
L 4.3 1.35 6.2 1.9 7.5 1.25
Q 8.15 0.35 7.35 -0.45 6.2 -1.7 4.9 -1.2
L 5.2 -2.25 6.85 -2.75
Q 7.35 -3.4 7.35 -4 7.25 -4.65 6.85 -5.2 5.8 -6.2 5.3 -7.5 4.55 -6.95 3.4 -6.35 2.85 -6.1 2.5 -5.55 Z"/>
</g>

<g id="Layer0_1_FILL">
<path fill="#000000" stroke="none" d="
M 41.35 7.55
L 42 5.65 41.5 5 39.8 4.85 39.2 6.15
Q 37.5 4.75 35.7 4.6 33.9 4.35 32.15 5.5
L 28.55 10.75 28 10.65 28.65 10.35
Q 29.7 9.2 29.2 7.7 27.65 6.8 25.95 7.15
L 25.35 7.95
Q 25.35 7.8 25.2 7.7 25.35 6.9 25.2 6.25 25.05 5.65 24.45 5.35 22.75 4.85 21.35 4.6
L 22.1 8.7 23.55 8.95
Q 22.1 9.2 22.1 10.65 23 12.45 25.35 12.45
L 26.1 12.15
Q 25.95 12.8 25.45 13.45 24.95 14.1 24.15 14.6 22.5 15.65 20.7 15.5 19.7 15.5 18.9 15.25 17.1 14.5 16.75 12.3
L 17.65 13.95 19.55 14.5 20.85 13.85
Q 21.5 12.95 20.7 12.15 19.55 10.9 18.25 11.4
L 18.55 10.35 20.2 9.85
Q 20.7 9.2 20.7 8.6 20.6 7.95 20.2 7.4 19.15 6.4 18.65 5.1 17.9 5.65 16.75 6.25 16.2 6.5 15.85 7.05 14.8 8.85 16.75 10.35
L 15.7 10.25
Q 14.3 8.2 12 8.7
L 11.6 10.9
Q 13.15 12.45 15.05 12.05 15.3 11.9 15.6 11.9
L 15.6 14.75
Q 13.25 13.45 10.7 13.7 10.05 13.85 9.55 14.2
L 9.4 14.2
Q 7.75 15.25 6.1 15.9 4.8 18.2 4.95 20.75 5.05 21.4 5.45 21.65 7.9 23.6 9.8 25.75
L 9.7 26.8
Q 7.75 25.1 5.85 26.4
L 5.55 27.05 7.5 28.6 6.35 28.7
Q 5.05 29.85 5.55 31.4
L 7.5 32.3 5.95 33.2
Q 5.85 33.85 5.85 34.35 5.85 36.05 6.35 37.7 7 36.65 7.75 35.4 8 35 8.55 34.5 11.1 31.8 11.75 28.2 11.6 28.2 11.6 27.95 11.1 26.9 10.85 25.75 10.2 24.25 8.8 22.8 7.9 22.05 7.25 21.3 6.35 20.25 6.6 18.95 6.6 18.45 7 17.8 8 16.15 9.55 15.75 10.95 15.25 12.75 15.75
L 11.6 18.7 9.55 18.2
Q 7.75 19.6 9.3 21.65
L 11.5 22.15 12 22.05
Q 10.95 23.05 11.6 24.35 12.5 25.75 13.9 26.8 14.15 25.9 14.55 25.1 15.85 23.35 14.45 21.65
L 16.1 21.15 16.5 20.4 16.6 19.5
Q 16.2 18.7 15.7 18.35 15.05 17.95 14.05 18.05
L 13.25 18.7 13.65 17.05 14.8 16.4 21.5 17.45 23.9 16.9
Q 25.05 16.15 26.25 15.75 26.75 15.65 26.85 15.1 27.65 13.7 28.3 12.3
L 29.3 12.55
Q 31.6 11.9 31.75 9.6 32.15 6.9 34.55 5.9 36.75 5.65 38.55 6.9
L 36.5 7.05 36.1 7.7 38.3 8.95 39.2 8.45 40.7 9.5 41.6 8.95 41.35 7.55 Z"/>
</g>

<g id="Layer0_2_FILL">
<path fill="#000000" stroke="none" d="
M 41.35 7.55
L 42 5.65 41.5 5 39.8 4.85 39.2 6.15
Q 37.5 4.75 35.7 4.6 33.9 4.35 32.15 5.5
L 28.55 10.75 28 10.65 28.65 10.35
Q 29.7 9.2 29.2 7.7 27.65 6.8 25.95 7.15
L 25.35 7.95
Q 25.35 7.8 25.2 7.7 25.35 6.9 25.2 6.25 25.05 5.65 24.45 5.35 22.75 4.85 21.35 4.6
L 22.1 8.7 23.55 8.95
Q 22.1 9.2 22.1 10.65 23 12.45 25.35 12.45
L 26.1 12.15
Q 25.95 12.8 25.45 13.45 24.95 14.1 24.15 14.6 22.5 15.65 20.7 15.5 19.7 15.5 18.9 15.25 17.1 14.5 16.75 12.3
L 17.65 13.95 19.55 14.5 20.85 13.85
Q 21.5 12.95 20.7 12.15 19.55 10.9 18.25 11.4
L 18.55 10.35 20.2 9.85
Q 20.7 9.2 20.7 8.6 20.6 7.95 20.2 7.4 19.15 6.4 18.65 5.1 17.9 5.65 16.75 6.25 16.2 6.5 15.85 7.05 14.8 8.85 16.75 10.35
L 15.7 10.25
Q 14.3 8.2 12 8.7
L 11.6 10.9
Q 13.15 12.45 15.05 12.05 15.3 11.9 15.6 11.9
L 15.6 14.75
Q 13.25 13.45 10.7 13.7 10.05 13.85 9.55 14.2
L 9.4 14.2
Q 7.75 15.25 6.1 15.9 4.8 18.2 4.95 20.75 5.05 21.4 5.45 21.65 7.9 23.6 9.8 25.75
L 9.7 26.8
Q 7.75 25.1 5.85 26.4
L 5.55 27.05 7.5 28.6 6.35 28.7
Q 5.05 29.85 5.55 31.4
L 7.5 32.3 5.95 33.2
Q 5.85 33.85 5.85 34.35 5.85 36.05 6.35 37.7 7 36.65 7.75 35.4 8 35 8.55 34.5 11.1 31.8 11.75 28.2 11.6 28.2 11.6 27.95 11.1 26.9 10.85 25.75 10.2 24.25 8.8 22.8 7.9 22.05 7.25 21.3 6.35 20.25 6.6 18.95 6.6 18.45 7 17.8 8 16.15 9.55 15.75 10.95 15.25 12.75 15.75
L 11.6 18.7 9.55 18.2
Q 7.75 19.6 9.3 21.65
L 11.5 22.15 12 22.05
Q 10.95 23.05 11.6 24.35 12.5 25.75 13.9 26.8 14.15 25.9 14.55 25.1 15.85 23.35 14.45 21.65
L 16.1 21.15 16.5 20.4 16.6 19.5
Q 16.2 18.7 15.7 18.35 15.05 17.95 14.05 18.05
L 13.25 18.7 13.65 17.05 14.8 16.4 21.5 17.45 23.9 16.9
Q 25.05 16.15 26.25 15.75 26.75 15.65 26.85 15.1 27.65 13.7 28.3 12.3
L 29.3 12.55
Q 31.6 11.9 31.75 9.6 32.15 6.9 34.55 5.9 36.75 5.65 38.55 6.9
L 36.5 7.05 36.1 7.7 38.3 8.95 39.2 8.45 40.7 9.5 41.6 8.95 41.35 7.55 Z"/>
</g>

<g id="Layer0_3_FILL">
<path fill="#000000" stroke="none" d="
M 86.9 8.7
Q 84.6 8.2 83.2 10.25
L 82.15 10.35
Q 84.1 8.85 83.05 7.05 82.7 6.5 82.15 6.25 81 5.65 80.25 5.1 79.75 6.4 78.7 7.4 78.3 7.95 78.2 8.6 78.2 9.2 78.7 9.85
L 80.35 10.35 80.65 11.4
Q 79.35 10.9 78.2 12.15 77.4 12.95 78.05 13.85
L 79.35 14.5 81.25 13.95 82.15 12.3
Q 81.8 14.5 80 15.25 79.2 15.5 78.2 15.5 76.4 15.65 74.75 14.6 73.95 14.1 73.45 13.45 72.95 12.8 72.8 12.15
L 73.55 12.45
Q 75.9 12.45 76.8 10.65 76.8 9.2 75.35 8.95
L 76.8 8.7 77.55 4.6
Q 76.15 4.85 74.45 5.35 73.85 5.65 73.7 6.25 73.55 6.9 73.7 7.7 73.55 7.8 73.55 7.95
L 72.95 7.15
Q 71.25 6.8 69.7 7.7 69.2 9.2 70.25 10.35
L 70.9 10.65 70.35 10.75 66.75 5.5
Q 65 4.35 63.2 4.6 61.4 4.75 59.7 6.15
L 59.1 4.85 57.4 5 56.9 5.65 57.55 7.55 57.3 8.95 58.2 9.5 59.7 8.45 60.6 8.95 62.8 7.7 62.4 7.05 60.35 6.9
Q 62.15 5.65 64.35 5.9 66.75 6.9 67.15 9.6 67.3 11.9 69.6 12.55
L 70.6 12.3
Q 71.25 13.7 72.05 15.1 72.15 15.65 72.65 15.75 73.85 16.15 75 16.9
L 77.4 17.45 84.1 16.4 85.25 17.05 85.65 18.7 84.85 18.05
Q 83.85 17.95 83.2 18.35 82.7 18.7 82.3 19.5
L 82.4 20.4 82.8 21.15 84.45 21.65
Q 83.05 23.35 84.35 25.1 84.75 25.9 85 26.8 86.4 25.75 87.3 24.35 87.95 23.05 86.9 22.05
L 87.4 22.15 89.6 21.65
Q 91.15 19.6 89.35 18.2
L 87.3 18.7 86.15 15.75
Q 87.95 15.25 89.35 15.75 90.9 16.15 91.9 17.8 92.3 18.45 92.3 18.95 92.55 20.25 91.65 21.3 91 22.05 90.1 22.8 88.7 24.25 88.05 25.75 87.8 26.9 87.3 27.95 87.3 28.2 87.15 28.2 87.8 31.8 90.35 34.5 90.9 35 91.15 35.4 91.9 36.65 92.55 37.7 93.05 36.05 93.05 34.35 93.05 33.85 92.95 33.2
L 91.4 32.3 93.35 31.4
Q 93.85 29.85 92.55 28.7
L 91.4 28.6 93.35 27.05 93.05 26.4
Q 91.15 25.1 89.2 26.8
L 89.1 25.75
Q 91 23.6 93.45 21.65 93.85 21.4 93.95 20.75 94.1 18.2 92.8 15.9 91.15 15.25 89.5 14.2
L 89.35 14.2
Q 88.85 13.85 88.2 13.7 85.65 13.45 83.3 14.75
L 83.3 11.9
Q 83.6 11.9 83.85 12.05 85.75 12.45 87.3 10.9
L 86.9 8.7 Z"/>
</g>
</defs>

<g transform="matrix( 1, 0, 0, 1, 0,0) ">
<use xlink:href="#Layer2_0_FILL"/>
</g>

<g transform="matrix( 1, 0, 0, 1, 0,0) ">
<use xlink:href="#Layer1_0_FILL"/>
</g>

<g transform="matrix( 1, 0, 0, 1, 12.75,12.15) ">
<use xlink:href="#Layer0_0_FILL"/>
</g>

<g transform="matrix( -1, 0, 0, 1, 99.65,-0.45) ">
<use xlink:href="#Layer0_1_FILL"/>
</g>

<g transform="matrix( 1, 0, 0, -1, -0.6,93.25) ">
<use xlink:href="#Layer0_2_FILL"/>
</g>

<g transform="matrix( 1, 0, 0, -1, 0.75,93.25) ">
<use xlink:href="#Layer0_3_FILL"/>
</g>
</svg>
