
<svg xmlns="http://www.w3.org/2000/svg" version="1.1" xmlns:xlink="http://www.w3.org/1999/xlink" preserveAspectRatio="none" x="0px" y="0px" width="99px" height="93px" viewBox="0 0 99 93">
<defs>
<g id="Layer2_0_FILL">
<path fill="#FFFFFF" stroke="none" d="
M 99 93
L 99 0 0 0 0 93 99 93 Z"/>
</g>

<g id="Layer1_0_FILL">
<path fill="#FFFFFF" stroke="none" d="
M 99 93
L 99 0 0 0 0 93 99 93 Z"/>
</g>

<g id="Layer0_0_FILL">
<path fill="#010101" stroke="none" d="
M 95.7 1.45
L 95.4 1.25 3.7 1.25 3.4 1.45 3.4 2.15 3.55 2.65
Q 3.15 3.7 3.2 4.7
L 3.15 4.7
Q 1.3 5.25 0.35 6.8 0.3 7.5 0.75 7.65
L 1.35 7.65
Q 2.6 7.4 3.4 6.65
L 3.8 7.1 3.8 7.2 4.2 8.3 4.2 8.45 4.3 8.5 4.75 10.4
Q 3.55 10.5 3.1 11.4 2.55 12.3 2.2 13.6
L 2.15 15.8 2.3 16.7
Q 2.4 17.45 2.9 17.65
L 3 17.75
Q 3.8 17.6 4.1 17.05
L 4.75 15.4 4.75 15.2 5 15.9
Q 5.2 30.6 5.3 36.3 5.3 36.8 5.3 37.35 5.3 38 5.35 38.5 5.3 38.55 5.35 38.6 5.3 40.2 5.3 42.05
L 5.3 51.15
Q 5.3 53 5.35 54.6 5.3 54.65 5.35 54.7 5.3 55.2 5.3 55.85 5.3 56.4 5.3 56.9 5.2 62.6 5 77.3
L 4.75 78 4.75 77.8 4.1 76.15
Q 3.8 75.6 3 75.45
L 2.9 75.55
Q 2.4 75.75 2.3 76.5
L 2.15 77.4 2.2 79.6
Q 2.55 80.9 3.1 81.8 3.55 82.7 4.75 82.8
L 4.3 84.7 4.2 84.75 4.2 84.9 3.8 86 3.8 86.1 3.4 86.55
Q 2.6 85.8 1.35 85.55
L 0.75 85.55
Q 0.3 85.7 0.35 86.4 1.3 87.95 3.15 88.5
L 3.2 88.5
Q 3.15 89.5 3.55 90.55
L 3.4 91.05 3.4 91.75 3.7 91.95 95.4 91.95 95.7 91.75 95.7 91.05 95.55 90.55
Q 95.95 89.5 95.9 88.5
L 95.95 88.5
Q 97.8 87.95 98.75 86.4 98.8 85.7 98.35 85.55
L 97.75 85.55
Q 96.5 85.8 95.7 86.55
L 95.3 86.1 95.3 86 94.9 84.9 94.9 84.75 94.8 84.7 94.35 82.8
Q 95.55 82.7 96 81.8 96.55 80.9 96.9 79.6
L 96.95 77.4 96.8 76.5
Q 96.7 75.75 96.2 75.55
L 96.1 75.45
Q 95.3 75.6 95 76.15
L 94.35 77.8 94.35 78 94.1 77.3
Q 93.9 62.6 93.8 56.9 93.8 56.4 93.8 55.85 93.8 55.2 93.75 54.7 93.8 54.65 93.75 54.6 93.8 53 93.8 51.15
L 93.8 42.05
Q 93.8 40.2 93.75 38.6 93.8 38.55 93.75 38.5 93.8 38 93.8 37.35 93.8 36.8 93.8 36.3 93.9 30.6 94.1 15.9
L 94.35 15.2 94.35 15.4 95 17.05
Q 95.3 17.6 96.1 17.75
L 96.2 17.65
Q 96.7 17.45 96.8 16.7
L 96.95 15.8 96.9 13.6
Q 96.55 12.3 96 11.4 95.55 10.5 94.35 10.4
L 94.8 8.5 94.9 8.45 94.9 8.3 95.3 7.2 95.3 7.1 95.7 6.65
Q 96.5 7.4 97.75 7.65
L 98.35 7.65
Q 98.8 7.5 98.75 6.8 97.8 5.25 95.95 4.7
L 95.9 4.7
Q 95.95 3.7 95.55 2.65
L 95.7 2.15 95.7 1.45
M 91.2 6.1
L 91.95 6.1 91.95 6.2 92.05 6.2 90.8 6.45 88.15 6.65 90.15 6.25 91.2 6.2 91.2 6.1
M 94.5 11.8
L 94.55 11.85
Q 95.3 13.25 95.8 14.9 95.9 15.3 95.7 15.4
L 95.55 14.9 95.55 14.8
Q 95.55 14.3 95.3 14 94.7 13 94.5 11.8
M 97.6 6.5
Q 97.5 7 97.2 6.65
L 96.8 6.5
Q 96.1 6.3 95.8 6 96.95 6 97.6 6.5
M 82.05 6.1
Q 81.8 6.4 81.25 6.5
L 79.7 6.6 79.7 6.5 79.5 6.4 79.5 6.3 80.85 6.3 82.05 6.1
M 90.15 16.4
L 90.15 16.3 91 16.3 91 16.4 91.05 16.4
Q 90.8 16.7 90.15 16.7
L 88.05 17.2
Q 88.35 16.7 89 16.65
L 90.15 16.4
M 87.4 22.05
L 86.8 23.85 85.8 25.4 86.65 23.25
Q 86.8 22.45 87.4 22.05
M 87.75 30.5
L 87.8 30.5 89 32.6 89 32.75 88.2 31.9 87.75 30.5
M 89 39.75
Q 89.2 39.3 89.55 39.3 89 40.55 87.45 40.5
L 89 39.75
M 71.25 10.5
L 71.45 10.5 71.25 10.7 71.2 10.7 70.85 10.9
Q 70.15 11 70.7 10.65
L 70.85 10.65 71.9 9.45
Q 72.65 8.85 73.2 8.6
L 71.25 10.5
M 77.5 11.7
L 77.5 11.65 77.85 10.7 77.4 14.3 77.3 14.4 77.5 11.7
M 61.75 3.75
L 61.85 3.85 61.85 4.75 61.5 5.9
Q 61.35 6.4 60.9 6.8
L 61.5 4.75 61.55 3.85 61.75 3.75
M 77.25 19.25
L 77.4 19.25 78.25 19.45
Q 77.85 19.8 77.4 19.45
L 77.4 19.4 76.1 19.45
Q 76.2 19.25 76.65 19.25
L 76.8 19.25 77.25 19.2 77.25 19.25
M 55.2 7.65
L 55.15 7.7 54.6 7.85
Q 53.3 8.4 51.75 8.85 52.5 8.2 53.7 7.8
L 54.8 7.5
Q 55.6 7.3 55.2 7.65
M 43.95 7.7
L 43.9 7.65
Q 43.5 7.3 44.3 7.5
L 45.4 7.8
Q 46.6 8.2 47.35 8.85 45.8 8.4 44.5 7.85
L 43.95 7.7
M 40.8 16.1
L 40.8 18.2
Q 40.2 17.95 40.35 17.05 40.4 16.3 40.8 16.1
M 58.75 17.05
Q 58.9 17.95 58.3 18.2
L 58.3 16.1
Q 58.7 16.3 58.75 17.05
M 37.25 3.85
L 37.35 3.75 37.55 3.85 37.6 4.75 38.2 6.8
Q 37.75 6.4 37.6 5.9
L 37.25 4.75 37.25 3.85
M 21.6 11.65
L 21.6 11.7 21.8 14.4 21.7 14.3 21.25 10.7 21.6 11.65
M 28.25 10.65
L 28.4 10.65
Q 28.95 11 28.25 10.9
L 27.9 10.7 27.85 10.7 27.65 10.5 27.85 10.5 25.9 8.6
Q 26.45 8.85 27.2 9.45
L 28.25 10.65
M 22.3 19.25
L 22.45 19.25
Q 22.9 19.25 23 19.45
L 21.7 19.4 21.7 19.45
Q 21.25 19.8 20.85 19.45
L 21.7 19.25 21.85 19.25 21.85 19.2 22.3 19.25
M 19.6 6.3
L 19.6 6.4 19.4 6.5 19.4 6.6 17.85 6.5
Q 17.3 6.4 17.05 6.1
L 18.25 6.3 19.6 6.3
M 7.15 6.1
L 7.9 6.1 7.9 6.2 8.95 6.25 10.95 6.65 8.3 6.45 7.05 6.2 7.15 6.2 7.15 6.1
M 2.3 6.5
L 1.9 6.65
Q 1.6 7 1.5 6.5 2.15 6 3.3 6 3 6.3 2.3 6.5
M 4.55 11.85
L 4.6 11.8
Q 4.4 13 3.8 14 3.55 14.3 3.55 14.8
L 3.55 14.9 3.4 15.4
Q 3.2 15.3 3.3 14.9 3.8 13.25 4.55 11.85
M 8.95 16.3
L 8.95 16.4 10.1 16.65
Q 10.75 16.7 11.05 17.2
L 8.95 16.7
Q 8.3 16.7 8.05 16.4
L 8.1 16.4 8.1 16.3 8.95 16.3
M 12.3 23.85
L 11.7 22.05
Q 12.3 22.45 12.45 23.25
L 13.3 25.4 12.3 23.85
M 11.3 30.5
L 11.35 30.5 10.9 31.9 10.1 32.75 10.1 32.6 11.3 30.5
M 9.55 39.3
Q 9.9 39.3 10.1 39.75
L 11.65 40.5
Q 10.1 40.55 9.55 39.3
M 89.55 53.9
Q 89.2 53.9 89 53.45
L 87.45 52.7
Q 89 52.65 89.55 53.9
M 89 60.45
L 89 60.6 87.8 62.7 87.75 62.7 88.2 61.3 89 60.45
M 86.8 69.35
L 87.4 71.15
Q 86.8 70.75 86.65 69.95
L 85.8 67.8 86.8 69.35
M 95.55 78.4
L 95.55 78.3 95.7 77.8
Q 95.9 77.9 95.8 78.3 95.3 79.95 94.55 81.35
L 94.5 81.4
Q 94.7 80.2 95.3 79.2 95.55 78.9 95.55 78.4
M 90.15 76.9
L 90.15 76.8 89 76.55
Q 88.35 76.5 88.05 76
L 90.15 76.5
Q 90.8 76.5 91.05 76.8
L 91 76.8 91 76.9 90.15 76.9
M 81.25 86.7
Q 81.8 86.8 82.05 87.1
L 80.85 86.9 79.5 86.9 79.5 86.8 79.7 86.7 79.7 86.6 81.25 86.7
M 92.05 87
L 91.95 87 91.95 87.1 91.2 87.1 91.2 87 90.15 86.95 88.15 86.55 90.8 86.75 92.05 87
M 97.6 86.7
Q 96.95 87.2 95.8 87.2 96.1 86.9 96.8 86.7
L 97.2 86.55
Q 97.5 86.2 97.6 86.7
M 21.85 73.95
L 21.7 73.95 20.85 73.75
Q 21.25 73.4 21.7 73.75
L 21.7 73.8 23 73.75
Q 22.9 73.95 22.45 73.95
L 22.3 73.95 21.85 74 21.85 73.95
M 10.1 53.45
Q 9.9 53.9 9.55 53.9 10.1 52.65 11.65 52.7
L 10.1 53.45
M 10.1 60.6
L 10.1 60.45 10.9 61.3 11.35 62.7 11.3 62.7 10.1 60.6
M 12.45 69.95
Q 12.3 70.75 11.7 71.15
L 12.3 69.35 13.3 67.8 12.45 69.95
M 8.1 76.9
L 8.1 76.8 8.05 76.8
Q 8.3 76.5 8.95 76.5
L 11.05 76
Q 10.75 76.5 10.1 76.55
L 8.95 76.8 8.95 76.9 8.1 76.9
M 3.3 78.3
Q 3.2 77.9 3.4 77.8
L 3.55 78.3 3.55 78.4
Q 3.55 78.9 3.8 79.2 4.4 80.2 4.6 81.4
L 4.55 81.35
Q 3.8 79.95 3.3 78.3
M 8.95 86.95
L 7.9 87 7.9 87.1 7.15 87.1 7.15 87 7.05 87 8.3 86.75 10.95 86.55 8.95 86.95
M 2.3 86.7
Q 3 86.9 3.3 87.2 2.15 87.2 1.5 86.7 1.6 86.2 1.9 86.55
L 2.3 86.7
M 19.6 86.8
L 19.6 86.9 18.25 86.9 17.05 87.1
Q 17.3 86.8 17.85 86.7
L 19.4 86.6 19.4 86.7 19.6 86.8
M 21.7 78.9
L 21.8 78.8 21.6 81.5 21.6 81.55 21.25 82.5 21.7 78.9
M 27.85 82.5
L 27.9 82.5 28.25 82.3
Q 28.95 82.2 28.4 82.55
L 28.25 82.55 27.2 83.75
Q 26.45 84.35 25.9 84.6
L 27.85 82.7 27.65 82.7 27.85 82.5
M 37.25 89.35
L 37.25 88.45 37.6 87.3
Q 37.75 86.8 38.2 86.4
L 37.6 88.45 37.55 89.35 37.35 89.45 37.25 89.35
M 76.8 73.95
L 76.65 73.95
Q 76.2 73.95 76.1 73.75
L 77.4 73.8 77.4 73.75
Q 77.85 73.4 78.25 73.75
L 77.4 73.95 77.25 73.95 77.25 74 76.8 73.95
M 58.3 75
Q 58.9 75.25 58.75 76.15 58.7 76.9 58.3 77.1
L 58.3 75
M 54.6 85.35
L 55.15 85.5 55.2 85.55
Q 55.6 85.9 54.8 85.7
L 53.7 85.4
Q 52.5 85 51.75 84.35 53.3 84.8 54.6 85.35
M 40.8 75
L 40.8 77.1
Q 40.4 76.9 40.35 76.15 40.2 75.25 40.8 75
M 44.3 85.7
Q 43.5 85.9 43.9 85.55
L 43.95 85.5 44.5 85.35
Q 45.8 84.8 47.35 84.35 46.6 85 45.4 85.4
L 44.3 85.7
M 77.3 78.8
L 77.4 78.9 77.85 82.5 77.5 81.55 77.5 81.5 77.3 78.8
M 71.45 82.7
L 71.25 82.7 73.2 84.6
Q 72.65 84.35 71.9 83.75
L 70.85 82.55 70.7 82.55
Q 70.15 82.2 70.85 82.3
L 71.2 82.5 71.25 82.5 71.45 82.7
M 61.55 89.35
L 61.5 88.45 60.9 86.4
Q 61.35 86.8 61.5 87.3
L 61.85 88.45 61.85 89.35 61.75 89.45 61.55 89.35
M 92.4 2.75
L 92.45 2.75 92.4 5.25 92.35 5.25
Q 91.8 4.85 91.2 4.7
L 89.75 4.7
Q 87.45 5.25 86.2 6.8
L 86.2 6.85
Q 86.8 7.6 88.05 7.65
L 89.2 7.65 91.4 7.25
Q 91.95 7 92.6 6.8
L 92.45 7.05 92.45 12.65 92.4 12.65 91.65 15.6 91.6 15.6
Q 90.55 15 88.8 15.2
L 86.15 15.5 85.85 15.7 85.85 16.3
Q 86.35 18.05 88.4 18.25
L 89.65 18.25 90.8 17.95
Q 89.45 19.85 87.4 21.05
L 87.4 21.15 86.8 21.15
Q 85.45 22.2 83.2 22.25
L 81.65 22.25
Q 79.8 21.95 79.3 20
L 79.2 19.2 79.2 19.05 79.1 19.05 79.2 18.4 79.2 18.25
Q 79.4 16.7 80.5 16.05
L 82.05 16 82.05 16.05 82.15 16.05 82.95 17.35
Q 82.8 18.25 82.05 18.45
L 81.9 18.45 81.85 18.85 81.85 19 82.05 19.05 82.8 19.05 83.75 18.75 83.75 18.65 84 17.95 84 16.9 83.75 16.3 83.75 16.2
Q 83.05 15.3 82.05 15.1
L 80.45 15.1
Q 78.6 15.45 78.25 17.4
L 78.2 18.6 77.05 18.25 75.6 18.25
Q 74.85 18.4 74.6 19
L 74.6 19.05
Q 75.1 20.05 76.5 20.2
L 77.85 20.2 78.45 20.05 78.45 20 78.8 20 78.8 20.4
Q 79.2 22.65 81.65 22.95
L 83.05 22.95 85.45 22.45 85 23.35 84.95 23.8 84.95 23.95 84.8 24.55 84.75 26.35
Q 84.75 26.8 85 27.05
L 85.25 27.05
Q 86.75 26.6 87.45 25.55 88.35 24.4 88.65 22.8
L 88.65 22.2 88.2 21.25 88.25 21.25
Q 91 19.75 92.35 16.7
L 92.45 16.65 92.45 19.85 92.4 19.85 92.35 36.7
Q 91.8 37.95 90.55 38.35
L 89.75 38.4 89.75 38.35 89.65 38.35
Q 87.6 37.75 87.75 34.95
L 87.8 34.95
Q 88.15 34.35 88.8 34.1 90.05 33.9 90.25 34.75 90.25 35.5 89.45 35.6
L 89.35 35.7
Q 89.05 35.8 89.2 36.15
L 90.25 36.15
Q 90.8 36 90.85 35.5
L 90.85 34.75
Q 91 34.15 90.25 33.4
L 89.55 33.3 89.65 33.3
Q 89.8 33.1 89.8 32.6 89.55 32.4 89.65 31.9
L 89.65 31.8
Q 89.15 30.3 87.85 29.35
L 87.2 29.35
Q 86.8 29.55 86.8 30.3
L 86.85 30.7 86.85 31
Q 87.4 32.5 88.45 33.4 87.4 33.8 87.05 34.9
L 87.05 36.15
Q 87.45 37.75 88.55 38.55 87 39.5 86.35 41.25 86.2 41.65 86.6 41.65
L 87.2 41.65
Q 89.45 41.15 90.25 39.15
L 90.35 39.15
Q 91.6 38.75 92.35 37.95
L 92.35 55.25
Q 91.6 54.45 90.35 54.05
L 90.25 54.05
Q 89.45 52.05 87.2 51.55
L 86.6 51.55
Q 86.2 51.55 86.35 51.95 87 53.7 88.55 54.65 87.45 55.45 87.05 57.05
L 87.05 58.3
Q 87.4 59.4 88.45 59.8 87.4 60.7 86.85 62.2
L 86.85 62.5 86.8 62.9
Q 86.8 63.65 87.2 63.85
L 87.85 63.85
Q 89.15 62.9 89.65 61.4
L 89.65 61.3
Q 89.55 60.8 89.8 60.6 89.8 60.1 89.65 59.9
L 89.55 59.9 90.25 59.8
Q 91 59.05 90.85 58.45
L 90.85 57.7
Q 90.8 57.2 90.25 57.05
L 89.2 57.05
Q 89.05 57.4 89.35 57.5
L 89.45 57.6
Q 90.25 57.7 90.25 58.45 90.05 59.3 88.8 59.1 88.15 58.85 87.8 58.25
L 87.75 58.25
Q 87.6 55.45 89.65 54.85
L 89.75 54.85 89.75 54.8 90.55 54.85
Q 91.8 55.25 92.35 56.5
L 92.4 73.35 92.45 73.35 92.45 76.55 92.35 76.5
Q 91 73.45 88.25 71.95
L 88.2 71.95 88.65 71 88.65 70.4
Q 88.35 68.8 87.45 67.65 86.75 66.6 85.25 66.15
L 85 66.15
Q 84.75 66.4 84.75 66.85
L 84.8 68.65 84.95 69.25 84.95 69.4 85 69.85 85.45 70.75 83.05 70.25 81.65 70.25
Q 79.2 70.55 78.8 72.8
L 78.8 73.2 78.45 73.2 78.45 73.15 77.85 73 76.5 73
Q 75.1 73.15 74.6 74.15
L 74.6 74.2
Q 74.85 74.8 75.6 74.95
L 77.05 74.95 78.2 74.6 78.25 75.8
Q 78.6 77.75 80.45 78.1
L 82.05 78.1
Q 83.05 77.9 83.75 77
L 83.75 76.9 84 76.3 84 75.25 83.75 74.55 83.75 74.45 82.8 74.15 82.05 74.15 81.85 74.2 81.85 74.35 81.9 74.75 82.05 74.75
Q 82.8 74.95 82.95 75.85
L 82.15 77.15 82.05 77.15 82.05 77.2 80.5 77.15
Q 79.4 76.5 79.2 74.95
L 79.2 74.8 79.1 74.15 79.2 74.15 79.2 74 79.3 73.2
Q 79.8 71.25 81.65 70.95
L 83.2 70.95
Q 85.45 71 86.8 72.05
L 87.4 72.05 87.4 72.15
Q 89.45 73.35 90.8 75.25
L 89.65 74.95 88.4 74.95
Q 86.35 75.15 85.85 76.9
L 85.85 77.5 86.15 77.7 88.8 78
Q 90.55 78.2 91.6 77.6
L 91.65 77.6 92.4 80.55 92.45 80.55 92.45 86.15 92.6 86.4
Q 91.95 86.2 91.4 85.95
L 89.2 85.55 88.05 85.55
Q 86.8 85.6 86.2 86.35
L 86.2 86.4
Q 87.45 87.95 89.75 88.5
L 91.2 88.5
Q 91.8 88.35 92.35 87.95
L 92.4 87.95 92.45 90.45 92.4 90.45 92.4 90.5 82.05 90.5 81.8 90.55 81.65 90.55 80.3 90.25 80.25 90.25 79.8 90.15 79.7 90.05 78.3 89.85 78.25 89.85 78.1 89.75 77.8 89.7 77.7 89.7
Q 74.85 89.1 74.05 86.55
L 74.05 85.55
Q 74.6 83.9 76.4 83.55
L 76.4 83.5 77 83.35 78.4 83.5
Q 79.05 83.6 79.05 84.5
L 79.1 84.5 79.1 84.95 79.05 84.95 79.05 85.35
Q 78.8 86 77.85 86.2
L 77.8 86.2 77.8 86.3 77.05 86.2
Q 77.2 85.55 76.5 85.55
L 76.4 85.9
Q 76.25 86.7 76.85 86.9
L 77.85 86.9 78.85 86.55
Q 79.45 87.95 81.4 88.05
L 82.8 88.05
Q 83.05 87.95 83.35 87.85 83.2 86.35 81.8 86.15
L 79.85 86
Q 79.45 86 79.7 85.55
L 79.7 84.3
Q 79.45 82.9 78.25 82.7
L 78.4 80.55
Q 78.25 78.2 76.7 77.55
L 76.4 77.6 76.25 78 76.25 78.95 77.2 82.7
Q 74.85 82.9 73.85 84.55
L 73.8 84.55
Q 72.85 82.5 70.8 81.55
L 70.1 81.55 69.75 81.95 69.75 82.7
Q 70.5 84.9 72.5 85.75
L 73.4 85.8 73.6 86.8
Q 74.4 89.5 77.05 90.45
L 77.2 90.5 65.3 90.5 63.35 90.05 63.3 90.05 62.85 89.9 62.75 89.9 63.1 88.3 63.1 85.95
Q 63.1 84.9 62.5 84.4
L 61.85 84.4
Q 60.9 84.6 60.45 85.2
L 60.35 85.2
Q 59.85 85.9 59.75 86.95
L 59.75 87.9 60.1 89.05
Q 58.3 87.9 56.9 86.2
L 56.5 85.7
Q 55.5 84.1 55.3 81.6
L 55.2 81.6 55.2 80.55 55.3 80.55
Q 55.8 78.35 58.3 78.1
L 58.6 78.1 58.6 78 59.9 78 59.9 78.1 60.7 78.3
Q 61.7 78.6 62.25 79.3
L 62.25 80.9 60.9 81.7 60.85 81.7 60.1 81.6 60.05 81.55
Q 59.75 80.9 58.95 80.55
L 58.9 80.75 58.85 80.75 58.85 81.5
Q 58.95 82.5 59.95 82.6
L 61.45 82.6 61.5 82.55 62.85 81.75 62.85 81.7
Q 63.25 81.15 63.3 80.35
L 63.3 79.5
Q 62.9 77.3 60.65 77.1
L 59.45 77
Q 59.75 76.55 59.85 75.65
L 59.85 74.8
Q 59.7 73.75 58.7 73.65 57.8 74.25 57.7 75.55
L 57.8 77.55
Q 55 77.9 54.4 80.3
L 54.4 81.6
Q 54.6 82.9 55.1 83.9
L 55.1 83.95 53.6 83.55 53.4 83.55 52.9 83.35 50.55 83.3
Q 49.9 83.35 49.9 84.1
L 49.9 84.15
Q 51.15 85.9 53.3 86.75
L 53.3 86.8 54.6 87.15 55.3 87.15 56.15 86.8 58.4 88.9
Q 59.55 89.9 61.1 90.5
L 38 90.5
Q 39.55 89.9 40.7 88.9
L 42.95 86.8 43.8 87.15 44.5 87.15 45.8 86.8 45.8 86.75
Q 47.95 85.9 49.2 84.15
L 49.2 84.1
Q 49.2 83.35 48.55 83.3
L 46.2 83.35 45.7 83.55 45.5 83.55 44 83.95 44 83.9
Q 44.5 82.9 44.7 81.6
L 44.7 80.3
Q 44.1 77.9 41.3 77.55
L 41.4 75.55
Q 41.3 74.25 40.4 73.65 39.4 73.75 39.25 74.8
L 39.25 75.65
Q 39.35 76.55 39.65 77
L 38.45 77.1
Q 36.2 77.3 35.8 79.5
L 35.8 80.35
Q 35.85 81.15 36.25 81.7
L 36.25 81.75 37.6 82.55 37.65 82.6 39.15 82.6
Q 40.15 82.5 40.25 81.5
L 40.25 80.75 40.2 80.75 40.15 80.55
Q 39.35 80.9 39.05 81.55
L 39 81.6 38.25 81.7 38.2 81.7 36.85 80.9 36.85 79.3
Q 37.4 78.6 38.4 78.3
L 39.2 78.1 39.2 78 40.5 78 40.5 78.1 40.8 78.1
Q 43.3 78.35 43.8 80.55
L 43.9 80.55 43.9 81.6 43.8 81.6
Q 43.6 84.1 42.6 85.7
L 42.2 86.2
Q 40.8 87.9 39 89.05
L 39.35 87.9 39.35 86.95
Q 39.25 85.9 38.75 85.2
L 38.65 85.2
Q 38.2 84.6 37.25 84.4
L 36.6 84.4
Q 36 84.9 36 85.95
L 36 88.3 36.35 89.9 36.25 89.9 35.8 90.05 35.75 90.05 33.8 90.5 21.9 90.5 22.05 90.45
Q 24.7 89.5 25.5 86.8
L 25.7 85.8 26.6 85.75
Q 28.6 84.9 29.35 82.7
L 29.35 81.95 29 81.55 28.3 81.55
Q 26.25 82.5 25.3 84.55
L 25.25 84.55
Q 24.25 82.9 21.9 82.7
L 22.85 78.95 22.85 78 22.7 77.6 22.4 77.55
Q 20.85 78.2 20.7 80.55
L 20.85 82.7
Q 19.65 82.9 19.4 84.3
L 19.4 85.55
Q 19.65 86 19.25 86
L 17.3 86.15
Q 15.9 86.35 15.75 87.85 16.05 87.95 16.3 88.05
L 17.7 88.05
Q 19.65 87.95 20.25 86.55
L 21.25 86.9 22.25 86.9
Q 22.85 86.7 22.7 85.9
L 22.6 85.55
Q 21.9 85.55 22.05 86.2
L 21.3 86.3 21.3 86.2 21.25 86.2
Q 20.3 86 20.05 85.35
L 20.05 84.95 20 84.95 20 84.5 20.05 84.5
Q 20.05 83.6 20.7 83.5
L 22.1 83.35 22.7 83.5 22.7 83.55
Q 24.5 83.9 25.05 85.55
L 25.05 86.55
Q 24.25 89.1 21.4 89.7
L 21.3 89.7 21 89.75 20.85 89.85 20.8 89.85 19.4 90.05 19.3 90.15 18.85 90.25 18.8 90.25 17.45 90.55 17.3 90.55 17.05 90.5 6.7 90.5 6.7 90.45 6.65 90.45 6.7 87.95 6.75 87.95
Q 7.3 88.35 7.9 88.5
L 9.35 88.5
Q 11.65 87.95 12.9 86.4
L 12.9 86.35
Q 12.3 85.6 11.05 85.55
L 9.9 85.55 7.7 85.95
Q 7.15 86.2 6.5 86.4
L 6.65 86.15 6.65 80.55 6.7 80.55 7.45 77.6 7.5 77.6
Q 8.55 78.2 10.3 78
L 12.95 77.7 13.25 77.5 13.25 76.9
Q 12.75 75.15 10.7 74.95
L 9.45 74.95 8.3 75.25
Q 9.65 73.35 11.7 72.15
L 11.7 72.05 12.3 72.05
Q 13.65 71 15.9 70.95
L 17.45 70.95
Q 19.3 71.25 19.8 73.2
L 19.9 74 19.9 74.15 20 74.15 19.9 74.8 19.9 74.95
Q 19.7 76.5 18.6 77.15
L 17.05 77.2 17.05 77.15 16.95 77.15 16.15 75.85
Q 16.3 74.95 17.05 74.75
L 17.2 74.75 17.25 74.35 17.25 74.2 17.05 74.15 16.3 74.15 15.35 74.45 15.35 74.55 15.1 75.25 15.1 76.3 15.35 76.9 15.35 77
Q 16.05 77.9 17.05 78.1
L 18.65 78.1
Q 20.5 77.75 20.85 75.8
L 20.9 74.6 22.05 74.95 23.5 74.95
Q 24.25 74.8 24.5 74.2
L 24.5 74.15
Q 24 73.15 22.6 73
L 21.25 73 20.65 73.15 20.65 73.2 20.3 73.2 20.3 72.8
Q 19.9 70.55 17.45 70.25
L 16.05 70.25 13.65 70.75 14.1 69.85 14.15 69.4 14.15 69.25 14.3 68.65 14.35 66.85
Q 14.35 66.4 14.1 66.15
L 13.85 66.15
Q 12.35 66.6 11.65 67.65 10.75 68.8 10.45 70.4
L 10.45 71 10.9 71.95 10.85 71.95
Q 8.1 73.45 6.75 76.5
L 6.65 76.55 6.65 73.35 6.7 73.35 6.75 56.5
Q 7.3 55.25 8.55 54.85
L 9.35 54.8 9.35 54.85 9.45 54.85
Q 11.5 55.45 11.35 58.25
L 11.3 58.25
Q 10.95 58.85 10.3 59.1 9.05 59.3 8.85 58.45 8.85 57.7 9.65 57.6
L 9.75 57.5
Q 10.05 57.4 9.9 57.05
L 8.85 57.05
Q 8.3 57.2 8.25 57.7
L 8.25 58.45
Q 8.1 59.05 8.85 59.8
L 9.55 59.9 9.45 59.9
Q 9.3 60.1 9.3 60.6 9.55 60.8 9.45 61.3
L 9.45 61.4
Q 9.95 62.9 11.25 63.85
L 11.9 63.85
Q 12.3 63.65 12.3 62.9
L 12.25 62.5 12.25 62.2
Q 11.7 60.7 10.65 59.8 11.7 59.4 12.05 58.3
L 12.05 57.05
Q 11.65 55.45 10.55 54.65 12.1 53.7 12.75 51.95 12.9 51.55 12.5 51.55
L 11.9 51.55
Q 9.65 52.05 8.85 54.05
L 8.75 54.05
Q 7.5 54.45 6.75 55.25
L 6.75 37.95
Q 7.5 38.75 8.75 39.15
L 8.85 39.15
Q 9.65 41.15 11.9 41.65
L 12.5 41.65
Q 12.9 41.65 12.75 41.25 12.1 39.5 10.55 38.55 11.65 37.75 12.05 36.15
L 12.05 34.9
Q 11.7 33.8 10.65 33.4 11.7 32.5 12.25 31
L 12.25 30.7 12.3 30.3
Q 12.3 29.55 11.9 29.35
L 11.25 29.35
Q 9.95 30.3 9.45 31.8
L 9.45 31.9
Q 9.55 32.4 9.3 32.6 9.3 33.1 9.45 33.3
L 9.55 33.3 8.85 33.4
Q 8.1 34.15 8.25 34.75
L 8.25 35.5
Q 8.3 36 8.85 36.15
L 9.9 36.15
Q 10.05 35.8 9.75 35.7
L 9.65 35.6
Q 8.85 35.5 8.85 34.75 9.05 33.9 10.3 34.1 10.95 34.35 11.3 34.95
L 11.35 34.95
Q 11.5 37.75 9.45 38.35
L 9.35 38.35 9.35 38.4 8.55 38.35
Q 7.3 37.95 6.75 36.7
L 6.7 19.85 6.65 19.85 6.65 16.65 6.75 16.7
Q 8.1 19.75 10.85 21.25
L 10.9 21.25 10.45 22.2 10.45 22.8
Q 10.75 24.4 11.65 25.55 12.35 26.6 13.85 27.05
L 14.1 27.05
Q 14.35 26.8 14.35 26.35
L 14.3 24.55 14.15 23.95 14.15 23.8 14.1 23.35 13.65 22.45 16.05 22.95 17.45 22.95
Q 19.9 22.65 20.3 20.4
L 20.3 20 20.65 20 20.65 20.05 21.25 20.2 22.6 20.2
Q 24 20.05 24.5 19.05
L 24.5 19
Q 24.25 18.4 23.5 18.25
L 22.05 18.25 20.9 18.6 20.85 17.4
Q 20.5 15.45 18.65 15.1
L 17.05 15.1
Q 16.05 15.3 15.35 16.2
L 15.35 16.3 15.1 16.9 15.1 17.95 15.35 18.65 15.35 18.75 16.3 19.05 17.05 19.05 17.25 19 17.25 18.85 17.2 18.45 17.05 18.45
Q 16.3 18.25 16.15 17.35
L 16.95 16.05 17.05 16.05 17.05 16 18.6 16.05
Q 19.7 16.7 19.9 18.25
L 19.9 18.4 20 19.05 19.9 19.05 19.9 19.2 19.8 20
Q 19.3 21.95 17.45 22.25
L 15.9 22.25
Q 13.65 22.2 12.3 21.15
L 11.7 21.15 11.7 21.05
Q 9.65 19.85 8.3 17.95
L 9.45 18.25 10.7 18.25
Q 12.75 18.05 13.25 16.3
L 13.25 15.7 12.95 15.5 10.3 15.2
Q 8.55 15 7.5 15.6
L 7.45 15.6 6.7 12.65 6.65 12.65 6.65 7.05 6.5 6.8
Q 7.15 7 7.7 7.25
L 9.9 7.65 11.05 7.65
Q 12.3 7.6 12.9 6.85
L 12.9 6.8
Q 11.65 5.25 9.35 4.7
L 7.9 4.7
Q 7.3 4.85 6.75 5.25
L 6.7 5.25 6.65 2.75 6.7 2.75 6.7 2.7 17.05 2.7 17.3 2.65 17.45 2.65 18.8 2.95 18.85 2.95 19.3 3.05 19.4 3.15 20.8 3.35 20.85 3.35 21 3.45 21.3 3.5 21.4 3.5
Q 24.25 4.1 25.05 6.65
L 25.05 7.65
Q 24.5 9.3 22.7 9.65
L 22.7 9.7 22.1 9.85 20.7 9.7
Q 20.05 9.6 20.05 8.7
L 20 8.7 20 8.25 20.05 8.25 20.05 7.85
Q 20.3 7.2 21.25 7
L 21.3 7 21.3 6.9 22.05 7
Q 21.9 7.65 22.6 7.65
L 22.7 7.3
Q 22.85 6.5 22.25 6.3
L 21.25 6.3 20.25 6.65
Q 19.65 5.25 17.7 5.15
L 16.3 5.15
Q 16.05 5.25 15.75 5.35 15.9 6.85 17.3 7.05
L 19.25 7.2
Q 19.65 7.2 19.4 7.65
L 19.4 8.9
Q 19.65 10.3 20.85 10.5
L 20.7 12.65
Q 20.85 15 22.4 15.65
L 22.7 15.6 22.85 15.2 22.85 14.25 21.9 10.5
Q 24.25 10.3 25.25 8.65
L 25.3 8.65
Q 26.25 10.7 28.3 11.65
L 29 11.65 29.35 11.25 29.35 10.5
Q 28.6 8.3 26.6 7.45
L 25.7 7.4 25.5 6.4
Q 24.7 3.7 22.05 2.75
L 21.9 2.7 33.8 2.7 35.75 3.15 35.8 3.15 36.25 3.3 36.35 3.3 36 4.9 36 7.25
Q 36 8.3 36.6 8.8
L 37.25 8.8
Q 38.2 8.6 38.65 8
L 38.75 8
Q 39.25 7.3 39.35 6.25
L 39.35 5.3 39 4.15
Q 40.8 5.3 42.2 7
L 42.6 7.5
Q 43.6 9.1 43.8 11.6
L 43.9 11.6 43.9 12.65 43.8 12.65
Q 43.3 14.85 40.8 15.1
L 40.5 15.1 40.5 15.2 39.2 15.2 39.2 15.1 38.4 14.9
Q 37.4 14.6 36.85 13.9
L 36.85 12.3 38.2 11.5 38.25 11.5 39 11.6 39.05 11.65
Q 39.35 12.3 40.15 12.65
L 40.2 12.45 40.25 12.45 40.25 11.7
Q 40.15 10.7 39.15 10.6
L 37.65 10.6 37.6 10.65 36.25 11.45 36.25 11.5
Q 35.85 12.05 35.8 12.85
L 35.8 13.7
Q 36.2 15.9 38.45 16.1
L 39.65 16.2
Q 39.35 16.65 39.25 17.55
L 39.25 18.4
Q 39.4 19.45 40.4 19.55 41.3 18.95 41.4 17.65
L 41.3 15.65
Q 44.1 15.3 44.7 12.9
L 44.7 11.6
Q 44.5 10.3 44 9.3
L 44 9.25 45.5 9.65 45.7 9.65 46.2 9.85 48.55 9.9
Q 49.2 9.85 49.2 9.1
L 49.2 9.05
Q 47.95 7.3 45.8 6.45
L 45.8 6.4 44.5 6.05 43.8 6.05 42.95 6.4 40.7 4.3
Q 39.55 3.3 38 2.7
L 61.1 2.7
Q 59.55 3.3 58.4 4.3
L 56.15 6.4 55.3 6.05 54.6 6.05 53.3 6.4 53.3 6.45
Q 51.15 7.3 49.9 9.05
L 49.9 9.1
Q 49.9 9.85 50.55 9.9
L 52.9 9.85 53.4 9.65 53.6 9.65 55.1 9.25 55.1 9.3
Q 54.6 10.3 54.4 11.6
L 54.4 12.9
Q 55 15.3 57.8 15.65
L 57.7 17.65
Q 57.8 18.95 58.7 19.55 59.7 19.45 59.85 18.4
L 59.85 17.55
Q 59.75 16.65 59.45 16.2
L 60.65 16.1
Q 62.9 15.9 63.3 13.7
L 63.3 12.85
Q 63.25 12.05 62.85 11.5
L 62.85 11.45 61.5 10.65 61.45 10.6 59.95 10.6
Q 58.95 10.7 58.85 11.7
L 58.85 12.45 58.9 12.45 58.95 12.65
Q 59.75 12.3 60.05 11.65
L 60.1 11.6 60.85 11.5 60.9 11.5 62.25 12.3 62.25 13.9
Q 61.7 14.6 60.7 14.9
L 59.9 15.1 59.9 15.2 58.6 15.2 58.6 15.1 58.3 15.1
Q 55.8 14.85 55.3 12.65
L 55.2 12.65 55.2 11.6 55.3 11.6
Q 55.5 9.1 56.5 7.5
L 56.9 7
Q 58.3 5.3 60.1 4.15
L 59.75 5.3 59.75 6.25
Q 59.85 7.3 60.35 8
L 60.45 8
Q 60.9 8.6 61.85 8.8
L 62.5 8.8
Q 63.1 8.3 63.1 7.25
L 63.1 4.9 62.75 3.3 62.85 3.3 63.3 3.15 63.35 3.15 65.3 2.7 77.2 2.7 77.05 2.75
Q 74.4 3.7 73.6 6.4
L 73.4 7.4 72.5 7.45
Q 70.5 8.3 69.75 10.5
L 69.75 11.25 70.1 11.65 70.8 11.65
Q 72.85 10.7 73.8 8.65
L 73.85 8.65
Q 74.85 10.3 77.2 10.5
L 76.25 14.25 76.25 15.2 76.4 15.6 76.7 15.65
Q 78.25 15 78.4 12.65
L 78.25 10.5
Q 79.45 10.3 79.7 8.9
L 79.7 7.65
Q 79.45 7.2 79.85 7.2
L 81.8 7.05
Q 83.2 6.85 83.35 5.35 83.05 5.25 82.8 5.15
L 81.4 5.15
Q 79.45 5.25 78.85 6.65
L 77.85 6.3 76.85 6.3
Q 76.25 6.5 76.4 7.3
L 76.5 7.65
Q 77.2 7.65 77.05 7
L 77.8 6.9 77.8 7 77.85 7
Q 78.8 7.2 79.05 7.85
L 79.05 8.25 79.1 8.25 79.1 8.7 79.05 8.7
Q 79.05 9.6 78.4 9.7
L 77 9.85 76.4 9.7 76.4 9.65
Q 74.6 9.3 74.05 7.65
L 74.05 6.65
Q 74.85 4.1 77.7 3.5
L 77.8 3.5 78.1 3.45 78.25 3.35 78.3 3.35 79.7 3.15 79.8 3.05 80.25 2.95 80.3 2.95 81.65 2.65 81.8 2.65 82.05 2.7 92.4 2.7 92.4 2.75
M -237.45 23.05
L -237.55 23.05 -237.55 23.1
Q -237.5 23.1 -237.45 23.05
M -129 23.45
L -129.4 23.05 -163.5 23.1 -163.5 23.05 -218.95 23.1 -218.95 23.05 -224.65 23.05 -224.6 23.1 -263 23.2 -263.75 23.1 -263.85 23.1
Q -264.45 23.1 -264.7 23.05
L -298.05 23.1
Q -298.15 23.1 -298.2 23.1
L -340 23.1 -340.7 23.05 -372.7 23.05
Q -372.95 23.1 -373.55 23.1
L -373.65 23.1 -374.4 23.2 -405.55 23.05 -405.5 23.1 -410.6 23.1 -410.55 23.05 -416.25 23.05 -416.25 23.1 -443.25 23.1
Q -443.35 23.05 -443.4 23.05
L -471.7 23.05 -471.7 23.1 -509.2 23.05 -509.6 23.45 -509.6 24.6 -509.4 25.35
Q -510.15 27.1 -510 28.7
L -510.1 28.7
Q -513.1 29.45 -514.5 32 -514.7 33.15 -513.95 33.4
L -512.95 33.4
Q -510.9 33 -509.65 31.8
L -509.6 31.75 -509.05 32.5 -509 32.55 -508.4 34.5 -508.4 34.7 -508.3 34.75 -507.5 37.8
Q -509.4 38 -510.25 39.4 -511 40.9 -511.6 42.85
L -511.7 46.35 -511.4 47.85
Q -511.25 49.05 -510.5 49.35
L -510.35 49.45
Q -509.05 49.25 -508.6 48.3
L -508.5 48.15 -507.5 45.75 -507.5 45.35 -507.1 46.55
Q -506.8 69.95 -506.65 78.95 -506.65 79.9 -506.6 80.75 -506.6 81.8 -506.55 82.6 -506.6 82.65 -506.55 82.75 -506.65 85.25 -506.7 88.1
L -506.7 321
Q -506.65 323.85 -506.55 326.35 -506.6 326.45 -506.55 326.5 -506.6 327.3 -506.6 328.35 -506.65 329.2 -506.65 330.15 -506.8 339.15 -507.1 362.55
L -507.5 363.75 -507.5 363.35 -508.5 360.95 -508.6 360.8
Q -509.05 359.85 -510.35 359.65
L -510.5 359.75
Q -511.25 360.05 -511.4 361.25
L -511.7 362.75 -511.6 366.25
Q -511 368.2 -510.25 369.7 -509.4 371.1 -507.5 371.3
L -508.3 374.35 -508.4 374.4 -508.4 374.6 -509 376.55 -509.05 376.6 -509.6 377.35 -509.65 377.3
Q -510.9 376.1 -512.95 375.7
L -513.95 375.7
Q -514.7 375.95 -514.5 377.1 -513.1 379.65 -510.1 380.4
L -510 380.4
Q -510.15 382 -509.4 383.75
L -509.6 384.5 -509.6 385.65 -509.2 386.05 -471.7 386 -471.7 386.05 -443.4 386.05
Q -443.35 386.05 -443.25 386
L -374.4 385.9 -373.65 386 -373.55 386
Q -372.95 386 -372.7 386.05
L -163.5 386.05 -163.5 386 -129.4 386.05 -129 385.65 -129 384.5 -129.2 383.75
Q -128.45 382 -128.6 380.4
L -128.5 380.4
Q -125.5 379.65 -124.1 377.1 -123.9 375.95 -124.65 375.7
L -125.65 375.7
Q -127.7 376.1 -128.95 377.3
L -129 377.35 -129.55 376.6 -129.6 376.55 -130.2 374.6 -130.2 374.4 -130.3 374.35 -131.1 371.3
Q -129.2 371.1 -128.35 369.7 -127.6 368.2 -127 366.25
L -126.9 362.75 -127.2 361.25
Q -127.35 360.05 -128.1 359.75
L -128.25 359.65
Q -129.55 359.85 -130 360.8
L -130.1 360.95 -131.1 363.35 -131.1 363.75 -131.5 362.55
Q -131.8 339.15 -131.95 330.15 -131.95 329.2 -132 328.35 -132 327.3 -132.05 326.5 -132 326.45 -132.05 326.35 -131.95 323.85 -131.9 321
L -131.9 298.05 -131.95 298.05 -131.95 111.05 -131.9 111.05 -131.9 88.1
Q -131.95 85.25 -132.05 82.75 -132 82.65 -132.05 82.6 -132 81.8 -132 80.75 -131.95 79.9 -131.95 78.95 -131.8 69.95 -131.5 46.55
L -131.1 45.35 -131.1 45.75 -130.1 48.15 -130 48.3
Q -129.55 49.25 -128.25 49.45
L -128.1 49.35
Q -127.35 49.05 -127.2 47.85
L -126.9 46.35 -127 42.85
Q -127.6 40.9 -128.35 39.4 -129.2 38 -131.1 37.8
L -130.3 34.75 -130.2 34.7 -130.2 34.5 -129.6 32.55 -129.55 32.5 -129 31.75 -128.95 31.8
Q -127.7 33 -125.65 33.4
L -124.65 33.4
Q -123.9 33.15 -124.1 32 -125.5 29.45 -128.5 28.7
L -128.6 28.7
Q -128.45 27.1 -129.2 25.35
L -129 24.6 -129 23.45
M -151.15 25.35
L -150.6 25.45 -134.15 25.45 -134.15 25.6 -134.05 25.6 -134.15 29.45 -134.25 29.45
Q -135.05 28.9 -136.1 28.7
L -137 28.7 -137 28.65 -138.5 28.65
Q -142.05 29.45 -144.05 32
L -144.1 32.1
Q -143.15 33.25 -141.1 33.4
L -139.25 33.4 -136.55 32.9 -136.55 32.85 -135.8 32.65 -135.75 32.65
Q -134.9 32.25 -133.9 32
L -134.05 32.4 -134.05 41.3 -134.15 41.3 -135.4 46 -135.5 46
Q -137.15 45.05 -139.9 45.35
L -144.2 45.95 -144.55 46.25 -144.55 47.2
Q -143.9 49.95 -140.6 50.3
L -138.6 50.3 -136.8 49.7
Q -138.9 52.8 -142.2 54.7
L -142.2 54.85 -143.15 54.85
Q -145.3 56.5 -148.8 56.6
L -151.35 56.65 -151.35 56.6
Q -154.35 56.1 -155 53.05
L -155 53 -155.2 51.75 -155.2 51.55 -155.3 51.55 -155.2 50.55 -155.2 50.35
Q -154.95 47.85 -153.1 46.75
L -153.1 46.7 -150.6 46.6 -150.6 46.75 -150.5 46.75 -149.2 48.8
Q -149.4 50.3 -150.65 50.65
L -150.85 50.65 -150.95 51.2 -150.95 51.4 -150.65 51.55 -149.5 51.55 -148.05 51.05 -148.05 50.95 -147.55 49.7 -147.55 48.15 -148.05 47.1 -148.05 46.9
Q -149 45.65 -150.65 45.25
L -153.25 45.25
Q -156.2 45.8 -156.7 48.95
L -156.8 50.8 -158.6 50.3 -161.05 50.3
Q -162.25 50.55 -162.65 51.4
L -162.6 51.55
Q -161.75 53.15 -159.55 53.3
L -157.3 53.3 -156.45 53.15 -156.4 53.05 -155.95 53 -155.95 53.75
Q -155.2 57.35 -151.35 57.75
L -149.05 57.75 -145.3 57 -145.9 58.45 -145.95 58.45 -146.05 59.1 -146.05 59.35 -146.3 60.35 -146.45 63.2
Q -146.45 63.95 -145.95 64.25
L -145.6 64.3
Q -143.3 63.6 -142.05 61.95 -140.65 60.1 -140.15 57.5
L -140.15 56.5 -140.85 55.15 -140.8 55.05
Q -136.4 52.65 -134.25 47.85
L -134.05 47.7 -134.05 52.8 -134.15 52.8 -134.25 79.65
Q -135.05 81.7 -137.15 82.35
L -137.25 82.35 -138.5 82.45 -138.5 82.35 -138.6 82.35
Q -141.85 81.4 -141.7 76.85
L -141.6 76.85
Q -141 75.95 -139.9 75.45
L -139.85 75.45
Q -137.9 75.15 -137.55 76.55 -137.55 77.8 -138.9 77.95
L -139.05 78.05
Q -139.5 78.3 -139.25 78.8
L -137.55 78.8
Q -136.8 78.6 -136.55 77.75
L -136.55 76.55
Q -136.35 74.85 -137.55 74.5
L -137.55 74.45 -138.75 74.3 -138.75 74.2 -138.6 74.2
Q -138.25 73.9 -138.3 73.2 -138.75 72.85 -138.6 71.95
L -138.6 71.85
Q -139.35 69.35 -141.35 67.95
L -142.45 67.95
Q -143.2 68.25 -143.15 69.35
L -143.15 69.4 -142.95 70.1 -142.95 70.6
Q -142.2 73 -140.5 74.45 -142.2 75.05 -142.7 76.8
L -142.7 78.8
Q -142.1 81.35 -140.35 82.65 -142.8 84.2 -143.9 86.85 -144.05 87.55 -143.45 87.55
L -142.45 87.55
Q -138.85 86.8 -137.55 83.55
L -137.5 83.55
Q -135.5 83 -134.25 81.7
L -134.25 108.8 -134.3 108.8 -134.3 300 -134.25 300 -134.25 327.4
Q -135.5 326.1 -137.5 325.55
L -137.55 325.55
Q -138.85 322.3 -142.45 321.55
L -143.45 321.55
Q -144.05 321.55 -143.9 322.25 -142.8 324.9 -140.35 326.45 -142.1 327.75 -142.7 330.3
L -142.7 332.3
Q -142.2 334.05 -140.5 334.65 -142.2 336.1 -142.95 338.5
L -142.95 339 -143.15 339.7 -143.15 339.75
Q -143.2 340.85 -142.45 341.15
L -141.35 341.15
Q -139.35 339.75 -138.6 337.25
L -138.6 337.15
Q -138.75 336.25 -138.3 335.9 -138.25 335.2 -138.6 334.9
L -138.75 334.9 -138.75 334.8 -137.55 334.65 -137.55 334.6
Q -136.35 334.25 -136.55 332.55
L -136.55 331.35
Q -136.8 330.5 -137.55 330.3
L -139.25 330.3
Q -139.5 330.8 -139.05 331.05
L -138.9 331.15
Q -137.55 331.3 -137.55 332.55 -137.9 333.95 -139.85 333.65
L -139.9 333.65
Q -141 333.15 -141.6 332.25
L -141.7 332.25
Q -141.85 327.7 -138.6 326.75
L -138.5 326.75 -138.5 326.65 -137.25 326.75 -137.15 326.75
Q -135.05 327.4 -134.25 329.45
L -134.15 356.3 -134.05 356.3 -134.05 361.4 -134.25 361.25
Q -136.4 356.45 -140.8 354.05
L -140.85 353.95 -140.15 352.6 -140.15 351.6
Q -140.65 349 -142.05 347.15 -143.3 345.5 -145.6 344.8
L -145.95 344.85
Q -146.45 345.15 -146.45 345.9
L -146.3 348.75 -146.05 349.75 -146.05 350 -145.95 350.65 -145.9 350.65 -145.3 352.1 -149.05 351.35 -151.35 351.35
Q -155.2 351.75 -155.95 355.35
L -155.95 356.1 -156.4 356.05 -156.45 355.95 -157.3 355.8 -159.55 355.8
Q -161.75 355.95 -162.6 357.55
L -162.65 357.7
Q -162.25 358.55 -161.05 358.8
L -158.6 358.8 -156.8 358.3 -156.7 360.15
Q -156.2 363.3 -153.25 363.85
L -150.65 363.85
Q -149 363.45 -148.05 362.2
L -148.05 362 -147.55 360.95 -147.55 359.4 -148.05 358.15 -148.05 358.05 -149.5 357.55 -150.65 357.55 -150.95 357.7 -150.95 357.9 -150.85 358.45 -150.65 358.45
Q -149.4 358.8 -149.2 360.3
L -150.5 362.35 -150.6 362.35 -150.6 362.5 -153.1 362.4 -153.1 362.35
Q -154.95 361.25 -155.2 358.75
L -155.2 358.55 -155.3 357.55 -155.2 357.55 -155.2 357.35 -155 356.1 -155 356.05
Q -154.35 353 -151.35 352.5
L -151.35 352.45 -148.8 352.5
Q -145.3 352.6 -143.15 354.25
L -142.2 354.25 -142.2 354.4
Q -138.9 356.3 -136.8 359.4
L -138.6 358.8 -140.6 358.8
Q -143.9 359.15 -144.55 361.9
L -144.55 362.85 -144.2 363.15 -139.9 363.75
Q -137.15 364.05 -135.5 363.1
L -135.4 363.1 -134.15 367.8 -134.05 367.8 -134.05 376.7 -133.9 377.1
Q -134.9 376.85 -135.75 376.45
L -135.8 376.45 -136.55 376.25 -136.55 376.2 -139.25 375.7 -141.1 375.7
Q -143.15 375.85 -144.1 377
L -144.05 377.1
Q -142.05 379.65 -138.5 380.45
L -137 380.45 -137 380.4 -136.1 380.4
Q -135.05 380.2 -134.25 379.65
L -134.15 379.65 -134.05 383.5 -134.15 383.5 -134.15 383.65 -150.6 383.65 -151.15 383.75 -151.35 383.75 -153.45 383.25 -153.55 383.25 -154.35 383.1 -154.45 382.95 -156.65 382.5 -156.7 382.5 -156.95 382.4 -157.55 382.35 -157.65 382.35
Q -162.25 381.4 -163.4 377.3
L -163.4 375.7
Q -162.65 373 -159.75 372.5
L -159.75 372.4 -158.75 372.25 -156.55 372.4
Q -155.45 372.6 -155.45 374
L -155.35 374 -155.3 374.85 -155.45 374.85 -155.45 375.45
Q -155.9 376.55 -157.35 376.85
L -157.55 376.85 -157.55 376.95 -158.6 376.85
Q -158.45 375.7 -159.55 375.75
L -159.75 376.2
Q -159.9 377.5 -159.05 377.85
L -157.3 377.85 -155.75 377.35 -155.7 377.35
Q -154.8 379.65 -151.7 379.7
L -149.55 379.7
Q -149 379.65 -148.6 379.35 -148.8 377 -151.15 376.7
L -154.25 376.55
Q -154.8 376.55 -154.45 375.7
L -154.45 373.75
Q -154.8 371.55 -156.7 371.1
L -156.55 367.8
Q -156.7 364.1 -159.2 362.95
L -159.75 363.1 -159.9 363.75 -159.9 365.3 -158.4 371.1
Q -162.25 371.5 -163.85 374.1
L -163.9 374.1
Q -165.45 370.8 -168.7 369.35
L -168.8 369.3 -169.7 369.3 -170.25 370 -170.25 371.15
Q -169.05 374.6 -165.95 376
L -165.75 376 -164.5 376.1 -164.25 377.7
Q -162.95 382 -158.65 383.5
L -158.6 383.5 -158.4 383.65 -173.95 383.65 -177.05 382.9 -177.15 382.9 -177.9 382.65 -178.05 382.65 -177.5 380.15 -177.5 376.45
Q -177.5 374.6 -178.45 373.95
L -179.55 373.95
Q -181 374.25 -181.75 375.2
L -181.85 375.2
Q -182.75 376.3 -182.85 378.05
L -182.85 379.45 -182.25 381.35
Q -185.2 379.45 -187.35 376.85
L -188.05 375.95
Q -189.65 373.4 -189.95 369.4
L -190.05 369.4 -190.05 367.8 -189.95 367.8 -189.95 367.75
Q -189.15 364.3 -185.2 363.85
L -184.65 363.85 -184.65 363.75 -182.65 363.75 -182.65 363.85 -181.35 364.15
Q -179.75 364.65 -178.9 365.8
L -178.9 368.3 -181.1 369.5 -181.15 369.5 -182.25 369.4 -182.35 369.3
Q -182.85 368.25 -184.1 367.8
L -184.25 368.05 -184.35 368.05 -184.35 369.2
Q -184.1 370.85 -182.5 371.05
L -180.15 371 -180.1 370.9 -177.95 369.65 -177.95 369.5
Q -177.3 368.7 -177.15 367.45
L -177.15 366.1
Q -177.8 362.6 -181.5 362.25
L -183.4 362.15
Q -182.85 361.4 -182.75 360
L -182.75 358.55
Q -182.95 356.9 -184.6 356.8 -185.95 357.8 -186.2 359.75
L -186.2 361.35 -185.95 362.9 -185.95 363
Q -190.3 363.55 -191.35 367.4
L -191.35 369.4
Q -191.05 371.5 -190.25 373.05
L -190.25 373.2 -192.65 372.5 -192.95 372.5 -193.85 372.25 -197.55 372.1
Q -198.6 372.25 -198.6 373.4
L -198.6 373.5
Q -196.55 376.3 -193.15 377.6
L -193.1 377.7 -192.3 377.9 -192.3 377.95 -191 378.3 -189.9 378.3 -188.55 377.7 -184.95 381.05
Q -183.15 382.6 -180.6 383.65
L -215.8 383.65
Q -217.8 382.9 -218.4 380.85
L -218.55 380.85 -218.6 379.8 -218.4 379.8 -218.4 379.7
Q -217.5 377.1 -214.3 376.7
L -214.15 376.7 -214.15 376.6 -213.15 376.6 -213.15 376.7
Q -211.55 376.95 -210.95 378.3
L -210.9 378.3
Q -210.25 379.5 -210.9 380.3
L -212.8 380.7 -212.9 380.7
Q -213.2 379.7 -213.7 379.15
L -213.85 379.05 -213.9 379.05
Q -214.15 378.85 -214.65 378.95
L -214.65 379.05 -214.75 379.05 -214.75 380.15
Q -214.65 381.4 -213.4 381.55
L -212.2 381.55
Q -210.65 381.55 -209.65 380.55
L -209.65 379.3 -209.45 379.45 -209.45 379.55
Q -208.85 380.05 -208.2 379.7
L -207.9 379.7 -207.9 379.55 -207.1 379.55
Q -205 379.15 -203.55 378.3
L -202.4 376.95 -202.4 376.85
Q -202.25 375.55 -203.4 375.4
L -204.65 375.4
Q -207.75 376.05 -209.65 377.7
L -209.65 377.75
Q -210.45 376.5 -211.7 375.85
L -212 375.85 -212.9 375.7 -214.4 375.7
Q -217.35 376.3 -218.95 378.05
L -219 378.05
Q -220.55 375.35 -224 374.45
L -224.3 374.85 -224.3 375.95
Q -223.35 379.45 -220.05 380.55
L -219.95 380.55
Q -219.3 382.6 -217.9 383.5
L -217.85 383.55
Q -217.85 383.6 -217.9 383.65
L -238.55 383.65 -238.55 383.7
Q -238.6 383.65 -238.65 383.55
L -238.6 383.5
Q -237.2 382.6 -236.55 380.55
L -236.45 380.55
Q -233.15 379.45 -232.2 375.95
L -232.2 374.85 -232.5 374.45
Q -235.95 375.35 -237.5 378.05
L -237.55 378.05
Q -239.15 376.3 -242.1 375.7
L -243.6 375.7 -244.5 375.85 -244.8 375.85
Q -246.05 376.5 -246.85 377.75
L -246.85 377.7
Q -248.75 376.05 -251.85 375.4
L -253.1 375.4
Q -254.25 375.55 -254.1 376.85
L -254.1 376.95 -252.95 378.3
Q -251.5 379.15 -249.4 379.55
L -248.6 379.55 -248.6 379.7 -248.3 379.7
Q -247.65 380.05 -247.05 379.55
L -247.05 379.45 -246.85 379.3 -246.85 380.55
Q -246.35 381.6 -244.3 381.55
L -243.1 381.55
Q -241.85 381.4 -241.75 380.15
L -241.75 379.05 -241.85 379.05 -241.85 378.95
Q -242.35 378.85 -242.6 379.05
L -242.65 379.05 -242.8 379.15
Q -243.3 379.7 -243.6 380.7
L -243.7 380.7 -245.6 380.3
Q -246.3 379.3 -245.6 378.3
L -245.55 378.3
Q -244.95 376.95 -243.35 376.7
L -243.35 376.6 -242.35 376.6 -242.35 376.7 -242.2 376.7
Q -239 377.1 -238.1 379.7
L -238.1 379.8 -237.9 379.8 -237.95 380.85 -238.1 380.85
Q -238.75 383.05 -240.95 383.75
L -241 383.85 -275.35 384
Q -276.6 384 -276 383.7 -273.4 382.65 -271.55 381.05
L -267.95 377.7 -266.6 378.3 -265.5 378.3 -264.2 377.95 -264.2 377.9 -263.4 377.7 -263.35 377.6
Q -259.95 376.3 -257.9 373.5
L -257.9 373.4
Q -257.9 372.25 -258.95 372.1
L -262.65 372.25 -263.55 372.5 -263.85 372.5 -266.25 373.2 -266.25 373.05
Q -265.45 371.5 -265.15 369.4
L -265.15 367.4
Q -266.2 363.55 -270.55 363
L -270.55 362.9 -270.3 361.35 -270.3 359.75
Q -270.55 357.8 -271.9 356.8 -273.55 356.9 -273.75 358.55
L -273.75 360
Q -273.65 361.4 -273.1 362.15
L -275 362.25
Q -278.7 362.6 -279.35 366.1
L -279.35 367.45
Q -279.2 368.7 -278.55 369.5
L -278.55 369.65 -276.4 370.9 -276.35 371 -274 371.05
Q -272.4 370.85 -272.15 369.2
L -272.15 368.05 -272.25 368.05 -272.4 367.8
Q -273.65 368.25 -274.15 369.3
L -274.25 369.4 -275.35 369.5 -275.4 369.5 -277.6 368.3 -277.6 365.8
Q -276.75 364.65 -275.15 364.15
L -273.85 363.85 -273.85 363.75 -271.85 363.75 -271.85 363.85 -271.3 363.85
Q -267.35 364.3 -266.55 367.75
L -266.55 367.8 -266.45 367.8 -266.45 369.4 -266.55 369.4
Q -266.85 373.4 -268.45 375.95
L -269.15 376.85
Q -271.3 379.45 -274.25 381.35
L -273.65 379.45 -273.65 378.05
Q -273.75 376.3 -274.65 375.2
L -274.75 375.2
Q -275.5 374.25 -276.95 373.95
L -278.05 373.95
Q -279 374.6 -279 376.45
L -279 380.15 -278.45 382.65 -278.6 382.65 -279.35 382.9 -279.45 382.9 -283.55 383.9 -284.2 383.95 -303.65 383.9
Q -304.8 384 -304.95 383.55
L -304.9 383.5
Q -303.5 382.6 -302.85 380.55
L -302.75 380.55
Q -299.45 379.45 -298.5 375.95
L -298.5 374.85 -298.8 374.45
Q -302.25 375.35 -303.8 378.05
L -303.85 378.05
Q -305.45 376.3 -308.4 375.7
L -309.9 375.7 -310.8 375.85 -311.1 375.85
Q -312.35 376.5 -313.15 377.75
L -313.15 377.7
Q -315.05 376.05 -318.15 375.4
L -319.4 375.4
Q -320.55 375.55 -320.4 376.85
L -320.4 376.95 -319.25 378.3
Q -317.8 379.15 -315.7 379.55
L -314.9 379.55 -314.9 379.7 -314.6 379.7
Q -313.95 380.05 -313.35 379.55
L -313.35 379.45 -313.15 379.3 -313.15 380.55
Q -312.35 381.6 -310.6 381.55
L -309.4 381.55
Q -308.15 381.4 -308.05 380.15
L -308.05 379.05 -308.15 379.05 -308.15 378.95
Q -308.65 378.85 -308.9 379.05
L -308.95 379.05 -309.1 379.15
Q -309.6 379.7 -309.9 380.7
L -310 380.7
Q -311.15 381 -311.9 380.3 -312.75 379.4 -311.9 378.3
L -311.85 378.3
Q -310.5654296875 376.5109375 -308.65 376.7 -308.85 376.65 -309.05 376.6
L -308.65 376.6 -308.65 376.65
Q -305.25 377.25 -304.4 379.7
L -304.4 380.85
Q -305.05 383.05 -307.25 383.75
L -307.3 383.85 -337.25 383.85 -337.3 383.75
Q -339.5 383.05 -340.15 380.85
L -340.3 380.85
Q -340.2 380.8 -340.2 380.65
L -340.15 380.85 -340.15 379.7
Q -339.25 377.1 -336.05 376.7
L -334.9 376.6 -334.9 376.7
Q -333.3 376.95 -332.7 378.3
L -332.65 378.3
Q -331.95 379.55 -332.65 380.3 -333.75 381.15 -334.55 380.7
L -334.65 380.7
Q -334.95 379.7 -335.45 379.15
L -335.6 379.05 -335.65 379.05
Q -335.9 378.85 -336.4 378.95
L -336.4 379.05 -336.5 379.05 -336.5 380.15
Q -336.4 381.4 -335.15 381.55
L -333.95 381.55
Q -332.4 381.65 -331.4 380.55
L -331.4 379.3 -331.2 379.45 -331.2 379.55
Q -330.6 380.05 -329.95 379.7
L -329.65 379.7 -329.65 379.55 -328.85 379.55
Q -326.75 379.15 -325.3 378.3
L -324.15 376.95 -324.15 376.85
Q -324 375.55 -325.15 375.4
L -326.4 375.4
Q -329.5 376.05 -331.4 377.7
L -331.4 377.75
Q -332.2 376.5 -333.45 375.85
L -333.75 375.85 -334.65 375.7 -336.15 375.7
Q -339.1 376.3 -340.7 378.05
L -340.75 378.05
Q -342.3 375.35 -345.75 374.45
L -346.05 374.85 -346.05 375.95
Q -345.1 379.45 -341.8 380.55
L -341.7 380.55
Q -341.05 382.6 -339.65 383.5
L -339.6 383.55
Q -339.75 384 -340.9 383.9
L -352.85 383.8 -352.2 383.85 -354.15 383.8 -357.95 382.9 -358.05 382.9 -358.8 382.65 -358.95 382.65 -358.4 380.15 -358.4 376.45
Q -358.4 374.6 -359.35 373.95
L -360.45 373.95
Q -361.9 374.25 -362.65 375.2
L -362.75 375.2
Q -363.65 376.3 -363.75 378.05
L -363.75 379.45 -363.15 381.35
Q -366.1 379.45 -368.25 376.85
L -368.95 375.95
Q -370.55 373.4 -370.85 369.4
L -370.95 369.4 -370.95 367.8 -370.85 367.8 -370.85 367.75
Q -370.05 364.3 -366.1 363.85
L -365.55 363.85 -365.55 363.75 -363.55 363.75 -363.55 363.85 -362.25 364.15
Q -360.65 364.65 -359.8 365.8
L -359.8 368.3 -362 369.5 -362.05 369.5 -363.15 369.4 -363.25 369.3
Q -363.75 368.25 -365 367.8
L -365.15 368.05 -365.25 368.05 -365.25 369.2
Q -365 370.85 -363.4 371.05
L -361.05 371 -361 370.9 -358.85 369.65 -358.85 369.5
Q -358.2 368.7 -358.05 367.45
L -358.05 366.1
Q -358.7 362.6 -362.4 362.25
L -364.3 362.15
Q -363.75 361.4 -363.65 360
L -363.65 358.55
Q -363.85 356.9 -365.5 356.8 -366.85 357.8 -367.1 359.75
L -367.1 361.35 -366.85 362.9 -366.85 363
Q -371.2 363.55 -372.25 367.4
L -372.25 369.4
Q -371.95 371.5 -371.15 373.05
L -371.15 373.2 -373.55 372.5 -373.85 372.5 -374.75 372.25 -378.45 372.1
Q -379.5 372.25 -379.5 373.4
L -379.5 373.5
Q -377.45 376.3 -374.05 377.6
L -374 377.7 -373.2 377.9 -373.2 377.95 -371.9 378.3 -370.8 378.3 -369.45 377.7 -365.85 381.05
Q -364 382.65 -361.4 383.7 -360.8 384 -362.05 384
L -396.4 383.85 -396.45 383.75
Q -398.65 383.05 -399.3 380.85
L -399.45 380.85 -399.5 379.8 -399.3 379.8 -399.3 379.7
Q -398.4 377.1 -395.2 376.7
L -395.05 376.7 -395.05 376.6 -394.05 376.6 -394.05 376.7
Q -392.45 376.95 -391.85 378.3
L -391.8 378.3
Q -391.25 379.3 -391.8 380.3 -392.1 381.05 -393.7 380.7
L -393.8 380.7
Q -394.1 379.7 -394.6 379.15
L -394.75 379.05 -394.8 379.05
Q -395.05 378.85 -395.55 378.95
L -395.55 379.05 -395.65 379.05 -395.65 380.15
Q -395.55 381.4 -394.3 381.55
L -393.1 381.55
Q -391.25 381.55 -390.55 380.55
L -390.55 379.3 -390.35 379.45 -390.35 379.55
Q -389.75 380.05 -389.1 379.7
L -388.8 379.7 -388.8 379.55 -388 379.55
Q -385.9 379.15 -384.45 378.3
L -383.3 376.95 -383.3 376.85
Q -383.15 375.55 -384.3 375.4
L -385.55 375.4
Q -388.65 376.05 -390.55 377.7
L -390.55 377.75
Q -391.35 376.5 -392.6 375.85
L -392.9 375.85 -393.8 375.7 -395.3 375.7
Q -398.25 376.3 -399.85 378.05
L -399.9 378.05
Q -401.45 375.35 -404.9 374.45
L -405.2 374.85 -405.2 375.95
Q -404.25 379.45 -400.95 380.55
L -400.85 380.55
Q -400.2 382.6 -398.8 383.5
L -398.75 383.55
Q -398.8 383.7 -398.95 383.8
L -417.3 383.65
Q -417.35 383.6 -417.35 383.55
L -417.3 383.5
Q -415.9 382.6 -415.25 380.55
L -415.15 380.55
Q -415.1 380.55 -415.05 380.55 -411.85 379.4 -410.9 375.95
L -410.9 374.85 -411.2 374.45
Q -413.6 375.05 -415.05 376.55 -415.7 377.2 -416.2 378.05
L -416.25 378.05
Q -417.85 376.3 -420.8 375.7
L -422.3 375.7 -423.2 375.85 -423.5 375.85
Q -424.75 376.5 -425.55 377.75
L -425.55 377.7
Q -427.45 376.05 -430.55 375.4
L -431.8 375.4
Q -432.95 375.55 -432.8 376.85
L -432.8 376.95 -431.65 378.3
Q -430.2 379.15 -428.1 379.55
L -427.3 379.55 -427.3 379.7 -427 379.7
Q -426.35 380.05 -425.75 379.55
L -425.75 379.45 -425.55 379.3 -425.55 380.55
Q -424.75 381.9 -423 381.55
L -421.8 381.55
Q -420.55 381.4 -420.45 380.15
L -420.45 379.05 -420.55 379.05 -420.55 378.95
Q -421.05 378.85 -421.3 379.05
L -421.35 379.05 -421.5 379.15
Q -422 379.7 -422.3 380.7
L -422.4 380.7
Q -423.6 380.9 -424.3 380.3 -424.95 379.3 -424.3 378.3
L -424.25 378.3
Q -423.65 376.95 -422.05 376.7
L -422.05 376.6 -421.05 376.6 -421.05 376.7 -420.9 376.7
Q -417.7 377.1 -416.8 379.7
L -416.8 379.8 -416.6 379.8 -416.65 380.85 -416.8 380.85
Q -417.4 382.9 -419.35 383.65
L -454.55 383.65
Q -452.05 382.6 -450.25 381.05
L -446.65 377.7 -445.3 378.3 -444.2 378.3 -442.9 377.95 -442.9 377.9 -442.1 377.7 -442.05 377.6
Q -438.65 376.3 -436.6 373.5
L -436.6 373.4
Q -436.6 372.25 -437.65 372.1
L -441.35 372.25 -442.25 372.5 -442.55 372.5 -444.95 373.2 -444.95 373.05
Q -444.15 371.5 -443.85 369.4
L -443.85 367.4
Q -444.9 363.55 -449.25 363
L -449.25 362.9 -449 361.35 -449 359.75
Q -449.25 357.8 -450.6 356.8 -452.25 356.9 -452.45 358.55
L -452.45 360
Q -452.35 361.4 -451.8 362.15
L -453.7 362.25
Q -457.4 362.6 -458.05 366.1
L -458.05 367.45
Q -457.9 368.7 -457.25 369.5
L -457.25 369.65 -455.1 370.9 -455.05 371 -452.7 371.05
Q -451.1 370.85 -450.85 369.2
L -450.85 368.05 -450.95 368.05 -451.1 367.8
Q -452.35 368.25 -452.85 369.3
L -452.95 369.4 -454.05 369.5 -454.1 369.5 -456.3 368.3 -456.3 365.8
Q -455.45 364.65 -453.85 364.15
L -452.55 363.85 -452.55 363.75 -450.55 363.75 -450.55 363.85 -450 363.85
Q -446.05 364.3 -445.25 367.75
L -445.25 367.8 -445.15 367.8 -445.15 369.4 -445.25 369.4
Q -445.55 373.4 -447.15 375.95
L -447.85 376.85
Q -450 379.45 -452.95 381.35
L -452.35 379.45 -452.35 378.05
Q -452.45 376.3 -453.35 375.2
L -453.45 375.2
Q -454.2 374.25 -455.65 373.95
L -456.75 373.95
Q -457.7 374.6 -457.7 376.45
L -457.7 380.15 -457.15 382.65 -457.3 382.65 -458.05 382.9 -458.15 382.9 -461.2 383.65 -480.2 383.65 -480 383.5 -479.95 383.5
Q -475.65 382 -474.35 377.7
L -474.1 376.1 -472.85 376 -472.65 376
Q -469.55 374.6 -468.35 371.15
L -468.35 370 -468.9 369.3 -469.8 369.3 -469.9 369.35
Q -473.15 370.8 -474.7 374.1
L -474.75 374.1
Q -476.35 371.5 -480.2 371.1
L -478.7 365.3 -478.7 363.75 -478.85 363.1 -479.4 362.95
Q -481.9 364.1 -482.05 367.8
L -481.9 371.1
Q -483.8 371.55 -484.15 373.75
L -484.15 375.7
Q -483.8 376.55 -484.35 376.55
L -487.45 376.7
Q -489.8 377 -490 379.35 -489.6 379.65 -489.05 379.7
L -486.9 379.7
Q -483.8 379.65 -482.9 377.35
L -482.85 377.35 -481.3 377.85 -479.55 377.85
Q -478.7 377.5 -478.85 376.2
L -479.05 375.75
Q -480.15 375.7 -480 376.85
L -481.05 376.95 -481.05 376.85 -481.25 376.85
Q -482.7 376.55 -483.15 375.45
L -483.15 374.85 -483.3 374.85 -483.25 374 -483.15 374
Q -483.15 372.6 -482.05 372.4
L -479.85 372.25 -478.85 372.4 -478.85 372.5
Q -475.95 373 -475.2 375.7
L -475.2 377.3
Q -476.35 381.4 -480.95 382.35
L -481.05 382.35 -481.65 382.4 -481.9 382.5 -481.95 382.5 -484.15 382.95 -484.25 383.1 -485.05 383.25 -485.15 383.25 -487.25 383.75 -487.45 383.75 -488 383.65 -504.45 383.65 -504.45 383.5 -504.55 383.5 -504.45 379.65 -504.35 379.65
Q -503.55 380.2 -502.5 380.4
L -501.6 380.4 -501.6 380.45 -500.1 380.45
Q -496.55 379.65 -494.55 377.1
L -494.5 377
Q -495.45 375.85 -497.5 375.7
L -499.35 375.7 -502.05 376.2 -502.05 376.25 -502.8 376.45 -502.85 376.45
Q -503.7 376.85 -504.7 377.1
L -504.55 376.7 -504.55 367.8 -504.45 367.8 -503.2 363.1 -503.1 363.1
Q -501.45 364.05 -498.7 363.75
L -494.4 363.15 -494.05 362.85 -494.05 361.9
Q -494.7 359.15 -498 358.8
L -500 358.8 -501.8 359.4
Q -499.7 356.3 -496.4 354.4
L -496.4 354.25 -495.45 354.25
Q -493.3 352.6 -489.8 352.5
L -487.25 352.45 -487.25 352.5
Q -484.25 353 -483.6 356.05
L -483.6 356.1 -483.4 357.35 -483.4 357.55 -483.3 357.55 -483.4 358.55 -483.4 358.75
Q -483.65 361.25 -485.5 362.35
L -485.5 362.4 -488 362.5 -488 362.35 -488.1 362.35 -489.4 360.3
Q -489.2 358.8 -487.95 358.45
L -487.75 358.45 -487.65 357.9 -487.65 357.7 -487.95 357.55 -489.1 357.55 -490.55 358.05 -490.55 358.15 -491.05 359.4 -491.05 360.95 -490.55 362 -490.55 362.2
Q -489.6 363.45 -487.95 363.85
L -485.35 363.85
Q -482.4 363.3 -481.9 360.15
L -481.8 358.3 -480 358.8 -477.55 358.8
Q -476.35 358.55 -475.95 357.7
L -476 357.55
Q -476.85 355.95 -479.05 355.8
L -481.3 355.8 -482.15 355.95 -482.2 356.05 -482.65 356.1 -482.65 355.35
Q -483.4 351.75 -487.25 351.35
L -489.55 351.35 -493.3 352.1 -492.7 350.65 -492.65 350.65 -492.55 350 -492.55 349.75 -492.3 348.75 -492.15 345.9
Q -492.15 345.15 -492.65 344.85
L -493 344.8
Q -495.3 345.5 -496.55 347.15 -497.95 349 -498.45 351.6
L -498.45 352.6 -497.75 353.95 -497.8 354.05
Q -502.2 356.45 -504.35 361.25
L -504.55 361.4 -504.55 356.3 -504.45 356.3 -504.35 329.45
Q -503.55 327.4 -501.45 326.75
L -501.35 326.75 -500.1 326.65 -500.1 326.75 -500 326.75
Q -496.75 327.7 -496.9 332.25
L -497 332.25
Q -497.6 333.15 -498.7 333.65
L -498.75 333.65
Q -500.7 333.95 -501.05 332.55 -501.05 331.3 -499.7 331.15
L -499.55 331.05
Q -499.1 330.8 -499.35 330.3
L -501.05 330.3
Q -501.8 330.5 -502.05 331.35
L -502.05 332.55
Q -502.35 334.25 -501.05 334.6
L -501.05 334.65 -499.85 334.8 -499.85 334.9 -500 334.9
Q -500.35 335.2 -500.3 335.9 -499.85 336.25 -500 337.15
L -500 337.25
Q -499.25 339.75 -497.25 341.15
L -496.15 341.15
Q -495.4 340.85 -495.45 339.75
L -495.45 339.7 -495.65 339 -495.65 338.5
Q -496.4 336.1 -498.1 334.65 -496.4 334.05 -495.9 332.3
L -495.9 330.3
Q -496.5 327.75 -498.25 326.45 -495.8 324.9 -494.7 322.25 -494.55 321.55 -495.15 321.55
L -496.15 321.55
Q -499.75 322.3 -501.05 325.55
L -501.1 325.55
Q -503.1 326.1 -504.35 327.4
L -504.35 81.7
Q -503.1 83 -501.1 83.55
L -501.05 83.55
Q -499.75 86.8 -496.15 87.55
L -495.15 87.55
Q -494.55 87.55 -494.7 86.85 -495.8 84.2 -498.25 82.65 -496.5 81.35 -495.9 78.8
L -495.9 76.8
Q -496.4 75.05 -498.1 74.45 -496.4 73 -495.65 70.6
L -495.65 70.1 -495.45 69.4 -495.45 69.35
Q -495.4 68.25 -496.15 67.95
L -497.25 67.95
Q -499.25 69.35 -500 71.85
L -500 71.95
Q -499.85 72.85 -500.3 73.2 -500.35 73.9 -500 74.2
L -499.85 74.2 -499.85 74.3 -501.05 74.45 -501.05 74.5
Q -502.25 75.55 -502.05 76.55
L -502.05 77.75
Q -501.8 78.6 -501.05 78.8
L -499.35 78.8
Q -499.1 78.3 -499.55 78.05
L -499.7 77.95
Q -501.05 77.8 -501.05 76.55 -500.7 75.15 -498.75 75.45
L -498.7 75.45
Q -497.6 75.95 -497 76.85
L -496.9 76.85
Q -496.75 81.4 -500 82.35
L -500.1 82.35 -500.1 82.45 -501.35 82.35 -501.45 82.35
Q -503.55 81.7 -504.35 79.65
L -504.45 52.8 -504.55 52.8 -504.55 47.7 -504.35 47.85
Q -502.2 52.65 -497.8 55.05
L -497.75 55.15 -498.45 56.5 -498.45 57.5
Q -497.95 60.1 -496.55 61.95 -495.3 63.6 -493 64.3
L -492.65 64.25
Q -492.15 63.95 -492.15 63.2
L -492.3 60.35 -492.55 59.35 -492.55 59.1 -492.65 58.45 -492.7 58.45 -493.3 57 -489.55 57.75 -487.25 57.75
Q -483.4 57.35 -482.65 53.75
L -482.65 53 -482.2 53.05 -482.15 53.15 -481.3 53.3 -479.05 53.3
Q -476.85 53.15 -476 51.55
L -475.95 51.4
Q -476.35 50.55 -477.55 50.3
L -480 50.3 -481.8 50.8 -481.9 48.95
Q -482.4 45.8 -485.35 45.25
L -487.95 45.25
Q -489.6 45.65 -490.55 46.9
L -490.55 47.1 -491.05 48.15 -491.05 49.7 -490.55 50.95 -490.55 51.05 -489.1 51.55 -487.95 51.55 -487.65 51.4 -487.65 51.2 -487.75 50.65 -487.95 50.65
Q -489.2 50.3 -489.4 48.8
L -488.1 46.75 -488 46.75 -488 46.6 -485.5 46.7 -485.5 46.75
Q -483.65 47.85 -483.4 50.35
L -483.4 50.55 -483.3 51.55 -483.4 51.55 -483.4 51.75 -483.6 53 -483.6 53.05
Q -484.25 56.1 -487.25 56.6
L -487.25 56.65 -489.8 56.6
Q -493.3 56.5 -495.45 54.85
L -496.4 54.85 -496.4 54.7
Q -499.7 52.8 -501.8 49.7
L -500 50.3 -498 50.3
Q -494.7 49.95 -494.05 47.2
L -494.05 46.25 -494.4 45.95 -498.7 45.35
Q -501.45 45.05 -503.1 46
L -503.2 46 -504.45 41.3 -504.55 41.3 -504.55 32.4 -504.7 32
Q -503.7 32.25 -502.85 32.65
L -502.8 32.65 -502.05 32.85 -502.05 32.9 -499.35 33.4 -497.5 33.4
Q -495.45 33.25 -494.5 32.1
L -494.55 32
Q -496.55 29.45 -500.1 28.65
L -501.6 28.65 -501.6 28.7 -502.5 28.7
Q -503.55 28.9 -504.35 29.45
L -504.45 29.45 -504.55 25.6 -504.45 25.6 -504.45 25.45 -488 25.45 -487.45 25.35 -487.25 25.35 -485.15 25.85 -485.05 25.85 -484.25 26 -484.15 26.15 -481.95 26.6 -481.9 26.6 -481.65 26.7 -481.05 26.75 -480.95 26.75
Q -476.35 27.7 -475.2 31.8
L -475.2 33.4
Q -475.95 36.1 -478.85 36.6
L -478.85 36.7 -479.85 36.85 -482.05 36.7
Q -483.15 36.5 -483.15 35.1
L -483.25 35.1 -483.3 34.25 -483.15 34.25 -483.15 33.65
Q -482.7 32.55 -481.25 32.25
L -481.05 32.25 -481.05 32.15 -480 32.25
Q -480.15 33.4 -479.05 33.35
L -478.85 32.9
Q -478.7 31.6 -479.55 31.25
L -481.3 31.25 -482.85 31.75 -482.9 31.75
Q -483.8 29.45 -486.9 29.4
L -489.05 29.4
Q -489.6 29.45 -490 29.75 -489.8 32.1 -487.45 32.4
L -484.35 32.55
Q -483.8 32.55 -484.15 33.4
L -484.15 35.35
Q -483.8 37.55 -481.9 38
L -482.05 41.3
Q -481.9 45 -479.4 46.15
L -478.85 46 -478.7 45.35 -478.7 43.8 -480.2 38
Q -476.35 37.6 -474.75 35
L -474.7 35
Q -473.15 38.3 -469.9 39.75
L -469.8 39.8 -468.9 39.8 -468.35 39.1 -468.35 37.95
Q -469.55 34.5 -472.65 33.1
L -472.85 33.1 -474.1 33 -474.35 31.4
Q -475.65 27.1 -479.95 25.6
L -480 25.6 -480.2 25.45 -461.2 25.45 -458.15 26.2 -458.05 26.2 -457.3 26.45 -457.15 26.45 -457.7 28.95 -457.7 32.65
Q -457.7 34.5 -456.75 35.15
L -455.65 35.15
Q -454.2 34.85 -453.45 33.9
L -453.35 33.9
Q -452.45 32.8 -452.35 31.05
L -452.35 29.65 -452.95 27.75
Q -450 29.65 -447.85 32.25
L -447.15 33.15
Q -445.55 35.7 -445.25 39.7
L -445.15 39.7 -445.15 41.3 -445.25 41.3 -445.25 41.35
Q -446.05 44.8 -450 45.25
L -450.55 45.25 -450.55 45.35 -452.55 45.35 -452.55 45.25 -453.85 44.95
Q -455.45 44.45 -456.3 43.3
L -456.3 40.8 -454.1 39.6 -454.05 39.6 -452.95 39.7 -452.85 39.8
Q -452.35 40.85 -451.1 41.3
L -450.95 41.05 -450.85 41.05 -450.85 39.9
Q -451.1 38.25 -452.7 38.05
L -455.05 38.1 -455.1 38.2 -457.25 39.45 -457.25 39.6
Q -457.9 40.4 -458.05 41.65
L -458.05 43
Q -457.4 46.5 -453.7 46.85
L -451.8 46.95
Q -452.35 47.7 -452.45 49.1
L -452.45 50.55
Q -452.25 52.2 -450.6 52.3 -449.25 51.3 -449 49.35
L -449 47.75 -449.25 46.2 -449.25 46.1
Q -444.9 45.55 -443.85 41.7
L -443.85 39.7
Q -444.15 37.6 -444.95 36.05
L -444.95 35.9 -442.55 36.6 -442.25 36.6 -441.35 36.85 -437.65 37
Q -436.6 36.85 -436.6 35.7
L -436.6 35.6
Q -438.65 32.8 -442.05 31.5
L -442.1 31.4 -442.9 31.2 -442.9 31.15 -444.2 30.8 -445.3 30.8 -446.65 31.4 -450.25 28.05
Q -452.05 26.5 -454.55 25.45
L -419.35 25.45
Q -417.4 26.2 -416.8 28.25
L -416.65 28.25 -416.6 29.3 -416.8 29.3 -416.8 29.4
Q -417.7 32 -420.9 32.4
L -421.05 32.4 -421.05 32.5 -422.05 32.5 -422.05 32.4
Q -423.65 32.15 -424.25 30.8 -424.9 27.85 -422.4 28.4
L -422.3 28.4
Q -422 29.4 -421.5 29.95
L -421.35 30.05 -421.3 30.05
Q -421.05 30.25 -420.55 30.15
L -420.55 30.05 -420.45 30.05 -420.45 28.95
Q -420.55 27.7 -421.8 27.55
L -423 27.55
Q -424.75 27.3 -425.55 28.55
L -425.55 29.8 -425.75 29.65 -425.75 29.55
Q -426.35 29.05 -427 29.4
L -427.3 29.4 -427.3 29.55 -428.1 29.55
Q -430.2 29.95 -431.65 30.8
L -432.8 32.15 -432.8 32.25
Q -432.95 33.55 -431.8 33.7
L -430.55 33.7
Q -427.45 33.05 -425.55 31.4
L -425.55 31.35
Q -424.75 32.6 -423.5 33.25
L -423.2 33.25 -422.3 33.4 -420.8 33.4
Q -417.85 32.8 -416.25 31.05
L -416.2 31.05
Q -415.7 31.9 -415.05 32.55 -413.6 34.05 -411.2 34.65
L -410.9 34.25 -410.9 33.15
Q -411.85 29.7 -415.05 28.6 -415.1 28.55 -415.15 28.55
L -415.25 28.55
Q -415.9 26.5 -417.3 25.6
L -417.35 25.55
Q -417.35 25.5 -417.3 25.45
L -398.95 25.3
Q -398.8 25.4 -398.75 25.55
L -398.8 25.6
Q -400.2 26.5 -400.85 28.55
L -400.95 28.55
Q -404.25 29.65 -405.2 33.15
L -405.2 34.25 -404.9 34.65
Q -401.45 33.75 -399.9 31.05
L -399.85 31.05
Q -398.25 32.8 -395.3 33.4
L -393.8 33.4 -392.9 33.25 -392.6 33.25
Q -391.35 32.6 -390.55 31.35
L -390.55 31.4
Q -388.65 33.05 -385.55 33.7
L -384.3 33.7
Q -383.15 33.55 -383.3 32.25
L -383.3 32.15 -384.45 30.8
Q -385.9 29.95 -388 29.55
L -388.8 29.55 -388.8 29.4 -389.1 29.4
Q -389.75 29.05 -390.35 29.55
L -390.35 29.65 -390.55 29.8 -390.55 28.55
Q -391.05 27.3 -393.1 27.55
L -394.3 27.55
Q -395.55 27.7 -395.65 28.95
L -395.65 30.05 -395.55 30.05 -395.55 30.15
Q -395.05 30.25 -394.8 30.05
L -394.75 30.05 -394.6 29.95
Q -394.1 29.4 -393.8 28.4
L -393.7 28.4
Q -391.4 28 -391.8 30.8
L -391.85 30.8
Q -392.45 32.15 -394.05 32.4
L -394.05 32.5 -395.05 32.5 -395.05 32.4 -395.2 32.4
Q -398.4 32 -399.3 29.4
L -399.3 29.3 -399.5 29.3 -399.45 28.25 -399.3 28.25
Q -398.65 26.05 -396.45 25.35
L -396.4 25.25 -362.05 25.1
Q -360.8 25.1 -361.4 25.4 -364 26.45 -365.85 28.05
L -369.45 31.4 -370.8 30.8 -371.9 30.8 -373.2 31.15 -373.2 31.2 -374 31.4 -374.05 31.5
Q -377.45 32.8 -379.5 35.6
L -379.5 35.7
Q -379.5 36.85 -378.45 37
L -374.75 36.85 -373.85 36.6 -373.55 36.6 -371.15 35.9 -371.15 36.05
Q -371.95 37.6 -372.25 39.7
L -372.25 41.7
Q -371.2 45.55 -366.85 46.1
L -366.85 46.2 -367.1 47.75 -367.1 49.35
Q -366.85 51.3 -365.5 52.3 -363.85 52.2 -363.65 50.55
L -363.65 49.1
Q -363.75 47.7 -364.3 46.95
L -362.4 46.85
Q -358.7 46.5 -358.05 43
L -358.05 41.65
Q -358.2 40.4 -358.85 39.6
L -358.85 39.45 -361 38.2 -361.05 38.1 -363.4 38.05
Q -365 38.25 -365.25 39.9
L -365.25 41.05 -365.15 41.05 -365 41.3
Q -363.75 40.85 -363.25 39.8
L -363.15 39.7 -362.05 39.6 -362 39.6 -359.8 40.8
Q -358.7 42.05 -359.8 43.3 -360.65 44.45 -362.25 44.95
L -363.55 45.25 -363.55 45.35 -365.55 45.35 -365.55 45.25 -366.1 45.25
Q -370.05 44.8 -370.85 41.35
L -370.85 41.3 -370.95 41.3 -370.95 39.7 -370.85 39.7
Q -370.55 35.7 -368.95 33.15
L -368.25 32.25
Q -366.1 29.65 -363.15 27.75
L -363.75 29.65 -363.75 31.05
Q -363.65 32.8 -362.75 33.9
L -362.65 33.9
Q -361.9 34.85 -360.45 35.15
L -359.35 35.15
Q -358.4 34.5 -358.4 32.65
L -358.4 28.95 -358.95 26.45 -358.8 26.45 -358.05 26.2 -357.95 26.2 -354.15 25.3 -340.9 25.2
Q -339.75 25.1 -339.6 25.55
L -339.65 25.6
Q -341.05 26.5 -341.7 28.55
L -341.8 28.55
Q -345.1 29.65 -346.05 33.15
L -346.05 34.25 -345.75 34.65
Q -342.3 33.75 -340.75 31.05
L -340.7 31.05
Q -339.1 32.8 -336.15 33.4
L -334.65 33.4 -333.75 33.25 -333.45 33.25
Q -332.2 32.6 -331.4 31.35
L -331.4 31.4
Q -329.5 33.05 -326.4 33.7
L -325.15 33.7
Q -324 33.55 -324.15 32.25
L -324.15 32.15 -325.3 30.8
Q -326.75 29.95 -328.85 29.55
L -329.65 29.55 -329.65 29.4 -329.95 29.4
Q -330.6 29.05 -331.2 29.55
L -331.2 29.65 -331.4 29.8 -331.4 28.55
Q -332 27.5 -333.95 27.55
L -335.15 27.55
Q -336.4 27.7 -336.5 28.95
L -336.5 30.05 -336.4 30.05 -336.4 30.15
Q -335.9 30.25 -335.65 30.05
L -335.6 30.05 -335.45 29.95
Q -334.95 29.4 -334.65 28.4
L -334.55 28.4
Q -332.25 28.05 -332.7 30.8 -333.3 32.15 -334.9 32.4
L -334.9 32.5 -335.9 32.5 -335.9 32.4 -336.05 32.4
Q -339.25 32 -340.15 29.4
L -340.15 29.3 -340.35 29.3 -340.3 28.25 -340.15 28.25
Q -339.5 26.05 -337.3 25.35
L -337.25 25.25 -307.3 25.25 -307.25 25.35
Q -305.05 26.05 -304.4 28.25
L -304.25 28.25 -304.2 29.3 -304.4 29.3 -304.4 29.4
Q -305.3 32 -308.5 32.4
L -308.65 32.4 -308.65 32.5 -309.65 32.5 -309.65 32.4
Q -311.25 32.15 -311.85 30.8 -312.45 28 -310 28.4
L -309.9 28.4
Q -309.6 29.4 -309.1 29.95
L -308.95 30.05 -308.9 30.05
Q -308.65 30.25 -308.15 30.15
L -308.15 30.05 -308.05 30.05 -308.05 28.95
Q -308.15 27.7 -309.4 27.55
L -310.6 27.55
Q -312.65 27.3 -313.15 28.55
L -313.15 29.8 -313.35 29.65 -313.35 29.55
Q -313.95 29.05 -314.6 29.4
L -314.9 29.4 -314.9 29.55 -315.7 29.55
Q -317.8 29.95 -319.25 30.8
L -320.4 32.15 -320.4 32.25
Q -320.55 33.55 -319.4 33.7
L -318.15 33.7
Q -315.05 33.05 -313.15 31.4
L -313.15 31.35
Q -312.35 32.6 -311.1 33.25
L -310.8 33.25 -309.9 33.4 -308.4 33.4
Q -305.45 32.8 -303.85 31.05
L -303.8 31.05
Q -302.25 33.75 -298.8 34.65
L -298.5 34.25 -298.5 33.15
Q -299.45 29.65 -302.75 28.55
L -302.85 28.55
Q -303.5 26.5 -304.9 25.6
L -304.95 25.55
Q -304.8 25.1 -303.65 25.2
L -285.95 25.25 -285.95 25.15 -283.55 25.2 -279.45 26.2 -279.35 26.2 -278.6 26.45 -278.45 26.45 -279 28.95 -279 32.65
Q -279 34.5 -278.05 35.15
L -276.95 35.15
Q -275.5 34.85 -274.75 33.9
L -274.65 33.9
Q -273.75 32.8 -273.65 31.05
L -273.65 29.65 -274.25 27.75
Q -271.3 29.65 -269.15 32.25
L -268.45 33.15
Q -266.85 35.7 -266.55 39.7
L -266.45 39.7 -266.45 41.3 -266.55 41.3 -266.55 41.35
Q -267.35 44.8 -271.3 45.25
L -271.85 45.25 -271.85 45.35 -273.85 45.35 -273.85 45.25 -275.15 44.95
Q -276.75 44.45 -277.6 43.3
L -277.6 40.8 -275.4 39.6 -275.35 39.6 -274.25 39.7 -274.15 39.8
Q -273.65 40.85 -272.4 41.3
L -272.25 41.05 -272.15 41.05 -272.15 39.9
Q -272.4 38.25 -274 38.05
L -276.35 38.1 -276.4 38.2 -278.55 39.45 -278.55 39.6
Q -279.2 40.4 -279.35 41.65
L -279.35 43
Q -278.7 46.5 -275 46.85
L -273.1 46.95
Q -273.65 47.7 -273.75 49.1
L -273.75 50.55
Q -273.55 52.2 -271.9 52.3 -270.55 51.3 -270.3 49.35
L -270.3 47.75 -270.55 46.2 -270.55 46.1
Q -266.2 45.55 -265.15 41.7
L -265.15 39.7
Q -265.45 37.6 -266.25 36.05
L -266.25 35.9 -263.85 36.6 -263.55 36.6 -262.65 36.85 -258.95 37
Q -257.9 36.85 -257.9 35.7
L -257.9 35.6
Q -259.95 32.8 -263.35 31.5
L -263.4 31.4 -264.2 31.2 -264.2 31.15 -265.5 30.8 -266.6 30.8 -267.95 31.4 -271.55 28.05
Q -273.4 26.45 -276 25.4 -276.6 25.1 -275.35 25.1
L -241 25.25 -240.95 25.35
Q -238.75 26.05 -238.1 28.25
L -237.95 28.25 -237.9 29.3 -238.1 29.3 -238.1 29.4
Q -239 32 -242.2 32.4
L -242.35 32.4 -242.35 32.5 -243.35 32.5 -243.35 32.4
Q -244.95 32.15 -245.55 30.8
L -245.6 30.8 -245.6 28.8
Q -244.75 27.9 -243.7 28.4
L -243.6 28.4
Q -243.3 29.4 -242.8 29.95
L -242.65 30.05 -242.6 30.05
Q -242.35 30.25 -241.85 30.15
L -241.85 30.05 -241.75 30.05 -241.75 28.95
Q -241.85 27.7 -243.1 27.55
L -244.3 27.55
Q -246.55 27.3 -246.85 28.55
L -246.85 29.8 -247.05 29.65 -247.05 29.55
Q -247.65 29.05 -248.3 29.4
L -248.6 29.4 -248.6 29.55 -249.4 29.55
Q -251.5 29.95 -252.95 30.8
L -254.1 32.15 -254.1 32.25
Q -254.25 33.55 -253.1 33.7
L -251.85 33.7
Q -248.75 33.05 -246.85 31.4
L -246.85 31.35
Q -246.05 32.6 -244.8 33.25
L -244.5 33.25 -243.6 33.4 -242.1 33.4
Q -239.15 32.8 -237.55 31.05
L -237.5 31.05
Q -235.95 33.75 -232.5 34.65
L -232.2 34.25 -232.2 33.15
Q -233.15 29.65 -236.45 28.55
L -236.55 28.55
Q -237.2 26.5 -238.6 25.6
L -238.65 25.55
Q -238.6 25.45 -238.55 25.4
L -238.55 25.45 -217.9 25.45
Q -217.85 25.5 -217.85 25.55
L -217.9 25.6
Q -219.3 26.5 -219.95 28.55
L -220.05 28.55
Q -223.35 29.65 -224.3 33.15
L -224.3 34.25 -224 34.65
Q -220.55 33.75 -219 31.05
L -218.95 31.05
Q -217.35 32.8 -214.4 33.4
L -212.9 33.4 -212 33.25 -211.7 33.25
Q -210.45 32.6 -209.65 31.35
L -209.65 31.4
Q -207.75 33.05 -204.65 33.7
L -203.4 33.7
Q -202.25 33.55 -202.4 32.25
L -202.4 32.15 -203.55 30.8
Q -205 29.95 -207.1 29.55
L -207.9 29.55 -207.9 29.4 -208.2 29.4
Q -208.85 29.05 -209.45 29.55
L -209.45 29.65 -209.65 29.8 -209.65 28.55
Q -210.25 27.25 -212.2 27.55
L -213.4 27.55
Q -214.65 27.7 -214.75 28.95
L -214.75 30.05 -214.65 30.05 -214.65 30.15
Q -214.15 30.25 -213.9 30.05
L -213.85 30.05 -213.7 29.95
Q -213.2 29.4 -212.9 28.4
L -212.8 28.4
Q -211.45 28.2 -210.9 28.8
L -210.9 30.8 -210.95 30.8
Q -211.55 32.15 -213.15 32.4
L -213.15 32.5 -214.15 32.5 -214.15 32.4 -214.3 32.4
Q -217.5 32 -218.4 29.4
L -218.4 29.3 -218.6 29.3 -218.55 28.25 -218.4 28.25
Q -217.8 26.2 -215.8 25.45
L -180.6 25.45
Q -183.15 26.5 -184.95 28.05
L -188.55 31.4 -189.9 30.8 -191 30.8 -192.3 31.15 -192.3 31.2 -193.1 31.4 -193.15 31.5
Q -196.55 32.8 -198.6 35.6
L -198.6 35.7
Q -198.6 36.85 -197.55 37
L -193.85 36.85 -192.95 36.6 -192.65 36.6 -190.25 35.9 -190.25 36.05
Q -191.05 37.6 -191.35 39.7
L -191.35 41.7
Q -190.3 45.55 -185.95 46.1
L -185.95 46.2 -186.2 47.75 -186.2 49.35
Q -185.95 51.3 -184.6 52.3 -182.95 52.2 -182.75 50.55
L -182.75 49.1
Q -182.85 47.7 -183.4 46.95
L -181.5 46.85
Q -177.8 46.5 -177.15 43
L -177.15 41.65
Q -177.3 40.4 -177.95 39.6
L -177.95 39.45 -180.1 38.2 -180.15 38.1 -182.5 38.05
Q -184.1 38.25 -184.35 39.9
L -184.35 41.05 -184.25 41.05 -184.1 41.3
Q -182.85 40.85 -182.35 39.8
L -182.25 39.7 -181.15 39.6 -181.1 39.6 -178.9 40.8 -178.9 43.3
Q -179.75 44.45 -181.35 44.95
L -182.65 45.25 -182.65 45.35 -184.65 45.35 -184.65 45.25 -185.2 45.25
Q -189.15 44.8 -189.95 41.35
L -189.95 41.3 -190.05 41.3 -190.05 39.7 -189.95 39.7
Q -189.65 35.7 -188.05 33.15
L -187.35 32.25
Q -185.2 29.65 -182.25 27.75
L -182.85 29.65 -182.85 31.05
Q -182.75 32.8 -181.85 33.9
L -181.75 33.9
Q -181 34.85 -179.55 35.15
L -178.45 35.15
Q -177.5 34.5 -177.5 32.65
L -177.5 28.95 -178.05 26.45 -177.9 26.45 -177.15 26.2 -177.05 26.2 -173.95 25.45 -158.4 25.45 -158.6 25.6 -158.65 25.6
Q -162.95 27.1 -164.25 31.4
L -164.5 33 -165.75 33.1 -165.95 33.1
Q -169.05 34.5 -170.25 37.95
L -170.25 39.1 -169.7 39.8 -168.8 39.8 -168.7 39.75
Q -165.45 38.3 -163.9 35
L -163.85 35
Q -162.25 37.6 -158.4 38
L -159.9 43.8 -159.9 45.35 -159.75 46 -159.2 46.15
Q -156.7 45 -156.55 41.3
L -156.7 38
Q -154.8 37.55 -154.45 35.35
L -154.45 33.4
Q -154.8 32.55 -154.25 32.55
L -151.15 32.4
Q -148.8 32.1 -148.6 29.75 -149 29.45 -149.55 29.4
L -151.7 29.4
Q -154.8 29.45 -155.7 31.75
L -155.75 31.75 -157.3 31.25 -159.05 31.25
Q -159.9 31.6 -159.75 32.9
L -159.55 33.35
Q -158.45 33.4 -158.6 32.25
L -157.55 32.15 -157.55 32.25 -157.35 32.25
Q -155.9 32.55 -155.45 33.65
L -155.45 34.25 -155.3 34.25 -155.35 35.1 -155.45 35.1
Q -155.45 36.5 -156.55 36.7
L -158.75 36.85 -159.75 36.7 -159.75 36.6
Q -162.65 36.1 -163.4 33.4
L -163.4 31.8
Q -162.25 27.7 -157.65 26.75
L -157.55 26.75 -156.95 26.7 -156.7 26.6 -156.65 26.6 -154.45 26.15 -154.35 26 -153.55 25.85 -153.45 25.85 -151.35 25.35 -151.15 25.35
M -152.65 31.25
L -152.6 31.15 -150.6 30.85
Q -151 31.4 -151.9 31.6
L -154.45 31.65 -154.45 31.6 -154.7 31.4 -154.7 31.25 -152.65 31.25
M -157.95 42.5
L -157.95 42.55 -158.1 43.9 -158.1 44 -158.25 44.1 -157.95 39.9 -157.95 39.8 -157.35 38.3 -157.95 42.5
M -128.75 30.7
L -128.75 30.65
Q -126.9 30.7 -125.9 31.6 -126.1 32.25 -126.5 31.8
L -127.05 31.6
Q -128.25 31.3 -128.75 30.7
M -136.1 30.9
L -134.9 30.85 -134.9 31 -134.65 31 -136.8 31.45 -136.9 31.45 -137.8 31.6 -140.95 31.8 -140.95 31.75 -137.75 31.05 -136.1 31 -136.1 30.9
M -139.6 47.7
L -137.8 47.35 -137.8 47.25 -136.4 47.2 -136.4 47.35 -136.25 47.35
Q -136.65 47.85 -137.8 47.85
L -141.1 48.5
Q -140.65 47.85 -139.6 47.7
M -130.85 39.95
L -130.8 40.05
Q -129.55 42.2 -128.75 44.9 -128.6 45.65 -129 45.75
L -129.2 44.9 -129.2 44.75
Q -129.2 44 -129.6 43.4 -130.6 41.8 -130.85 39.95
M -141.7 69.75
L -141.6 69.75 -139.6 73.2 -139.6 73.35 -140.85 71.95 -141.7 69.75
M -143.35 58.25
Q -143.15 57 -142.2 56.3
L -143.2 59.2 -144.65 61.75 -143.35 58.25
M -158.3 51.9
L -158.1 51.9 -156.7 52.2
Q -157.35 52.7 -158.1 52.2
L -158.1 52.15 -160.15 52.2
Q -160.05 51.8 -159.3 51.8
L -159.15 51.9 -159.15 51.8 -158.3 51.75 -158.3 51.9
M -139.6 84.6
Q -139.25 83.85 -138.75 83.85 -139.6 85.9 -142.05 85.75
L -139.6 84.6
M -191 33.7
L -191.05 33.7
Q -193.15 34.6 -195.6 35.25 -194.45 34.15 -192.5 33.55
L -190.75 33.15
Q -189.4 32.75 -190.05 33.4
L -190.15 33.5 -191 33.7
M -185.2 46.85
Q -184.6 47.25 -184.5 48.35 -184.25 49.75 -185.2 50.1
L -185.2 46.85
M -166.8 36.3
Q -165.75 35.25 -164.85 34.85
L -167.95 37.95 -168.05 37.95 -168.05 38 -167.65 37.95 -167.9 38.3 -168.05 38.3 -168.55 38.55 -168.6 38.55
Q -169.55 38.65 -168.8 38.2
L -168.6 38.2 -166.8 36.3
M -179.55 27.3
L -179.55 28.8 -180.1 30.55
Q -180.25 31.4 -181 32
L -180.1 28.8 -180 27.3 -179.65 27.2 -179.55 27.3
M -236.45 29.55
L -236.4 29.55
Q -234.3 30.4 -234.1 32.75
L -234.25 32.75
Q -235.05 30.8 -236.45 29.55
M -208.8 30.45
L -208.8 30.4 -205.1 31.8
Q -204.05 32.25 -204.95 32.5
L -208.8 30.45
M -220.1 29.55
L -220.05 29.55
Q -221.45 30.8 -222.25 32.75
L -222.4 32.75
Q -222.2 30.4 -220.1 29.55
M -265.75 33.15
L -264 33.55
Q -262.05 34.15 -260.9 35.25 -263.35 34.6 -265.45 33.7
L -265.5 33.7 -266.35 33.5 -266.45 33.4
Q -267.1 32.75 -265.75 33.15
M -276.95 27.3
L -276.85 27.2 -276.5 27.3 -276.4 28.8 -275.5 32
Q -276.25 31.4 -276.4 30.55
L -276.95 28.8 -276.95 27.3
M -272 48.35
Q -271.9 47.25 -271.3 46.85
L -271.3 50.1
Q -272.25 49.75 -272 48.35
M -247.7 30.4
L -247.7 30.45 -251.55 32.5
Q -252.45 32.25 -251.4 31.8
L -247.7 30.4
M -314 30.4
L -314 30.45 -317.85 32.5
Q -318.75 32.25 -317.7 31.8
L -314 30.4
M -302.75 29.55
L -302.7 29.55
Q -300.6 30.4 -300.4 32.75
L -300.55 32.75
Q -301.35 30.8 -302.75 29.55
M -317.7 377.3
Q -318.75 376.85 -317.85 376.6
L -314 378.65 -314 378.7 -317.7 377.3
M -300.4 376.35
Q -300.6 378.7 -302.7 379.55
L -302.75 379.55
Q -301.35 378.3 -300.55 376.35
L -300.4 376.35
M -272 360.75
Q -272.25 359.35 -271.3 359
L -271.3 362.25
Q -271.9 361.85 -272 360.75
M -266.45 375.7
L -266.35 375.6 -265.5 375.4 -265.45 375.4
Q -263.35 374.5 -260.9 373.85 -262.05 374.95 -264 375.55
L -265.75 375.95
Q -267.1 376.35 -266.45 375.7
M -276.95 380.3
L -276.4 378.55
Q -276.25 377.7 -275.5 377.1
L -276.4 380.3 -276.5 381.8 -276.85 381.9 -276.95 381.8 -276.95 380.3
M -251.4 377.3
Q -252.45 376.85 -251.55 376.6
L -247.7 378.65 -247.7 378.7 -251.4 377.3
M -234.25 376.35
L -234.1 376.35
Q -234.3 378.7 -236.4 379.55
L -236.45 379.55
Q -235.05 378.3 -234.25 376.35
M -204.95 376.6
Q -204.05 376.85 -205.1 377.3
L -208.8 378.7 -208.8 378.65 -204.95 376.6
M -205.6 377.9
L -205.1 377.45
Q -204.65 377.6 -205.1 377.75
L -205.6 377.9
M -222.4 376.35
L -222.25 376.35
Q -221.45 378.3 -220.05 379.55
L -220.1 379.55
Q -222.2 378.7 -222.4 376.35
M -168.6 370.55
L -168.55 370.55 -168.05 370.8 -167.9 370.8 -167.65 371.15 -168.05 371.1 -168.05 371.15 -167.95 371.15 -164.85 374.25
Q -165.75 373.85 -166.8 372.8
L -168.6 370.9 -168.8 370.9
Q -169.55 370.45 -168.6 370.55
M -185.2 359
Q -184.25 359.35 -184.5 360.75 -184.6 361.85 -185.2 362.25
L -185.2 359
M -190.05 375.7
Q -189.4 376.35 -190.75 375.95
L -192.5 375.55
Q -194.45 374.95 -195.6 373.85 -193.15 374.5 -191.05 375.4
L -191 375.4 -190.15 375.6 -190.05 375.7
M -179.55 381.8
L -179.65 381.9 -180 381.8 -180.1 380.3 -181 377.1
Q -180.25 377.7 -180.1 378.55
L -179.55 380.3 -179.55 381.8
M -138.75 325.25
Q -139.25 325.25 -139.6 324.5
L -142.05 323.35
Q -139.6 323.2 -138.75 325.25
M -140.85 337.15
L -139.6 335.75 -139.6 335.9 -141.6 339.35 -141.7 339.35 -140.85 337.15
M -136.25 361.75
L -136.4 361.75 -136.4 361.9 -137.8 361.85 -137.8 361.75 -139.6 361.4
Q -140.65 361.25 -141.1 360.6
L -137.8 361.25
Q -136.65 361.25 -136.25 361.75
M -129.2 364.35
L -129.2 364.2 -129 363.35
Q -128.6 363.45 -128.75 364.2 -129.55 366.9 -130.8 369.05
L -130.85 369.15
Q -130.6 367.3 -129.6 365.7 -129.2 365.1 -129.2 364.35
M -144.65 347.35
L -143.2 349.9 -142.2 352.8
Q -143.15 352.1 -143.35 350.85
L -144.65 347.35
M -159.15 357.3
L -159.15 357.2 -159.3 357.3
Q -160.05 357.3 -160.15 356.9
L -158.1 356.95 -158.1 356.9
Q -157.35 356.4 -156.7 356.9
L -158.1 357.2 -158.3 357.2 -158.3 357.35 -159.15 357.3
M -157.95 369.3
L -157.95 369.2 -158.25 365 -158.1 365.1 -158.1 365.2 -157.95 366.55 -157.95 366.6 -157.35 370.8 -157.95 369.3
M -152.6 377.95
L -152.65 377.85 -154.7 377.85 -154.7 377.7 -154.45 377.5 -154.45 377.45 -151.9 377.5
Q -151 377.7 -150.6 378.25
L -152.6 377.95
M -128.75 378.45
L -128.75 378.4
Q -128.25 377.8 -127.05 377.5
L -126.5 377.3
Q -126.1 376.85 -125.9 377.5 -126.9 378.4 -128.75 378.45
M -140.95 377.35
L -140.95 377.3 -137.8 377.5 -136.9 377.65 -136.8 377.65 -134.65 378.1 -134.9 378.1 -134.9 378.25 -136.1 378.2 -136.1 378.1 -137.75 378.05 -140.95 377.35
M -360.45 28.8
L -361 30.55
Q -361.15 31.4 -361.9 32
L -361 28.8 -360.9 27.3 -360.55 27.2 -360.45 27.3 -360.45 28.8
M -330.55 30.45
L -330.55 30.4 -326.85 31.8
Q -325.8 32.25 -326.7 32.5
L -330.55 30.45
M -341.85 29.55
L -341.8 29.55
Q -343.2 30.8 -344 32.75
L -344.15 32.75
Q -343.95 30.4 -341.85 29.55
M -389.7 30.45
L -389.7 30.4 -386 31.8
Q -384.95 32.25 -385.85 32.5
L -389.7 30.45
M -401 29.55
L -400.95 29.55
Q -402.35 30.8 -403.15 32.75
L -403.3 32.75
Q -403.1 30.4 -401 29.55
M -371.65 33.15
Q -370.3 32.75 -370.95 33.4
L -371.05 33.5 -371.9 33.7 -371.95 33.7
Q -374.05 34.6 -376.5 35.25 -375.35 34.15 -373.4 33.55
L -371.65 33.15
M -366.1 46.85
Q -365.5 47.25 -365.4 48.35 -365.15 49.75 -366.1 50.1
L -366.1 46.85
M -426.4 30.4
L -426.4 30.45 -430.25 32.5
Q -431.15 32.25 -430.1 31.8
L -426.4 30.4
M -445.05 33.5
L -445.15 33.4
Q -445.8 32.75 -444.45 33.15
L -442.7 33.55
Q -440.75 34.15 -439.6 35.25 -442.05 34.6 -444.15 33.7
L -444.2 33.7 -445.05 33.5
M -415.1 29.55
Q -415.05 29.55 -415.05 29.6 -413 30.45 -412.8 32.75
L -412.95 32.75
Q -413.7 30.85 -415.05 29.65 -415.1 29.6 -415.15 29.55
L -415.1 29.55
M -473.75 34.85
Q -472.85 35.25 -471.8 36.3
L -470 38.2 -469.8 38.2
Q -469.05 38.65 -470 38.55
L -470.05 38.55 -470.55 38.3 -470.7 38.3 -470.95 37.95 -470.55 38 -470.55 37.95 -470.65 37.95 -473.75 34.85
M -485.95 31.25
L -483.9 31.25 -483.9 31.4 -484.15 31.6 -484.15 31.65 -486.7 31.6
Q -487.6 31.4 -488 30.85
L -486 31.15 -485.95 31.25
M -480.65 42.55
L -480.65 42.5 -481.25 38.3 -480.65 39.8 -480.65 39.9 -480.35 44.1 -480.5 44 -480.5 43.9 -480.65 42.55
M -455.55 27.2
L -455.2 27.3 -455.1 28.8 -454.2 32
Q -454.95 31.4 -455.1 30.55
L -455.65 28.8 -455.65 27.3 -455.55 27.2
M -450.7 48.35
Q -450.6 47.25 -450 46.85
L -450 50.1
Q -450.95 49.75 -450.7 48.35
M -480.3 51.9
L -480.3 51.75 -479.45 51.8 -479.45 51.9 -479.3 51.8
Q -478.55 51.8 -478.45 52.2
L -480.5 52.15 -480.5 52.2
Q -481.25 52.7 -481.9 52.2
L -480.5 51.9 -480.3 51.9
M -509.85 30.65
L -509.85 30.7
Q -510.35 31.3 -511.55 31.6
L -512.1 31.8
Q -512.5 32.25 -512.7 31.6 -511.7 30.7 -509.85 30.65
M -507.8 40.05
L -507.75 39.95
Q -508 41.8 -509 43.4 -509.4 44 -509.4 44.75
L -509.4 44.9 -509.6 45.75
Q -510 45.65 -509.85 44.9 -509.05 42.2 -507.8 40.05
M -503.7 30.85
L -502.5 30.9 -502.5 31 -500.85 31.05 -497.65 31.75 -497.65 31.8 -500.8 31.6 -501.7 31.45 -501.8 31.45 -503.95 31 -503.7 31 -503.7 30.85
M -502.2 47.35
L -502.2 47.2 -500.8 47.25 -500.8 47.35 -499 47.7
Q -497.95 47.85 -497.5 48.5
L -500.8 47.85
Q -501.95 47.85 -502.35 47.35
L -502.2 47.35
M -495.25 58.25
L -493.95 61.75 -495.4 59.2 -496.4 56.3
Q -495.45 57 -495.25 58.25
M -497 69.75
L -496.9 69.75 -497.75 71.95 -499 73.35 -499 73.2 -497 69.75
M -499.85 83.85
Q -499.35 83.85 -499 84.6
L -496.55 85.75
Q -499 85.9 -499.85 83.85
M -496.55 323.35
L -499 324.5
Q -499.35 325.25 -499.85 325.25 -499 323.2 -496.55 323.35
M -499 335.9
L -499 335.75 -497.75 337.15 -496.9 339.35 -497 339.35 -499 335.9
M -498.25 338.45
L -498.35 338.1
Q -497.6 339.35 -498.25 338.45
M -495.4 349.9
L -493.95 347.35 -495.25 350.85
Q -495.45 352.1 -496.4 352.8
L -495.4 349.9
M -500.8 361.75
L -500.8 361.85 -502.2 361.9 -502.2 361.75 -502.35 361.75
Q -501.95 361.25 -500.8 361.25
L -497.5 360.6
Q -497.95 361.25 -499 361.4
L -500.8 361.75
M -509.6 363.35
L -509.4 364.2 -509.4 364.35
Q -509.4 365.1 -509 365.7 -508 367.3 -507.75 369.15
L -507.8 369.05
Q -509.05 366.9 -509.85 364.2 -510 363.45 -509.6 363.35
M -509.85 378.4
L -509.85 378.45
Q -511.7 378.4 -512.7 377.5 -512.5 376.85 -512.1 377.3
L -511.55 377.5
Q -510.35 377.8 -509.85 378.4
M -488 378.25
Q -487.6 377.7 -486.7 377.5
L -484.15 377.45 -484.15 377.5 -483.9 377.7 -483.9 377.85 -485.95 377.85 -486 377.95 -488 378.25
M -497.65 377.3
L -497.65 377.35 -500.85 378.05 -502.5 378.1 -502.5 378.2 -503.7 378.25 -503.7 378.1 -503.95 378.1 -501.8 377.65 -501.7 377.65 -500.8 377.5 -497.65 377.3
M -450 359
L -450 362.25
Q -450.6 361.85 -450.7 360.75 -450.95 359.35 -450 359
M -480.5 356.9
L -480.5 356.95 -478.45 356.9
Q -478.55 357.3 -479.3 357.3
L -479.45 357.2 -479.45 357.3 -480.3 357.35 -480.3 357.2 -480.5 357.2 -481.9 356.9
Q -481.25 356.4 -480.5 356.9
M -480.65 366.6
L -480.65 366.55 -480.5 365.2 -480.5 365.1 -480.35 365 -480.65 369.2 -480.65 369.3 -481.25 370.8 -480.65 366.6
M -470.05 370.55
L -470 370.55
Q -469.05 370.45 -469.8 370.9
L -470 370.9 -471.8 372.8
Q -472.85 373.85 -473.75 374.25
L -470.65 371.15 -470.55 371.15 -470.55 371.1 -470.95 371.15 -470.7 370.8 -470.55 370.8 -470.05 370.55
M -455.1 380.3
L -455.2 381.8 -455.55 381.9 -455.65 381.8 -455.65 380.3 -455.1 378.55
Q -454.95 377.7 -454.2 377.1
L -455.1 380.3
M -426.4 378.65
L -426.4 378.7 -430.1 377.3
Q -431.15 376.85 -430.25 376.6
L -426.4 378.65
M -445.05 375.6
L -444.2 375.4 -444.15 375.4
Q -442.05 374.5 -439.6 373.85 -440.75 374.95 -442.7 375.55
L -444.45 375.95
Q -445.8 376.35 -445.15 375.7
L -445.05 375.6
M -412.95 376.35
L -412.8 376.35
Q -413 378.65 -415.05 379.55
L -415.15 379.55
Q -415.1 379.5 -415.05 379.45 -413.7 378.25 -412.95 376.35
M -366.1 359
Q -365.15 359.35 -365.4 360.75 -365.5 361.85 -366.1 362.25
L -366.1 359
M -385.85 376.6
Q -384.95 376.85 -386 377.3
L -389.7 378.7 -389.7 378.65 -385.85 376.6
M -403.3 376.35
L -403.15 376.35
Q -402.35 378.3 -400.95 379.55
L -401 379.55
Q -403.1 378.7 -403.3 376.35
M -371.9 375.4
L -371.05 375.6 -370.95 375.7
Q -370.3 376.35 -371.65 375.95
L -373.4 375.55
Q -375.35 374.95 -376.5 373.85 -374.05 374.5 -371.95 375.4
L -371.9 375.4
M -360.45 381.8
L -360.55 381.9 -360.9 381.8 -361 380.3 -361.9 377.1
Q -361.15 377.7 -361 378.55
L -360.45 380.3 -360.45 381.8
M -326.7 376.6
Q -325.8 376.85 -326.85 377.3
L -330.55 378.7 -330.55 378.65 -326.7 376.6
M -344.15 376.35
L -344 376.35
Q -343.2 378.3 -341.8 379.55
L -341.85 379.55
Q -343.95 378.7 -344.15 376.35
M -308.65 376.7
Q -308.47734375 376.7169921875 -308.3 376.75 -308.4 376.7 -308.55 376.7
L -308.65 376.7 Z"/>

<path fill="#FFFFFF" stroke="none" d="
M 61.5 88.45
L 61.55 89.35 61.75 89.45 61.85 89.35 61.85 88.45 61.5 87.3
Q 61.35 86.8 60.9 86.4
L 61.5 88.45
M 71.25 82.7
L 71.45 82.7 71.25 82.5 71.2 82.5 70.85 82.3
Q 70.15 82.2 70.7 82.55
L 70.85 82.55 71.9 83.75
Q 72.65 84.35 73.2 84.6
L 71.25 82.7
M 77.4 78.9
L 77.3 78.8 77.5 81.5 77.5 81.55 77.85 82.5 77.4 78.9
M 43.9 85.55
Q 43.5 85.9 44.3 85.7
L 45.4 85.4
Q 46.6 85 47.35 84.35 45.8 84.8 44.5 85.35
L 43.95 85.5 43.9 85.55
M 40.8 77.1
L 40.8 75
Q 40.2 75.25 40.35 76.15 40.4 76.9 40.8 77.1
M 55.15 85.5
L 54.6 85.35
Q 53.3 84.8 51.75 84.35 52.5 85 53.7 85.4
L 54.8 85.7
Q 55.6 85.9 55.2 85.55
L 55.15 85.5
M 58.75 76.15
Q 58.9 75.25 58.3 75
L 58.3 77.1
Q 58.7 76.9 58.75 76.15
M 76.65 73.95
L 76.8 73.95 77.25 74 77.25 73.95 77.4 73.95 78.25 73.75
Q 77.85 73.4 77.4 73.75
L 77.4 73.8 76.1 73.75
Q 76.2 73.95 76.65 73.95
M 37.25 88.45
L 37.25 89.35 37.35 89.45 37.55 89.35 37.6 88.45 38.2 86.4
Q 37.75 86.8 37.6 87.3
L 37.25 88.45
M 27.9 82.5
L 27.85 82.5 27.65 82.7 27.85 82.7 25.9 84.6
Q 26.45 84.35 27.2 83.75
L 28.25 82.55 28.4 82.55
Q 28.95 82.2 28.25 82.3
L 27.9 82.5
M 21.8 78.8
L 21.7 78.9 21.25 82.5 21.6 81.55 21.6 81.5 21.8 78.8
M 19.6 86.9
L 19.6 86.8 19.4 86.7 19.4 86.6 17.85 86.7
Q 17.3 86.8 17.05 87.1
L 18.25 86.9 19.6 86.9
M 3.3 87.2
Q 3 86.9 2.3 86.7
L 1.9 86.55
Q 1.6 86.2 1.5 86.7 2.15 87.2 3.3 87.2
M 7.9 87
L 8.95 86.95 10.95 86.55 8.3 86.75 7.05 87 7.15 87 7.15 87.1 7.9 87.1 7.9 87
M 3.4 77.8
Q 3.2 77.9 3.3 78.3 3.8 79.95 4.55 81.35
L 4.6 81.4
Q 4.4 80.2 3.8 79.2 3.55 78.9 3.55 78.4
L 3.55 78.3 3.4 77.8
M 8.1 76.8
L 8.1 76.9 8.95 76.9 8.95 76.8 10.1 76.55
Q 10.75 76.5 11.05 76
L 8.95 76.5
Q 8.3 76.5 8.05 76.8
L 8.1 76.8
M 11.7 71.15
Q 12.3 70.75 12.45 69.95
L 13.3 67.8 12.3 69.35 11.7 71.15
M 10.1 60.45
L 10.1 60.6 11.3 62.7 11.35 62.7 10.9 61.3 10.1 60.45
M 9.55 53.9
Q 9.9 53.9 10.1 53.45
L 11.65 52.7
Q 10.1 52.65 9.55 53.9
M 21.7 73.95
L 21.85 73.95 21.85 74 22.3 73.95 22.45 73.95
Q 22.9 73.95 23 73.75
L 21.7 73.8 21.7 73.75
Q 21.25 73.4 20.85 73.75
L 21.7 73.95
M 95.8 87.2
Q 96.95 87.2 97.6 86.7 97.5 86.2 97.2 86.55
L 96.8 86.7
Q 96.1 86.9 95.8 87.2
M 91.95 87
L 92.05 87 90.8 86.75 88.15 86.55 90.15 86.95 91.2 87 91.2 87.1 91.95 87.1 91.95 87
M 82.05 87.1
Q 81.8 86.8 81.25 86.7
L 79.7 86.6 79.7 86.7 79.5 86.8 79.5 86.9 80.85 86.9 82.05 87.1
M 90.15 76.8
L 90.15 76.9 91 76.9 91 76.8 91.05 76.8
Q 90.8 76.5 90.15 76.5
L 88.05 76
Q 88.35 76.5 89 76.55
L 90.15 76.8
M 95.55 78.3
L 95.55 78.4
Q 95.55 78.9 95.3 79.2 94.7 80.2 94.5 81.4
L 94.55 81.35
Q 95.3 79.95 95.8 78.3 95.9 77.9 95.7 77.8
L 95.55 78.3
M 87.4 71.15
L 86.8 69.35 85.8 67.8 86.65 69.95
Q 86.8 70.75 87.4 71.15
M 89 60.6
L 89 60.45 88.2 61.3 87.75 62.7 87.8 62.7 89 60.6
M 89 53.45
Q 89.2 53.9 89.55 53.9 89 52.65 87.45 52.7
L 89 53.45
M 10.1 39.75
Q 9.9 39.3 9.55 39.3 10.1 40.55 11.65 40.5
L 10.1 39.75
M 11.35 30.5
L 11.3 30.5 10.1 32.6 10.1 32.75 10.9 31.9 11.35 30.5
M 11.7 22.05
L 12.3 23.85 13.3 25.4 12.45 23.25
Q 12.3 22.45 11.7 22.05
M 8.95 16.4
L 8.95 16.3 8.1 16.3 8.1 16.4 8.05 16.4
Q 8.3 16.7 8.95 16.7
L 11.05 17.2
Q 10.75 16.7 10.1 16.65
L 8.95 16.4
M 4.6 11.8
L 4.55 11.85
Q 3.8 13.25 3.3 14.9 3.2 15.3 3.4 15.4
L 3.55 14.9 3.55 14.8
Q 3.55 14.3 3.8 14 4.4 13 4.6 11.8
M 1.9 6.65
L 2.3 6.5
Q 3 6.3 3.3 6 2.15 6 1.5 6.5 1.6 7 1.9 6.65
M 7.9 6.1
L 7.15 6.1 7.15 6.2 7.05 6.2 8.3 6.45 10.95 6.65 8.95 6.25 7.9 6.2 7.9 6.1
M 19.6 6.4
L 19.6 6.3 18.25 6.3 17.05 6.1
Q 17.3 6.4 17.85 6.5
L 19.4 6.6 19.4 6.5 19.6 6.4
M 22.45 19.25
L 22.3 19.25 21.85 19.2 21.85 19.25 21.7 19.25 20.85 19.45
Q 21.25 19.8 21.7 19.45
L 21.7 19.4 23 19.45
Q 22.9 19.25 22.45 19.25
M 28.4 10.65
L 28.25 10.65 27.2 9.45
Q 26.45 8.85 25.9 8.6
L 27.85 10.5 27.65 10.5 27.85 10.7 27.9 10.7 28.25 10.9
Q 28.95 11 28.4 10.65
M 21.6 11.7
L 21.6 11.65 21.25 10.7 21.7 14.3 21.8 14.4 21.6 11.7
M 37.35 3.75
L 37.25 3.85 37.25 4.75 37.6 5.9
Q 37.75 6.4 38.2 6.8
L 37.6 4.75 37.55 3.85 37.35 3.75
M 58.3 18.2
Q 58.9 17.95 58.75 17.05 58.7 16.3 58.3 16.1
L 58.3 18.2
M 40.8 18.2
L 40.8 16.1
Q 40.4 16.3 40.35 17.05 40.2 17.95 40.8 18.2
M 43.9 7.65
L 43.95 7.7 44.5 7.85
Q 45.8 8.4 47.35 8.85 46.6 8.2 45.4 7.8
L 44.3 7.5
Q 43.5 7.3 43.9 7.65
M 55.15 7.7
L 55.2 7.65
Q 55.6 7.3 54.8 7.5
L 53.7 7.8
Q 52.5 8.2 51.75 8.85 53.3 8.4 54.6 7.85
L 55.15 7.7
M 77.4 19.25
L 77.25 19.25 77.25 19.2 76.8 19.25 76.65 19.25
Q 76.2 19.25 76.1 19.45
L 77.4 19.4 77.4 19.45
Q 77.85 19.8 78.25 19.45
L 77.4 19.25
M 61.85 3.85
L 61.75 3.75 61.55 3.85 61.5 4.75 60.9 6.8
Q 61.35 6.4 61.5 5.9
L 61.85 4.75 61.85 3.85
M 77.5 11.65
L 77.5 11.7 77.3 14.4 77.4 14.3 77.85 10.7 77.5 11.65
M 71.45 10.5
L 71.25 10.5 73.2 8.6
Q 72.65 8.85 71.9 9.45
L 70.85 10.65 70.7 10.65
Q 70.15 11 70.85 10.9
L 71.2 10.7 71.25 10.7 71.45 10.5
M 89.55 39.3
Q 89.2 39.3 89 39.75
L 87.45 40.5
Q 89 40.55 89.55 39.3
M 87.8 30.5
L 87.75 30.5 88.2 31.9 89 32.75 89 32.6 87.8 30.5
M 86.8 23.85
L 87.4 22.05
Q 86.8 22.45 86.65 23.25
L 85.8 25.4 86.8 23.85
M 90.15 16.3
L 90.15 16.4 89 16.65
Q 88.35 16.7 88.05 17.2
L 90.15 16.7
Q 90.8 16.7 91.05 16.4
L 91 16.4 91 16.3 90.15 16.3
M 81.25 6.5
Q 81.8 6.4 82.05 6.1
L 80.85 6.3 79.5 6.3 79.5 6.4 79.7 6.5 79.7 6.6 81.25 6.5
M 97.2 6.65
Q 97.5 7 97.6 6.5 96.95 6 95.8 6 96.1 6.3 96.8 6.5
L 97.2 6.65
M 94.55 11.85
L 94.5 11.8
Q 94.7 13 95.3 14 95.55 14.3 95.55 14.8
L 95.55 14.9 95.7 15.4
Q 95.9 15.3 95.8 14.9 95.3 13.25 94.55 11.85
M 91.95 6.1
L 91.2 6.1 91.2 6.2 90.15 6.25 88.15 6.65 90.8 6.45 92.05 6.2 91.95 6.2 91.95 6.1
M -344 376.35
L -344.15 376.35
Q -343.95 378.7 -341.85 379.55
L -341.8 379.55
Q -343.2 378.3 -344 376.35
M -326.85 377.3
Q -325.8 376.85 -326.7 376.6
L -330.55 378.65 -330.55 378.7 -326.85 377.3
M -360.55 381.9
L -360.45 381.8 -360.45 380.3 -361 378.55
Q -361.15 377.7 -361.9 377.1
L -361 380.3 -360.9 381.8 -360.55 381.9
M -371.05 375.6
L -371.9 375.4 -371.95 375.4
Q -374.05 374.5 -376.5 373.85 -375.35 374.95 -373.4 375.55
L -371.65 375.95
Q -370.3 376.35 -370.95 375.7
L -371.05 375.6
M -403.15 376.35
L -403.3 376.35
Q -403.1 378.7 -401 379.55
L -400.95 379.55
Q -402.35 378.3 -403.15 376.35
M -386 377.3
Q -384.95 376.85 -385.85 376.6
L -389.7 378.65 -389.7 378.7 -386 377.3
M -365.4 360.75
Q -365.15 359.35 -366.1 359
L -366.1 362.25
Q -365.5 361.85 -365.4 360.75
M -412.8 376.35
L -412.95 376.35
Q -413.7 378.25 -415.05 379.45 -415.1 379.5 -415.15 379.55
L -415.05 379.55
Q -413 378.65 -412.8 376.35
M -444.2 375.4
L -445.05 375.6 -445.15 375.7
Q -445.8 376.35 -444.45 375.95
L -442.7 375.55
Q -440.75 374.95 -439.6 373.85 -442.05 374.5 -444.15 375.4
L -444.2 375.4
M -426.4 378.7
L -426.4 378.65 -430.25 376.6
Q -431.15 376.85 -430.1 377.3
L -426.4 378.7
M -455.2 381.8
L -455.1 380.3 -454.2 377.1
Q -454.95 377.7 -455.1 378.55
L -455.65 380.3 -455.65 381.8 -455.55 381.9 -455.2 381.8
M -470 370.55
L -470.05 370.55 -470.55 370.8 -470.7 370.8 -470.95 371.15 -470.55 371.1 -470.55 371.15 -470.65 371.15 -473.75 374.25
Q -472.85 373.85 -471.8 372.8
L -470 370.9 -469.8 370.9
Q -469.05 370.45 -470 370.55
M -480.5 356.95
L -480.5 356.9
Q -481.25 356.4 -481.9 356.9
L -480.5 357.2 -480.3 357.2 -480.3 357.35 -479.45 357.3 -479.45 357.2 -479.3 357.3
Q -478.55 357.3 -478.45 356.9
L -480.5 356.95
M -450 362.25
L -450 359
Q -450.95 359.35 -450.7 360.75 -450.6 361.85 -450 362.25
M -497.65 377.35
L -497.65 377.3 -500.8 377.5 -501.7 377.65 -501.8 377.65 -503.95 378.1 -503.7 378.1 -503.7 378.25 -502.5 378.2 -502.5 378.1 -500.85 378.05 -497.65 377.35
M -486.7 377.5
Q -487.6 377.7 -488 378.25
L -486 377.95 -485.95 377.85 -483.9 377.85 -483.9 377.7 -484.15 377.5 -484.15 377.45 -486.7 377.5
M -509.85 378.45
L -509.85 378.4
Q -510.35 377.8 -511.55 377.5
L -512.1 377.3
Q -512.5 376.85 -512.7 377.5 -511.7 378.4 -509.85 378.45
M -509.4 364.2
L -509.6 363.35
Q -510 363.45 -509.85 364.2 -509.05 366.9 -507.8 369.05
L -507.75 369.15
Q -508 367.3 -509 365.7 -509.4 365.1 -509.4 364.35
L -509.4 364.2
M -500.8 361.85
L -500.8 361.75 -499 361.4
Q -497.95 361.25 -497.5 360.6
L -500.8 361.25
Q -501.95 361.25 -502.35 361.75
L -502.2 361.75 -502.2 361.9 -500.8 361.85
M -493.95 347.35
L -495.4 349.9 -496.4 352.8
Q -495.45 352.1 -495.25 350.85
L -493.95 347.35
M -499 335.75
L -499 335.9 -497 339.35 -496.9 339.35 -497.75 337.15 -499 335.75
M -499 324.5
L -496.55 323.35
Q -499 323.2 -499.85 325.25 -499.35 325.25 -499 324.5
M -499 84.6
Q -499.35 83.85 -499.85 83.85 -499 85.9 -496.55 85.75
L -499 84.6
M -496.9 69.75
L -497 69.75 -499 73.2 -499 73.35 -497.75 71.95 -496.9 69.75
M -493.95 61.75
L -495.25 58.25
Q -495.45 57 -496.4 56.3
L -495.4 59.2 -493.95 61.75
M -502.2 47.2
L -502.2 47.35 -502.35 47.35
Q -501.95 47.85 -500.8 47.85
L -497.5 48.5
Q -497.95 47.85 -499 47.7
L -500.8 47.35 -500.8 47.25 -502.2 47.2
M -502.5 30.9
L -503.7 30.85 -503.7 31 -503.95 31 -501.8 31.45 -501.7 31.45 -500.8 31.6 -497.65 31.8 -497.65 31.75 -500.85 31.05 -502.5 31 -502.5 30.9
M -507.75 39.95
L -507.8 40.05
Q -509.05 42.2 -509.85 44.9 -510 45.65 -509.6 45.75
L -509.4 44.9 -509.4 44.75
Q -509.4 44 -509 43.4 -508 41.8 -507.75 39.95
M -509.85 30.7
L -509.85 30.65
Q -511.7 30.7 -512.7 31.6 -512.5 32.25 -512.1 31.8
L -511.55 31.6
Q -510.35 31.3 -509.85 30.7
M -480.3 51.75
L -480.3 51.9 -480.5 51.9 -481.9 52.2
Q -481.25 52.7 -480.5 52.2
L -480.5 52.15 -478.45 52.2
Q -478.55 51.8 -479.3 51.8
L -479.45 51.9 -479.45 51.8 -480.3 51.75
M -450 46.85
Q -450.6 47.25 -450.7 48.35 -450.95 49.75 -450 50.1
L -450 46.85
M -455.2 27.3
L -455.55 27.2 -455.65 27.3 -455.65 28.8 -455.1 30.55
Q -454.95 31.4 -454.2 32
L -455.1 28.8 -455.2 27.3
M -480.65 42.5
L -480.65 42.55 -480.5 43.9 -480.5 44 -480.35 44.1 -480.65 39.9 -480.65 39.8 -481.25 38.3 -480.65 42.5
M -483.9 31.25
L -485.95 31.25 -486 31.15 -488 30.85
Q -487.6 31.4 -486.7 31.6
L -484.15 31.65 -484.15 31.6 -483.9 31.4 -483.9 31.25
M -471.8 36.3
Q -472.85 35.25 -473.75 34.85
L -470.65 37.95 -470.55 37.95 -470.55 38 -470.95 37.95 -470.7 38.3 -470.55 38.3 -470.05 38.55 -470 38.55
Q -469.05 38.65 -469.8 38.2
L -470 38.2 -471.8 36.3
M -415.05 29.6
Q -415.05 29.55 -415.1 29.55
L -415.15 29.55
Q -415.1 29.6 -415.05 29.65 -413.7 30.85 -412.95 32.75
L -412.8 32.75
Q -413 30.45 -415.05 29.6
M -445.15 33.4
L -445.05 33.5 -444.2 33.7 -444.15 33.7
Q -442.05 34.6 -439.6 35.25 -440.75 34.15 -442.7 33.55
L -444.45 33.15
Q -445.8 32.75 -445.15 33.4
M -426.4 30.45
L -426.4 30.4 -430.1 31.8
Q -431.15 32.25 -430.25 32.5
L -426.4 30.45
M -365.4 48.35
Q -365.5 47.25 -366.1 46.85
L -366.1 50.1
Q -365.15 49.75 -365.4 48.35
M -370.95 33.4
Q -370.3 32.75 -371.65 33.15
L -373.4 33.55
Q -375.35 34.15 -376.5 35.25 -374.05 34.6 -371.95 33.7
L -371.9 33.7 -371.05 33.5 -370.95 33.4
M -400.95 29.55
L -401 29.55
Q -403.1 30.4 -403.3 32.75
L -403.15 32.75
Q -402.35 30.8 -400.95 29.55
M -389.7 30.4
L -389.7 30.45 -385.85 32.5
Q -384.95 32.25 -386 31.8
L -389.7 30.4
M -341.8 29.55
L -341.85 29.55
Q -343.95 30.4 -344.15 32.75
L -344 32.75
Q -343.2 30.8 -341.8 29.55
M -330.55 30.4
L -330.55 30.45 -326.7 32.5
Q -325.8 32.25 -326.85 31.8
L -330.55 30.4
M -361 30.55
L -360.45 28.8 -360.45 27.3 -360.55 27.2 -360.9 27.3 -361 28.8 -361.9 32
Q -361.15 31.4 -361 30.55
M -140.95 377.3
L -140.95 377.35 -137.75 378.05 -136.1 378.1 -136.1 378.2 -134.9 378.25 -134.9 378.1 -134.65 378.1 -136.8 377.65 -136.9 377.65 -137.8 377.5 -140.95 377.3
M -128.75 378.4
L -128.75 378.45
Q -126.9 378.4 -125.9 377.5 -126.1 376.85 -126.5 377.3
L -127.05 377.5
Q -128.25 377.8 -128.75 378.4
M -152.65 377.85
L -152.6 377.95 -150.6 378.25
Q -151 377.7 -151.9 377.5
L -154.45 377.45 -154.45 377.5 -154.7 377.7 -154.7 377.85 -152.65 377.85
M -157.95 369.2
L -157.95 369.3 -157.35 370.8 -157.95 366.6 -157.95 366.55 -158.1 365.2 -158.1 365.1 -158.25 365 -157.95 369.2
M -159.15 357.2
L -159.15 357.3 -158.3 357.35 -158.3 357.2 -158.1 357.2 -156.7 356.9
Q -157.35 356.4 -158.1 356.9
L -158.1 356.95 -160.15 356.9
Q -160.05 357.3 -159.3 357.3
L -159.15 357.2
M -143.2 349.9
L -144.65 347.35 -143.35 350.85
Q -143.15 352.1 -142.2 352.8
L -143.2 349.9
M -129.2 364.2
L -129.2 364.35
Q -129.2 365.1 -129.6 365.7 -130.6 367.3 -130.85 369.15
L -130.8 369.05
Q -129.55 366.9 -128.75 364.2 -128.6 363.45 -129 363.35
L -129.2 364.2
M -136.4 361.75
L -136.25 361.75
Q -136.65 361.25 -137.8 361.25
L -141.1 360.6
Q -140.65 361.25 -139.6 361.4
L -137.8 361.75 -137.8 361.85 -136.4 361.9 -136.4 361.75
M -139.6 335.75
L -140.85 337.15 -141.7 339.35 -141.6 339.35 -139.6 335.9 -139.6 335.75
M -139.6 324.5
Q -139.25 325.25 -138.75 325.25 -139.6 323.2 -142.05 323.35
L -139.6 324.5
M -179.65 381.9
L -179.55 381.8 -179.55 380.3 -180.1 378.55
Q -180.25 377.7 -181 377.1
L -180.1 380.3 -180 381.8 -179.65 381.9
M -190.75 375.95
Q -189.4 376.35 -190.05 375.7
L -190.15 375.6 -191 375.4 -191.05 375.4
Q -193.15 374.5 -195.6 373.85 -194.45 374.95 -192.5 375.55
L -190.75 375.95
M -184.5 360.75
Q -184.25 359.35 -185.2 359
L -185.2 362.25
Q -184.6 361.85 -184.5 360.75
M -168.55 370.55
L -168.6 370.55
Q -169.55 370.45 -168.8 370.9
L -168.6 370.9 -166.8 372.8
Q -165.75 373.85 -164.85 374.25
L -167.95 371.15 -168.05 371.15 -168.05 371.1 -167.65 371.15 -167.9 370.8 -168.05 370.8 -168.55 370.55
M -222.25 376.35
L -222.4 376.35
Q -222.2 378.7 -220.1 379.55
L -220.05 379.55
Q -221.45 378.3 -222.25 376.35
M -205.1 377.3
Q -204.05 376.85 -204.95 376.6
L -208.8 378.65 -208.8 378.7 -205.1 377.3
M -234.1 376.35
L -234.25 376.35
Q -235.05 378.3 -236.45 379.55
L -236.4 379.55
Q -234.3 378.7 -234.1 376.35
M -251.55 376.6
Q -252.45 376.85 -251.4 377.3
L -247.7 378.7 -247.7 378.65 -251.55 376.6
M -276.4 378.55
L -276.95 380.3 -276.95 381.8 -276.85 381.9 -276.5 381.8 -276.4 380.3 -275.5 377.1
Q -276.25 377.7 -276.4 378.55
M -266.35 375.6
L -266.45 375.7
Q -267.1 376.35 -265.75 375.95
L -264 375.55
Q -262.05 374.95 -260.9 373.85 -263.35 374.5 -265.45 375.4
L -265.5 375.4 -266.35 375.6
M -271.3 359
Q -272.25 359.35 -272 360.75 -271.9 361.85 -271.3 362.25
L -271.3 359
M -302.7 379.55
Q -300.6 378.7 -300.4 376.35
L -300.55 376.35
Q -301.35 378.3 -302.75 379.55
L -302.7 379.55
M -317.85 376.6
Q -318.75 376.85 -317.7 377.3
L -314 378.7 -314 378.65 -317.85 376.6
M -302.7 29.55
L -302.75 29.55
Q -301.35 30.8 -300.55 32.75
L -300.4 32.75
Q -300.6 30.4 -302.7 29.55
M -314 30.45
L -314 30.4 -317.7 31.8
Q -318.75 32.25 -317.85 32.5
L -314 30.45
M -247.7 30.45
L -247.7 30.4 -251.4 31.8
Q -252.45 32.25 -251.55 32.5
L -247.7 30.45
M -276.85 27.2
L -276.95 27.3 -276.95 28.8 -276.4 30.55
Q -276.25 31.4 -275.5 32
L -276.4 28.8 -276.5 27.3 -276.85 27.2
M -264 33.55
L -265.75 33.15
Q -267.1 32.75 -266.45 33.4
L -266.35 33.5 -265.5 33.7 -265.45 33.7
Q -263.35 34.6 -260.9 35.25 -262.05 34.15 -264 33.55
M -220.05 29.55
L -220.1 29.55
Q -222.2 30.4 -222.4 32.75
L -222.25 32.75
Q -221.45 30.8 -220.05 29.55
M -208.8 30.4
L -208.8 30.45 -204.95 32.5
Q -204.05 32.25 -205.1 31.8
L -208.8 30.4
M -236.4 29.55
L -236.45 29.55
Q -235.05 30.8 -234.25 32.75
L -234.1 32.75
Q -234.3 30.4 -236.4 29.55
M -179.55 28.8
L -179.55 27.3 -179.65 27.2 -180 27.3 -180.1 28.8 -181 32
Q -180.25 31.4 -180.1 30.55
L -179.55 28.8
M -164.85 34.85
Q -165.75 35.25 -166.8 36.3
L -168.6 38.2 -168.8 38.2
Q -169.55 38.65 -168.6 38.55
L -168.55 38.55 -168.05 38.3 -167.9 38.3 -167.65 37.95 -168.05 38 -168.05 37.95 -167.95 37.95 -164.85 34.85
M -191.05 33.7
L -191 33.7 -190.15 33.5 -190.05 33.4
Q -189.4 32.75 -190.75 33.15
L -192.5 33.55
Q -194.45 34.15 -195.6 35.25 -193.15 34.6 -191.05 33.7
M -138.75 83.85
Q -139.25 83.85 -139.6 84.6
L -142.05 85.75
Q -139.6 85.9 -138.75 83.85
M -158.1 51.9
L -158.3 51.9 -158.3 51.75 -159.15 51.8 -159.15 51.9 -159.3 51.8
Q -160.05 51.8 -160.15 52.2
L -158.1 52.15 -158.1 52.2
Q -157.35 52.7 -156.7 52.2
L -158.1 51.9
M -142.2 56.3
Q -143.15 57 -143.35 58.25
L -144.65 61.75 -143.2 59.2 -142.2 56.3
M -141.6 69.75
L -141.7 69.75 -140.85 71.95 -139.6 73.35 -139.6 73.2 -141.6 69.75
M -130.8 40.05
L -130.85 39.95
Q -130.6 41.8 -129.6 43.4 -129.2 44 -129.2 44.75
L -129.2 44.9 -129 45.75
Q -128.6 45.65 -128.75 44.9 -129.55 42.2 -130.8 40.05
M -137.8 47.35
L -139.6 47.7
Q -140.65 47.85 -141.1 48.5
L -137.8 47.85
Q -136.65 47.85 -136.25 47.35
L -136.4 47.35 -136.4 47.2 -137.8 47.25 -137.8 47.35
M -134.9 30.85
L -136.1 30.9 -136.1 31 -137.75 31.05 -140.95 31.75 -140.95 31.8 -137.8 31.6 -136.9 31.45 -136.8 31.45 -134.65 31 -134.9 31 -134.9 30.85
M -128.75 30.65
L -128.75 30.7
Q -128.25 31.3 -127.05 31.6
L -126.5 31.8
Q -126.1 32.25 -125.9 31.6 -126.9 30.7 -128.75 30.65
M -157.95 42.55
L -157.95 42.5 -157.35 38.3 -157.95 39.8 -157.95 39.9 -158.25 44.1 -158.1 44 -158.1 43.9 -157.95 42.55
M -152.6 31.15
L -152.65 31.25 -154.7 31.25 -154.7 31.4 -154.45 31.6 -154.45 31.65 -151.9 31.6
Q -151 31.4 -150.6 30.85
L -152.6 31.15 Z"/>

<path fill="#FAF3E0" stroke="none" d="
M -480.65 366.55
L -480.65 366.6 -481.25 370.8 -480.65 369.3 -480.65 369.2 -480.35 365 -480.5 365.1 -480.5 365.2 -480.65 366.55
M -498.35 338.1
L -498.25 338.45
Q -497.6 339.35 -498.35 338.1
M -205.1 377.45
L -205.6 377.9 -205.1 377.75
Q -204.65 377.6 -205.1 377.45
M -271.3 46.85
Q -271.9 47.25 -272 48.35 -272.25 49.75 -271.3 50.1
L -271.3 46.85
M -184.5 48.35
Q -184.6 47.25 -185.2 46.85
L -185.2 50.1
Q -184.25 49.75 -184.5 48.35 Z"/>
</g>
</defs>

<g transform="matrix( 1, 0, 0, 1, 0,0) ">
<use xlink:href="#Layer2_0_FILL"/>
</g>

<g transform="matrix( 1, 0, 0, 1, 0,0) ">
<use xlink:href="#Layer1_0_FILL"/>
</g>

<g transform="matrix( 1, 0, 0, 1, 0,0) ">
<use xlink:href="#Layer0_0_FILL"/>
</g>
</svg>
