
<svg xmlns="http://www.w3.org/2000/svg" version="1.1" xmlns:xlink="http://www.w3.org/1999/xlink" preserveAspectRatio="none" x="0px" y="0px" width="99px" height="93px" viewBox="0 0 99 93">
<defs>
<g id="Layer3_0_FILL">
<path fill="#FFFFFF" stroke="none" d="
M 99 93
L 99 0 0 0 0 93 99 93 Z"/>
</g>

<g id="Layer2_0_FILL">
<path fill="#FFFFFF" stroke="none" d="
M 99 93
L 99 0 0 0 0 93 99 93 Z"/>
</g>

<g id="Layer1_0_FILL">
<path fill="#000000" stroke="none" d="
M 97.35 91.65
L 97.35 1.65 1.85 1.65 1.85 91.65 97.35 91.65
M 94.6 4.45
L 94.6 88.9 4.85 88.9 4.85 4.45 94.6 4.45 Z"/>
</g>

<g id="S_mbolo_1_0_Layer0_0_FILL">
<path fill="#5C5C5C" stroke="none" d="
M 102 62.95
L 101.9 62.9 101.35 64.25 102 62.95
M 100.5 63.2
L 100.9 62 100.4 63.2 100.5 63.2 Z"/>

<path fill="#757575" stroke="none" d="
M 104 55.75
L 103.55 57.4 104.05 55.8 104 55.75
M 101.05 63.3
L 101.15 63.3 102.35 60.15 101.05 63.3
M 94.6 20.15
L 94.55 20.25 94.45 20.35 94.65 21.9 94.6 20.15 Z"/>

<path fill="#FFFFFF" stroke="none" d="
M 103.65 9.3
Q 101.7 10.2 100.3 12.5
L 103.65 9.3 Z"/>

<path fill="#515151" stroke="none" d="
M 103.45 28
L 103.5 27.95 100.95 26.9 103.45 28 Z"/>

<path fill="#C0C0C0" stroke="none" d="
M 93.7 32.75
L 93.85 33.15 93.9 33.1 94.2 31.5 93.7 32.75 Z"/>

<path fill="#010101" stroke="none" d="
M 103.3 4.4
Q 103.15 3.8 102.3 2.95 101.65 2.3 100.95 1.95 100.35 1.7 99.1 1.7
L 95.6 1.7 95.6 1.75 95.55 1.8
Q 95.1 2.05 94.95 2.4 94.9 2.5 94.8 2.55 94.6 2.75 94.45 3 94.25 3.25 93.95 3.5 93.9 3.55 93.85 3.65 93.7 3.8 93.6 4 93.55 4.05 93.45 4.15 92.9 4.9 92.45 5.75 92.4 5.9 92.3 6.05 91.9 6.8 91.7 7.6 91.65 7.75 91.55 7.9 91.5 7.95 91.5 8 91.5 8.65 91.55 9.25 91.55 9.45 91.65 9.7 91.7 9.75 91.75 9.9 91.8 10.2 91.9 10.45 91.9 10.55 91.95 10.65 92 10.8 92.15 10.95 92.45 11.45 92.35 12.05 92.35 12.2 92.3 12.3 92.25 12.35 92.2 12.45 92.15 12.5 92.1 12.6 92.05 12.7 92 12.8 91.9 12.95 91.85 13.15 91.85 13.25 91.85 13.35 91.8 13.45 91.75 13.55 91.7 13.65 91.6 13.7 91.55 13.8 91.5 13.9 91.5 14 91.45 14.1 91.4 14.2 91.35 14.35 91.2 14.6 91.2 15 91.2 16.5 91.3 18 91.3 18.2 91.35 18.3 91.4 18.4 91.45 18.5 91.6 18.65 91.65 19 91.65 19.1 91.7 19.25 91.8 19.45 91.8 19.65 92.1 19.95 92.35 20.3 92.25 20.3 92.2 20.35
L 92.15 20.35
Q 92.05 20.4 91.95 20.4
L 91.9 20.45
Q 91.7 20.55 91.5 20.6 91.35 20.6 91.3 20.7 91.15 20.8 90.9 20.9 90.8 20.95 90.7 21 90.55 21.05 90.45 21.15 90.35 21.25 90.2 21.3 90 21.35 89.85 21.5 89.6 21.6 89.4 21.75 89.3 21.8 89.2 21.85 89.1 22 88.8 22.15 88.75 22.15 88.7 22.25 88.65 22.45 88.3 22.45 88.2 22.5 88.1 22.6 87.95 22.7 87.8 22.8 87.65 22.9 87.55 23.05 87.4 23.3 87.15 23.45 87 23.55 86.9 23.7 86.85 23.75 86.8 23.8 86.4 24.45 86.2 25.2 86.15 25.35 86.15 25.55 86.2 26.5 85.95 27.4 85.85 28 85.7 28.55 85.6 28.95 85.6 29.35 85.55 29.4 85.55 29.45 85.55 29.5 85.5 29.55
L 83.55 34.45
Q 83.55 34.95 86.25 35.2
L 87.15 35.4
Q 93 35.75 93.5 32.9
L 93.7 32.75 94.2 31.5 93.9 33.1 93.85 33.15
Q 93.65 34.1 94.65 34.3 96.1 33.95 96.4 34.7
L 96.35 34.75
Q 96.45 36.25 95.4 37.2 95.05 38.1 95.45 38.6 95.85 39.1 92.75 39.2 89.7 39.3 84.6 43.55 83.6 45.65 82.5 47.6
L 79.95 52.15
Q 79.55 52.9 79.95 53.65 80.5 54.05 80.25 54.65
L 80 55.2 80.65 55.45 80.8 55.1
Q 81.15 55.4 81.4 55.75
L 81.65 55.9 81.6 56.05
Q 84.65 59.2 88.9 61.8
L 88.95 61.85
Q 88.55 62.3 88.35 62.75 87.55 63.95 88.75 64.75
L 88.8 64.95 90.8 65.75
Q 95.3 66.55 99.25 66.3
L 99.35 66.35 101.2 64.6 101.35 64.25 101.9 62.9 102 62.95 102.05 62.85 103.5 57.5 103.55 57.4 104 55.75 104.05 55.8 108.55 53.75 109.55 50.85
Q 109.95 47.15 109.35 43.9 108.15 39.45 102.85 37.6
L 100.6 31.75
Q 99.55 28.65 99.4 25.35
L 100.95 26.9 103.5 27.95
Q 106.7 28.95 109.6 28.45 110.65 27.6 109.05 22
L 108.95 22
Q 108.05 18.1 103.7 14.7
L 103.5 14.65
Q 101.05 14.45 99.4 15.6
L 99.5 15.35
Q 99.65 14.1 100.3 12.5 101.7 10.2 103.65 9.3
L 103.8 9.15 103.85 9
Q 103.8 8.65 103.9 8.3 103.9 8.25 103.95 8.15
L 103.9 8.15 103.55 6.55 103.45 6.4 103.6 6.45
Q 103.55 6.4 103.5 6.35 103.1 5.85 103.3 4.4
M 101.9 5.9
L 102.05 5.85 102.85 7.4 102.95 7.4
Q 102.75 8.2 102.95 8.85
L 102.9 8.8 99.85 11.7 99 13.85 98.85 14.2
Q 98.4 15.3 98.5 16.2
L 98.75 16.3 103.1 15.5 103.15 15.55
Q 106.55 18.05 107.6 21.45
L 109.2 26.75
Q 109.45 27.95 107.95 27.6
L 107.85 27.65 103.95 27.05 103.9 27.15 101.3 26 99.25 23.25 97.9 22.7
Q 97.25 21.8 97.7 20.4 99.1 24.15 103.85 25.35
L 103.95 25.4 104.05 25.2 105.55 25.9 105.5 26 107.05 26.85 107.15 27 107.25 27.05
Q 108.2 27.7 108.6 27
L 108.5 26.9
Q 107.75 21.25 103.65 17
L 103.55 16.95 102.2 16.45 102 16.35
Q 100.5 16.25 99.1 16.65
L 98.25 16.9 98.15 16.85
Q 98.3 13.45 100.1 8.95 102.5 9.8 102.5 7.7 101.2 6.95 101.9 5.9
M 101.6 17.95
L 101.35 17.95 98.7 17.7
Q 101.35 16.25 104.15 18.65 105.8 20.05 106.45 22.05
L 107.65 26
Q 104.95 24.35 102 24.35
L 101.85 24.3
Q 99.65 23.3 99.2 21.55
L 100.8 22.9 100.95 22.95 102.15 23.45 103.45 23.6 103.45 23.5 105.35 24.25 105.35 24.35 106.2 24.85 106.35 25
Q 106.05 21 102.65 18.35
L 101.6 17.95
M 102.2 21.2
L 102 21.1 98.15 19.55 98 19.6 96.65 19.95 96.75 20 97 23.15 97.05 23.3
Q 97.85 23.9 97.15 24.2
L 96.8 24.1 96.05 21.45 96.8 17.4 96.9 13.7 97.1 13.8 97.2 13.6 97.6 13.1 97.7 13 98.15 11.8 98 11.7 98.65 10.15 99.05 9.1 99.5 8
Q 98.15 7.6 98.15 6.35
L 99.8 6.5 100.05 6.15
Q 100.15 5 101.05 5.45
L 100.75 6.15 100.55 7.35 100.75 7.4
Q 102.25 8.9 99.8 7.95
L 99.7 8.2 99.25 9.3 98.95 10.05 98.6 11.5 98.55 11.6 98.1 13.05 98.1 13.15
Q 97.1 16.45 97.35 18.75
L 97.55 18.55 98.2 18.55 102.75 20.4
Q 103.6 21 103.75 21.95
L 103.7 22.1 102.2 21.2
M 97.4 4
L 96.95 5.9
Q 95.95 7.85 96.1 9.4
L 96.2 9.4 95.45 10.35 95.45 13 95.85 13.3
Q 96.05 13.95 94.95 14.25
L 94.5 18.7 94.55 18.85
Q 95.55 19.4 94.65 20.05
L 94.6 20.15 94.65 21.9 94.45 20.35 94.5 20.25 94.3 19
Q 94 15.2 94.7 10.9
L 94.15 8.35 94.8 8.5 94.8 8.6
Q 95.2 9.45 95.5 8.3
L 95.65 7.85 95.55 7.8 96 6.7 96.25 6.1 96.1 6.05 97 3.8 97.15 3.85 97.4 4
M 95.05 5.1
L 95.1 4.85 95.75 3.3 95.85 3.35
Q 96.75 3.7 95.95 4.6
L 95.1 6.95
Q 94.55 7.7 93.6 7.55 92.55 9.4 94.5 10.05
L 94.45 10.15
Q 94.2 12.15 93.2 13.2
L 93.2 13.3
Q 92.65 14.35 93.7 14.75 93.5 19.15 94.25 22.9
L 94.2 23.05 92.5 23.1
Q 90.15 22.65 88.75 25.3
L 88.05 27.05 87.7 28.3 87.55 28.5 86.95 29.95 86.35 31.7 86.25 31.7 86.2 31.8 86 32.05
Q 85.15 33.95 87.35 33.85
L 89.6 33.5 91.6 32.8
Q 91.9 32.25 92.55 32.05
L 92.75 31.95 92.8 31.8 92.95 31.65 93 31.5 93.05 31.3 93.45 30.65 93.55 30.45 94.25 28.7 94.3 29.1 94.25 29.2 93.8 30.75 93.6 30.9 93.55 31 93.05 31.7 93 31.8 92.55 32.55
Q 91.5 34.25 89.8 34.25
L 86.2 34.2
Q 84.4 34.35 85.1 32.65 86.2 31.05 86.7 28.75
L 86.8 28.55 87.15 27.55 87.45 26.8 87.3 26.75 87.6 25.55 88.3 23.85 88.45 23.9
Q 90.8 22 93.4 21.25
L 92.75 16.5
Q 92 14.05 93.55 11.65
L 93.45 11.5
Q 92.9 10.3 92.9 8.95 92.85 8.15 93.1 7.35
L 95.05 5.1
M 96.7 8.8
L 96.55 8.5 96.75 8
Q 98 8.25 96.7 8.8
M 96.65 10
Q 98.35 10.4 97.2 11.05
L 96.9 10.95
Q 96.35 10.7 96.65 10
M 96.5 16.2
L 96.4 16.4 96.1 17.7 96.05 17.85
Q 95.15 17.15 95.7 15.55
L 96.5 16.2
M 91.7 24.45
L 91.65 24.55 90.15 25.5 89.75 26.4 89.2 27.8 87.7 32.25
Q 89.7 32.75 91 31.55
L 93.4 28.85 92.25 31.2
Q 90.1 33.45 86.8 32.7
L 86.7 32.7 87.3 31.25 87.65 30.35 87.55 30.3 88.05 28.8 89.8 24.45
Q 90.95 23.9 92.25 24.1
L 92.4 24.15 92.5 23.95
Q 94.4 24.3 92.8 24.4
L 92.6 24.3 92.45 24.25 91.7 24.45
M 97.55 29.95
L 96.8 24.8 99.1 33.75 99.5 34.5 99.65 34.6
Q 99.85 36.1 99.25 34.6
L 98.95 33.9 98.1 31.4 96.9 32.35
Q 96.2 32.65 96.5 31.2
L 96.3 31.15 96.25 30.65 95.9 29.9 95.85 29.85
Q 95 29 95.55 27.7 96.35 25.9 96.25 27.3
L 96.05 29.8 96.55 30.5 96.8 31.15 96.75 31.3 97 31.4 97.55 29.95
M 98.25 24.8
L 98.1 25.75 101.35 36.55 102.45 38.9 102.6 39.1
Q 104 38.35 105.3 39.85 109.9 44.65 108.45 52
L 108 53.1 103.1 55.3 102.45 59.8 102.35 60.15 101.15 63.3 101.05 63.3 101 63.45 99.75 65.4 97.2 65.5 88.85 64.35 88.75 64.3 89.2 62.9 89.4 63 89.6 62.45 90 61.75 90.55 60.3 90.45 60.3 88.85 60.9 88.85 61 87.45 60.35 81.15 54.55
Q 80.1 53.6 80.9 51.6 83.95 46.6 87.65 42.9
L 89.7 41.75
Q 92.85 40.25 96.55 39.85
L 96.65 39.65
Q 97.35 39.9 96.55 40.7
L 96.4 40.7
Q 88.4 43.45 82.15 51.5 83.6 56.1 87.8 59.3
L 87.9 59.35 89.1 59.85
Q 90.25 60.2 90.8 58.55
L 90.9 58.35 91.6 56.6 91.7 56.65 91.65 56.7 93.4 57.9 93.3 58.1
Q 91.7 60.2 90.75 62.55
L 90.7 62.75
Q 95.75 64.55 99.75 63.6
L 100.4 63.2 100.9 62 101 61.75
Q 102.9 57.25 101.95 54
L 102.05 54.05 106.3 51.95 106.4 51.75
Q 108.85 43.2 101.5 39.25
L 101.2 36.65 101.1 36.6
Q 98.5 31.05 97.95 24.65 98.85 23.65 98.25 24.8
M 95.75 31.55
L 95.85 31.6 95.55 32.95 95.5 33.1
Q 96.15 33.85 94.6 33.35
L 94.5 33.35 95.2 31.7 95.15 31.65 95.25 31.1 95.75 31.55
M 97.9 33.75
L 98 33.5
Q 98.9 34.3 97.9 33.75
M 97.3 35.15
L 97.55 35.35
Q 97.75 36.8 96.9 38.3
L 97.05 38.35
Q 98.4 38.45 98.6 39.2
L 97.9 40.95 98.45 40.95 98.6 41 98.9 40.25 98.95 40.2
Q 98.85 40.05 99.05 39.55
L 99.15 40.4 99.1 40.65 99 40.85
Q 99 42.4 98.2 41.65
L 98.45 41.45 98.55 41.2 98.4 41.15
Q 96.9 41 97.8 39.75
L 97.85 39.65 95.85 37.75 97.3 35.15
M 100.1 36.65
L 100 36.65 99.75 35.55 100.2 36.7 100.35 39.7 102.2 40.65
Q 106.75 44.05 106.15 49.85
L 106.1 49.95 106.2 50.4 105.65 51.7 105.5 51.8
Q 102.6 53.6 99 54.15
L 97.65 54.15 97.55 54.05 99.35 45.7 99.05 49.95 98.9 50.25 98.3 52.5 98.25 52.6
Q 97.75 53.65 98.9 53.8
L 99 53.75 99.05 53.7
Q 102.35 52.95 105.4 51.35
L 105.45 51.15 105.85 50.25 105.9 50.1
Q 106.4 44.25 101.95 40.75
L 99.95 39.75 100.1 36.65
M 90.5 29.2
Q 89.7 29.7 90.65 28.1
L 90.75 27.8 93.7 24.75
Q 92.7 27.6 90.5 29.2
M 91 44.3
L 89.7 45.3 87.9 47.1 87.8 47.05 84.25 51.55
Q 84.05 54.05 85.6 55.55
L 86.8 56.7 89.3 57.85 90.8 55.45 91.05 55.55 91.15 55.9 90 58.8 89.6 59.05 87.6 58.25 84.8 55.2
Q 83.25 53.5 83 51.45
L 87.8 47.05 87.9 46.9 88.05 46.45 89.65 45.25 89.75 45.05 89.8 44.85 90.65 44.25 90.8 44.2 90.85 44.05
Q 92.4 43.5 91 44.3
M 98.7 38.15
L 97.95 37.2
Q 99.05 36.75 98.9 38.1
L 98.7 38.15
M 98.6 43.7
L 98.55 43.8 97 44.65 96.95 44.7
Q 93.3 46.9 90.5 51.05 91.05 54.3 94.15 55.65
L 94.5 55.6 94 56.9
Q 90.5 54.2 88.95 50.55 93.5 45.4 98.6 43.7
M 100.7 54.5
L 100.75 54.35
Q 101.4 54.7 101.25 56.3
L 100.95 59.15 100.7 60.35 100.45 61.35 100.4 61.5 99.7 62.6
Q 97 63.7 93.55 62.8
L 93.55 62.9 91.55 62 91.8 61.4
Q 94.1 58.8 96 54.95 96.45 54.1 96.55 54.7 96.9 55.95 95.75 57.45
L 93.9 60.15 93.2 61.85 97.55 62.35
Q 98.25 62.3 99.05 62.45 100.9 57.95 100.7 54.5 Z"/>

<path fill="#3F3F3F" stroke="none" d="
M 93.55 62.8
L 91.55 62 93.55 62.9 93.55 62.8 Z"/>

<path fill="#949494" stroke="none" d="
M 100.4 61.5
L 100.45 61.35 100.7 60.35 100.3 61.45 100.4 61.5 Z"/>

<path fill="#444444" stroke="none" d="
M 93.1 61.8
L 93.2 61.85 93.9 60.15 93.8 60.1 93.1 61.8 Z"/>

<path fill="#EEEEEE" stroke="none" d="
M 100.75 54.35
L 100.7 54.5
Q 100.9 57.95 99.05 62.45 98.25 62.3 97.55 62.35
L 93.2 61.85 93.1 61.8 93.8 60.1 93.9 60.15 95.75 57.45
Q 96.9 55.95 96.55 54.7 96.45 54.1 96 54.95 94.1 58.8 91.8 61.4
L 91.55 62 93.55 62.8
Q 97 63.7 99.7 62.6
L 100.4 61.5 100.3 61.45 100.7 60.35 100.95 59.15 101.25 56.3
Q 101.4 54.7 100.75 54.35
M 97.95 37.2
L 98.7 38.15 98.9 38.1
Q 99.05 36.75 97.95 37.2
M 91.05 55.55
L 90.8 55.45 89.3 57.85 86.8 56.7 85.6 55.55
Q 84.05 54.05 84.25 51.55
L 87.8 47.05 83 51.45
Q 83.25 53.5 84.8 55.2
L 87.6 58.25 89.6 59.05 90 58.8 91.15 55.9 91.05 55.55
M 87.9 47.1
L 87.9 46.9 87.8 47.05 87.9 47.1
M 91.65 24.55
L 91.7 24.45 92.45 24.25 92.6 24.3 92.65 24.25 92.4 24.15 92.25 24.1
Q 90.95 23.9 89.8 24.45
L 88.05 28.8 87.7 30.25 87.65 30.35 87.3 31.25 86.9 32.5 86.8 32.7
Q 90.1 33.45 92.25 31.2
L 93.4 28.85 91 31.55
Q 89.7 32.75 87.7 32.25
L 89.2 27.8 89.05 27.75 89.5 26.3 89.75 26.4 90.15 25.5 91.65 24.55
M 95.1 4.85
L 95.05 5.1 93.1 7.35
Q 92.85 8.15 92.9 8.95 92.9 10.3 93.45 11.5
L 93.55 11.65
Q 92 14.05 92.75 16.5
L 93.4 21.25
Q 90.8 22 88.45 23.9
L 88.3 23.85 87.6 25.55 87.45 26.7 87.45 26.8 87.15 27.55 86.9 28.35 86.8 28.55 86.7 28.75
Q 86.2 31.05 85.1 32.65 84.4 34.35 86.2 34.2
L 89.8 34.25
Q 91.5 34.25 92.55 32.55
L 92.65 32.35 92.75 31.95 92.55 32.05
Q 91.9 32.25 91.6 32.8
L 89.6 33.5 87.35 33.85
Q 85.15 33.95 86 32.05
L 86.2 31.8 86.25 31.7 86.95 29.95 87.5 28.45 88.05 27.05 87.95 27 88.65 25.25 88.75 25.3
Q 90.15 22.65 92.5 23.1
L 94.2 23.05 94.25 22.9
Q 93.5 19.15 93.7 14.75 92.65 14.35 93.2 13.3
L 93.2 13.2
Q 94.2 12.15 94.45 10.15
L 94.5 10.05
Q 92.55 9.4 93.6 7.55 94.55 7.7 95.1 6.95
L 95.95 4.6
Q 96.75 3.7 95.85 3.35
L 95.1 4.85
M 102 21.1
L 102.2 21.2 103.7 22.1 103.75 21.95
Q 103.6 21 102.75 20.4
L 98.2 18.55 97.55 18.55 97.35 18.75
Q 97.1 16.45 98.1 13.15
L 98 13.1 98.55 11.6 98.45 11.55 98.95 10.05 99.25 9.3 99.15 9.3 98.8 10.25 98.15 11.8 97.7 13 97.8 13
Q 97.6 14 97.1 13.8
L 96.9 13.7 96.8 17.4 96.05 21.45 96.8 24.1 97.15 24.2
Q 97.85 23.9 97.05 23.3
L 97 23.15 96.75 20 96.65 19.95 98 19.6 98.15 19.55 98.2 19.45 102 21.1
M 102.05 5.85
L 101.9 5.9
Q 101.2 6.95 102.5 7.7 102.5 9.8 100.1 8.95 98.3 13.45 98.15 16.85
L 98.25 16.9 99.1 16.65 99 16.6 98.75 16.3 98.5 16.2
Q 98.4 15.3 98.85 14.2
L 99 13.85 99.7 11.65 99.85 11.7 102.9 8.8 102.95 8.85
Q 102.75 8.2 102.95 7.4
L 102.85 7.4 102.05 5.85 Z"/>

<path fill="#F1F1F1" stroke="none" d="
M 98.55 43.8
L 98.6 43.7
Q 93.5 45.4 88.95 50.55 90.5 54.2 94 56.9
L 94.5 55.6 94.15 55.65
Q 91.05 54.3 90.5 51.05 93.3 46.9 96.95 44.7
L 97 44.65 98.55 43.8
M 96.4 16.4
L 96.5 16.2 95.7 15.55
Q 95.15 17.15 96.05 17.85
L 96.1 17.7 96.4 16.4
M 101.35 17.95
L 101.6 17.95 102.65 18.35
Q 106.05 21 106.35 25
L 106.2 24.85 105.35 24.35 103.45 23.6 102.15 23.45 102.1 23.6 100.95 22.95 100.8 22.9 99.2 21.55
Q 99.65 23.3 101.85 24.3
L 102 24.35
Q 104.95 24.35 107.65 26
L 106.45 22.05
Q 105.8 20.05 104.15 18.65 101.35 16.25 98.7 17.7
L 101.35 17.95 Z"/>

<path fill="#CDCDCD" stroke="none" d="
M 89.75 45.05
L 89.65 45.25 88.05 46.45 87.9 46.9 87.9 47.1 89.7 45.3 89.75 45.05 Z"/>

<path fill="#A3A3A3" stroke="none" d="
M 90.8 44.2
L 91 44.3
Q 92.4 43.5 90.85 44.05
L 90.8 44.2 Z"/>

<path fill="#D4D4D4" stroke="none" d="
M 91 44.3
L 90.8 44.2 90.65 44.25 89.8 44.85 89.75 45.05 89.7 45.3 91 44.3
M 99.7 8.2
L 99.6 8.2 99.05 9.1 98.65 10.15 98.8 10.25 99.15 9.3 99.25 9.3 99.7 8.2 Z"/>

<path fill="#EBEBEB" stroke="none" d="
M 90.65 28.1
Q 89.7 29.7 90.5 29.2 92.7 27.6 93.7 24.75
L 90.75 27.8 90.65 28.1
M 95.85 31.6
L 95.75 31.55 95.25 31.1 95.15 31.65 95.2 31.7 94.6 33.35
Q 96.15 33.85 95.5 33.1
L 95.55 32.95 95.4 32.9 95.85 31.6
M 96.8 5.8
L 97.4 4 97.15 3.85 96.25 6.1 96 6.7 95.7 7.75 95.65 7.85 95.5 8.3
Q 95.2 9.45 94.8 8.6
L 94.8 8.5 94.15 8.35 94.7 10.9
Q 94 15.2 94.3 19
L 94.55 18.85 94.5 18.7 94.95 14.25
Q 96.05 13.95 95.85 13.3
L 95.45 13 95.45 10.35 96.2 9.4 96.1 9.4
Q 95.95 7.85 96.95 5.9
L 96.8 5.8 Z"/>

<path fill="#797979" stroke="none" d="
M 98.15 52.6
L 98.25 52.6 98.3 52.5 98.9 50.25 98.15 52.6
M 89.2 62.9
L 88.75 64.3 88.85 64.35 89.4 63 89.2 62.9
M 98 13.1
L 98.1 13.15 98.1 13.05 98.55 11.6 98 13.1 Z"/>

<path fill="#E3E3E3" stroke="none" d="
M 98.9 50.25
L 99.05 49.95 99.35 45.7 97.55 54.05 97.65 54.15 99 54.15 99.1 53.9 99 53.75 98.9 53.8
Q 97.75 53.65 98.25 52.6
L 98.15 52.6 98.9 50.25
M 96.8 24.8
L 97.55 29.95 97 31.4 96.75 31.3 96.5 31.2
Q 96.2 32.65 96.9 32.35
L 98.1 31.4 98.95 33.9 99.1 33.85 99.1 33.75 96.8 24.8 Z"/>

<path fill="#E9E9E9" stroke="none" d="
M 106.2 50.4
L 106.1 50.35 105.45 51.15 105.4 51.35
Q 102.35 52.95 99.05 53.7
L 99 53.75 99.1 53.9 99 54.15
Q 102.6 53.6 105.5 51.8
L 105.65 51.7 106.2 50.4
M 98 33.5
L 97.9 33.75
Q 98.9 34.3 98 33.5 Z"/>

<path fill="#979797" stroke="none" d="
M 106.1 49.95
L 106.05 50.15 105.85 50.25 105.45 51.15 106.1 50.35 106.2 50.4 106.1 49.95 Z"/>

<path fill="#D5D5D5" stroke="none" d="
M 100.2 36.7
L 100.1 36.65 99.95 39.75 101.95 40.75
Q 106.4 44.25 105.9 50.1
L 105.85 50.25 106.05 50.15 106.1 49.95 106.15 49.85
Q 106.75 44.05 102.2 40.65
L 100.35 39.7 100.2 36.7 Z"/>

<path fill="#858585" stroke="none" d="
M 100 36.65
L 100.1 36.65 100.2 36.7 99.75 35.55 100 36.65 Z"/>

<path fill="#828282" stroke="none" d="
M 98.55 41.2
L 98.6 41 98.45 40.95 97.9 40.95 97.85 40.8
Q 97.6 40.4 97.8 39.75 96.9 41 98.4 41.15
L 98.55 41.2
M 99.65 34.6
L 99.5 34.5 99.45 34.65 99.25 34.6
Q 99.85 36.1 99.65 34.6 Z"/>

<path fill="#DEDEDE" stroke="none" d="
M 98.6 41
L 98.55 41.2 98.45 41.45 98.2 41.65
Q 99 42.4 99 40.85
L 99.1 40.65 99 40.6 98.9 40.25 98.6 41
M 94.6 20.15
L 94.65 20.05
Q 95.55 19.4 94.55 18.85
L 94.3 19 94.5 20.25 94.45 20.35 94.55 20.25 94.6 20.15 Z"/>

<path fill="#555555" stroke="none" d="
M 99.05 39.55
Q 98.85 40.05 98.95 40.2
L 98.9 40.25 99 40.6 99.1 40.65 99.15 40.4 99.05 39.55 Z"/>

<path fill="#ECECEC" stroke="none" d="
M 97.55 35.35
L 97.3 35.15 95.85 37.75 97.85 39.65 97.8 39.75
Q 97.6 40.4 97.85 40.8
L 97.9 40.95 98.6 39.2
Q 98.4 38.45 97.05 38.35
L 96.9 38.3
Q 97.75 36.8 97.55 35.35
M 96 29.9
L 96.05 29.8 96.25 27.3
Q 96.35 25.9 95.55 27.7 95 29 95.85 29.85
L 95.9 29.9 96 29.9 Z"/>

<path fill="#606060" stroke="none" d="
M 95.4 32.9
L 95.55 32.95 95.85 31.6 95.4 32.9
M 95.65 7.85
L 95.7 7.75 96 6.7 95.55 7.8 95.65 7.85 Z"/>

<path fill="#878787" stroke="none" d="
M 94.5 33.35
L 94.6 33.35 95.2 31.7 94.5 33.35 Z"/>

<path fill="#6A6A6A" stroke="none" d="
M 90 61.75
L 90.1 61.8 90.55 60.3 90 61.75 Z"/>

<path fill="#3E3E3E" stroke="none" d="
M 88.85 61
L 88.85 60.9 87.45 60.35 88.85 61 Z"/>

<path fill="#898989" stroke="none" d="
M 89.05 59.95
L 89.1 59.85 87.9 59.35 89.05 59.95 Z"/>

<path fill="#989898" stroke="none" d="
M 91.65 56.7
L 91.7 56.65 91.6 56.6 90.9 58.35 91.65 56.7
M 97.4 4
L 96.8 5.8 96.95 5.9 97.4 4
M 99.85 11.7
L 99.7 11.65 99 13.85 99.85 11.7 Z"/>

<path fill="#8C8C8C" stroke="none" d="
M 96.65 39.65
L 96.55 39.85 96.65 40.45 96.55 40.7
Q 97.35 39.9 96.65 39.65 Z"/>

<path fill="#F6F6F6" stroke="none" d="
M 89.7 41.75
L 87.65 42.9
Q 83.95 46.6 80.9 51.6 80.1 53.6 81.15 54.55
L 87.45 60.35 88.85 60.9 90.45 60.3 90.55 60.3 90.1 61.8 90 61.75 89.6 62.45 89.4 63 88.85 64.35 97.2 65.5 99.75 65.4 101 63.45 101.05 63.3 102.35 60.15 102.45 59.8 103.1 55.3 108 53.1 108.45 52
Q 109.9 44.65 105.3 39.85 104 38.35 102.6 39.1
L 102.45 38.9 101.35 36.55 101.2 36.65 101.5 39.25
Q 108.85 43.2 106.4 51.75
L 106.3 51.95 102.05 54.05 101.95 54
Q 102.9 57.25 101 61.75
L 100.9 62 100.5 63.2 100.4 63.2 99.75 63.6
Q 95.75 64.55 90.7 62.75
L 90.75 62.55
Q 91.7 60.2 93.3 58.1
L 93.4 57.9 91.65 56.7 90.9 58.35 90.8 58.55
Q 90.25 60.2 89.1 59.85
L 89.05 59.95 87.9 59.35 87.8 59.3
Q 83.6 56.1 82.15 51.5 88.4 43.45 96.4 40.7
L 96.55 40.7 96.65 40.45 96.55 39.85
Q 92.85 40.25 89.7 41.75 Z"/>

<path fill="#E1E1E1" stroke="none" d="
M 98.1 25.75
L 98.25 24.8
Q 98.85 23.65 97.95 24.65 98.5 31.05 101.1 36.6
L 101.2 36.65 101.35 36.55 98.1 25.75 Z"/>

<path fill="#C9C9C9" stroke="none" d="
M 99.1 33.85
L 98.95 33.9 99.25 34.6 99.45 34.65 99.5 34.5 99.1 33.75 99.1 33.85 Z"/>

<path fill="#D1D1D1" stroke="none" d="
M 96.55 30.5
L 96.25 30.65 96.3 31.15 96.5 31.2 96.75 31.3 96.8 31.15 96.55 30.5 Z"/>

<path fill="#DADADA" stroke="none" d="
M 96.25 30.65
L 96.55 30.5 96.05 29.8 96 29.9 95.9 29.9 96.25 30.65 Z"/>

<path fill="#D7D7D7" stroke="none" d="
M 86.9 32.5
L 87.3 31.25 86.7 32.7 86.8 32.7 86.9 32.5 Z"/>

<path fill="#686868" stroke="none" d="
M 87.65 30.35
L 87.7 30.25 88.05 28.8 87.55 30.3 87.65 30.35 Z"/>

<path fill="#585858" stroke="none" d="
M 89.05 27.75
L 89.2 27.8 89.75 26.4 89.5 26.3 89.05 27.75 Z"/>

<path fill="#B8B8B8" stroke="none" d="
M 92.6 24.3
L 92.8 24.4
Q 94.4 24.3 92.5 23.95
L 92.4 24.15 92.65 24.25 92.6 24.3 Z"/>

<path fill="#E6E6E6" stroke="none" d="
M 97.2 11.05
Q 98.35 10.4 96.65 10 96.35 10.7 96.9 10.95
L 97.2 11.05 Z"/>

<path fill="#E0E0E0" stroke="none" d="
M 96.55 8.5
L 96.7 8.8
Q 98 8.25 96.75 8
L 96.55 8.5
M 93.6 30.8
L 93.6 30.9 93.8 30.75 94.25 29.2 94.15 29.15 93.65 30.45 93.6 30.8 Z"/>

<path fill="#5A5A5A" stroke="none" d="
M 86.25 31.7
L 86.35 31.7 86.95 29.95 86.25 31.7 Z"/>

<path fill="#7F7F7F" stroke="none" d="
M 86.8 28.55
L 86.9 28.35 87.15 27.55 86.8 28.55 Z"/>

<path fill="#9B9B9B" stroke="none" d="
M 87.55 28.5
L 87.5 28.45 86.95 29.95 87.55 28.5
M 97.1 13.8
Q 97.6 14 97.8 13
L 97.7 13 97.6 13.1 97.2 13.6 97.1 13.8 Z"/>

<path fill="#414141" stroke="none" d="
M 87.55 28.5
L 87.7 28.3 88.05 27.05 87.5 28.45 87.55 28.5
M 93.55 30.45
L 93.65 30.45 94.15 29.15 94.25 29.2 94.3 29.1 94.25 28.7 93.55 30.45 Z"/>

<path fill="#6C6C6C" stroke="none" d="
M 87.3 26.75
L 87.45 26.8 87.45 26.7 87.6 25.55 87.3 26.75 Z"/>

<path fill="#A1A1A1" stroke="none" d="
M 88.75 25.3
L 88.65 25.25 87.95 27 88.05 27.05 88.75 25.3 Z"/>

<path fill="#A7A7A7" stroke="none" d="
M 93.05 31.7
L 93.1 31.55 93 31.5 92.95 31.65 92.8 31.8 92.75 31.95 92.65 32.35 92.55 32.55 93 31.8 93.05 31.7 Z"/>

<path fill="#7D7D7D" stroke="none" d="
M 93.55 30.45
L 93.45 30.65 93.05 31.3 93 31.5 93.1 31.55 93.05 31.7 93.55 31 93.6 30.9 93.6 30.8 93.65 30.45 93.55 30.45
M 103.95 25.4
L 105.5 26 105.55 25.9 104.05 25.2 103.95 25.4 Z"/>

<path fill="#9E9E9E" stroke="none" d="
M 95.75 3.3
L 95.1 4.85 95.85 3.35 95.75 3.3 Z"/>

<path fill="#343434" stroke="none" d="
M 96.25 6.1
L 97.15 3.85 97 3.8 96.1 6.05 96.25 6.1 Z"/>

<path fill="#BFBFBF" stroke="none" d="
M 98.2 19.45
L 98.15 19.55 102 21.1 98.2 19.45 Z"/>

<path fill="#909090" stroke="none" d="
M 98.45 11.55
L 98.55 11.6 98.6 11.5 98.95 10.05 98.45 11.55 Z"/>

<path fill="#838383" stroke="none" d="
M 98 11.7
L 98.15 11.8 98.8 10.25 98.65 10.15 98 11.7 Z"/>

<path fill="#848484" stroke="none" d="
M 100.45 7.3
L 100.55 7.35 100.75 6.15 100.5 6.2
Q 99.9 7.05 100.45 7.3 Z"/>

<path fill="#F2F2F2" stroke="none" d="
M 101.05 5.45
Q 100.15 5 100.05 6.15
L 99.8 6.5 98.15 6.35
Q 98.15 7.6 99.5 8
L 99.05 9.1 99.6 8.2 99.7 8.2 99.8 7.95
Q 102.25 8.9 100.75 7.4
L 100.55 7.35 100.45 7.3
Q 99.9 7.05 100.5 6.2
L 100.75 6.15 101.05 5.45 Z"/>

<path fill="#4D4D4D" stroke="none" d="
M 102.1 23.6
L 102.15 23.45 100.95 22.95 102.1 23.6 Z"/>

<path fill="#BBBBBB" stroke="none" d="
M 103.45 23.5
L 103.45 23.6 105.35 24.35 105.35 24.25 103.45 23.5 Z"/>

<path fill="#A9A9A9" stroke="none" d="
M 103.9 27.15
L 103.95 27.05 101.3 26 103.9 27.15 Z"/>

<path fill="#F3F3F3" stroke="none" d="
M 97.7 20.4
Q 97.25 21.8 97.9 22.7
L 99.25 23.25 101.3 26 103.95 27.05 107.85 27.65 107.95 27.6 107.15 27 107.05 26.85 105.5 26 103.95 25.4 103.85 25.35
Q 99.1 24.15 97.7 20.4 Z"/>

<path fill="#4F4F4F" stroke="none" d="
M 103.55 16.95
L 102.25 16.35 102.2 16.45 103.55 16.95 Z"/>

<path fill="#E8E8E8" stroke="none" d="
M 103.15 15.55
L 103.1 15.5 98.75 16.3 99 16.6 99.1 16.65
Q 100.5 16.25 102 16.35
L 102.2 16.45 102.25 16.35 103.55 16.95 103.65 17
Q 107.75 21.25 108.5 26.9
L 108.6 27
Q 108.2 27.7 107.25 27.05
L 107.15 27 107.95 27.6
Q 109.45 27.95 109.2 26.75
L 107.6 21.45
Q 106.55 18.05 103.15 15.55 Z"/>
</g>

<g id="S_mbolo_1_0_Layer0_1_FILL">
<path fill="#5C5C5C" stroke="none" d="
M 34.35 18.4
L 34.4 18.3 32.95 18.05 34.35 18.4
M 33.8 16.9
L 33.85 17 35.05 17.2 33.8 16.9 Z"/>

<path fill="#757575" stroke="none" d="
M 41.75 19
L 41.8 18.95 40.15 18.9 41.75 19
M 74.9 2.85
L 74.75 2.8 74.65 2.7 73.2 3.2 74.9 2.85
M 33.85 17.6
L 33.85 17.7 37.2 18.2 33.85 17.6 Z"/>

<path fill="#515151" stroke="none" d="
M 68.9 13.05
L 68.95 13.1 69.5 10.4 68.9 13.05 Z"/>

<path fill="#C0C0C0" stroke="none" d="
M 62 4.6
L 62.05 4.65 63.7 4.65 62.35 4.4 62 4.6 Z"/>

<path fill="#FFFFFF" stroke="none" d="
M 83.5 6.95
L 87.3 9.6
Q 86.05 7.85 83.5 6.95 Z"/>

<path fill="#010101" stroke="none" d="
M 37.95 -3.9
Q 37.7 -3.5 37.4 -3.2
L 37.3 -2.9 37.15 -2.95
Q 34.65 0.7 32.9 5.35
L 32.9 5.4
Q 32.4 5.1 31.9 4.95 30.55 4.45 30 5.75
L 29.85 5.85 29.45 8
Q 29.5 12.55 30.55 16.35
L 30.5 16.5 32.55 18 32.95 18.05 34.4 18.3 34.35 18.4 34.5 18.45 40 18.85 40.15 18.9 41.8 18.95 41.75 19 44.65 23.05 47.7 23.45
Q 51.4 23.15 54.45 21.9 58.6 19.9 59.4 14.35
L 64.7 11
Q 67.55 9.35 70.7 8.55
L 69.5 10.4 68.95 13.1
Q 68.65 16.4 69.7 19.15 70.7 20.05 75.9 17.4
L 75.9 17.3
Q 79.55 15.65 82 10.7
L 82 10.5
Q 81.75 8.05 80.3 6.65
L 80.6 6.7
Q 81.8 6.6 83.5 6.95 86.05 7.85 87.3 9.6
L 87.45 9.75 87.65 9.75
Q 87.95 9.65 88.35 9.65 88.4 9.65 88.5 9.7
L 88.5 9.65 90 9 90.1 8.85 90.1 9
Q 90.15 8.95 90.15 8.9 90.6 8.4 92.05 8.3 92.6 8.05 93.3 7.05 93.8 6.25 93.95 5.55 94.1 4.9 93.85 3.65
L 96.5 3.65 93.05 0.2
Q 92.75 -0.2 92.4 -0.3 92.3 -0.3 92.2 -0.4 92 -0.55 91.7 -0.65 91.4 -0.8 91.1 -1.05 91.05 -1.1 90.95 -1.15 90.75 -1.25 90.55 -1.3 90.5 -1.35 90.35 -1.4 89.55 -1.8 88.6 -2.1 88.45 -2.1 88.3 -2.15 87.45 -2.4 86.65 -2.45 86.5 -2.5 86.35 -2.55 86.3 -2.6 86.25 -2.6 85.6 -2.45 85 -2.3 84.8 -2.25 84.55 -2.1 84.5 -2.05 84.4 -1.95 84.15 -1.85 83.9 -1.7 83.8 -1.7 83.7 -1.6 83.6 -1.55 83.45 -1.35 83 -0.95 82.4 -0.95 82.25 -0.9 82.15 -0.95 82.05 -1 81.95 -1 81.9 -1.05 81.8 -1.1 81.75 -1.1 81.65 -1.15 81.45 -1.2 81.25 -1.25 81.15 -1.2 81.05 -1.2 80.95 -1.25 80.85 -1.25 80.7 -1.3 80.65 -1.4 80.55 -1.4 80.45 -1.45 80.35 -1.4 80.2 -1.45 80.1 -1.5 79.95 -1.5 79.65 -1.6 79.25 -1.5 77.8 -1.25 76.4 -0.85 76.2 -0.8 76.1 -0.75 76 -0.65 75.9 -0.6 75.8 -0.4 75.45 -0.3 75.35 -0.3 75.2 -0.2 75.05 -0.05 74.85 0 74.6 0.35 74.3 0.65 74.25 0.55 74.2 0.5
L 74.2 0.45
Q 74.15 0.4 74.1 0.3
L 74.05 0.25
Q 73.95 0.05 73.9 -0.15 73.85 -0.3 73.75 -0.3 73.6 -0.45 73.45 -0.65 73.4 -0.7 73.3 -0.8 73.25 -0.95 73.1 -1.05 73 -1.1 72.95 -1.25 72.85 -1.45 72.65 -1.55 72.5 -1.8 72.3 -1.95 72.25 -2.05 72.2 -2.15 72 -2.2 71.8 -2.5 71.8 -2.55 71.7 -2.55 71.45 -2.55 71.4 -2.85 71.35 -2.95 71.2 -3.05 71.1 -3.2 70.95 -3.3 70.85 -3.45 70.65 -3.5 70.45 -3.6 70.25 -3.85 70.1 -3.95 69.95 -4.05 69.85 -4.05 69.8 -4.1 69.1 -4.4 68.3 -4.45 68.15 -4.45 67.95 -4.4 67.05 -4.2 66.1 -4.25 65.5 -4.25 64.95 -4.3 64.55 -4.25 64.15 -4.2 64.05 -4.2 64 -4.2 63.95 -4.2 63.9 -4.25
L 58.75 -5.25
Q 58.25 -5.15 58.5 -2.45
L 58.5 -1.5
Q 59.25 4.3 62.15 4.25
L 62.35 4.4 63.7 4.65 62.05 4.65 62 4.6
Q 61.05 4.6 61.05 5.65 61.65 7 61 7.4
L 60.9 7.35
Q 59.5 7.75 58.35 6.95 57.35 6.75 56.95 7.25 56.6 7.75 55.85 4.75 55.2 1.75 50 -2.4 47.75 -3 45.65 -3.7
L 40.7 -5.3
Q 39.85 -5.55 39.2 -5 38.9 -4.4 38.3 -4.5
L 37.7 -4.65 37.55 -4 37.95 -3.9
M 64.95 -3.25
L 65.15 -3.2 66.2 -3.05 67 -2.9 67 -3.05 68.2 -2.95 70.05 -2.6 70.05 -2.5
Q 72.35 -0.5 73.6 1.9
L 78.1 0.3
Q 80.4 -0.9 83.05 0.1
L 83.15 0.05
Q 84.25 -0.75 85.55 -1 86.35 -1.2 87.15 -1.1
L 89.75 0.35 90.05 0.35 91.65 0.7 91.65 0.8
Q 91.45 1.7 90.4 1.15
L 87.95 0.75
Q 87.1 0.35 87.1 -0.65 85.05 -1.25 84.8 0.75
L 84.7 0.75
Q 82.65 0.85 81.45 0.1
L 81.35 0.15
Q 80.2 -0.2 80 0.9 75.65 1.6 72.1 3
L 71.95 3 71.6 1.35
Q 71.55 -1.05 68.7 -1.9
L 66.85 -2.25 65.6 -2.35 65.35 -2.45 63.8 -2.75 62 -3 61.95 -3.1 61.55 -3.3
Q 59.55 -3.75 60.05 -1.6
L 60.8 0.55 61.9 2.35
Q 62.5 2.55 62.85 3.15
L 62.95 3.35 63.15 3.35 63.3 3.45 63.45 3.5 63.7 3.5 64.35 3.75 64.6 3.8 66.45 4.15 66.05 4.25 65.95 4.25 64.35 4.1 64.15 3.9 64.1 3.9 63.3 3.6 62.35 3.25
Q 60.5 2.5 60.15 0.85
L 59.5 -2.7
Q 59 -4.4 60.8 -4.05 62.6 -3.3 64.95 -3.25
M 61.05 -2.5
L 62.6 -2.15 63.55 -2 63.55 -2.1 65.15 -1.9 69.75 -1.05
Q 70.5 -0.05 70.55 1.3
L 70.55 1.45 70.75 1.5
Q 70.8 3.45 70.4 1.9
L 70.45 1.7 70.45 1.55 70.1 0.8 70 0.8 68.75 -0.5 67.85 -0.7 66.35 -1 61.7 -1.55
Q 61.6 0.5 63.05 1.5
L 66.15 3.35 63.6 2.7
Q 60.95 1 61.05 -2.4
L 61.05 -2.5
M 38.55 -3.65
Q 39.25 -4.85 41.35 -4.5 46.9 -2.45 51.25 0.45
L 52.8 2.25
Q 54.85 5.05 55.95 8.55
L 56.2 8.65
Q 56.05 9.35 55.1 8.75
L 55.1 8.6
Q 50.8 1.25 41.7 -3.25 37.5 -0.95 35.15 3.8
L 35.15 3.9 34.9 5.15
Q 34.8 6.4 36.5 6.6
L 36.7 6.65 38.55 7 38.5 7.1 38.45 7.05 37.65 9.05 37.45 8.95
Q 35.05 7.8 32.6 7.35
L 32.35 7.3
Q 31.55 12.65 33.3 16.35
L 33.8 16.9 35.05 17.2 35.35 17.25
Q 40.15 18.2 43.1 16.6
L 43.1 16.75 46 20.5 46.2 20.6
Q 55.05 21.3 57.55 13.3
L 60 12.55 60.05 12.45
Q 65 8.8 71.15 7 72.3 7.65 71.05 7.35
L 70.1 7.35 60.15 12.65 58.05 14.2 57.9 14.35
Q 58.85 15.55 57.65 17.15 53.85 22.6 46.4 22.65
L 45.2 22.4 42.1 18 37.55 18.25 37.2 18.2 33.85 17.7 33.85 17.6 31.55 16.7 30.95 14.2 30.4 5.8 30.45 5.7 31.95 5.85 31.85 6.05 32.45 6.15 33.2 6.45 34.75 6.7 34.7 6.6 33.8 5.1 33.7 5.15 34.1 3.65 38.55 -3.65
M 91.4 2.15
L 91.3 2.45 89.35 2.35
Q 87.25 1.8 85.7 2.25
L 85.75 2.3 84.7 1.75 82.1 2.3 81.9 2.75
Q 81.25 3.05 80.75 2.05
L 76.3 2.45 76.15 2.5
Q 75.8 3.65 75 2.85
L 74.9 2.85 73.2 3.2 74.65 2.7 74.75 2.75 75.95 2.3
Q 79.6 1.25 84 1.15
L 86.4 0.1 86.35 0.75 86.25 0.8
Q 85.5 1.35 86.7 1.4
L 87.2 1.5 87.2 1.35 88.35 1.6 89 1.7 89 1.6 91.4 2 91.4 2.15
M 86.45 2.65
L 86.7 2.45 87.25 2.55
Q 87.25 3.85 86.45 2.65
M 87.9 5.55
L 87.65 5.5 86.45 5.25 85.7 5.1 84.15 5.1 84.05 5.05 82.55 4.9 82.45 4.9
Q 79 4.55 76.8 5.25
L 77.05 5.4 77.2 6.05 76.2 10.9
Q 75.85 11.85 74.9 12.2
L 74.75 12.15 75.35 10.5 75.4 10.25 76.15 6.2 76.1 6.05 75.5 4.8 75.45 4.9 72.45 5.75 72.3 5.85
Q 71.85 6.75 71.45 6.1
L 71.45 5.75 73.9 4.55 78 4.45 81.7 3.8 81.6 4.05 81.85 4.1 82.4 4.4 82.55 4.5 83.75 4.7 83.85 4.55 85.5 4.9 86.6 5.05 87.8 5.25
Q 87.9 3.9 89.1 3.65
L 89.3 5.25 89.7 5.45
Q 90.85 5.35 90.6 6.3
L 89.85 6.15 88.6 6.2 88.6 6.4
Q 87.4 8.15 87.9 5.55
M 81.95 5.9
L 81.55 5.8
Q 80.4 5.65 79.55 5.9
L 79.5 6.15 81.15 10.25 81.1 10.35
Q 79.3 14.15 76.15 15.85
L 71.3 18.4
Q 70.1 18.9 70.2 17.4
L 70.1 17.3 69.95 13.35 69.85 13.35 70.5 10.55 72.8 8 73 6.55
Q 73.8 5.75 75.25 5.95 71.85 8 71.6 12.95
L 71.55 13.05 71.75 13.05 71.4 14.7 71.3 14.65 70.75 16.35 70.65 16.45 70.6 16.55
Q 70.15 17.65 70.9 17.9
L 71 17.8
Q 76.4 15.95 79.75 11.1
L 79.8 11 80 9.55 80.05 9.35
Q 79.9 7.85 79.2 6.55
L 78.8 5.8 78.8 5.7
Q 82.2 5.15 86.95 6.05 86.55 8.55 88.65 8.15 89.1 6.75 90.3 7.2
L 90.4 7.35 89 8.45 89 8.55
Q 88.2 8.5 87.6 8.85
L 87.65 8.75 84.2 6.35 81.95 5.9
M 84.35 3.6
L 84.4 3.3
Q 84.5 2.7 85.25 2.85 85.2 4.65 84.35 3.6
M 79.15 3.9
L 78.95 3.85 77.4 3.85
Q 77.95 2.8 79.65 3.05
L 79.15 3.9
M 72.2 10.9
L 72.25 10.75
Q 72.8 8.4 74.45 7.6
L 73.4 9.45 73.35 9.6 73.15 10.85 73.25 12.2 73.35 12.2 73 14.2 72.9 14.2 72.55 15.15 72.4 15.3
Q 76.3 14.25 78.25 10.4
L 78.45 9.25 78.4 9.05 78.1 6.4
Q 80.05 8.7 78.25 11.9 77.15 13.8 75.35 14.85
L 71.7 16.75
Q 72.8 13.8 72.2 10.9
M 66.3 0.55
L 66.65 0.55 70.2 2.8
Q 67.2 2.45 65.25 0.6 64.6 -0.1 66.3 0.55
M 67.65 5.25
Q 69.6 5.65 68.2 5.8
L 65.7 6.15 65.1 6.75 64.55 7.1 64.4 7.1 64.35 7.35 65.85 7.65 70.75 5.9 62.45 9.9 61.8 10.4 61.7 10.6
Q 60.25 11.1 61.65 10.2
L 62.3 9.75 64.55 8.45 63.4 7.45
Q 62.95 6.8 64.45 6.85
L 64.45 6.6 64.9 6.45 65.6 6.05 65.65 5.95
Q 66.3 4.95 67.65 5.25
M 61.95 5.4
L 61.9 5.3 63.7 5.7 63.75 5.6 64.3 5.6 63.95 6.2 63.95 6.3 62.5 6.25 62.35 6.25
Q 61.8 7 61.95 5.4
M 62.2 8.75
L 62.45 8.8
Q 61.85 9.8 62.2 8.75
M 52.55 11.35
L 52.45 11.35 51.35 9.95 51.3 9.9
Q 48.45 6.8 43.8 4.85 40.7 6 40 9.3
L 40.1 9.65 38.7 9.4
Q 40.7 5.45 44 3.2 49.9 6.7 52.55 11.35
M 55.1 10.15
L 55.25 10.7 55.2 10.85 56 10.95 56.1 11
Q 56.2 10.85 56.75 10.95
L 55.9 11.2 55.65 11.2 55.45 11.15
Q 53.95 11.45 54.55 10.55
L 54.8 10.8 55 10.85 55 10.65
Q 54.9 9.15 56.3 9.8
L 56.4 9.85 57.9 7.5 60.7 8.4 60.55 8.7
Q 59.2 9.15 57.55 8.6
L 57.5 8.75
Q 57.65 10.15 57 10.5
L 55.1 10.15
M 58.1 10.5
L 58.05 10.4 58.85 9.45
Q 59.5 10.4 58.1 10.5
M 59.8 11.45
L 59.8 11.35 60.8 10.9 59.75 11.55 56.85 12.3 56.25 14.25
Q 53.85 19.4 48.05 19.95
L 47.9 19.95 47.5 20.1 46.1 19.8 46 19.7
Q 43.65 17.2 42.4 13.75
L 42.15 12.45 42.2 12.35 50.75 12.45 46.55 13 46.2 12.9 43.9 12.8 43.8 12.75
Q 42.65 12.45 42.7 13.6
L 42.8 13.65 42.85 13.7
Q 44.25 16.8 46.4 19.5
L 46.6 19.5 47.55 19.75 47.75 19.75
Q 53.6 19.1 56.1 14.05
L 56.7 11.9 59.8 11.45
M 49.3 2.85
L 49.55 2.95 49.75 2.95 50.5 3.65 50.6 3.8 50.75 3.85
Q 51.55 5.25 50.55 4
L 49.3 2.95 47.2 1.55 47.2 1.4 42.05 -1.2
Q 39.6 -0.9 38.45 0.9
L 37.5 2.3 36.9 4.95 39.55 6 39.5 6.2 39.15 6.4 36.1 5.85 35.75 5.5 36.15 3.4 38.6 0.05
Q 39.95 -1.85 41.9 -2.45
L 47.2 1.4 47.4 1.5 47.8 1.55 49.3 2.85
M 41.05 11
Q 41.95 11.25 41.4 11.45 40.25 12.05 38.55 11.25
L 35.55 9.9 33.7 9.6 34.1 13.95
Q 34.3 14.65 34.3 15.4 39.05 16.4 42.4 15.5
L 42.55 15.55
Q 42.35 16.2 40.75 16.4
L 36.65 16.65 35.45 16.6 34.3 16.1
Q 32.65 13.65 32.9 10.1
L 32.8 10.1 33.25 8 33.9 8.1
Q 36.9 9.85 41.05 11 Z"/>

<path fill="#949494" stroke="none" d="
M 36.65 16.65
L 35.5 16.45 35.45 16.6 36.65 16.65 Z"/>

<path fill="#444444" stroke="none" d="
M 33.75 9.5
L 33.7 9.6 35.55 9.9 35.6 9.8 33.75 9.5 Z"/>

<path fill="#3F3F3F" stroke="none" d="
M 32.8 10.1
L 32.9 10.1 33.25 8 32.8 10.1 Z"/>

<path fill="#EEEEEE" stroke="none" d="
M 41.4 11.45
Q 41.95 11.25 41.05 11 36.9 9.85 33.9 8.1
L 33.25 8 32.9 10.1
Q 32.65 13.65 34.3 16.1
L 35.45 16.6 35.5 16.45 36.65 16.65 40.75 16.4
Q 42.35 16.2 42.55 15.55
L 42.4 15.5
Q 39.05 16.4 34.3 15.4 34.3 14.65 34.1 13.95
L 33.7 9.6 33.75 9.5 35.6 9.8 35.55 9.9 38.55 11.25
Q 40.25 12.05 41.4 11.45
M 36.9 4.95
L 37.5 2.3 38.45 0.9
Q 39.6 -0.9 42.05 -1.2
L 47.2 1.4 41.9 -2.45
Q 39.95 -1.85 38.6 0.05
L 36.15 3.4 35.75 5.5 36.1 5.85 39.15 6.4 39.5 6.2 39.55 6 36.9 4.95
M 47.2 1.55
L 47.4 1.5 47.2 1.4 47.2 1.55
M 58.05 10.4
L 58.1 10.5
Q 59.5 10.4 58.85 9.45
L 58.05 10.4
M 81.55 5.8
L 81.95 5.9 84.25 6.15 84.2 6.35 87.65 8.75 87.6 8.85
Q 88.2 8.5 89 8.55
L 89 8.45 90.4 7.35 90.3 7.2
Q 89.1 6.75 88.65 8.15 86.55 8.55 86.95 6.05 82.2 5.15 78.8 5.7
L 78.8 5.8 79.2 6.55 79.25 6.45 79.5 6.15 79.55 5.9
Q 80.4 5.65 81.55 5.8
M 86.45 5.25
L 86.4 5.15 85.45 5 83.75 4.7 82.55 4.5 82.55 4.6
Q 81.5 4.6 81.6 4.05
L 81.7 3.8 78 4.45 73.9 4.55 71.45 5.75 71.45 6.1
Q 71.85 6.75 72.3 5.85
L 72.45 5.75 75.45 4.9 75.5 4.8 76.1 6.05 76.15 6.2 76.3 6.25 75.4 10.25 75.35 10.5 74.75 12.15 74.9 12.2
Q 75.85 11.85 76.2 10.9
L 77.2 6.05 77.05 5.4 76.8 5.25
Q 79 4.55 82.45 4.9
L 82.5 4.8 84.05 5.05 84.1 4.95 85.7 5.1 86.45 5.25
M 62.6 -2.15
L 61.3 -2.3 61.05 -2.4
Q 60.95 1 63.6 2.7
L 66.15 3.35 63.05 1.5
Q 61.6 0.5 61.7 -1.55
L 66.35 -1 66.35 -1.15 67.9 -0.95 67.85 -0.7 68.75 -0.5 70 0.8 70.1 0.8 70.45 1.55 70.45 1.7 70.5 1.75 70.55 1.45 70.55 1.3
Q 70.5 -0.05 69.75 -1.05
L 65.15 -1.9 63.65 -1.95 63.55 -2 62.6 -2.15
M 65.15 -3.2
L 64.95 -3.25
Q 62.6 -3.3 60.8 -4.05 59 -4.4 59.5 -2.7
L 60.15 0.85
Q 60.5 2.5 62.35 3.25
L 62.55 3.3 62.95 3.35 62.85 3.15
Q 62.5 2.55 61.9 2.35
L 60.8 0.55 60.05 -1.6
Q 59.55 -3.75 61.55 -3.3
L 61.95 -3.1 63.8 -2.75 65.4 -2.5 66.85 -2.25 66.9 -2.35 68.7 -2.05 68.7 -1.9
Q 71.55 -1.05 71.6 1.35
L 71.95 3 72.1 3
Q 75.65 1.6 80 0.9 80.2 -0.2 81.35 0.15
L 81.45 0.1
Q 82.65 0.85 84.7 0.75
L 84.8 0.75
Q 85.05 -1.25 87.1 -0.65 87.1 0.35 87.95 0.75
L 90.4 1.15
Q 91.45 1.7 91.65 0.8
L 90.05 0.35 89.75 0.35 87.15 -1.1
Q 86.35 -1.2 85.55 -1 84.25 -0.75 83.15 0.05
L 83.05 0.1
Q 80.4 -0.9 78.1 0.3
L 73.6 1.9
Q 72.35 -0.5 70.05 -2.5
L 70.05 -2.6 68.2 -2.95 67 -2.9 66.2 -3.05 65.4 -3.1 65.15 -3.2 Z"/>

<path fill="#A3A3A3" stroke="none" d="
M 50.6 3.8
L 50.55 4
Q 51.55 5.25 50.75 3.85
L 50.6 3.8 Z"/>

<path fill="#D4D4D4" stroke="none" d="
M 49.55 2.95
L 49.3 2.95 50.55 4 50.6 3.8 50.5 3.65 49.75 2.95 49.55 2.95
M 86.45 5.25
L 87.65 5.5 87.6 5.4 86.6 5.05 85.5 4.9 85.45 5 86.4 5.15 86.45 5.25 Z"/>

<path fill="#CDCDCD" stroke="none" d="
M 49.55 2.95
L 49.3 2.85 47.8 1.55 47.4 1.5 47.2 1.55 49.3 2.95 49.55 2.95 Z"/>

<path fill="#979797" stroke="none" d="
M 47.9 19.95
L 47.7 19.9 47.55 19.75 46.6 19.5 47.5 20 47.5 20.1 47.9 19.95 Z"/>

<path fill="#E9E9E9" stroke="none" d="
M 42.65 13.8
L 42.4 13.75
Q 43.65 17.2 46 19.7
L 46.1 19.8 47.5 20.1 47.5 20 46.6 19.5 46.4 19.5
Q 44.25 16.8 42.85 13.7
L 42.8 13.65 42.65 13.8
M 62.45 8.8
L 62.2 8.75
Q 61.85 9.8 62.45 8.8 Z"/>

<path fill="#797979" stroke="none" d="
M 43.8 12.75
L 43.9 12.8 46.2 12.9 43.75 12.65 43.8 12.75
M 82.45 4.9
L 82.55 4.9 84.05 5.05 82.5 4.8 82.45 4.9
M 30.4 5.8
L 31.85 6.05 31.95 5.85 30.45 5.7 30.4 5.8 Z"/>

<path fill="#E3E3E3" stroke="none" d="
M 46.2 12.9
L 46.55 13 50.75 12.45 42.2 12.35 42.15 12.45 42.4 13.75 42.65 13.8 42.8 13.65 42.7 13.6
Q 42.65 12.45 43.8 12.75
L 43.75 12.65 46.2 12.9
M 64.4 7.1
L 64.45 6.85
Q 62.95 6.8 63.4 7.45
L 64.55 8.45 62.3 9.75 62.35 9.9 62.45 9.9 70.75 5.9 65.85 7.65 64.35 7.35 64.4 7.1 Z"/>

<path fill="#D5D5D5" stroke="none" d="
M 59.75 11.55
L 59.8 11.45 56.7 11.9 56.1 14.05
Q 53.6 19.1 47.75 19.75
L 47.55 19.75 47.7 19.9 47.9 19.95 48.05 19.95
Q 53.85 19.4 56.25 14.25
L 56.85 12.3 59.75 11.55 Z"/>

<path fill="#858585" stroke="none" d="
M 59.8 11.35
L 59.8 11.45 59.75 11.55 60.8 10.9 59.8 11.35 Z"/>

<path fill="#555555" stroke="none" d="
M 56 10.95
L 55.7 11.1 55.65 11.2 55.9 11.2 56.75 10.95
Q 56.2 10.85 56.1 11
L 56 10.95 Z"/>

<path fill="#DEDEDE" stroke="none" d="
M 54.8 10.8
L 54.55 10.55
Q 53.95 11.45 55.45 11.15
L 55.65 11.2 55.7 11.1 56 10.95 55.2 10.85 55 10.85 54.8 10.8
M 76.15 2.5
L 75.95 2.3 74.75 2.75 74.65 2.7 74.75 2.8 74.9 2.85 75 2.85
Q 75.8 3.65 76.15 2.5 Z"/>

<path fill="#828282" stroke="none" d="
M 55.1 10.15
L 55.25 10.05
Q 55.6 9.7 56.3 9.8 54.9 9.15 55 10.65
L 55 10.85 55.2 10.85 55.25 10.7 55.1 10.15
M 61.65 10.4
L 61.65 10.2
Q 60.25 11.1 61.7 10.6
L 61.8 10.4 61.65 10.4 Z"/>

<path fill="#ECECEC" stroke="none" d="
M 55.25 10.05
L 55.1 10.15 57 10.5
Q 57.65 10.15 57.5 8.75
L 57.55 8.6
Q 59.2 9.15 60.55 8.7
L 60.7 8.4 57.9 7.5 56.4 9.85 56.3 9.8
Q 55.6 9.7 55.25 10.05
M 68.2 5.8
Q 69.6 5.65 67.65 5.25 66.3 4.95 65.65 5.95
L 65.6 6.05 65.6 6.15 65.7 6.15 68.2 5.8 Z"/>

<path fill="#F1F1F1" stroke="none" d="
M 52.45 11.35
L 52.55 11.35
Q 49.9 6.7 44 3.2 40.7 5.45 38.7 9.4
L 40.1 9.65 40 9.3
Q 40.7 6 43.8 4.85 48.45 6.8 51.3 9.9
L 51.35 9.95 52.45 11.35
M 73.15 10.85
L 73 10.85 73.35 9.6 73.4 9.45 74.45 7.6
Q 72.8 8.4 72.25 10.75
L 72.2 10.9
Q 72.8 13.8 71.7 16.75
L 75.35 14.85
Q 77.15 13.8 78.25 11.9 80.05 8.7 78.1 6.4
L 78.4 9.05 78.45 9.25 78.25 10.4
Q 76.3 14.25 72.4 15.3
L 72.55 15.15 72.9 14.2 73.25 12.2 73.15 10.85
M 78.95 3.85
L 79.15 3.9 79.65 3.05
Q 77.95 2.8 77.4 3.85
L 78.95 3.85 Z"/>

<path fill="#606060" stroke="none" d="
M 62.5 6.25
L 63.95 6.3 62.55 6.1 62.5 6.25
M 87.2 1.35
L 87.2 1.5 87.3 1.5 88.35 1.6 87.2 1.35 Z"/>

<path fill="#EBEBEB" stroke="none" d="
M 64.3 5.6
L 63.75 5.6 63.7 5.7 61.95 5.4
Q 61.8 7 62.35 6.25
L 62.5 6.25 62.55 6.1 63.95 6.3 63.95 6.2 64.3 5.6
M 66.65 0.55
L 66.3 0.55
Q 64.6 -0.1 65.25 0.6 67.2 2.45 70.2 2.8
L 66.65 0.55
M 91.3 2.45
L 91.4 2.15 89 1.7 88.35 1.6 87.3 1.5 87.2 1.5 86.7 1.4
Q 85.5 1.35 86.25 0.8
L 86.35 0.75 86.4 0.1 84 1.15
Q 79.6 1.25 75.95 2.3
L 76.15 2.5 76.3 2.45 80.75 2.05
Q 81.25 3.05 81.9 2.75
L 82.1 2.3 84.7 1.75 85.75 2.3 85.7 2.25
Q 87.25 1.8 89.35 2.35
L 89.4 2.2 91.3 2.45 Z"/>

<path fill="#878787" stroke="none" d="
M 61.9 5.3
L 61.95 5.4 63.7 5.7 61.9 5.3 Z"/>

<path fill="#C9C9C9" stroke="none" d="
M 62.45 9.9
L 62.35 9.9 62.3 9.75 61.65 10.2 61.65 10.4 61.8 10.4 62.45 9.9 Z"/>

<path fill="#D1D1D1" stroke="none" d="
M 64.55 7.1
L 65.1 6.75 64.9 6.45 64.45 6.6 64.45 6.85 64.4 7.1 64.55 7.1 Z"/>

<path fill="#DADADA" stroke="none" d="
M 65.6 6.15
L 65.6 6.05 64.9 6.45 65.1 6.75 65.7 6.15 65.6 6.15 Z"/>

<path fill="#BBBBBB" stroke="none" d="
M 73.35 12.2
L 73.25 12.2 72.9 14.2 73 14.2 73.35 12.2 Z"/>

<path fill="#4D4D4D" stroke="none" d="
M 73 10.85
L 73.15 10.85 73.35 9.6 73 10.85 Z"/>

<path fill="#E6E6E6" stroke="none" d="
M 84.4 3.3
L 84.35 3.6
Q 85.2 4.65 85.25 2.85 84.5 2.7 84.4 3.3 Z"/>

<path fill="#7D7D7D" stroke="none" d="
M 71.4 14.7
L 71.75 13.05 71.55 13.05 71.3 14.65 71.4 14.7
M 64.6 3.9
L 64.6 3.8 64.35 3.75 63.7 3.5 63.45 3.5 63.45 3.6 63.3 3.6 64.1 3.9 64.15 3.9 64.6 3.9 Z"/>

<path fill="#A9A9A9" stroke="none" d="
M 69.85 13.35
L 69.95 13.35 70.5 10.55 69.85 13.35 Z"/>

<path fill="#4F4F4F" stroke="none" d="
M 80.1 9.6
L 80 9.55 79.8 11 80.1 9.6 Z"/>

<path fill="#F3F3F3" stroke="none" d="
M 73 6.55
L 72.8 8 70.5 10.55 69.95 13.35 70.1 17.3 70.2 17.4 70.6 16.55 70.65 16.45 70.75 16.35 71.3 14.65 71.55 13.05 71.6 12.95
Q 71.85 8 75.25 5.95 73.8 5.75 73 6.55 Z"/>

<path fill="#E8E8E8" stroke="none" d="
M 81.1 10.35
L 81.15 10.25 79.5 6.15 79.25 6.45 79.2 6.55
Q 79.9 7.85 80.05 9.35
L 80 9.55 80.1 9.6 79.8 11 79.75 11.1
Q 76.4 15.95 71 17.8
L 70.9 17.9
Q 70.15 17.65 70.6 16.55
L 70.2 17.4
Q 70.1 18.9 71.3 18.4
L 76.15 15.85
Q 79.3 14.15 81.1 10.35 Z"/>

<path fill="#989898" stroke="none" d="
M 84.25 6.15
L 81.95 5.9 84.2 6.35 84.25 6.15
M 89.4 2.2
L 89.35 2.35 91.3 2.45 89.4 2.2
M 38.45 7.05
L 38.5 7.1 38.55 7 36.7 6.65 38.45 7.05 Z"/>

<path fill="#BFBFBF" stroke="none" d="
M 76.3 6.25
L 76.15 6.2 75.4 10.25 76.3 6.25 Z"/>

<path fill="#838383" stroke="none" d="
M 85.45 5
L 85.5 4.9 83.85 4.55 83.75 4.7 85.45 5 Z"/>

<path fill="#909090" stroke="none" d="
M 84.1 4.95
L 84.05 5.05 84.15 5.1 85.7 5.1 84.1 4.95 Z"/>

<path fill="#9B9B9B" stroke="none" d="
M 82.55 4.6
L 82.55 4.5 82.4 4.4 81.85 4.1 81.6 4.05
Q 81.5 4.6 82.55 4.6
M 65.4 -2.5
L 63.8 -2.75 65.35 -2.45 65.4 -2.5 Z"/>

<path fill="#848484" stroke="none" d="
M 89.85 6.15
L 89.75 5.9
Q 88.75 5.5 88.6 6.1
L 88.6 6.2 89.85 6.15 Z"/>

<path fill="#F2F2F2" stroke="none" d="
M 87.65 5.5
L 87.9 5.55
Q 87.4 8.15 88.6 6.4
L 88.6 6.2 88.6 6.1
Q 88.75 5.5 89.75 5.9
L 89.85 6.15 90.6 6.3
Q 90.85 5.35 89.7 5.45
L 89.3 5.25 89.1 3.65
Q 87.9 3.9 87.8 5.25
L 86.6 5.05 87.6 5.4 87.65 5.5 Z"/>

<path fill="#E0E0E0" stroke="none" d="
M 86.7 2.45
L 86.45 2.65
Q 87.25 3.85 87.25 2.55
L 86.7 2.45
M 65.95 4.25
L 66 4.15 64.6 3.9 64.15 3.9 64.35 4.1 65.95 4.25 Z"/>

<path fill="#343434" stroke="none" d="
M 91.4 2.15
L 91.4 2 89 1.6 89 1.7 91.4 2.15 Z"/>

<path fill="#6A6A6A" stroke="none" d="
M 34.75 6.7
L 33.2 6.45 33.15 6.55 34.75 6.7 Z"/>

<path fill="#3E3E3E" stroke="none" d="
M 34.1 3.65
L 33.7 5.15 33.8 5.1 34.1 3.65 Z"/>

<path fill="#898989" stroke="none" d="
M 34.9 5.15
L 35.15 3.9 34.8 5.15 34.9 5.15 Z"/>

<path fill="#8C8C8C" stroke="none" d="
M 55.4 8.8
L 55.1 8.75
Q 56.05 9.35 56.2 8.65
L 55.95 8.55 55.4 8.8 Z"/>

<path fill="#E1E1E1" stroke="none" d="
M 71.05 7.35
Q 72.3 7.65 71.15 7 65 8.8 60.05 12.45
L 60 12.55 60.15 12.65 70.1 7.35 71.05 7.35 Z"/>

<path fill="#F6F6F6" stroke="none" d="
M 41.35 -4.5
Q 39.25 -4.85 38.55 -3.65
L 34.1 3.65 33.8 5.1 34.7 6.6 34.75 6.7 33.15 6.55 33.2 6.45 32.45 6.15 31.85 6.05 30.4 5.8 30.95 14.2 31.55 16.7 33.85 17.6 37.2 18.2 37.55 18.25 42.1 18 45.2 22.4 46.4 22.65
Q 53.85 22.6 57.65 17.15 58.85 15.55 57.9 14.35
L 58.05 14.2 60.15 12.65 60 12.55 57.55 13.3
Q 55.05 21.3 46.2 20.6
L 46 20.5 43.1 16.75 43.1 16.6
Q 40.15 18.2 35.35 17.25
L 35.05 17.2 33.85 17 33.8 16.9 33.3 16.35
Q 31.55 12.65 32.35 7.3
L 32.6 7.35
Q 35.05 7.8 37.45 8.95
L 37.65 9.05 38.45 7.05 36.7 6.65 36.5 6.6
Q 34.8 6.4 34.9 5.15
L 34.8 5.15 35.15 3.9 35.15 3.8
Q 37.5 -0.95 41.7 -3.25 50.8 1.25 55.1 8.6
L 55.1 8.75 55.4 8.8 55.95 8.55
Q 54.85 5.05 52.8 2.25
L 51.25 0.45
Q 46.9 -2.45 41.35 -4.5 Z"/>

<path fill="#B8B8B8" stroke="none" d="
M 70.75 1.5
L 70.55 1.45 70.5 1.75 70.45 1.7 70.4 1.9
Q 70.8 3.45 70.75 1.5 Z"/>

<path fill="#585858" stroke="none" d="
M 66.35 -1.15
L 66.35 -1 67.85 -0.7 67.9 -0.95 66.35 -1.15 Z"/>

<path fill="#686868" stroke="none" d="
M 63.65 -1.95
L 65.15 -1.9 63.55 -2.1 63.55 -2 63.65 -1.95 Z"/>

<path fill="#D7D7D7" stroke="none" d="
M 61.3 -2.3
L 62.6 -2.15 61.05 -2.5 61.05 -2.4 61.3 -2.3 Z"/>

<path fill="#A7A7A7" stroke="none" d="
M 62.55 3.3
L 62.35 3.25 63.3 3.6 63.45 3.6 63.45 3.5 63.3 3.45 63.15 3.35 62.95 3.35 62.55 3.3 Z"/>

<path fill="#414141" stroke="none" d="
M 65.95 4.25
L 66.05 4.25 66.45 4.15 64.6 3.8 64.6 3.9 66 4.15 65.95 4.25
M 65.35 -2.45
L 65.6 -2.35 66.85 -2.25 65.4 -2.5 65.35 -2.45 Z"/>

<path fill="#9E9E9E" stroke="none" d="
M 91.65 0.8
L 91.65 0.7 90.05 0.35 91.65 0.8 Z"/>

<path fill="#A1A1A1" stroke="none" d="
M 66.9 -2.35
L 66.85 -2.25 68.7 -1.9 68.7 -2.05 66.9 -2.35 Z"/>

<path fill="#6C6C6C" stroke="none" d="
M 67 -3.05
L 67 -2.9 68.2 -2.95 67 -3.05 Z"/>

<path fill="#5A5A5A" stroke="none" d="
M 61.95 -3.1
L 62 -3 63.8 -2.75 61.95 -3.1 Z"/>

<path fill="#7F7F7F" stroke="none" d="
M 65.15 -3.2
L 65.4 -3.1 66.2 -3.05 65.15 -3.2 Z"/>
</g>
</defs>

<g transform="matrix( 1, 0, 0, 1, 0,0) ">
<use xlink:href="#Layer3_0_FILL"/>
</g>

<g transform="matrix( 1, 0, 0, 1, 0,0) ">
<use xlink:href="#Layer2_0_FILL"/>
</g>

<g transform="matrix( 1, 0, 0, 1, 0,0) ">
<use xlink:href="#Layer1_0_FILL"/>
</g>

<g transform="matrix( 0.4874420166015625, 0, 0, 0.4874420166015625, 59.65,0.3) ">
<g transform="matrix( 1, 0, 0, 1, -29.45,5.4) ">
<use xlink:href="#S_mbolo_1_0_Layer0_0_FILL"/>
</g>

<g transform="matrix( 1, 0, 0, 1, -29.45,5.4) ">
<use xlink:href="#S_mbolo_1_0_Layer0_1_FILL"/>
</g>
</g>

<g transform="matrix( -0.4874420166015625, 0, 0, 0.4874420166015625, 39.8,0.3) ">
<g transform="matrix( 1, 0, 0, 1, -29.45,5.4) ">
<use xlink:href="#S_mbolo_1_0_Layer0_0_FILL"/>
</g>

<g transform="matrix( 1, 0, 0, 1, -29.45,5.4) ">
<use xlink:href="#S_mbolo_1_0_Layer0_1_FILL"/>
</g>
</g>

<g transform="matrix( 0.4874420166015625, 0, 0, -0.4874420166015625, 59.65,92.65) ">
<g transform="matrix( 1, 0, 0, 1, -29.45,5.4) ">
<use xlink:href="#S_mbolo_1_0_Layer0_0_FILL"/>
</g>

<g transform="matrix( 1, 0, 0, 1, -29.45,5.4) ">
<use xlink:href="#S_mbolo_1_0_Layer0_1_FILL"/>
</g>
</g>

<g transform="matrix( -0.4874420166015625, 0, 0, -0.4874420166015625, 39.8,92.65) ">
<g transform="matrix( 1, 0, 0, 1, -29.45,5.4) ">
<use xlink:href="#S_mbolo_1_0_Layer0_0_FILL"/>
</g>

<g transform="matrix( 1, 0, 0, 1, -29.45,5.4) ">
<use xlink:href="#S_mbolo_1_0_Layer0_1_FILL"/>
</g>
</g>
</svg>
