<?xml version="1.0" encoding="UTF-8"?>
<svg xmlns="http://www.w3.org/2000/svg" xmlns:xlink="http://www.w3.org/1999/xlink" width="395pt" height="373pt" viewBox="0 0 395 373" version="1.1">
<g id="surface1">
<path style=" stroke:none;fill-rule:evenodd;fill:rgb(100%,100%,100%);fill-opacity:1;" d="M 386.300781 364.300781 L 386.300781 7.898438 L 9.101563 7.898438 L 9.101563 364.300781 Z M 367.101563 11.101563 C 367.601563 11.5 367.898438 11.898438 368.398438 12.398438 C 369.398438 14.199219 369.101563 16 367.101563 17.601563 L 368.601563 17.398438 C 370.101563 15.199219 372.101563 14.398438 374.5 15.101563 L 375.101563 18.5 C 373.398438 20 371.601563 20.601563 369.601563 20.300781 C 369.398438 20.101563 369.101563 20 368.898438 20.101563 L 368.898438 24.398438 C 371.199219 23.101563 373.699219 22.5 376.398438 22.699219 C 377.101563 23 377.699219 23.199219 378.300781 23.601563 L 378.398438 23.601563 C 380.101563 24.601563 381.800781 25.5 383.601563 26.199219 C 384.898438 28.601563 385.398438 31.101563 385.300781 33.800781 C 385.300781 34.398438 385 34.800781 384.601563 35.101563 C 382.101563 37.101563 379.800781 39.398438 377.800781 41.601563 L 378 43.101563 C 379.898438 41.398438 381.898438 41.199219 383.898438 42.601563 L 384.398438 43.601563 L 381.398438 45.898438 L 383.101563 46.101563 C 384.5 47.398438 384.898438 48.699219 384.300781 50.300781 L 381.398438 51.601563 L 383.800781 53.101563 C 383.898438 53.800781 383.898438 54.398438 383.898438 55 C 383.898438 56.601563 383.601563 58.398438 383.300781 60.101563 C 382.5 58.898438 381.800781 57.800781 381.101563 56.601563 C 380.699219 56.101563 380.300781 55.601563 379.898438 55.101563 C 377.101563 52.398438 375.5 49.101563 374.898438 45.398438 C 374.898438 45.398438 375 45.199219 375.101563 44.898438 C 375.5 43.898438 375.898438 42.699219 376.300781 41.601563 C 376.898438 39.898438 377.898438 38.398438 379.398438 36.898438 C 380.300781 36.101563 381.101563 35.398438 381.898438 34.601563 C 382.699219 33.398438 383.101563 32.199219 382.800781 31.101563 C 382.800781 30.398438 382.5 29.898438 382.101563 29.300781 C 381.101563 27.601563 379.800781 26.398438 378.300781 26 C 376.800781 25.398438 375.101563 25.398438 373.101563 26 L 374.898438 30.5 L 378.300781 29.898438 C 380 31.300781 380.101563 33.101563 378.601563 35.101563 L 375.101563 35.898438 L 374.5 35.800781 C 375.601563 36.898438 375.601563 38 374.898438 39.300781 C 374.101563 40.898438 372.898438 42.101563 371.5 43.101563 C 371.101563 42.199219 370.800781 41.398438 370.398438 40.5 C 369.101563 38.699219 369.101563 36.898438 370.601563 35.101563 L 368.101563 34.398438 L 367.398438 33.199219 L 367.300781 31.800781 C 367.601563 31.101563 368.101563 30.398438 368.601563 30.101563 C 369.398438 29.699219 370.101563 29.601563 371.101563 29.601563 L 372.398438 30.601563 L 371.800781 28 L 370.101563 27.101563 L 359.601563 28.601563 L 355.898438 27.800781 C 354.601563 27.101563 353.398438 26.398438 352.300781 26.101563 C 351.601563 25.898438 351.300781 25.5 351.101563 25 C 350.5 23.5 349.800781 22.101563 349.101563 20.601563 L 347.398438 21 C 345.101563 20.300781 343.898438 18.699219 343.601563 16.398438 C 343.300781 13.601563 341.898438 11.699219 339.300781 10.601563 C 337.101563 10.398438 334.898438 10.898438 333.101563 12.300781 L 336.398438 12.398438 L 336.898438 13.398438 L 333.601563 15.5 L 332.101563 14.601563 L 329.898438 16.199219 L 328.300781 15.5 L 328.601563 13.398438 L 327.898438 10.300781 L 328.601563 9.300781 L 331.101563 9.101563 L 332.101563 11.101563 C 333.898438 9.601563 335.800781 8.699219 337.601563 8.601563 C 339.398438 8.398438 341.199219 8.898438 343.101563 10 L 348.601563 18.101563 L 349.5 18.101563 L 348.601563 17.601563 C 347.398438 16.5 347.101563 15.101563 347.800781 13.398438 C 349.398438 12.398438 351 12.199219 352.800781 12.699219 L 353.601563 13.800781 C 353.601563 13.800781 353.699219 13.898438 353.800781 14.101563 C 353.800781 13.699219 353.800781 13.601563 353.898438 13.398438 C 353.800781 12.601563 353.800781 12 353.898438 11.398438 C 353.898438 10.601563 354.398438 10.101563 355.101563 9.898438 C 356.800781 9.398438 358.300781 8.898438 359.898438 8.601563 L 358.601563 15.101563 L 356.398438 15.398438 C 357.898438 15.699219 358.601563 16.601563 358.601563 18.101563 C 357.699219 19.898438 356.101563 20.800781 353.800781 20.898438 L 352.398438 20.398438 C 352.5 21.101563 352.898438 21.699219 353.398438 22.5 C 353.898438 23.101563 354.601563 23.601563 355.398438 24.101563 C 357.101563 25.199219 358.898438 25.699219 360.898438 25.601563 C 361.898438 25.601563 362.898438 25.398438 363.601563 25.101563 C 365.398438 24.398438 366.601563 22.898438 367.101563 20.601563 L 365.601563 23.101563 L 362.601563 24.101563 L 360.601563 23.101563 C 359.898438 22.101563 360.101563 21.101563 360.898438 20.398438 C 362 19.101563 363.300781 18.699219 364.800781 19.300781 L 364.101563 17.601563 L 361.800781 16.898438 C 361.101563 16.199219 360.898438 15.5 360.898438 14.898438 C 360.898438 14.199219 361.300781 13.601563 361.800781 13.101563 C 362.699219 12.101563 363.398438 10.898438 364.101563 9.5 C 364.898438 9.898438 365.898438 10.5 367.101563 11.101563 Z M 377.601563 308 L 378.398438 306.5 L 380.5 306.800781 L 383.601563 306 L 384.601563 306.699219 L 384.800781 309.398438 L 382.800781 310.398438 C 384.300781 312.101563 385.101563 314 385.300781 315.800781 C 385.398438 317.601563 384.898438 319.5 383.898438 321.398438 L 375.601563 326.898438 L 375.800781 327.601563 L 376.101563 326.800781 C 377.398438 325.601563 378.800781 325.398438 380.398438 326 C 381.398438 327.5 381.601563 329.101563 381.101563 330.898438 L 380.101563 331.898438 C 380.101563 331.898438 380 331.898438 379.898438 331.898438 C 380.101563 332 380.300781 332 380.398438 332 C 381.101563 332 381.898438 332 382.5 332 C 383.300781 332.101563 383.800781 332.5 384 333.300781 C 384.5 335 384.898438 336.5 385.300781 338.101563 L 378.800781 336.898438 L 378.5 334.601563 C 378.101563 336 377.199219 336.800781 375.800781 336.898438 C 373.898438 335.898438 373.101563 334.199219 373 331.898438 L 373.398438 330.601563 C 372.800781 330.699219 372.101563 331 371.398438 331.601563 C 370.699219 332.101563 370.101563 332.699219 369.601563 333.601563 C 368.601563 335.398438 368.101563 337.101563 368.101563 339.101563 C 368.300781 340.101563 368.398438 341.101563 368.601563 341.898438 C 369.398438 343.699219 370.898438 344.898438 373.300781 345.300781 L 370.601563 343.699219 L 369.800781 340.800781 L 370.800781 338.800781 C 371.800781 338.101563 372.601563 338.199219 373.398438 339 C 374.601563 340.199219 375.101563 341.398438 374.601563 342.898438 L 376.300781 342.398438 L 377 339.898438 C 377.601563 339.398438 378.300781 339 378.898438 339.101563 C 379.601563 339.101563 380.199219 339.5 380.800781 339.898438 C 381.800781 340.898438 383 341.699219 384.398438 342.199219 C 383.898438 343.101563 383.300781 344.101563 382.601563 345.300781 C 382.300781 345.699219 381.898438 346.101563 381.398438 346.601563 C 379.5 347.699219 377.800781 347.199219 376.101563 345.300781 L 376.398438 346.898438 C 378.601563 348.300781 379.300781 350.199219 378.800781 352.601563 L 375.398438 353.199219 C 373.898438 351.601563 373.300781 349.800781 373.601563 347.699219 C 373.699219 347.601563 373.800781 347.398438 373.800781 347.101563 L 369.5 347.101563 C 370.800781 349.398438 371.300781 351.898438 371.101563 354.601563 C 370.898438 355.300781 370.601563 355.898438 370.300781 356.398438 L 370.300781 356.601563 C 369.300781 358.199219 368.398438 359.898438 367.601563 361.800781 C 365.101563 363.101563 362.601563 363.601563 360.101563 363.5 C 359.398438 363.398438 358.898438 363.199219 358.601563 362.800781 C 356.601563 360.199219 354.5 357.898438 352.101563 355.898438 L 350.601563 356.101563 C 352.398438 358.101563 352.601563 360.101563 351.101563 362.101563 L 350.300781 362.601563 L 347.898438 359.601563 L 347.601563 361.300781 C 346.5 362.699219 345.101563 363.101563 343.601563 362.5 L 342.101563 359.601563 L 340.601563 361.898438 C 339.898438 362.101563 339.398438 362.101563 338.898438 362.101563 C 337.101563 362.101563 335.398438 361.800781 333.800781 361.398438 C 334.898438 360.601563 336 359.898438 337.300781 359.199219 C 337.800781 358.898438 338.199219 358.601563 338.601563 358.101563 C 341.5 355.398438 344.699219 353.699219 348.398438 353.101563 C 348.398438 353.199219 348.601563 353.199219 348.898438 353.199219 C 349.898438 353.699219 351.101563 354.101563 352.101563 354.5 C 353.898438 355.101563 355.398438 356.101563 356.898438 357.601563 C 357.699219 358.5 358.5 359.300781 359.300781 360.101563 C 360.398438 360.898438 361.601563 361.199219 362.800781 361 C 363.398438 360.898438 363.898438 360.699219 364.601563 360.300781 C 366.300781 359.300781 367.398438 357.898438 367.898438 356.398438 C 368.398438 354.898438 368.398438 353.300781 367.898438 351.398438 L 363.398438 353.101563 L 364 356.398438 C 362.601563 358.101563 360.800781 358.300781 358.601563 356.800781 L 357.898438 353.398438 L 358.101563 352.601563 C 357 353.699219 355.800781 353.898438 354.601563 353.101563 C 353 352.199219 351.699219 351.101563 350.601563 349.601563 C 351.601563 349.398438 352.5 349 353.398438 348.601563 C 355.101563 347.300781 356.898438 347.398438 358.601563 348.898438 L 359.398438 346.300781 L 360.601563 345.601563 L 362.101563 345.398438 C 362.800781 345.699219 363.398438 346.199219 363.800781 346.898438 C 364.101563 347.5 364.300781 348.398438 364.101563 349.398438 L 363.101563 350.601563 L 365.898438 350 L 366.800781 348.300781 L 365.300781 337.800781 L 366.101563 334.101563 C 366.800781 332.898438 367.398438 331.601563 367.800781 330.5 C 367.898438 329.898438 368.300781 329.5 368.898438 329.398438 C 370.398438 328.601563 371.800781 328 373.300781 327.199219 L 372.898438 325.601563 C 373.601563 323.398438 375.101563 322.101563 377.5 321.898438 C 380.101563 321.5 382.101563 320 383.101563 317.5 C 383.398438 315.199219 382.898438 313.101563 381.601563 311.300781 L 381.398438 314.5 L 380.398438 315.101563 L 378.398438 311.898438 L 379.101563 310.398438 Z M 225.300781 11.601563 L 226.101563 11.601563 C 229.101563 12.398438 232.101563 12.898438 235.300781 13.101563 L 235.800781 13.101563 C 235.398438 13.5 235.101563 13.898438 234.800781 14.101563 C 234.199219 14.601563 233.601563 15.101563 232.800781 15.601563 C 231.601563 16.601563 230.199219 17.601563 228.800781 18.601563 C 228.5 18.898438 228.199219 19.101563 227.800781 19.199219 C 226.800781 19.601563 225.699219 19.699219 224.601563 19.601563 L 224.300781 19.601563 C 224.101563 19.5 223.800781 19.398438 223.699219 19.398438 C 223.300781 18.898438 222.898438 18.398438 222.601563 17.898438 C 222.398438 17.699219 222.300781 17.601563 222.199219 17.5 L 222.101563 16.898438 L 220.699219 17.101563 C 221.300781 17.800781 221.699219 18.601563 221.800781 19.398438 C 222 19.898438 222.101563 20.398438 222.101563 21.101563 C 222 21.601563 221.800781 22 221.601563 22.5 C 221.300781 23.101563 220.898438 23.601563 220.300781 23.898438 C 219.800781 23.800781 219.398438 23.601563 219.101563 23.398438 C 218.800781 23.300781 218.5 23.101563 218.300781 22.898438 C 218 22.601563 217.699219 22.5 217.300781 22.5 C 217.101563 22.398438 217 22.101563 217 21.699219 C 216.800781 21.5 216.800781 21.199219 216.800781 20.898438 C 216.601563 20.601563 216.601563 20.300781 216.601563 20.101563 C 216.699219 19.601563 216.800781 19.199219 217 18.898438 L 213.800781 17.601563 C 213.601563 17.398438 213.398438 17.101563 213.300781 17.101563 C 212.601563 16.601563 211.898438 16.101563 211.300781 15.398438 C 211.199219 15.101563 210.898438 14.898438 210.699219 14.601563 L 210.601563 14.601563 C 210.5 14.398438 210.398438 14.300781 210.300781 14.101563 C 210.300781 14.101563 210.101563 13.898438 209.800781 13.601563 C 209.300781 13.300781 208.800781 13.101563 208.300781 12.898438 C 208 12.699219 207.800781 12.601563 207.601563 12.601563 C 207.5 12.601563 207.398438 12.601563 207.300781 12.601563 L 207.101563 12.601563 C 205.800781 12.398438 204.601563 12.601563 203.398438 12.898438 C 203.199219 12.898438 203 13.101563 202.800781 13.101563 C 202.601563 13.199219 202.398438 13.398438 202.300781 13.601563 C 202.199219 13.898438 202.101563 14.101563 202 14.398438 C 201.699219 14.601563 201.5 14.898438 201.5 15.398438 C 201.300781 16 201.300781 16.601563 201.5 17.101563 L 202.800781 18.101563 C 203 17.898438 203 17.800781 202.800781 17.601563 L 203.101563 17.5 L 203.101563 17.199219 L 202.800781 16.898438 C 203.5 16.199219 204.300781 15.898438 205.199219 15.800781 C 206.101563 15.601563 206.800781 16 207.300781 16.898438 C 207.5 17.101563 207.601563 17.398438 207.601563 17.898438 C 207.898438 19 207.699219 20.101563 206.800781 21.101563 C 206.5 21.5 206.101563 21.898438 205.800781 22.101563 C 204.300781 22.699219 203 22.601563 201.800781 21.898438 C 201.398438 21.800781 201.199219 21.601563 200.898438 21.5 C 200.300781 20.101563 199.898438 18.601563 199.800781 17.101563 C 199.699219 17.101563 199.601563 16.898438 199.601563 16.800781 L 199.601563 16.398438 C 199.398438 16.601563 199.300781 16.601563 199.300781 16.601563 C 199.300781 16.699219 199.300781 16.800781 199.300781 16.898438 C 198 17.398438 196.800781 17.101563 195.800781 16.101563 L 195.800781 15.898438 C 195.800781 15.898438 195.800781 15.898438 195.800781 15.800781 L 195.800781 16.398438 C 195.601563 16.699219 195.5 16.898438 195.5 17.101563 C 195.199219 18.601563 194.800781 20.101563 194.300781 21.5 C 194.101563 21.601563 193.800781 21.699219 193.601563 21.898438 C 192.199219 22.601563 190.800781 22.699219 189.398438 22.101563 C 188.898438 21.898438 188.601563 21.601563 188.101563 21.101563 C 187.300781 20.101563 187.101563 19.101563 187.398438 17.898438 C 187.5 17.398438 187.601563 17.101563 187.800781 16.898438 C 188.300781 15.898438 189 15.601563 189.800781 15.800781 C 190.800781 15.898438 191.601563 16.199219 192.300781 16.898438 L 192.101563 17.199219 L 192.101563 17.5 L 192.300781 17.601563 C 192.101563 17.800781 192.101563 17.898438 192.300781 18.101563 L 193.601563 17.101563 C 193.699219 16.601563 193.699219 16.101563 193.601563 15.5 L 193.601563 15.398438 C 193.699219 15 193.398438 14.601563 193.101563 14.398438 C 193 14.101563 192.898438 13.898438 192.800781 13.601563 C 192.699219 13.398438 192.398438 13.199219 192.300781 13.101563 C 192.101563 13 191.898438 12.898438 191.800781 12.898438 C 190.5 12.601563 189.300781 12.398438 188 12.601563 C 187.699219 12.398438 187.300781 12.601563 187 12.898438 C 186.300781 13.101563 185.800781 13.398438 185.300781 13.601563 C 185.199219 13.898438 184.898438 14 184.601563 14.101563 C 184.601563 14.300781 184.5 14.398438 184.300781 14.601563 C 184.199219 14.898438 184.101563 15.101563 184 15.398438 C 183.398438 16.101563 182.800781 16.601563 181.898438 17.101563 C 181.800781 17.101563 181.699219 17.398438 181.300781 17.601563 L 178.101563 18.898438 C 178.300781 19.199219 178.300781 19.601563 178.5 20.101563 L 178.5 20.898438 C 178.300781 21.199219 178.300781 21.5 178.101563 21.699219 C 178.101563 22.101563 177.898438 22.398438 177.800781 22.5 C 177.5 22.398438 177.300781 22.601563 177 22.898438 C 176.699219 23.101563 176.300781 23.300781 175.898438 23.398438 C 175.699219 23.699219 175.300781 23.898438 174.898438 23.898438 C 174.300781 23.601563 173.800781 23.101563 173.5 22.5 C 173.300781 22 173.300781 21.601563 173.300781 21.101563 C 172.898438 19.601563 173.300781 18.199219 174.300781 17.101563 L 173 16.898438 L 173 17.5 C 172.800781 17.601563 172.601563 17.699219 172.398438 17.898438 C 172.101563 18.398438 171.800781 18.898438 171.398438 19.398438 C 171.101563 19.5 170.800781 19.601563 170.601563 19.601563 C 169.398438 19.699219 168.300781 19.601563 167.300781 19.199219 C 166.800781 19.101563 166.601563 18.898438 166.300781 18.601563 C 164.800781 17.699219 163.601563 16.699219 162.5 15.601563 C 161.699219 15.101563 160.898438 14.601563 160.300781 14.101563 C 160.101563 13.898438 159.800781 13.5 159.601563 13.101563 L 159.699219 13.101563 C 162.800781 12.898438 166 12.398438 169.199219 11.601563 L 170 11.601563 C 170.800781 11.601563 171.5 11.601563 172.300781 11.601563 C 173.101563 11.601563 173.601563 11.898438 173.800781 12.398438 C 174.199219 12.601563 174.300781 12.898438 174.300781 13.101563 C 174.300781 13.699219 174.300781 14.199219 174.300781 14.800781 C 174.5 14.699219 174.699219 14.898438 174.800781 15.101563 C 174.898438 15.101563 175.101563 15.101563 175.300781 15.398438 C 175.601563 15.398438 175.898438 15.398438 176.300781 15.601563 C 176.300781 15.199219 176.199219 15.101563 176.199219 15 L 176.199219 13.101563 C 176.199219 12.398438 176.601563 11.800781 177.101563 11.398438 L 179.800781 11.5 L 180.601563 12.101563 L 180.5 15.101563 C 180.601563 15.101563 180.699219 15 181.101563 15 C 181.199219 14.699219 181.5 14.398438 181.800781 14 C 182.101563 13.800781 182.300781 13.601563 182.5 13.398438 L 182.601563 13.398438 C 182.601563 13.300781 182.699219 13.199219 182.699219 13.101563 C 183.101563 12.699219 183.300781 12.199219 183.5 11.898438 C 183.5 11.601563 185.101563 10.800781 188.101563 9.398438 C 188.699219 9.101563 189.199219 8.800781 189.800781 8.601563 C 190.398438 8.601563 190.898438 8.601563 191.5 8.898438 C 191.800781 9.101563 192.101563 9.101563 192.300781 9.300781 C 192.300781 9.398438 192.398438 9.398438 192.601563 9.398438 C 193.300781 9.398438 193.800781 9.601563 194.199219 10.101563 C 194.300781 10.398438 194.300781 10.601563 194.300781 10.898438 C 194.300781 11 194.300781 11.101563 194.5 11.398438 C 194.699219 11.300781 194.800781 11.199219 194.800781 11.101563 C 195 10.398438 195.601563 9.800781 196.398438 9.398438 C 197.300781 8.898438 198.101563 8.800781 199 9.101563 C 199.699219 9.300781 200.300781 9.800781 200.800781 10.601563 C 200.699219 10.601563 200.800781 10.699219 200.898438 10.898438 C 200.800781 10.601563 200.800781 10.398438 201.199219 10.101563 C 201.300781 9.898438 201.300781 9.800781 201.5 9.699219 C 201.800781 9.5 202.199219 9.398438 202.601563 9.398438 C 202.601563 9.300781 202.699219 9.300781 202.800781 9.300781 C 203.101563 9.101563 203.300781 8.898438 203.601563 8.898438 C 204.199219 8.699219 204.699219 8.601563 205.199219 8.601563 C 205.800781 8.898438 206.398438 9.101563 207.101563 9.398438 C 207.199219 9.398438 207.300781 9.398438 207.300781 9.5 C 207.5 9.601563 207.601563 9.601563 207.601563 9.699219 C 209.300781 10.398438 210.601563 11.101563 211.101563 11.5 C 211.398438 11.601563 211.601563 11.800781 211.601563 11.898438 C 211.800781 12.199219 212.101563 12.601563 212.300781 13.101563 L 212.5 13.398438 C 212.800781 13.5 213.101563 13.699219 213.300781 14 C 213.601563 14.398438 213.898438 14.601563 214.300781 15 C 214.300781 15 214.601563 15.101563 214.800781 15.101563 L 214.398438 12.101563 L 215.300781 11.5 L 217.800781 11.398438 C 218.5 11.800781 218.800781 12.398438 218.800781 13.101563 L 218.800781 15.601563 C 219.101563 15.398438 219.300781 15.398438 219.699219 15.398438 C 219.898438 15.199219 220.199219 15.101563 220.5 15.101563 C 220.398438 14.898438 220.5 14.800781 220.699219 14.800781 C 220.699219 14.199219 220.800781 13.699219 220.800781 13.101563 C 220.898438 12.898438 221.101563 12.601563 221.300781 12.398438 C 221.699219 11.898438 222.101563 11.601563 222.800781 11.601563 C 223.601563 11.601563 224.398438 11.601563 225.300781 11.601563 Z M 63.800781 14.601563 L 62.398438 15.5 L 59.101563 13.398438 L 59.601563 12.398438 L 62.898438 12.300781 C 61 10.898438 59 10.398438 56.601563 10.601563 C 54.101563 11.699219 52.699219 13.601563 52.398438 16.398438 C 52.101563 18.699219 50.800781 20.199219 48.5 21 L 46.898438 20.601563 C 46.101563 22.101563 45.5 23.5 44.800781 25 C 44.601563 25.601563 44.300781 25.898438 43.601563 26.101563 C 42.5 26.398438 41.300781 27 40.101563 27.800781 L 36.398438 28.601563 L 25.898438 27.101563 L 24.101563 28 L 23.601563 30.601563 L 24.898438 29.601563 C 25.800781 29.5 26.601563 29.601563 27.300781 30.101563 C 27.898438 30.398438 28.398438 31 28.800781 31.800781 L 28.601563 33.199219 L 27.898438 34.398438 L 25.300781 35.101563 C 26.800781 36.898438 26.898438 38.699219 25.601563 40.5 C 25.101563 41.398438 24.800781 42.199219 24.5 43.101563 C 23.101563 42.101563 21.898438 40.898438 21.101563 39.300781 C 20.300781 38.101563 20.398438 36.898438 21.5 35.800781 L 20.800781 35.898438 L 17.398438 35.101563 C 15.898438 33.101563 16 31.300781 17.800781 29.898438 L 21.101563 30.5 L 22.898438 26 C 20.898438 25.398438 19.101563 25.398438 17.800781 26 C 16.199219 26.398438 14.898438 27.601563 13.898438 29.300781 C 13.398438 29.898438 13.199219 30.398438 13.199219 31.101563 C 12.898438 32.300781 13.300781 33.398438 14.101563 34.601563 C 14.898438 35.300781 15.699219 36.101563 16.601563 36.898438 C 18.101563 38.398438 19.101563 39.898438 19.601563 41.601563 C 20 42.699219 20.398438 43.898438 20.898438 44.898438 C 20.898438 45.101563 20.898438 45.398438 21.101563 45.398438 C 20.398438 49.101563 18.800781 52.398438 16.101563 55.101563 C 15.699219 55.601563 15.300781 56.101563 14.898438 56.601563 C 14.199219 57.800781 13.398438 58.898438 12.800781 60.101563 C 12.300781 58.398438 12.101563 56.601563 12.101563 55 C 12.101563 54.398438 12.199219 53.800781 12.300781 53.101563 L 14.601563 51.601563 L 11.699219 50.300781 C 11.101563 48.699219 11.398438 47.398438 12.800781 46.101563 L 14.601563 45.898438 L 11.601563 43.601563 L 12.101563 42.601563 C 14.101563 41.101563 16.101563 41.398438 18 43.101563 L 18.300781 41.601563 C 16.199219 39.398438 13.898438 37.101563 11.398438 35.101563 C 11 34.898438 10.800781 34.398438 10.699219 33.800781 C 10.5 31.101563 11.101563 28.601563 12.398438 26.199219 C 14.199219 25.5 15.898438 24.601563 17.601563 23.601563 L 17.800781 23.601563 C 18.300781 23.199219 18.898438 22.898438 19.601563 22.699219 C 22.300781 22.601563 24.800781 23.101563 27.101563 24.398438 L 27.101563 20.101563 C 26.898438 20.101563 26.601563 20.101563 26.398438 20.300781 C 24.398438 20.601563 22.601563 20 20.898438 18.5 L 21.5 15.101563 C 23.898438 14.398438 25.898438 15.199219 27.300781 17.398438 L 28.898438 17.601563 C 26.898438 16 26.5 14.199219 27.601563 12.398438 C 28 11.898438 28.398438 11.601563 28.898438 11.101563 C 30.101563 10.5 31.101563 9.898438 31.898438 9.5 C 32.398438 10.800781 33.300781 12 34.300781 13.101563 C 34.699219 13.601563 35 14.199219 35 14.898438 C 35.101563 15.601563 34.800781 16.199219 34.300781 16.898438 L 31.800781 17.601563 L 31.300781 19.300781 C 32.699219 18.699219 34 19.101563 35.101563 20.398438 C 35.898438 21.101563 36 22.101563 35.398438 23.101563 L 33.398438 24.101563 L 30.398438 23.101563 L 28.898438 20.601563 C 29.300781 22.898438 30.398438 24.398438 32.398438 25.101563 C 33.101563 25.398438 34 25.601563 35 25.601563 C 37 25.699219 38.800781 25.199219 40.5 24.101563 C 41.398438 23.601563 42 23.101563 42.5 22.5 C 43 21.699219 43.398438 21 43.601563 20.398438 L 42.300781 20.898438 C 39.898438 20.800781 38.300781 19.898438 37.300781 18.101563 C 37.398438 16.601563 38.101563 15.699219 39.5 15.398438 L 37.300781 15.101563 L 36.101563 8.601563 C 37.601563 8.898438 39.199219 9.300781 40.898438 9.898438 C 41.601563 10.101563 42 10.601563 42.101563 11.398438 C 42.101563 11.898438 42.101563 12.601563 42.101563 13.398438 C 42.101563 13.601563 42.199219 13.699219 42.300781 14.101563 C 42.300781 13.898438 42.300781 13.699219 42.398438 13.800781 L 43.300781 12.699219 C 45 12.199219 46.601563 12.398438 48.101563 13.398438 C 48.800781 15.101563 48.5 16.398438 47.398438 17.601563 L 46.5 18.101563 L 47.300781 18.101563 L 52.800781 10 C 54.800781 8.898438 56.601563 8.398438 58.398438 8.601563 C 60.300781 8.699219 62 9.601563 63.800781 11.101563 L 64.800781 9.101563 L 67.398438 9.300781 L 68.101563 10.300781 L 67.300781 13.398438 L 67.699219 15.5 L 66.101563 16.199219 Z M 12.398438 306 L 15.5 306.800781 L 17.601563 306.5 L 18.398438 308 L 16.898438 310.398438 L 17.601563 311.898438 L 15.601563 315.101563 L 14.601563 314.5 L 14.398438 311.300781 C 13.101563 313.101563 12.601563 315.199219 12.800781 317.5 C 13.898438 320 15.800781 321.5 18.5 321.898438 C 20.898438 322 22.398438 323.300781 23.101563 325.601563 L 22.800781 327.199219 C 24.199219 328 25.601563 328.699219 27.101563 329.398438 C 27.601563 329.5 28.101563 329.898438 28.300781 330.5 C 28.601563 331.601563 29.101563 332.898438 29.898438 334.101563 L 30.800781 337.800781 L 29.101563 348.300781 L 30.101563 350 L 32.800781 350.601563 L 31.898438 349.398438 C 31.699219 348.398438 31.800781 347.5 32.101563 346.898438 C 32.601563 346.300781 33.101563 345.800781 33.898438 345.398438 L 35.398438 345.601563 L 36.601563 346.300781 L 37.300781 348.898438 C 39.101563 347.398438 40.898438 347.199219 42.601563 348.601563 C 43.5 349 44.398438 349.398438 45.300781 349.601563 C 44.300781 351.101563 43 352.300781 41.398438 353.101563 C 40.101563 353.898438 39 353.699219 37.898438 352.601563 L 38.101563 353.398438 L 37.300781 356.800781 C 35.101563 358.300781 33.398438 358.199219 32 356.398438 L 32.601563 353.101563 L 28.101563 351.398438 C 27.601563 353.300781 27.601563 354.898438 28.101563 356.398438 C 28.601563 357.898438 29.601563 359.300781 31.398438 360.300781 C 31.898438 360.699219 32.601563 360.898438 33.101563 361 C 34.398438 361.199219 35.601563 360.898438 36.800781 360.101563 C 37.5 359.300781 38.300781 358.5 39.101563 357.601563 C 40.5 356.101563 42.101563 355.101563 43.800781 354.5 C 45 354.101563 46 353.699219 47 353.199219 C 47.398438 353.199219 47.5 353.199219 47.601563 353.101563 C 51.300781 353.699219 54.5 355.398438 57.300781 358.101563 C 57.800781 358.601563 58.199219 358.898438 58.800781 359.199219 C 60 360 61.101563 360.699219 62.300781 361.398438 C 60.5 361.800781 58.898438 362.101563 57.101563 362.101563 C 56.5 362.101563 56 362.101563 55.398438 361.898438 L 53.800781 359.601563 L 52.398438 362.5 C 50.898438 363.101563 49.5 362.699219 48.300781 361.300781 L 48.101563 359.601563 L 45.601563 362.601563 L 44.800781 362.101563 C 43.398438 360.101563 43.5 358.101563 45.300781 356.101563 L 43.800781 355.898438 C 41.5 357.898438 39.300781 360.199219 37.300781 362.800781 C 37 363.199219 36.5 363.398438 35.898438 363.5 C 33.300781 363.601563 30.800781 363.101563 28.398438 361.800781 C 27.601563 359.898438 26.800781 358.199219 25.601563 356.601563 L 25.601563 356.398438 C 25.398438 355.898438 25.101563 355.300781 24.898438 354.601563 C 24.601563 351.898438 25.199219 349.398438 26.5 347.101563 L 22.101563 347.101563 C 22.101563 347.300781 22.300781 347.5 22.398438 347.699219 C 22.800781 349.800781 22.101563 351.601563 20.601563 353.199219 L 17.300781 352.601563 C 16.601563 350.199219 17.398438 348.300781 19.601563 346.898438 L 19.898438 345.300781 C 18.199219 347.199219 16.398438 347.601563 14.601563 346.601563 C 14.101563 346.199219 13.699219 345.699219 13.398438 345.300781 C 12.699219 344.101563 12.101563 343.101563 11.601563 342.199219 C 12.898438 341.699219 14.199219 340.898438 15.300781 339.898438 C 15.800781 339.5 16.398438 339.199219 17.101563 339.101563 C 17.699219 339 18.398438 339.300781 19 339.898438 L 19.800781 342.398438 L 21.398438 342.898438 C 20.898438 341.398438 21.300781 340.199219 22.601563 339 C 23.300781 338.300781 24.199219 338.199219 25.300781 338.800781 L 26.300781 340.800781 L 25.398438 343.699219 L 22.800781 345.300781 C 25 344.898438 26.5 343.699219 27.300781 341.898438 C 27.601563 341.101563 27.699219 340.101563 27.898438 339.101563 C 27.898438 337.101563 27.398438 335.398438 26.398438 333.601563 C 25.898438 332.699219 25.300781 332.101563 24.601563 331.601563 C 23.898438 331.101563 23.199219 330.699219 22.601563 330.601563 L 23 331.898438 C 22.898438 334.199219 22 335.898438 20.101563 336.898438 C 18.699219 336.800781 17.898438 336 17.5 334.601563 L 17.300781 336.898438 L 10.800781 338.101563 C 11.101563 336.5 11.398438 335 12 333.300781 C 12.300781 332.5 12.800781 332.101563 13.5 332 C 14.101563 332 14.800781 332 15.601563 332 C 15.699219 332 15.898438 332 16.199219 331.898438 C 16 331.898438 15.898438 331.898438 15.898438 331.898438 L 14.898438 330.898438 C 14.398438 329.101563 14.601563 327.5 15.601563 326 C 17.300781 325.398438 18.601563 325.601563 19.898438 326.800781 L 20.101563 327.601563 L 20.300781 326.898438 L 12.101563 321.398438 C 11 319.398438 10.601563 317.5 10.800781 315.800781 C 10.898438 314 11.800781 312.101563 13.300781 310.398438 L 11.300781 309.398438 L 11.398438 306.699219 Z M 159.699219 359.101563 L 159.601563 359.101563 C 159.800781 358.699219 160.101563 358.300781 160.300781 358.101563 C 160.898438 357.699219 161.699219 357.199219 162.5 356.699219 C 163.601563 355.601563 164.800781 354.601563 166.300781 353.601563 C 166.601563 353.398438 166.800781 353.199219 167.300781 353.101563 C 168.300781 352.699219 169.300781 352.601563 170.601563 352.601563 C 170.800781 352.601563 171.101563 352.699219 171.398438 352.898438 C 171.699219 353.398438 172.101563 353.898438 172.398438 354.398438 C 172.601563 354.5 172.800781 354.601563 173 354.800781 L 173 355.398438 L 174.300781 355.101563 C 173.300781 354 172.898438 352.601563 173.300781 351.101563 C 173.199219 350.699219 173.300781 350.300781 173.5 349.800781 C 173.800781 349.199219 174.300781 348.699219 174.898438 348.398438 C 175.300781 348.398438 175.699219 348.601563 175.898438 348.898438 C 176.300781 348.898438 176.699219 349.101563 177 349.398438 C 177.199219 349.601563 177.398438 349.800781 177.800781 349.800781 C 178 349.898438 178.101563 350.199219 178.101563 350.601563 C 178.300781 350.800781 178.300781 351.101563 178.5 351.398438 L 178.5 352.101563 C 178.300781 352.601563 178.300781 353.101563 178.101563 353.398438 L 181.300781 354.601563 C 181.699219 354.898438 181.800781 355.101563 181.898438 355.101563 C 182.800781 355.601563 183.398438 356.101563 184 356.898438 C 184.101563 357.101563 184.199219 357.300781 184.300781 357.601563 C 184.398438 357.699219 184.601563 357.898438 184.601563 358.101563 C 184.898438 358.199219 185.199219 358.398438 185.300781 358.601563 C 185.800781 358.898438 186.300781 359.101563 187 359.398438 C 187.300781 359.699219 187.601563 359.699219 188 359.601563 C 189.300781 359.699219 190.601563 359.601563 191.800781 359.398438 C 191.898438 359.300781 192.101563 359.199219 192.300781 359.101563 C 192.398438 359 192.699219 358.800781 192.800781 358.601563 C 192.898438 358.300781 192.898438 358.101563 193.101563 357.800781 C 193.398438 357.601563 193.601563 357.199219 193.601563 356.898438 L 193.601563 356.800781 C 193.699219 356.199219 193.699219 355.601563 193.601563 355.101563 L 192.300781 354.199219 C 192.101563 354.300781 192.101563 354.398438 192.300781 354.601563 L 192.101563 354.800781 L 192.101563 355.101563 L 192.300781 355.398438 C 191.601563 356.101563 190.800781 356.398438 189.800781 356.5 C 189 356.601563 188.300781 356.300781 187.800781 355.398438 C 187.601563 355.101563 187.398438 354.800781 187.398438 354.398438 C 187.199219 353.199219 187.300781 352.101563 188.101563 351.101563 C 188.601563 350.699219 188.898438 350.398438 189.398438 350.101563 C 190.800781 349.5 192.199219 349.601563 193.601563 350.398438 C 193.800781 350.398438 194.101563 350.601563 194.300781 350.800781 C 194.800781 352.101563 195.300781 353.601563 195.5 355.101563 C 195.398438 355.300781 195.601563 355.601563 195.800781 355.898438 L 195.800781 356.5 C 195.800781 356.398438 195.800781 356.300781 195.800781 356.300781 L 195.800781 356.199219 C 196.800781 355.101563 198 354.898438 199.300781 355.398438 C 199.199219 355.398438 199.300781 355.601563 199.300781 355.601563 C 199.398438 355.601563 199.5 355.699219 199.601563 355.898438 L 199.601563 355.5 C 199.601563 355.398438 199.699219 355.199219 199.800781 355.101563 C 200 353.601563 200.300781 352.101563 200.898438 350.800781 C 201.199219 350.601563 201.398438 350.398438 201.800781 350.398438 C 203 349.601563 204.300781 349.5 205.800781 350.101563 C 206.101563 350.398438 206.5 350.699219 206.800781 351.101563 C 207.699219 352.101563 207.898438 353.199219 207.601563 354.398438 C 207.601563 354.800781 207.5 355.101563 207.300781 355.398438 C 206.800781 356.300781 206.101563 356.601563 205.199219 356.5 C 204.300781 356.398438 203.601563 356 202.800781 355.398438 L 203.101563 355.101563 L 203.101563 354.800781 L 202.800781 354.601563 C 203 354.398438 203 354.398438 202.800781 354.199219 L 201.5 355.101563 C 201.300781 355.601563 201.300781 356.199219 201.5 356.898438 C 201.5 357.199219 201.699219 357.601563 202 357.800781 C 202.101563 358.101563 202.199219 358.398438 202.300781 358.601563 C 202.398438 358.800781 202.601563 359 202.800781 359.101563 C 203 359.199219 203.199219 359.300781 203.398438 359.398438 C 204.601563 359.699219 205.800781 359.699219 207.101563 359.601563 L 207.300781 359.601563 C 207.398438 359.601563 207.601563 359.601563 207.601563 359.601563 C 207.800781 359.601563 208 359.601563 208.300781 359.398438 C 208.800781 359.101563 209.300781 358.898438 209.800781 358.601563 C 210.101563 358.300781 210.300781 358.199219 210.300781 358.101563 C 210.398438 357.898438 210.398438 357.699219 210.601563 357.601563 L 210.699219 357.601563 C 210.898438 357.398438 211.199219 357.101563 211.300781 356.898438 C 211.898438 356.199219 212.601563 355.601563 213.300781 355.101563 C 213.398438 355.101563 213.601563 354.898438 213.800781 354.601563 L 217 353.398438 C 216.800781 353.101563 216.699219 352.601563 216.601563 352.101563 C 216.601563 351.898438 216.601563 351.699219 216.800781 351.398438 C 216.699219 351.101563 216.800781 350.800781 217 350.601563 C 216.898438 350.199219 217.101563 349.898438 217.300781 349.800781 C 217.699219 349.800781 218.101563 349.601563 218.300781 349.398438 C 218.5 349.101563 218.800781 348.898438 219.101563 348.898438 C 219.398438 348.601563 219.800781 348.398438 220.300781 348.398438 C 220.898438 348.699219 221.300781 349.101563 221.601563 349.800781 C 221.898438 350.300781 222.101563 350.699219 222.101563 351.101563 C 222.101563 351.699219 222 352.398438 221.800781 352.898438 C 221.699219 353.699219 221.300781 354.398438 220.699219 355.101563 L 222.101563 355.398438 L 222.199219 354.800781 L 222.601563 354.398438 C 222.898438 353.898438 223.300781 353.398438 223.699219 352.898438 C 223.800781 352.800781 224.101563 352.699219 224.300781 352.601563 L 224.601563 352.601563 C 225.699219 352.601563 226.800781 352.699219 227.800781 353.101563 C 228.199219 353.101563 228.601563 353.398438 228.800781 353.601563 C 230.199219 354.601563 231.601563 355.601563 232.800781 356.699219 C 233.601563 357.199219 234.199219 357.601563 234.800781 358.101563 C 235.101563 358.300781 235.398438 358.699219 235.800781 359.101563 L 235.300781 359.101563 C 232.101563 359.300781 229.101563 359.800781 226.101563 360.601563 L 225.300781 360.601563 C 224.398438 360.699219 223.601563 360.699219 222.800781 360.601563 C 222.199219 360.601563 221.699219 360.300781 221.300781 359.800781 C 221.101563 359.601563 220.898438 359.300781 220.800781 359.101563 C 220.699219 358.601563 220.699219 358.101563 220.699219 357.5 C 220.601563 357.398438 220.5 357.300781 220.5 357.101563 C 220.199219 357.199219 219.898438 357.101563 219.699219 356.898438 C 219.398438 356.898438 219.101563 356.800781 218.800781 356.699219 L 218.800781 359.101563 C 218.800781 359.800781 218.5 360.398438 217.800781 360.898438 L 215.300781 360.800781 L 214.398438 360.199219 L 214.800781 357.101563 C 214.601563 357.199219 214.300781 357.300781 214.300781 357.300781 C 213.898438 357.601563 213.601563 357.898438 213.300781 358.300781 C 213.101563 358.601563 212.800781 358.699219 212.5 358.800781 L 212.5 358.898438 L 212.300781 359.101563 C 212.101563 359.601563 211.800781 360 211.601563 360.300781 C 211.699219 360.398438 211.398438 360.601563 211.101563 360.800781 C 210.601563 361.199219 209.398438 361.800781 207.601563 362.601563 C 207.601563 362.699219 207.5 362.699219 207.300781 362.800781 C 207.300781 362.800781 207.199219 362.800781 207.101563 362.800781 C 206.398438 363.199219 205.800781 363.398438 205.199219 363.699219 C 204.699219 363.699219 204.199219 363.601563 203.601563 363.300781 C 203.300781 363.300781 203.101563 363.199219 202.800781 363 C 202.699219 362.898438 202.601563 362.898438 202.601563 362.800781 C 202.199219 362.898438 201.800781 362.800781 201.5 362.601563 C 201.300781 362.5 201.199219 362.300781 201.199219 362.101563 C 200.800781 361.800781 200.800781 361.601563 200.898438 361.300781 C 200.800781 361.5 200.800781 361.601563 200.800781 361.699219 C 200.300781 362.5 199.800781 362.898438 199 363.101563 C 198.101563 363.5 197.300781 363.398438 196.398438 362.800781 C 195.601563 362.5 195 361.898438 194.800781 361.101563 C 194.800781 361 194.699219 360.898438 194.5 360.898438 C 194.300781 361.101563 194.300781 361.199219 194.300781 361.300781 C 194.300781 361.601563 194.199219 361.800781 194.199219 362.101563 C 193.800781 362.601563 193.300781 362.800781 192.601563 362.800781 C 192.398438 362.898438 192.300781 362.898438 192.300781 363 C 192 363.101563 191.800781 363.199219 191.5 363.300781 C 190.898438 363.601563 190.398438 363.699219 189.800781 363.699219 C 189.199219 363.398438 188.601563 363.199219 188.101563 362.800781 C 185.101563 361.5 183.5 360.601563 183.5 360.300781 C 183.300781 360 183.101563 359.601563 182.699219 359.101563 C 182.601563 359 182.601563 358.898438 182.601563 358.800781 L 182.5 358.800781 C 182.300781 358.601563 182.101563 358.398438 181.800781 358.300781 C 181.5 357.898438 181.199219 357.601563 181.101563 357.300781 C 180.699219 357.199219 180.601563 357.199219 180.5 357.101563 L 180.601563 360.199219 L 179.800781 360.800781 L 177.101563 360.898438 C 176.601563 360.398438 176.199219 359.800781 176.199219 359.101563 L 176.199219 357.300781 C 176.300781 357.199219 176.300781 357.101563 176.300781 356.699219 C 175.898438 356.800781 175.601563 356.898438 175.300781 356.898438 C 175.101563 357.101563 174.898438 357.101563 174.800781 357.101563 C 174.699219 357.398438 174.5 357.5 174.300781 357.5 C 174.398438 358 174.300781 358.601563 174.300781 359.101563 C 174.300781 359.300781 174.101563 359.601563 173.800781 359.800781 C 173.601563 360.300781 173.101563 360.601563 172.300781 360.601563 C 171.5 360.699219 170.800781 360.699219 170 360.601563 L 169.199219 360.601563 C 166 359.800781 162.800781 359.300781 159.699219 359.101563 "/>
<path style=" stroke:none;fill-rule:evenodd;fill:rgb(0%,0%,0%);fill-opacity:1;" d="M 394.300781 372 L 394.300781 0.199219 L 1 0.199219 L 1 372 Z M 386.300781 7.898438 L 386.300781 364.300781 L 9.101563 364.300781 L 9.101563 7.898438 L 386.300781 7.898438 "/>
<path style=" stroke:none;fill-rule:evenodd;fill:rgb(0%,0%,0%);fill-opacity:1;" d="M 368.398438 12.398438 C 367.898438 11.898438 367.601563 11.5 367.101563 11.101563 C 365.898438 10.5 364.898438 9.898438 364.101563 9.5 C 363.398438 10.898438 362.699219 12.101563 361.800781 13.101563 C 361.300781 13.601563 360.898438 14.199219 360.898438 14.898438 C 360.898438 15.5 361.101563 16.199219 361.800781 16.898438 L 364.101563 17.601563 L 364.800781 19.300781 C 363.300781 18.699219 362 19.101563 360.898438 20.398438 C 360.101563 21.101563 359.898438 22.101563 360.601563 23.101563 L 362.601563 24.101563 L 365.601563 23.101563 L 367.101563 20.601563 C 366.601563 22.898438 365.398438 24.398438 363.601563 25.101563 C 362.898438 25.398438 361.898438 25.601563 360.898438 25.601563 C 358.898438 25.699219 357.101563 25.199219 355.398438 24.101563 C 354.601563 23.601563 353.898438 23.101563 353.398438 22.5 C 352.898438 21.699219 352.5 21.101563 352.398438 20.398438 L 353.800781 20.898438 C 356.101563 20.800781 357.699219 19.898438 358.601563 18.101563 C 358.601563 16.601563 357.898438 15.699219 356.398438 15.398438 L 358.601563 15.101563 L 359.898438 8.601563 C 358.300781 8.898438 356.800781 9.398438 355.101563 9.898438 C 354.398438 10.101563 353.898438 10.601563 353.898438 11.398438 C 353.800781 12 353.800781 12.601563 353.898438 13.398438 C 353.800781 13.601563 353.800781 13.699219 353.800781 14.101563 C 353.699219 13.898438 353.601563 13.800781 353.601563 13.800781 L 352.800781 12.699219 C 351 12.199219 349.398438 12.398438 347.800781 13.398438 C 347.101563 15.101563 347.398438 16.5 348.601563 17.601563 L 349.5 18.101563 L 348.601563 18.101563 L 343.101563 10 C 341.199219 8.898438 339.398438 8.398438 337.601563 8.601563 C 335.800781 8.699219 333.898438 9.601563 332.101563 11.101563 L 331.101563 9.101563 L 328.601563 9.300781 L 327.898438 10.300781 L 328.601563 13.398438 L 328.300781 15.5 L 329.898438 16.199219 L 332.101563 14.601563 L 333.601563 15.5 L 336.898438 13.398438 L 336.398438 12.398438 L 333.101563 12.300781 C 334.898438 10.898438 337.101563 10.398438 339.300781 10.601563 C 341.898438 11.699219 343.300781 13.601563 343.601563 16.398438 C 343.898438 18.699219 345.101563 20.300781 347.398438 21 L 349.101563 20.601563 C 349.800781 22.101563 350.5 23.5 351.101563 25 C 351.300781 25.5 351.601563 25.898438 352.300781 26.101563 C 353.398438 26.398438 354.601563 27.101563 355.898438 27.800781 L 359.601563 28.601563 L 370.101563 27.101563 L 371.800781 28 L 372.398438 30.601563 L 371.101563 29.601563 C 370.101563 29.601563 369.398438 29.699219 368.601563 30.101563 C 368.101563 30.398438 367.601563 31.101563 367.300781 31.800781 L 367.398438 33.199219 L 368.101563 34.398438 L 370.601563 35.101563 C 369.101563 36.898438 369.101563 38.699219 370.398438 40.5 C 370.800781 41.398438 371.101563 42.199219 371.5 43.101563 C 372.898438 42.101563 374.101563 40.898438 374.898438 39.300781 C 375.601563 38 375.601563 36.898438 374.5 35.800781 L 375.101563 35.898438 L 378.601563 35.101563 C 380.101563 33.101563 380 31.300781 378.300781 29.898438 L 374.898438 30.5 L 373.101563 26 C 375.101563 25.398438 376.800781 25.398438 378.300781 26 C 379.800781 26.398438 381.101563 27.601563 382.101563 29.300781 C 382.5 29.898438 382.800781 30.398438 382.800781 31.101563 C 383.101563 32.199219 382.699219 33.398438 381.898438 34.601563 C 381.101563 35.398438 380.300781 36.101563 379.398438 36.898438 C 377.898438 38.398438 376.898438 39.898438 376.300781 41.601563 C 375.898438 42.699219 375.5 43.898438 375.101563 44.898438 C 375 45.199219 374.898438 45.398438 374.898438 45.398438 C 375.5 49.101563 377.101563 52.398438 379.898438 55.101563 C 380.300781 55.601563 380.699219 56.101563 381.101563 56.601563 C 381.800781 57.800781 382.5 58.898438 383.300781 60.101563 C 383.601563 58.398438 383.898438 56.601563 383.898438 55 C 383.898438 54.398438 383.898438 53.800781 383.800781 53.101563 L 381.398438 51.601563 L 384.300781 50.300781 C 384.898438 48.699219 384.5 47.398438 383.101563 46.101563 L 381.398438 45.898438 L 384.398438 43.601563 L 383.898438 42.601563 C 381.898438 41.199219 379.898438 41.398438 378 43.101563 L 377.800781 41.601563 C 379.800781 39.398438 382.101563 37.101563 384.601563 35.101563 C 385 34.800781 385.300781 34.398438 385.300781 33.800781 C 385.398438 31.101563 384.898438 28.601563 383.601563 26.199219 C 381.800781 25.5 380.101563 24.601563 378.398438 23.601563 L 378.300781 23.601563 C 377.699219 23.199219 377.101563 23 376.398438 22.699219 C 373.699219 22.5 371.199219 23.101563 368.898438 24.398438 L 368.898438 20.101563 C 369.101563 20 369.398438 20.101563 369.601563 20.300781 C 371.601563 20.601563 373.398438 20 375.101563 18.5 L 374.5 15.101563 C 372.101563 14.398438 370.101563 15.199219 368.601563 17.398438 L 367.101563 17.601563 C 369.101563 16 369.398438 14.199219 368.398438 12.398438 "/>
<path style=" stroke:none;fill-rule:evenodd;fill:rgb(0%,0%,0%);fill-opacity:1;" d="M 384.601563 306.699219 L 383.601563 306 L 380.5 306.800781 L 378.398438 306.5 L 377.601563 308 L 379.101563 310.398438 L 378.398438 311.898438 L 380.398438 315.101563 L 381.398438 314.5 L 381.601563 311.300781 C 382.898438 313.101563 383.398438 315.199219 383.101563 317.5 C 382.101563 320 380.101563 321.5 377.5 321.898438 C 375.101563 322.101563 373.601563 323.398438 372.898438 325.601563 L 373.300781 327.199219 C 371.800781 328 370.398438 328.601563 368.898438 329.398438 C 368.300781 329.5 367.898438 329.898438 367.800781 330.5 C 367.398438 331.601563 366.800781 332.898438 366.101563 334.101563 L 365.300781 337.800781 L 366.800781 348.300781 L 365.898438 350 L 363.101563 350.601563 L 364.101563 349.398438 C 364.300781 348.398438 364.101563 347.5 363.800781 346.898438 C 363.398438 346.199219 362.800781 345.699219 362.101563 345.398438 L 360.601563 345.601563 L 359.398438 346.300781 L 358.601563 348.898438 C 356.898438 347.398438 355.101563 347.300781 353.398438 348.601563 C 352.5 349 351.601563 349.398438 350.601563 349.601563 C 351.699219 351.101563 353 352.199219 354.601563 353.101563 C 355.800781 353.898438 357 353.699219 358.101563 352.601563 L 357.898438 353.398438 L 358.601563 356.800781 C 360.800781 358.300781 362.601563 358.101563 364 356.398438 L 363.398438 353.101563 L 367.898438 351.398438 C 368.398438 353.300781 368.398438 354.898438 367.898438 356.398438 C 367.398438 357.898438 366.300781 359.300781 364.601563 360.300781 C 363.898438 360.699219 363.398438 360.898438 362.800781 361 C 361.601563 361.199219 360.398438 360.898438 359.300781 360.101563 C 358.5 359.300781 357.699219 358.5 356.898438 357.601563 C 355.398438 356.101563 353.898438 355.101563 352.101563 354.5 C 351.101563 354.101563 349.898438 353.699219 348.898438 353.199219 C 348.601563 353.199219 348.398438 353.199219 348.398438 353.101563 C 344.699219 353.699219 341.5 355.398438 338.601563 358.101563 C 338.199219 358.601563 337.800781 358.898438 337.300781 359.199219 C 336 359.898438 334.898438 360.601563 333.800781 361.398438 C 335.398438 361.800781 337.101563 362.101563 338.898438 362.101563 C 339.398438 362.101563 339.898438 362.101563 340.601563 361.898438 L 342.101563 359.601563 L 343.601563 362.5 C 345.101563 363.101563 346.5 362.699219 347.601563 361.300781 L 347.898438 359.601563 L 350.300781 362.601563 L 351.101563 362.101563 C 352.601563 360.101563 352.398438 358.101563 350.601563 356.101563 L 352.101563 355.898438 C 354.5 357.898438 356.601563 360.199219 358.601563 362.800781 C 358.898438 363.199219 359.398438 363.398438 360.101563 363.5 C 362.601563 363.601563 365.101563 363.101563 367.601563 361.800781 C 368.398438 359.898438 369.300781 358.199219 370.300781 356.601563 L 370.300781 356.398438 C 370.601563 355.898438 370.898438 355.300781 371.101563 354.601563 C 371.300781 351.898438 370.800781 349.398438 369.5 347.101563 L 373.800781 347.101563 C 373.800781 347.398438 373.699219 347.601563 373.601563 347.699219 C 373.300781 349.800781 373.898438 351.601563 375.398438 353.199219 L 378.800781 352.601563 C 379.300781 350.199219 378.601563 348.300781 376.398438 346.898438 L 376.101563 345.300781 C 377.800781 347.199219 379.5 347.699219 381.398438 346.601563 C 381.898438 346.101563 382.300781 345.699219 382.601563 345.300781 C 383.300781 344.101563 383.898438 343.101563 384.398438 342.199219 C 383 341.699219 381.800781 340.898438 380.800781 339.898438 C 380.199219 339.5 379.601563 339.101563 378.898438 339.101563 C 378.300781 339 377.601563 339.398438 377 339.898438 L 376.300781 342.398438 L 374.601563 342.898438 C 375.101563 341.398438 374.601563 340.199219 373.398438 339 C 372.601563 338.199219 371.800781 338.101563 370.800781 338.800781 L 369.800781 340.800781 L 370.601563 343.699219 L 373.300781 345.300781 C 370.898438 344.898438 369.398438 343.699219 368.601563 341.898438 C 368.398438 341.101563 368.300781 340.101563 368.101563 339.101563 C 368.101563 337.101563 368.601563 335.398438 369.601563 333.601563 C 370.101563 332.699219 370.699219 332.101563 371.398438 331.601563 C 372.101563 331 372.800781 330.699219 373.398438 330.601563 L 373 331.898438 C 373.101563 334.199219 373.898438 335.898438 375.800781 336.898438 C 377.199219 336.800781 378.101563 336 378.5 334.601563 L 378.800781 336.898438 L 385.300781 338.101563 C 384.898438 336.5 384.5 335 384 333.300781 C 383.800781 332.5 383.300781 332.101563 382.5 332 C 381.898438 332 381.101563 332 380.398438 332 C 380.300781 332 380.101563 332 379.898438 331.898438 C 380 331.898438 380.101563 331.898438 380.101563 331.898438 L 381.101563 330.898438 C 381.601563 329.101563 381.398438 327.5 380.398438 326 C 378.800781 325.398438 377.398438 325.601563 376.101563 326.800781 L 375.800781 327.601563 L 375.601563 326.898438 L 383.898438 321.398438 C 384.898438 319.5 385.398438 317.601563 385.300781 315.800781 C 385.101563 314 384.300781 312.101563 382.800781 310.398438 L 384.800781 309.398438 L 384.601563 306.699219 "/>
<path style=" stroke:none;fill-rule:evenodd;fill:rgb(0%,0%,0%);fill-opacity:1;" d="M 226.101563 11.601563 L 225.300781 11.601563 C 224.398438 11.601563 223.601563 11.601563 222.800781 11.601563 C 222.101563 11.601563 221.699219 11.898438 221.300781 12.398438 C 221.101563 12.601563 220.898438 12.898438 220.800781 13.101563 C 220.800781 13.699219 220.699219 14.199219 220.699219 14.800781 C 220.5 14.800781 220.398438 14.898438 220.5 15.101563 C 220.199219 15.101563 219.898438 15.199219 219.699219 15.398438 C 219.300781 15.398438 219.101563 15.398438 218.800781 15.601563 L 218.800781 13.101563 C 218.800781 12.398438 218.5 11.800781 217.800781 11.398438 L 215.300781 11.5 L 214.398438 12.101563 L 214.800781 15.101563 C 214.601563 15.101563 214.300781 15 214.300781 15 C 213.898438 14.601563 213.601563 14.398438 213.300781 14 C 213.101563 13.699219 212.800781 13.5 212.5 13.398438 L 212.300781 13.101563 C 212.101563 12.601563 211.800781 12.199219 211.601563 11.898438 C 211.601563 11.800781 211.398438 11.601563 211.101563 11.5 C 210.601563 11.101563 209.300781 10.398438 207.601563 9.699219 C 207.601563 9.601563 207.5 9.601563 207.300781 9.5 C 207.300781 9.398438 207.199219 9.398438 207.101563 9.398438 C 206.398438 9.101563 205.800781 8.898438 205.199219 8.601563 C 204.699219 8.601563 204.199219 8.699219 203.601563 8.898438 C 203.300781 8.898438 203.101563 9.101563 202.800781 9.300781 C 202.699219 9.300781 202.601563 9.300781 202.601563 9.398438 C 202.199219 9.398438 201.800781 9.5 201.5 9.699219 C 201.300781 9.800781 201.300781 9.898438 201.199219 10.101563 C 200.800781 10.398438 200.800781 10.601563 200.898438 10.898438 C 200.800781 10.699219 200.699219 10.601563 200.800781 10.601563 C 200.300781 9.800781 199.699219 9.300781 199 9.101563 C 198.101563 8.800781 197.300781 8.898438 196.398438 9.398438 C 195.601563 9.800781 195 10.398438 194.800781 11.101563 C 194.800781 11.199219 194.699219 11.300781 194.5 11.398438 C 194.300781 11.101563 194.300781 11 194.300781 10.898438 C 194.300781 10.601563 194.300781 10.398438 194.199219 10.101563 C 193.800781 9.601563 193.300781 9.398438 192.601563 9.398438 C 192.398438 9.398438 192.300781 9.398438 192.300781 9.300781 C 192.101563 9.101563 191.800781 9.101563 191.5 8.898438 C 190.898438 8.601563 190.398438 8.601563 189.800781 8.601563 C 189.199219 8.800781 188.699219 9.101563 188.101563 9.398438 C 185.101563 10.800781 183.5 11.601563 183.5 11.898438 C 183.300781 12.199219 183.101563 12.699219 182.699219 13.101563 C 182.699219 13.199219 182.601563 13.300781 182.601563 13.398438 L 182.5 13.398438 C 182.300781 13.601563 182.101563 13.800781 181.800781 14 C 181.5 14.398438 181.199219 14.699219 181.101563 15 C 180.699219 15 180.601563 15.101563 180.5 15.101563 L 180.601563 12.101563 L 179.800781 11.5 L 177.101563 11.398438 C 176.601563 11.800781 176.199219 12.398438 176.199219 13.101563 L 176.199219 15 C 176.199219 15.101563 176.300781 15.199219 176.300781 15.601563 C 175.898438 15.398438 175.601563 15.398438 175.300781 15.398438 C 175.101563 15.101563 174.898438 15.101563 174.800781 15.101563 C 174.699219 14.898438 174.5 14.699219 174.300781 14.800781 C 174.300781 14.199219 174.300781 13.699219 174.300781 13.101563 C 174.300781 12.898438 174.199219 12.601563 173.800781 12.398438 C 173.601563 11.898438 173.101563 11.601563 172.300781 11.601563 C 171.5 11.601563 170.800781 11.601563 170 11.601563 L 169.199219 11.601563 C 166 12.398438 162.800781 12.898438 159.699219 13.101563 L 159.601563 13.101563 C 159.800781 13.5 160.101563 13.898438 160.300781 14.101563 C 160.898438 14.601563 161.699219 15.101563 162.5 15.601563 C 163.601563 16.699219 164.800781 17.699219 166.300781 18.601563 C 166.601563 18.898438 166.800781 19.101563 167.300781 19.199219 C 168.300781 19.601563 169.398438 19.699219 170.601563 19.601563 C 170.800781 19.601563 171.101563 19.5 171.398438 19.398438 C 171.800781 18.898438 172.101563 18.398438 172.398438 17.898438 C 172.601563 17.699219 172.800781 17.601563 173 17.5 L 173 16.898438 L 174.300781 17.101563 C 173.300781 18.199219 172.898438 19.601563 173.300781 21.101563 C 173.300781 21.601563 173.300781 22 173.5 22.5 C 173.800781 23.101563 174.300781 23.601563 174.898438 23.898438 C 175.300781 23.898438 175.699219 23.699219 175.898438 23.398438 C 176.300781 23.300781 176.699219 23.101563 177 22.898438 C 177.300781 22.601563 177.5 22.398438 177.800781 22.5 C 177.898438 22.398438 178.101563 22.101563 178.101563 21.699219 C 178.300781 21.5 178.300781 21.199219 178.5 20.898438 L 178.5 20.101563 C 178.300781 19.601563 178.300781 19.199219 178.101563 18.898438 L 181.300781 17.601563 C 181.699219 17.398438 181.800781 17.101563 181.898438 17.101563 C 182.800781 16.601563 183.398438 16.101563 184 15.398438 C 184.101563 15.101563 184.199219 14.898438 184.300781 14.601563 C 184.5 14.398438 184.601563 14.300781 184.601563 14.101563 C 184.898438 14 185.199219 13.898438 185.300781 13.601563 C 185.800781 13.398438 186.300781 13.101563 187 12.898438 C 187.300781 12.601563 187.699219 12.398438 188 12.601563 C 189.300781 12.398438 190.5 12.601563 191.800781 12.898438 C 191.898438 12.898438 192.101563 13 192.300781 13.101563 C 192.398438 13.199219 192.699219 13.398438 192.800781 13.601563 C 192.898438 13.898438 193 14.101563 193.101563 14.398438 C 193.398438 14.601563 193.699219 15 193.601563 15.398438 L 193.601563 15.5 C 193.699219 16.101563 193.699219 16.601563 193.601563 17.101563 L 192.300781 18.101563 C 192.101563 17.898438 192.101563 17.800781 192.300781 17.601563 L 192.101563 17.5 L 192.101563 17.199219 L 192.300781 16.898438 C 191.601563 16.199219 190.800781 15.898438 189.800781 15.800781 C 189 15.601563 188.300781 15.898438 187.800781 16.898438 C 187.601563 17.101563 187.5 17.398438 187.398438 17.898438 C 187.101563 19.101563 187.300781 20.101563 188.101563 21.101563 C 188.601563 21.601563 188.898438 21.898438 189.398438 22.101563 C 190.800781 22.699219 192.199219 22.601563 193.601563 21.898438 C 193.800781 21.699219 194.101563 21.601563 194.300781 21.5 C 194.800781 20.101563 195.199219 18.601563 195.5 17.101563 C 195.5 16.898438 195.601563 16.699219 195.800781 16.398438 L 195.800781 15.800781 C 195.800781 15.898438 195.800781 15.898438 195.800781 15.898438 L 195.800781 16.101563 C 196.800781 17.101563 198 17.398438 199.300781 16.898438 C 199.300781 16.800781 199.300781 16.699219 199.300781 16.601563 C 199.300781 16.601563 199.398438 16.601563 199.601563 16.398438 L 199.601563 16.800781 C 199.601563 16.898438 199.699219 17.101563 199.800781 17.101563 C 199.898438 18.601563 200.300781 20.101563 200.898438 21.5 C 201.199219 21.601563 201.398438 21.800781 201.800781 21.898438 C 203 22.601563 204.300781 22.699219 205.800781 22.101563 C 206.101563 21.898438 206.5 21.5 206.800781 21.101563 C 207.699219 20.101563 207.898438 19 207.601563 17.898438 C 207.601563 17.398438 207.5 17.101563 207.300781 16.898438 C 206.800781 16 206.101563 15.601563 205.199219 15.800781 C 204.300781 15.898438 203.5 16.199219 202.800781 16.898438 L 203.101563 17.199219 L 203.101563 17.5 L 202.800781 17.601563 C 203 17.800781 203 17.898438 202.800781 18.101563 L 201.5 17.101563 C 201.300781 16.601563 201.300781 16 201.5 15.398438 C 201.5 14.898438 201.699219 14.601563 202 14.398438 C 202.101563 14.101563 202.199219 13.898438 202.300781 13.601563 C 202.398438 13.398438 202.601563 13.199219 202.800781 13.101563 C 203 13.101563 203.199219 12.898438 203.398438 12.898438 C 204.601563 12.601563 205.800781 12.398438 207.101563 12.601563 L 207.300781 12.601563 C 207.398438 12.601563 207.5 12.601563 207.601563 12.601563 C 207.800781 12.601563 208 12.699219 208.300781 12.898438 C 208.800781 13.101563 209.300781 13.300781 209.800781 13.601563 C 210.101563 13.898438 210.300781 14.101563 210.300781 14.101563 C 210.398438 14.300781 210.5 14.398438 210.601563 14.601563 L 210.699219 14.601563 C 210.898438 14.898438 211.199219 15.101563 211.300781 15.398438 C 211.898438 16.101563 212.601563 16.601563 213.300781 17.101563 C 213.398438 17.101563 213.601563 17.398438 213.800781 17.601563 L 217 18.898438 C 216.800781 19.199219 216.699219 19.601563 216.601563 20.101563 C 216.601563 20.300781 216.601563 20.601563 216.800781 20.898438 C 216.800781 21.199219 216.800781 21.5 217 21.699219 C 217 22.101563 217.101563 22.398438 217.300781 22.5 C 217.699219 22.5 218 22.601563 218.300781 22.898438 C 218.5 23.101563 218.800781 23.300781 219.101563 23.398438 C 219.398438 23.601563 219.800781 23.800781 220.300781 23.898438 C 220.898438 23.601563 221.300781 23.101563 221.601563 22.5 C 221.800781 22 222 21.601563 222.101563 21.101563 C 222.101563 20.398438 222 19.898438 221.800781 19.398438 C 221.699219 18.601563 221.300781 17.800781 220.699219 17.101563 L 222.101563 16.898438 L 222.199219 17.5 C 222.300781 17.601563 222.398438 17.699219 222.601563 17.898438 C 222.898438 18.398438 223.300781 18.898438 223.699219 19.398438 C 223.800781 19.398438 224.101563 19.5 224.300781 19.601563 L 224.601563 19.601563 C 225.699219 19.699219 226.800781 19.601563 227.800781 19.199219 C 228.199219 19.101563 228.5 18.898438 228.800781 18.601563 C 230.199219 17.601563 231.601563 16.601563 232.800781 15.601563 C 233.601563 15.101563 234.199219 14.601563 234.800781 14.101563 C 235.101563 13.898438 235.398438 13.5 235.800781 13.101563 L 235.300781 13.101563 C 232.101563 12.898438 229.101563 12.398438 226.101563 11.601563 "/>
<path style=" stroke:none;fill-rule:evenodd;fill:rgb(0%,0%,0%);fill-opacity:1;" d="M 62.398438 15.5 L 63.800781 14.601563 L 66.101563 16.199219 L 67.699219 15.5 L 67.300781 13.398438 L 68.101563 10.300781 L 67.398438 9.300781 L 64.800781 9.101563 L 63.800781 11.101563 C 62 9.601563 60.300781 8.699219 58.398438 8.601563 C 56.601563 8.398438 54.800781 8.898438 52.800781 10 L 47.300781 18.101563 L 46.5 18.101563 L 47.398438 17.601563 C 48.5 16.398438 48.800781 15.101563 48.101563 13.398438 C 46.601563 12.398438 45 12.199219 43.300781 12.699219 L 42.398438 13.800781 C 42.300781 13.699219 42.300781 13.898438 42.300781 14.101563 C 42.199219 13.699219 42.101563 13.601563 42.101563 13.398438 C 42.101563 12.601563 42.101563 11.898438 42.101563 11.398438 C 42 10.601563 41.601563 10.101563 40.898438 9.898438 C 39.199219 9.300781 37.601563 8.898438 36.101563 8.601563 L 37.300781 15.101563 L 39.5 15.398438 C 38.101563 15.699219 37.398438 16.601563 37.300781 18.101563 C 38.300781 19.898438 39.898438 20.800781 42.300781 20.898438 L 43.601563 20.398438 C 43.398438 21 43 21.699219 42.5 22.5 C 42 23.101563 41.398438 23.601563 40.5 24.101563 C 38.800781 25.199219 37 25.699219 35 25.601563 C 34 25.601563 33.101563 25.398438 32.398438 25.101563 C 30.398438 24.398438 29.300781 22.898438 28.898438 20.601563 L 30.398438 23.101563 L 33.398438 24.101563 L 35.398438 23.101563 C 36 22.101563 35.898438 21.101563 35.101563 20.398438 C 34 19.101563 32.699219 18.699219 31.300781 19.300781 L 31.800781 17.601563 L 34.300781 16.898438 C 34.800781 16.199219 35.101563 15.601563 35 14.898438 C 35 14.199219 34.699219 13.601563 34.300781 13.101563 C 33.300781 12 32.398438 10.800781 31.898438 9.5 C 31.101563 9.898438 30.101563 10.5 28.898438 11.101563 C 28.398438 11.601563 28 11.898438 27.601563 12.398438 C 26.5 14.199219 26.898438 16 28.898438 17.601563 L 27.300781 17.398438 C 25.898438 15.199219 23.898438 14.398438 21.5 15.101563 L 20.898438 18.5 C 22.601563 20 24.398438 20.601563 26.398438 20.300781 C 26.601563 20.101563 26.898438 20.101563 27.101563 20.101563 L 27.101563 24.398438 C 24.800781 23.101563 22.300781 22.601563 19.601563 22.699219 C 18.898438 22.898438 18.300781 23.199219 17.800781 23.601563 L 17.601563 23.601563 C 15.898438 24.601563 14.199219 25.5 12.398438 26.199219 C 11.101563 28.601563 10.5 31.101563 10.699219 33.800781 C 10.800781 34.398438 11 34.898438 11.398438 35.101563 C 13.898438 37.101563 16.199219 39.398438 18.300781 41.601563 L 18 43.101563 C 16.101563 41.398438 14.101563 41.101563 12.101563 42.601563 L 11.601563 43.601563 L 14.601563 45.898438 L 12.800781 46.101563 C 11.398438 47.398438 11.101563 48.699219 11.699219 50.300781 L 14.601563 51.601563 L 12.300781 53.101563 C 12.199219 53.800781 12.101563 54.398438 12.101563 55 C 12.101563 56.601563 12.300781 58.398438 12.800781 60.101563 C 13.398438 58.898438 14.199219 57.800781 14.898438 56.601563 C 15.300781 56.101563 15.699219 55.601563 16.101563 55.101563 C 18.800781 52.398438 20.398438 49.101563 21.101563 45.398438 C 20.898438 45.398438 20.898438 45.101563 20.898438 44.898438 C 20.398438 43.898438 20 42.699219 19.601563 41.601563 C 19.101563 39.898438 18.101563 38.398438 16.601563 36.898438 C 15.699219 36.101563 14.898438 35.300781 14.101563 34.601563 C 13.300781 33.398438 12.898438 32.300781 13.199219 31.101563 C 13.199219 30.398438 13.398438 29.898438 13.898438 29.300781 C 14.898438 27.601563 16.199219 26.398438 17.800781 26 C 19.101563 25.398438 20.898438 25.398438 22.898438 26 L 21.101563 30.5 L 17.800781 29.898438 C 16 31.300781 15.898438 33.101563 17.398438 35.101563 L 20.800781 35.898438 L 21.5 35.800781 C 20.398438 36.898438 20.300781 38.101563 21.101563 39.300781 C 21.898438 40.898438 23.101563 42.101563 24.5 43.101563 C 24.800781 42.199219 25.101563 41.398438 25.601563 40.5 C 26.898438 38.699219 26.800781 36.898438 25.300781 35.101563 L 27.898438 34.398438 L 28.601563 33.199219 L 28.800781 31.800781 C 28.398438 31 27.898438 30.398438 27.300781 30.101563 C 26.601563 29.601563 25.800781 29.5 24.898438 29.601563 L 23.601563 30.601563 L 24.101563 28 L 25.898438 27.101563 L 36.398438 28.601563 L 40.101563 27.800781 C 41.300781 27 42.5 26.398438 43.601563 26.101563 C 44.300781 25.898438 44.601563 25.601563 44.800781 25 C 45.5 23.5 46.101563 22.101563 46.898438 20.601563 L 48.5 21 C 50.800781 20.199219 52.101563 18.699219 52.398438 16.398438 C 52.699219 13.601563 54.101563 11.699219 56.601563 10.601563 C 59 10.398438 61 10.898438 62.898438 12.300781 L 59.601563 12.398438 L 59.101563 13.398438 L 62.398438 15.5 "/>
<path style=" stroke:none;fill-rule:evenodd;fill:rgb(0%,0%,0%);fill-opacity:1;" d="M 11.398438 306.699219 L 11.300781 309.398438 L 13.300781 310.398438 C 11.800781 312.101563 10.898438 314 10.800781 315.800781 C 10.601563 317.5 11 319.398438 12.101563 321.398438 L 20.300781 326.898438 L 20.101563 327.601563 L 19.898438 326.800781 C 18.601563 325.601563 17.300781 325.398438 15.601563 326 C 14.601563 327.5 14.398438 329.101563 14.898438 330.898438 L 15.898438 331.898438 C 15.898438 331.898438 16 331.898438 16.199219 331.898438 C 15.898438 332 15.699219 332 15.601563 332 C 14.800781 332 14.101563 332 13.5 332 C 12.800781 332.101563 12.300781 332.5 12 333.300781 C 11.398438 335 11.101563 336.5 10.800781 338.101563 L 17.300781 336.898438 L 17.5 334.601563 C 17.898438 336 18.699219 336.800781 20.101563 336.898438 C 22 335.898438 22.898438 334.199219 23 331.898438 L 22.601563 330.601563 C 23.199219 330.699219 23.898438 331.101563 24.601563 331.601563 C 25.300781 332.101563 25.898438 332.699219 26.398438 333.601563 C 27.398438 335.398438 27.898438 337.101563 27.898438 339.101563 C 27.699219 340.101563 27.601563 341.101563 27.300781 341.898438 C 26.5 343.699219 25 344.898438 22.800781 345.300781 L 25.398438 343.699219 L 26.300781 340.800781 L 25.300781 338.800781 C 24.199219 338.199219 23.300781 338.300781 22.601563 339 C 21.300781 340.199219 20.898438 341.398438 21.398438 342.898438 L 19.800781 342.398438 L 19 339.898438 C 18.398438 339.300781 17.699219 339 17.101563 339.101563 C 16.398438 339.199219 15.800781 339.5 15.300781 339.898438 C 14.199219 340.898438 12.898438 341.699219 11.601563 342.199219 C 12.101563 343.101563 12.699219 344.101563 13.398438 345.300781 C 13.699219 345.699219 14.101563 346.199219 14.601563 346.601563 C 16.398438 347.601563 18.199219 347.199219 19.898438 345.300781 L 19.601563 346.898438 C 17.398438 348.300781 16.601563 350.199219 17.300781 352.601563 L 20.601563 353.199219 C 22.101563 351.601563 22.800781 349.800781 22.398438 347.699219 C 22.300781 347.5 22.101563 347.300781 22.101563 347.101563 L 26.5 347.101563 C 25.199219 349.398438 24.601563 351.898438 24.898438 354.601563 C 25.101563 355.300781 25.398438 355.898438 25.601563 356.398438 L 25.601563 356.601563 C 26.800781 358.199219 27.601563 359.898438 28.398438 361.800781 C 30.800781 363.101563 33.300781 363.601563 35.898438 363.5 C 36.5 363.398438 37 363.199219 37.300781 362.800781 C 39.300781 360.199219 41.5 357.898438 43.800781 355.898438 L 45.300781 356.101563 C 43.5 358.101563 43.398438 360.101563 44.800781 362.101563 L 45.601563 362.601563 L 48.101563 359.601563 L 48.300781 361.300781 C 49.5 362.699219 50.898438 363.101563 52.398438 362.5 L 53.800781 359.601563 L 55.398438 361.898438 C 56 362.101563 56.5 362.101563 57.101563 362.101563 C 58.898438 362.101563 60.5 361.800781 62.300781 361.398438 C 61.101563 360.699219 60 360 58.800781 359.199219 C 58.199219 358.898438 57.800781 358.601563 57.300781 358.101563 C 54.5 355.398438 51.300781 353.699219 47.601563 353.101563 C 47.5 353.199219 47.398438 353.199219 47 353.199219 C 46 353.699219 45 354.101563 43.800781 354.5 C 42.101563 355.101563 40.5 356.101563 39.101563 357.601563 C 38.300781 358.5 37.5 359.300781 36.800781 360.101563 C 35.601563 360.898438 34.398438 361.199219 33.101563 361 C 32.601563 360.898438 31.898438 360.699219 31.398438 360.300781 C 29.601563 359.300781 28.601563 357.898438 28.101563 356.398438 C 27.601563 354.898438 27.601563 353.300781 28.101563 351.398438 L 32.601563 353.101563 L 32 356.398438 C 33.398438 358.199219 35.101563 358.300781 37.300781 356.800781 L 38.101563 353.398438 L 37.898438 352.601563 C 39 353.699219 40.101563 353.898438 41.398438 353.101563 C 43 352.300781 44.300781 351.101563 45.300781 349.601563 C 44.398438 349.398438 43.5 349 42.601563 348.601563 C 40.898438 347.199219 39.101563 347.398438 37.300781 348.898438 L 36.601563 346.300781 L 35.398438 345.601563 L 33.898438 345.398438 C 33.101563 345.800781 32.601563 346.300781 32.101563 346.898438 C 31.800781 347.5 31.699219 348.398438 31.898438 349.398438 L 32.800781 350.601563 L 30.101563 350 L 29.101563 348.300781 L 30.800781 337.800781 L 29.898438 334.101563 C 29.101563 332.898438 28.601563 331.601563 28.300781 330.5 C 28.101563 329.898438 27.601563 329.5 27.101563 329.398438 C 25.601563 328.699219 24.199219 328 22.800781 327.199219 L 23.101563 325.601563 C 22.398438 323.300781 20.898438 322 18.5 321.898438 C 15.800781 321.5 13.898438 320 12.800781 317.5 C 12.601563 315.199219 13.101563 313.101563 14.398438 311.300781 L 14.601563 314.5 L 15.601563 315.101563 L 17.601563 311.898438 L 16.898438 310.398438 L 18.398438 308 L 17.601563 306.5 L 15.5 306.800781 L 12.398438 306 L 11.398438 306.699219 "/>
<path style=" stroke:none;fill-rule:evenodd;fill:rgb(0%,0%,0%);fill-opacity:1;" d="M 162.5 356.699219 C 161.699219 357.199219 160.898438 357.699219 160.300781 358.101563 C 160.101563 358.300781 159.800781 358.699219 159.601563 359.101563 L 159.699219 359.101563 C 162.800781 359.300781 166 359.800781 169.199219 360.601563 L 170 360.601563 C 170.800781 360.699219 171.5 360.699219 172.300781 360.601563 C 173.101563 360.601563 173.601563 360.300781 173.800781 359.800781 C 174.101563 359.601563 174.300781 359.300781 174.300781 359.101563 C 174.300781 358.601563 174.398438 358 174.300781 357.5 C 174.5 357.5 174.699219 357.398438 174.800781 357.101563 C 174.898438 357.101563 175.101563 357.101563 175.300781 356.898438 C 175.601563 356.898438 175.898438 356.800781 176.300781 356.699219 C 176.300781 357.101563 176.300781 357.199219 176.199219 357.300781 L 176.199219 359.101563 C 176.199219 359.800781 176.601563 360.398438 177.101563 360.898438 L 179.800781 360.800781 L 180.601563 360.199219 L 180.5 357.101563 C 180.601563 357.199219 180.699219 357.199219 181.101563 357.300781 C 181.199219 357.601563 181.5 357.898438 181.800781 358.300781 C 182.101563 358.398438 182.300781 358.601563 182.5 358.800781 L 182.601563 358.800781 C 182.601563 358.898438 182.601563 359 182.699219 359.101563 C 183.101563 359.601563 183.300781 360 183.5 360.300781 C 183.5 360.601563 185.101563 361.5 188.101563 362.800781 C 188.601563 363.199219 189.199219 363.398438 189.800781 363.699219 C 190.398438 363.699219 190.898438 363.601563 191.5 363.300781 C 191.800781 363.199219 192 363.101563 192.300781 363 C 192.300781 362.898438 192.398438 362.898438 192.601563 362.800781 C 193.300781 362.800781 193.800781 362.601563 194.199219 362.101563 C 194.199219 361.800781 194.300781 361.601563 194.300781 361.300781 C 194.300781 361.199219 194.300781 361.101563 194.5 360.898438 C 194.699219 360.898438 194.800781 361 194.800781 361.101563 C 195 361.898438 195.601563 362.5 196.398438 362.800781 C 197.300781 363.398438 198.101563 363.5 199 363.101563 C 199.800781 362.898438 200.300781 362.5 200.800781 361.699219 C 200.800781 361.601563 200.800781 361.5 200.898438 361.300781 C 200.800781 361.601563 200.800781 361.800781 201.199219 362.101563 C 201.199219 362.300781 201.300781 362.5 201.5 362.601563 C 201.800781 362.800781 202.199219 362.898438 202.601563 362.800781 C 202.601563 362.898438 202.699219 362.898438 202.800781 363 C 203.101563 363.199219 203.300781 363.300781 203.601563 363.300781 C 204.199219 363.601563 204.699219 363.699219 205.199219 363.699219 C 205.800781 363.398438 206.398438 363.199219 207.101563 362.800781 C 207.199219 362.800781 207.300781 362.800781 207.300781 362.800781 C 207.5 362.699219 207.601563 362.699219 207.601563 362.601563 C 209.398438 361.800781 210.601563 361.199219 211.101563 360.800781 C 211.398438 360.601563 211.699219 360.398438 211.601563 360.300781 C 211.800781 360 212.101563 359.601563 212.300781 359.101563 L 212.5 358.898438 L 212.5 358.800781 C 212.800781 358.699219 213.101563 358.601563 213.300781 358.300781 C 213.601563 357.898438 213.898438 357.601563 214.300781 357.300781 C 214.300781 357.300781 214.601563 357.199219 214.800781 357.101563 L 214.398438 360.199219 L 215.300781 360.800781 L 217.800781 360.898438 C 218.5 360.398438 218.800781 359.800781 218.800781 359.101563 L 218.800781 356.699219 C 219.101563 356.800781 219.398438 356.898438 219.699219 356.898438 C 219.898438 357.101563 220.199219 357.199219 220.5 357.101563 C 220.5 357.300781 220.601563 357.398438 220.699219 357.5 C 220.699219 358.101563 220.699219 358.601563 220.800781 359.101563 C 220.898438 359.300781 221.101563 359.601563 221.300781 359.800781 C 221.699219 360.300781 222.199219 360.601563 222.800781 360.601563 C 223.601563 360.699219 224.398438 360.699219 225.300781 360.601563 L 226.101563 360.601563 C 229.101563 359.800781 232.101563 359.300781 235.300781 359.101563 L 235.800781 359.101563 C 235.398438 358.699219 235.101563 358.300781 234.800781 358.101563 C 234.199219 357.601563 233.601563 357.199219 232.800781 356.699219 C 231.601563 355.601563 230.199219 354.601563 228.800781 353.601563 C 228.601563 353.398438 228.199219 353.101563 227.800781 353.101563 C 226.800781 352.699219 225.699219 352.601563 224.601563 352.601563 L 224.300781 352.601563 C 224.101563 352.699219 223.800781 352.800781 223.699219 352.898438 C 223.300781 353.398438 222.898438 353.898438 222.601563 354.398438 L 222.199219 354.800781 L 222.101563 355.398438 L 220.699219 355.101563 C 221.300781 354.398438 221.699219 353.699219 221.800781 352.898438 C 222 352.398438 222.101563 351.699219 222.101563 351.101563 C 222.101563 350.699219 221.898438 350.300781 221.601563 349.800781 C 221.300781 349.101563 220.898438 348.699219 220.300781 348.398438 C 219.800781 348.398438 219.398438 348.601563 219.101563 348.898438 C 218.800781 348.898438 218.5 349.101563 218.300781 349.398438 C 218.101563 349.601563 217.699219 349.800781 217.300781 349.800781 C 217.101563 349.898438 216.898438 350.199219 217 350.601563 C 216.800781 350.800781 216.699219 351.101563 216.800781 351.398438 C 216.601563 351.699219 216.601563 351.898438 216.601563 352.101563 C 216.699219 352.601563 216.800781 353.101563 217 353.398438 L 213.800781 354.601563 C 213.601563 354.898438 213.398438 355.101563 213.300781 355.101563 C 212.601563 355.601563 211.898438 356.199219 211.300781 356.898438 C 211.199219 357.101563 210.898438 357.398438 210.699219 357.601563 L 210.601563 357.601563 C 210.398438 357.699219 210.398438 357.898438 210.300781 358.101563 C 210.300781 358.199219 210.101563 358.300781 209.800781 358.601563 C 209.300781 358.898438 208.800781 359.101563 208.300781 359.398438 C 208 359.601563 207.800781 359.601563 207.601563 359.601563 C 207.601563 359.601563 207.398438 359.601563 207.300781 359.601563 L 207.101563 359.601563 C 205.800781 359.699219 204.601563 359.699219 203.398438 359.398438 C 203.199219 359.300781 203 359.199219 202.800781 359.101563 C 202.601563 359 202.398438 358.800781 202.300781 358.601563 C 202.199219 358.398438 202.101563 358.101563 202 357.800781 C 201.699219 357.601563 201.5 357.199219 201.5 356.898438 C 201.300781 356.199219 201.300781 355.601563 201.5 355.101563 L 202.800781 354.199219 C 203 354.398438 203 354.398438 202.800781 354.601563 L 203.101563 354.800781 L 203.101563 355.101563 L 202.800781 355.398438 C 203.601563 356 204.300781 356.398438 205.199219 356.5 C 206.101563 356.601563 206.800781 356.300781 207.300781 355.398438 C 207.5 355.101563 207.601563 354.800781 207.601563 354.398438 C 207.898438 353.199219 207.699219 352.101563 206.800781 351.101563 C 206.5 350.699219 206.101563 350.398438 205.800781 350.101563 C 204.300781 349.5 203 349.601563 201.800781 350.398438 C 201.398438 350.398438 201.199219 350.601563 200.898438 350.800781 C 200.300781 352.101563 200 353.601563 199.800781 355.101563 C 199.699219 355.199219 199.601563 355.398438 199.601563 355.5 L 199.601563 355.898438 C 199.5 355.699219 199.398438 355.601563 199.300781 355.601563 C 199.300781 355.601563 199.199219 355.398438 199.300781 355.398438 C 198 354.898438 196.800781 355.101563 195.800781 356.199219 L 195.800781 356.300781 C 195.800781 356.300781 195.800781 356.398438 195.800781 356.5 L 195.800781 355.898438 C 195.601563 355.601563 195.398438 355.300781 195.5 355.101563 C 195.300781 353.601563 194.800781 352.101563 194.300781 350.800781 C 194.101563 350.601563 193.800781 350.398438 193.601563 350.398438 C 192.199219 349.601563 190.800781 349.5 189.398438 350.101563 C 188.898438 350.398438 188.601563 350.699219 188.101563 351.101563 C 187.300781 352.101563 187.199219 353.199219 187.398438 354.398438 C 187.398438 354.800781 187.601563 355.101563 187.800781 355.398438 C 188.300781 356.300781 189 356.601563 189.800781 356.5 C 190.800781 356.398438 191.601563 356.101563 192.300781 355.398438 L 192.101563 355.101563 L 192.101563 354.800781 L 192.300781 354.601563 C 192.101563 354.398438 192.101563 354.300781 192.300781 354.199219 L 193.601563 355.101563 C 193.699219 355.601563 193.699219 356.199219 193.601563 356.800781 L 193.601563 356.898438 C 193.601563 357.199219 193.398438 357.601563 193.101563 357.800781 C 192.898438 358.101563 192.898438 358.300781 192.800781 358.601563 C 192.699219 358.800781 192.398438 359 192.300781 359.101563 C 192.101563 359.199219 191.898438 359.300781 191.800781 359.398438 C 190.601563 359.601563 189.300781 359.699219 188 359.601563 C 187.601563 359.699219 187.300781 359.699219 187 359.398438 C 186.300781 359.101563 185.800781 358.898438 185.300781 358.601563 C 185.199219 358.398438 184.898438 358.199219 184.601563 358.101563 C 184.601563 357.898438 184.398438 357.699219 184.300781 357.601563 C 184.199219 357.300781 184.101563 357.101563 184 356.898438 C 183.398438 356.101563 182.800781 355.601563 181.898438 355.101563 C 181.800781 355.101563 181.699219 354.898438 181.300781 354.601563 L 178.101563 353.398438 C 178.300781 353.101563 178.300781 352.601563 178.5 352.101563 L 178.5 351.398438 C 178.300781 351.101563 178.300781 350.800781 178.101563 350.601563 C 178.101563 350.199219 178 349.898438 177.800781 349.800781 C 177.398438 349.800781 177.199219 349.601563 177 349.398438 C 176.699219 349.101563 176.300781 348.898438 175.898438 348.898438 C 175.699219 348.601563 175.300781 348.398438 174.898438 348.398438 C 174.300781 348.699219 173.800781 349.199219 173.5 349.800781 C 173.300781 350.300781 173.199219 350.699219 173.300781 351.101563 C 172.898438 352.601563 173.300781 354 174.300781 355.101563 L 173 355.398438 L 173 354.800781 C 172.800781 354.601563 172.601563 354.5 172.398438 354.398438 C 172.101563 353.898438 171.699219 353.398438 171.398438 352.898438 C 171.101563 352.699219 170.800781 352.601563 170.601563 352.601563 C 169.300781 352.601563 168.300781 352.699219 167.300781 353.101563 C 166.800781 353.199219 166.601563 353.398438 166.300781 353.601563 C 164.800781 354.601563 163.601563 355.601563 162.5 356.699219 "/>
</g>
</svg>
