
<svg xmlns="http://www.w3.org/2000/svg" version="1.1" xmlns:xlink="http://www.w3.org/1999/xlink" preserveAspectRatio="none" x="0px" y="0px" width="394px" height="372px" viewBox="0 0 394 372">
<defs>
<g id="Layer1_0_FILL">
<path fill="#FAF3E0" stroke="none" d="
M 393.65 371.9
L 393.65 0.15 0.35 0.15 0.35 371.9 393.65 371.9 Z"/>
</g>

<g id="Layer0_0_FILL">
<path fill="#000000" stroke="none" d="
M 393.65 371.9
L 393.65 0.15 0.35 0.15 0.35 371.9 393.65 371.9
M 385.6 7.8
L 385.6 364.25 8.5 364.25 8.5 7.8 385.6 7.8
M 17.75 307.95
L 17 306.4 14.85 306.8 11.8 305.95 10.8 306.65 10.6 309.3 12.6 310.3
Q 10.35 312.9 10.1 315.7 9.8 318.4 11.5 321.3
L 19.65 326.8 19.55 327.6 19.2 326.7
Q 17.4 325 14.95 325.9 13.5 328.25 14.25 330.85
L 15.3 331.75
Q 15.3 331.84375 15.55 331.85 15.141796875 331.8541015625 14.95 331.95 13.8 331.85 12.85 331.95 11.7 332.1 11.35 333.2 10.6 335.7 10.1 338
L 16.6 336.8 16.85 334.55
Q 17.4 336.7 19.55 336.8 22.25 335.35 22.35 331.85
L 21.9 330.5
Q 22.9 330.75 24 331.55 24.95 332.3 25.7 333.55 27.3 336.1 27.2 339.05 27.05 340.6 26.65 341.75 25.5 344.55 22.1 345.2
L 24.7 343.65 25.6 340.7 24.6 338.7
Q 23.05 337.8 21.9 338.95 20 340.7 20.8 342.85
L 19.1 342.3 18.35 339.85
Q 17.4 338.95 16.4 339.05 15.4 339.15 14.6 339.85 13 341.3 11 342.15 11.7 343.4 12.7 345.2 13.25 345.9 13.95 346.45 16.75 348.15 19.2 345.2
L 18.9 346.8
Q 15.7 348.9 16.6 352.6
L 20 353.15
Q 22.25 350.7 21.8 347.65 21.55 347.35 21.55 347
L 25.85 347
Q 23.95 350.5 24.25 354.5 24.6 355.55 25.05 356.35
L 25.05 356.45
Q 26.65 359 27.75 361.7 31.35 363.6 35.3 363.4 36.2 363.3 36.65 362.7 39.7 358.9 43.15 355.85
L 44.65 356.1
Q 42 359 44.15 362
L 45.05 362.5 47.45 359.45 47.65 361.3
Q 49.45 363.3 51.8 362.4
L 53.15 359.45 54.7 361.85
Q 55.65 362 56.5 362 59.05 362 61.6 361.35 59.95 360.25 58.1 359.15 57.35 358.65 56.65 358 52.45 353.95 46.95 352.95 46.85 353.15 46.4 353.15 44.85 353.85 43.15 354.4 40.6 355.3 38.45 357.45 37.2 358.9 36.1 359.95 34.4 361.3 32.55 360.9 31.65 360.8 30.8 360.25 28.15 358.65 27.5 356.35 26.7 354.2 27.5 351.25
L 32 353.05 31.35 356.35
Q 33.5 359 36.65 356.75
L 37.45 353.3 37.3 352.6
Q 38.9 354.2 40.8 353.05 43.15 351.8 44.65 349.6 43.3 349.15 42 348.45 39.35 346.55 36.65 348.8
L 35.95 346.2 34.75 345.45 33.3 345.35
Q 32.15 345.9 31.55 346.8 31 347.8 31.2 349.25
L 32.15 350.5 29.5 349.9 28.55 348.2 30.1 337.7 29.3 334
Q 28.15 332.2 27.6 330.4 27.3 329.5 26.5 329.3 24.25 328.25 22.1 327.15
L 22.5 325.55
Q 21.45 322.1 17.85 321.75 13.8 321.2 12.15 317.4 11.8 314 13.8 311.2
L 13.95 314.45 14.95 315 17 311.75 16.2 310.3 17.75 307.95
M 66.8 9.2
L 64.15 9 63.15 11
Q 60.55 8.75 57.75 8.5 55.05 8.2 52.15 9.9
L 46.65 18.05 45.85 17.95 46.75 17.6
Q 48.45 15.8 47.55 13.35 45.2 11.9 42.6 12.65
L 41.7 13.7
Q 41.60625 13.7 41.6 13.95 41.5958984375 13.541796875 41.5 13.35 41.6 12.2 41.5 11.25 41.35 10.1 40.25 9.75 37.75 9 35.45 8.5
L 36.65 15 38.9 15.25
Q 36.75 15.8 36.65 17.95 38.1 20.65 41.6 20.75
L 42.95 20.3
Q 42.7 21.3 41.9 22.4 41.15 23.35 39.9 24.1 37.35 25.7 34.4 25.6 32.85 25.45 31.7 25.05 28.9 23.9 28.25 20.5
L 29.8 23.1 32.75 24 34.75 23
Q 35.65 21.45 34.5 20.3 32.75 18.4 30.6 19.2
L 31.15 17.5 33.6 16.75
Q 34.5 15.8 34.4 14.8 34.3 13.8 33.6 13 32.15 11.4 31.3 9.4 30.05 10.1 28.25 11.1 27.55 11.65 27 12.35 25.3 15.15 28.25 17.6
L 26.65 17.3
Q 24.55 14.1 20.85 15
L 20.3 18.4
Q 22.75 20.65 25.8 20.2 26.1 19.95 26.45 19.95
L 26.45 24.25
Q 22.95 22.35 18.95 22.65 17.9 23 17.1 23.45
L 17 23.45
Q 14.45 25.05 11.75 26.15 9.85 29.75 10.05 33.7 10.15 34.6 10.75 35.05 14.55 38.1 17.6 41.55
L 17.35 43.05
Q 14.45 40.4 11.45 42.55
L 10.95 43.45 14 45.85 12.15 46.05
Q 10.15 47.85 11.05 50.2
L 14 51.55 11.6 53.1
Q 11.45 54.05 11.45 54.9 11.45 57.45 12.1 60 13.2 58.35 14.3 56.5 14.8 55.75 15.45 55.05 19.5 50.85 20.5 45.35 20.3 45.25 20.3 44.8 19.6 43.25 19.05 41.55 18.15 39 16 36.85 14.55 35.6 13.5 34.5 12.15 32.8 12.55 30.95 12.65 30.05 13.2 29.2 14.8 26.55 17.1 25.9 19.25 25.1 22.2 25.9
L 20.4 30.4 17.1 29.75
Q 14.45 31.9 16.7 35.05
L 20.15 35.85 20.85 35.7
Q 19.25 37.3 20.4 39.2 21.65 41.55 23.85 43.05 24.3 41.7 25 40.4 26.9 37.75 24.65 35.05
L 27.25 34.35 28 33.15 28.1 31.7
Q 27.55 30.55 26.65 29.95 25.65 29.4 24.2 29.6
L 22.95 30.55 23.55 27.9 25.25 26.95 35.75 28.5 39.45 27.7
Q 41.25 26.55 43.05 26 43.95 25.7 44.15 24.9 45.2 22.65 46.3 20.5
L 47.9 20.9
Q 51.35 19.85 51.7 16.25 52.25 12.2 56.05 10.55 59.45 10.2 62.25 12.2
L 59 12.35 58.45 13.35 61.7 15.4 63.15 14.6 65.5 16.15 67.05 15.4 66.65 13.25 67.5 10.2 66.8 9.2
M 377.7 306.4
L 376.95 307.95 378.5 310.3 377.7 311.75 379.75 315 380.75 314.45 380.9 311.2
Q 382.9 314 382.55 317.4 380.9 321.2 376.85 321.75 373.25 322.1 372.2 325.55
L 372.6 327.15
Q 370.45 328.25 368.2 329.3 367.4 329.5 367.1 330.4 366.55 332.2 365.4 334
L 364.6 337.7 366.15 348.2 365.2 349.9 362.55 350.5 363.5 349.25
Q 363.7 347.8 363.15 346.8 362.55 345.9 361.4 345.35
L 359.95 345.45 358.75 346.2 358.05 348.8
Q 355.35 346.55 352.7 348.45 351.4 349.15 350.05 349.6 351.55 351.8 353.9 353.05 355.8 354.2 357.4 352.6
L 357.25 353.3 358.05 356.75
Q 361.2 359 363.35 356.35
L 362.7 353.05 367.2 351.25
Q 368 354.2 367.2 356.35 366.55 358.65 363.9 360.25 363.05 360.8 362.15 360.9 360.3 361.3 358.6 359.95 357.5 358.9 356.25 357.45 354.1 355.3 351.55 354.4 349.85 353.85 348.3 353.15 347.85 353.15 347.75 352.95 342.25 353.95 338.05 358 337.35 358.65 336.6 359.15 334.75 360.25 333.1 361.35 335.65 362 338.2 362 339.05 362 340 361.85
L 341.55 359.45 342.9 362.4
Q 345.25 363.3 347.05 361.3
L 347.25 359.45 349.65 362.5 350.55 362
Q 352.7 359 350.05 356.1
L 351.55 355.85
Q 355 358.9 358.05 362.7 358.5 363.3 359.4 363.4 363.35 363.6 366.95 361.7 368.05 359 369.65 356.45
L 369.65 356.35
Q 370.1 355.55 370.45 354.5 370.75 350.5 368.85 347
L 373.15 347
Q 373.15 347.35 372.9 347.65 372.45 350.7 374.7 353.15
L 378.1 352.6
Q 379 348.9 375.8 346.8
L 375.5 345.2
Q 377.95 348.15 380.75 346.45 381.45 345.9 382 345.2 383 343.4 383.7 342.15 381.7 341.3 380.1 339.85 379.3 339.15 378.3 339.05 377.3 338.95 376.35 339.85
L 375.6 342.3 373.9 342.85
Q 374.7 340.7 372.8 338.95 371.65 337.8 370.1 338.7
L 369.1 340.7 370 343.65 372.6 345.2
Q 369.2 344.55 368.05 341.75 367.65 340.6 367.5 339.05 367.4 336.1 369 333.55 369.75 332.3 370.7 331.55 371.8 330.75 372.8 330.5
L 372.35 331.85
Q 372.45 335.35 375.15 336.8 377.3 336.7 377.85 334.55
L 378.1 336.8 384.6 338
Q 384.1 335.7 383.35 333.2 383 332.1 381.85 331.95 380.9 331.85 379.75 331.95 379.553515625 331.8517578125 379.2 331.85 379.4 331.846875 379.4 331.75
L 380.45 330.85
Q 381.2 328.25 379.75 325.9 377.3 325 375.5 326.7
L 375.15 327.6 375.05 326.8 383.2 321.3
Q 384.9 318.4 384.6 315.7 384.35 312.9 382.1 310.3
L 384.1 309.3 383.9 306.65 382.9 305.95 379.85 306.8 377.7 306.4
M 367.7 12.35
Q 367.15 11.65 366.45 11.1 364.65 10.1 363.4 9.4 362.55 11.4 361.1 13 360.4 13.8 360.3 14.8 360.2 15.8 361.1 16.75
L 363.55 17.5 364.1 19.2
Q 361.95 18.4 360.2 20.3 359.05 21.45 359.95 23
L 361.95 24 364.9 23.1 366.45 20.5
Q 365.8 23.9 363 25.05 361.85 25.45 360.3 25.6 357.35 25.7 354.8 24.1 353.55 23.35 352.8 22.4 352 21.3 351.75 20.3
L 353.1 20.75
Q 356.6 20.65 358.05 17.95 357.95 15.8 355.8 15.25
L 358.05 15 359.25 8.5
Q 356.95 9 354.45 9.75 353.35 10.1 353.2 11.25 353.1 12.2 353.2 13.35 353.1041015625 13.541796875 353.1 13.95 353.09375 13.7 353 13.7
L 352.1 12.65
Q 349.5 11.9 347.15 13.35 346.25 15.8 347.95 17.6
L 348.85 17.95 348.05 18.05 342.55 9.9
Q 339.65 8.2 336.95 8.5 334.15 8.75 331.55 11
L 330.55 9 327.9 9.2 327.2 10.2 328.05 13.25 327.65 15.4 329.2 16.15 331.55 14.6 333 15.4 336.25 13.35 335.7 12.35 332.45 12.2
Q 335.25 10.2 338.65 10.55 342.45 12.2 343 16.25 343.35 19.85 346.8 20.9
L 348.4 20.5
Q 349.5 22.65 350.55 24.9 350.75 25.7 351.65 26 353.45 26.55 355.25 27.7
L 358.95 28.5 369.45 26.95 371.15 27.9 371.75 30.55 370.5 29.6
Q 369.05 29.4 368.05 29.95 367.15 30.55 366.6 31.7
L 366.7 33.15 367.45 34.35 370.05 35.05
Q 367.8 37.75 369.7 40.4 370.4 41.7 370.85 43.05 373.05 41.55 374.3 39.2 375.45 37.3 373.85 35.7
L 374.55 35.85 378 35.05
Q 380.25 31.9 377.6 29.75
L 374.3 30.4 372.5 25.9
Q 375.45 25.1 377.6 25.9 379.9 26.55 381.5 29.2 382.05 30.05 382.15 30.95 382.55 32.8 381.2 34.5 380.15 35.6 378.7 36.85 376.55 39 375.65 41.55 375.1 43.25 374.4 44.8 374.4 45.25 374.2 45.35 375.2 50.85 379.25 55.05 379.9 55.75 380.4 56.5 381.5 58.35 382.6 60 383.25 57.45 383.25 54.9 383.25 54.05 383.1 53.1
L 380.7 51.55 383.65 50.2
Q 384.55 47.85 382.55 46.05
L 380.7 45.85 383.75 43.45 383.25 42.55
Q 380.25 40.4 377.35 43.05
L 377.1 41.55
Q 380.15 38.1 383.95 35.05 384.55 34.6 384.65 33.7 384.85 29.75 382.95 26.15 380.25 25.05 377.7 23.45
L 377.6 23.45
Q 376.8 23 375.75 22.65 371.75 22.35 368.25 24.25
L 368.25 19.95
Q 368.6 19.95 368.9 20.2 371.95 20.65 374.4 18.4
L 373.85 15
Q 370.15 14.1 368.05 17.3
L 366.45 17.6
Q 369.4 15.15 367.7 12.35 Z"/>

<path fill="#FAF3E0" stroke="none" d="
M 385.6 364.25
L 385.6 7.8 8.5 7.8 8.5 364.25 385.6 364.25
M 366.45 11.1
Q 367.15 11.65 367.7 12.35 369.4 15.15 366.45 17.6
L 368.05 17.3
Q 370.15 14.1 373.85 15
L 374.4 18.4
Q 371.95 20.65 368.9 20.2 368.6 19.95 368.25 19.95
L 368.25 24.25
Q 371.75 22.35 375.75 22.65 376.8 23 377.6 23.45
L 377.7 23.45
Q 380.25 25.05 382.95 26.15 384.85 29.75 384.65 33.7 384.55 34.6 383.95 35.05 380.15 38.1 377.1 41.55
L 377.35 43.05
Q 380.25 40.4 383.25 42.55
L 383.75 43.45 380.7 45.85 382.55 46.05
Q 384.55 47.85 383.65 50.2
L 380.7 51.55 383.1 53.1
Q 383.25 54.05 383.25 54.9 383.25 57.45 382.6 60 381.5 58.35 380.4 56.5 379.9 55.75 379.25 55.05 375.2 50.85 374.2 45.35 374.4 45.25 374.4 44.8 375.1 43.25 375.65 41.55 376.55 39 378.7 36.85 380.15 35.6 381.2 34.5 382.55 32.8 382.15 30.95 382.05 30.05 381.5 29.2 379.9 26.55 377.6 25.9 375.45 25.1 372.5 25.9
L 374.3 30.4 377.6 29.75
Q 380.25 31.9 378 35.05
L 374.55 35.85 373.85 35.7
Q 375.45 37.3 374.3 39.2 373.05 41.55 370.85 43.05 370.4 41.7 369.7 40.4 367.8 37.75 370.05 35.05
L 367.45 34.35 366.7 33.15 366.6 31.7
Q 367.15 30.55 368.05 29.95 369.05 29.4 370.5 29.6
L 371.75 30.55 371.15 27.9 369.45 26.95 358.95 28.5 355.25 27.7
Q 353.45 26.55 351.65 26 350.75 25.7 350.55 24.9 349.5 22.65 348.4 20.5
L 346.8 20.9
Q 343.35 19.85 343 16.25 342.45 12.2 338.65 10.55 335.25 10.2 332.45 12.2
L 335.7 12.35 336.25 13.35 333 15.4 331.55 14.6 329.2 16.15 327.65 15.4 328.05 13.25 327.2 10.2 327.9 9.2 330.55 9 331.55 11
Q 334.15 8.75 336.95 8.5 339.65 8.2 342.55 9.9
L 348.05 18.05 348.85 17.95 347.95 17.6
Q 346.25 15.8 347.15 13.35 349.5 11.9 352.1 12.65
L 353 13.7
Q 353.09375 13.7 353.1 13.95 353.1041015625 13.541796875 353.2 13.35 353.1 12.2 353.2 11.25 353.35 10.1 354.45 9.75 356.95 9 359.25 8.5
L 358.05 15 355.8 15.25
Q 357.95 15.8 358.05 17.95 356.6 20.65 353.1 20.75
L 351.75 20.3
Q 352 21.3 352.8 22.4 353.55 23.35 354.8 24.1 357.35 25.7 360.3 25.6 361.85 25.45 363 25.05 365.8 23.9 366.45 20.5
L 364.9 23.1 361.95 24 359.95 23
Q 359.05 21.45 360.2 20.3 361.95 18.4 364.1 19.2
L 363.55 17.5 361.1 16.75
Q 360.2 15.8 360.3 14.8 360.4 13.8 361.1 13 362.55 11.4 363.4 9.4 364.65 10.1 366.45 11.1
M 376.95 307.95
L 377.7 306.4 379.85 306.8 382.9 305.95 383.9 306.65 384.1 309.3 382.1 310.3
Q 384.35 312.9 384.6 315.7 384.9 318.4 383.2 321.3
L 375.05 326.8 375.15 327.6 375.5 326.7
Q 377.3 325 379.75 325.9 381.2 328.25 380.45 330.85
L 379.4 331.75
Q 379.4 331.846875 379.2 331.85 379.553515625 331.8517578125 379.75 331.95 380.9 331.85 381.85 331.95 383 332.1 383.35 333.2 384.1 335.7 384.6 338
L 378.1 336.8 377.85 334.55
Q 377.3 336.7 375.15 336.8 372.45 335.35 372.35 331.85
L 372.8 330.5
Q 371.8 330.75 370.7 331.55 369.75 332.3 369 333.55 367.4 336.1 367.5 339.05 367.65 340.6 368.05 341.75 369.2 344.55 372.6 345.2
L 370 343.65 369.1 340.7 370.1 338.7
Q 371.65 337.8 372.8 338.95 374.7 340.7 373.9 342.85
L 375.6 342.3 376.35 339.85
Q 377.3 338.95 378.3 339.05 379.3 339.15 380.1 339.85 381.7 341.3 383.7 342.15 383 343.4 382 345.2 381.45 345.9 380.75 346.45 377.95 348.15 375.5 345.2
L 375.8 346.8
Q 379 348.9 378.1 352.6
L 374.7 353.15
Q 372.45 350.7 372.9 347.65 373.15 347.35 373.15 347
L 368.85 347
Q 370.75 350.5 370.45 354.5 370.1 355.55 369.65 356.35
L 369.65 356.45
Q 368.05 359 366.95 361.7 363.35 363.6 359.4 363.4 358.5 363.3 358.05 362.7 355 358.9 351.55 355.85
L 350.05 356.1
Q 352.7 359 350.55 362
L 349.65 362.5 347.25 359.45 347.05 361.3
Q 345.25 363.3 342.9 362.4
L 341.55 359.45 340 361.85
Q 339.05 362 338.2 362 335.65 362 333.1 361.35 334.75 360.25 336.6 359.15 337.35 358.65 338.05 358 342.25 353.95 347.75 352.95 347.85 353.15 348.3 353.15 349.85 353.85 351.55 354.4 354.1 355.3 356.25 357.45 357.5 358.9 358.6 359.95 360.3 361.3 362.15 360.9 363.05 360.8 363.9 360.25 366.55 358.65 367.2 356.35 368 354.2 367.2 351.25
L 362.7 353.05 363.35 356.35
Q 361.2 359 358.05 356.75
L 357.25 353.3 357.4 352.6
Q 355.8 354.2 353.9 353.05 351.55 351.8 350.05 349.6 351.4 349.15 352.7 348.45 355.35 346.55 358.05 348.8
L 358.75 346.2 359.95 345.45 361.4 345.35
Q 362.55 345.9 363.15 346.8 363.7 347.8 363.5 349.25
L 362.55 350.5 365.2 349.9 366.15 348.2 364.6 337.7 365.4 334
Q 366.55 332.2 367.1 330.4 367.4 329.5 368.2 329.3 370.45 328.25 372.6 327.15
L 372.2 325.55
Q 373.25 322.1 376.85 321.75 380.9 321.2 382.55 317.4 382.9 314 380.9 311.2
L 380.75 314.45 379.75 315 377.7 311.75 378.5 310.3 376.95 307.95
M 64.15 9
L 66.8 9.2 67.5 10.2 66.65 13.25 67.05 15.4 65.5 16.15 63.15 14.6 61.7 15.4 58.45 13.35 59 12.35 62.25 12.2
Q 59.45 10.2 56.05 10.55 52.25 12.2 51.7 16.25 51.35 19.85 47.9 20.9
L 46.3 20.5
Q 45.2 22.65 44.15 24.9 43.95 25.7 43.05 26 41.25 26.55 39.45 27.7
L 35.75 28.5 25.25 26.95 23.55 27.9 22.95 30.55 24.2 29.6
Q 25.65 29.4 26.65 29.95 27.55 30.55 28.1 31.7
L 28 33.15 27.25 34.35 24.65 35.05
Q 26.9 37.75 25 40.4 24.3 41.7 23.85 43.05 21.65 41.55 20.4 39.2 19.25 37.3 20.85 35.7
L 20.15 35.85 16.7 35.05
Q 14.45 31.9 17.1 29.75
L 20.4 30.4 22.2 25.9
Q 19.25 25.1 17.1 25.9 14.8 26.55 13.2 29.2 12.65 30.05 12.55 30.95 12.15 32.8 13.5 34.5 14.55 35.6 16 36.85 18.15 39 19.05 41.55 19.6 43.25 20.3 44.8 20.3 45.25 20.5 45.35 19.5 50.85 15.45 55.05 14.8 55.75 14.3 56.5 13.2 58.35 12.1 60 11.45 57.45 11.45 54.9 11.45 54.05 11.6 53.1
L 14 51.55 11.05 50.2
Q 10.15 47.85 12.15 46.05
L 14 45.85 10.95 43.45 11.45 42.55
Q 14.45 40.4 17.35 43.05
L 17.6 41.55
Q 14.55 38.1 10.75 35.05 10.15 34.6 10.05 33.7 9.85 29.75 11.75 26.15 14.45 25.05 17 23.45
L 17.1 23.45
Q 17.9 23 18.95 22.65 22.95 22.35 26.45 24.25
L 26.45 19.95
Q 26.1 19.95 25.8 20.2 22.75 20.65 20.3 18.4
L 20.85 15
Q 24.55 14.1 26.65 17.3
L 28.25 17.6
Q 25.3 15.15 27 12.35 27.55 11.65 28.25 11.1 30.05 10.1 31.3 9.4 32.15 11.4 33.6 13 34.3 13.8 34.4 14.8 34.5 15.8 33.6 16.75
L 31.15 17.5 30.6 19.2
Q 32.75 18.4 34.5 20.3 35.65 21.45 34.75 23
L 32.75 24 29.8 23.1 28.25 20.5
Q 28.9 23.9 31.7 25.05 32.85 25.45 34.4 25.6 37.35 25.7 39.9 24.1 41.15 23.35 41.9 22.4 42.7 21.3 42.95 20.3
L 41.6 20.75
Q 38.1 20.65 36.65 17.95 36.75 15.8 38.9 15.25
L 36.65 15 35.45 8.5
Q 37.75 9 40.25 9.75 41.35 10.1 41.5 11.25 41.6 12.2 41.5 13.35 41.5958984375 13.541796875 41.6 13.95 41.60625 13.7 41.7 13.7
L 42.6 12.65
Q 45.2 11.9 47.55 13.35 48.45 15.8 46.75 17.6
L 45.85 17.95 46.65 18.05 52.15 9.9
Q 55.05 8.2 57.75 8.5 60.55 8.75 63.15 11
L 64.15 9
M 17 306.4
L 17.75 307.95 16.2 310.3 17 311.75 14.95 315 13.95 314.45 13.8 311.2
Q 11.8 314 12.15 317.4 13.8 321.2 17.85 321.75 21.45 322.1 22.5 325.55
L 22.1 327.15
Q 24.25 328.25 26.5 329.3 27.3 329.5 27.6 330.4 28.15 332.2 29.3 334
L 30.1 337.7 28.55 348.2 29.5 349.9 32.15 350.5 31.2 349.25
Q 31 347.8 31.55 346.8 32.15 345.9 33.3 345.35
L 34.75 345.45 35.95 346.2 36.65 348.8
Q 39.35 346.55 42 348.45 43.3 349.15 44.65 349.6 43.15 351.8 40.8 353.05 38.9 354.2 37.3 352.6
L 37.45 353.3 36.65 356.75
Q 33.5 359 31.35 356.35
L 32 353.05 27.5 351.25
Q 26.7 354.2 27.5 356.35 28.15 358.65 30.8 360.25 31.65 360.8 32.55 360.9 34.4 361.3 36.1 359.95 37.2 358.9 38.45 357.45 40.6 355.3 43.15 354.4 44.85 353.85 46.4 353.15 46.85 353.15 46.95 352.95 52.45 353.95 56.65 358 57.35 358.65 58.1 359.15 59.95 360.25 61.6 361.35 59.05 362 56.5 362 55.65 362 54.7 361.85
L 53.15 359.45 51.8 362.4
Q 49.45 363.3 47.65 361.3
L 47.45 359.45 45.05 362.5 44.15 362
Q 42 359 44.65 356.1
L 43.15 355.85
Q 39.7 358.9 36.65 362.7 36.2 363.3 35.3 363.4 31.35 363.6 27.75 361.7 26.65 359 25.05 356.45
L 25.05 356.35
Q 24.6 355.55 24.25 354.5 23.95 350.5 25.85 347
L 21.55 347
Q 21.55 347.35 21.8 347.65 22.25 350.7 20 353.15
L 16.6 352.6
Q 15.7 348.9 18.9 346.8
L 19.2 345.2
Q 16.75 348.15 13.95 346.45 13.25 345.9 12.7 345.2 11.7 343.4 11 342.15 13 341.3 14.6 339.85 15.4 339.15 16.4 339.05 17.4 338.95 18.35 339.85
L 19.1 342.3 20.8 342.85
Q 20 340.7 21.9 338.95 23.05 337.8 24.6 338.7
L 25.6 340.7 24.7 343.65 22.1 345.2
Q 25.5 344.55 26.65 341.75 27.05 340.6 27.2 339.05 27.3 336.1 25.7 333.55 24.95 332.3 24 331.55 22.9 330.75 21.9 330.5
L 22.35 331.85
Q 22.25 335.35 19.55 336.8 17.4 336.7 16.85 334.55
L 16.6 336.8 10.1 338
Q 10.6 335.7 11.35 333.2 11.7 332.1 12.85 331.95 13.8 331.85 14.95 331.95 15.141796875 331.8541015625 15.55 331.85 15.3 331.84375 15.3 331.75
L 14.25 330.85
Q 13.5 328.25 14.95 325.9 17.4 325 19.2 326.7
L 19.55 327.6 19.65 326.8 11.5 321.3
Q 9.8 318.4 10.1 315.7 10.35 312.9 12.6 310.3
L 10.6 309.3 10.8 306.65 11.8 305.95 14.85 306.8 17 306.4 Z"/>
</g>

<g id="Layer0_0_MEMBER_0_FILL">
<path fill="#000000" stroke="none" d="
M 161.85 356.65
Q 160.6 357.4 159.7 358 159.25 358.45 158.9 359
L 159.05 359
Q 163.85 359.35 168.55 360.55 168.9 360.55 169.35 360.55 170.45 360.7 171.6 360.55 172.85 360.55 173.15 359.75 173.65 359.35 173.65 359 173.75 358.2 173.75 357.4 173.95 357.4 174.2 357.1 174.3 357.1 174.75 356.85 175.1 356.85 175.65 356.65 175.65 357.1 175.55 357.2 175.55 358.2 175.55 359 175.65 360.15 176.5 360.85
L 179.2 360.7 179.95 360.15 179.85 357.1
Q 179.95 357.2 180.4 357.2 180.7 357.65 181.2 358.2 181.6 358.45 181.85 358.75
L 181.9 358.8
Q 182 358.9 182.05 359 182.65 359.75 182.85 360.3 182.85 360.7 187.5 362.8 188.25 363.25 189.25 363.6 190.05 363.6 190.85 363.25 191.25 363.05 191.65 362.9 191.8 362.85 191.95 362.8 193 362.8 193.55 362.05 193.65 361.65 193.65 361.25 193.65 361.1 193.85 360.85 194.1 360.85 194.1 361.1 194.45 362.2 195.8 362.8 197 363.6 198.35 363 199.45 362.8 200.1 361.65 200.1 361.5 200.3 361.25 200.1 361.65 200.55 362.05 200.65 362.35 200.85 362.45 201.35 362.8 201.9 362.8 202 362.9 202.2 362.9 202.55 363.15 203 363.25 203.8 363.6 204.55 363.6 205.5 363.25 206.45 362.8 206.6 362.8 206.7 362.7 206.95 362.6 207 362.45 209.65 361.35 210.5 360.7 211 360.45 211 360.3 211.3 359.75 211.75 359
L 211.85 358.85 211.85 358.8
Q 212.3 358.55 212.65 358.2 213.1 357.65 213.65 357.2 213.8 357.2 214.2 357.1
L 213.8 360.15 214.6 360.7 217.25 360.85
Q 218.25 360.15 218.25 359 218.25 358.2 218.25 357.2 218.25 357.1 218.25 356.65 218.6 356.85 219.05 356.85 219.4 357.1 219.85 357.1 219.85 357.4 220.05 357.4 220.05 358.2 220.15 359 220.4 359.35 220.65 359.75 221.2 360.55 222.1 360.55 223.3 360.7 224.7 360.55 224.95 360.55 225.5 360.55 229.9 359.35 234.7 359 234.9 359 235.15 359 234.7 358.45 234.1 358 233.25 357.4 232.2 356.65 230.3 354.95 228.2 353.6 227.75 353.15 227.15 352.95 225.6 352.4 223.9 352.55 223.65 352.55 223.6 352.55 223.3 352.7 223.05 352.8 222.5 353.6 221.95 354.3 221.75 354.5 221.55 354.7
L 221.4 355.3 220.05 355.05
Q 220.95 354.05 221.2 352.8 221.4 352 221.4 351.05 221.4 350.45 220.95 349.7 220.65 348.8 219.6 348.35 219.05 348.35 218.5 348.8 217.95 348.9 217.7 349.35 217.25 349.7 216.7 349.7 216.35 349.9 216.35 350.45 216.1 350.8 216.1 351.25 215.9 351.85 215.9 352 216.1 352.8 216.35 353.35
L 213.1 354.5
Q 212.85 354.95 212.65 355.05 211.55 355.75 210.75 356.85 210.45 357.2 210.05 357.5
L 210 357.55
Q 209.8 357.8 209.75 358 209.65 358.2 209.15 358.55 208.4 359 207.6 359.35 207.25 359.55 207 359.55 206.85 359.65 206.7 359.55 206.6 359.55 206.45 359.55 204.55 359.75 202.8 359.35 202.45 359.2 202.2 359.1 201.9 358.85 201.65 358.55 201.45 358.2 201.35 357.75 200.85 357.4 200.85 356.85 200.65 355.85 200.85 355.05
L 202.2 354.15
Q 202.45 354.3 202.2 354.5
L 202.45 354.7 202.45 354.95 202.2 355.3
Q 203.25 356.3 204.55 356.4 205.9 356.65 206.7 355.3 206.95 354.95 207 354.3 207.5 352.55 206.25 351.05 205.65 350.45 205.1 350.1 203 349.1 201.1 350.25 200.65 350.45 200.3 350.7 199.45 352.8 199.15 355.05 199 355.2 198.9 355.4 198.9 355.6 198.9 355.75 198.8 355.6 198.65 355.5 198.6 355.4 198.6 355.3 196.75 354.5 195.2 356.15
L 195.2 356.3
Q 195.1033203125 356.3 195.1 356.4
L 195.1 356.3
Q 195.1 356 195.1 355.75 194.85 355.3 194.85 355.05 194.45 352.8 193.65 350.7 193.3 350.45 193 350.25 190.85 349.1 188.8 350.1 188.15 350.45 187.5 351.05 186.35 352.55 186.8 354.3 186.9 354.95 187.1 355.3 187.9 356.65 189.25 356.4 190.6 356.3 191.65 355.3
L 191.4 354.95 191.4 354.7 191.65 354.5
Q 191.4 354.3 191.65 354.15
L 191.75 354.15 193 355.05
Q 193.1 355.85 193 356.7
L 193 356.85
Q 193 357.4 192.5 357.75 192.3 358.2 192.2 358.55 191.95 358.85 191.65 359.05 191.4 359.25 191.15 359.35 189.25 359.75 187.35 359.55 186.8 359.75 186.35 359.35 185.35 359 184.65 358.55 184.45 358.2 184 358 183.9 357.8 183.7 357.55
L 183.65 357.5
Q 183.5 357.2 183.35 356.85 182.55 355.75 181.3 355.05 181.2 354.95 180.7 354.5
L 177.45 353.35
Q 177.7 352.8 177.85 352 177.85 351.85 177.85 351.25 177.7 350.8 177.45 350.45 177.45 349.9 177.15 349.7 176.7 349.7 176.35 349.35 175.85 348.9 175.3 348.8 174.95 348.35 174.3 348.35 173.4 348.8 172.85 349.7 172.6 350.45 172.6 351.05 172.15 353.35 173.75 355.05
L 172.35 355.3 172.35 354.7
Q 172.05 354.5 171.8 354.3 171.25 353.6 170.8 352.8 170.25 352.55 169.9 352.55 168.15 352.4 166.65 352.95 166 353.15 165.65 353.6 163.5 354.95 161.85 356.65 Z"/>
</g>

<g id="Layer0_0_MEMBER_1_FILL">
<path fill="#000000" stroke="none" d="
M 225.5 11.55
Q 224.95 11.55 224.7 11.55 223.3 11.4 222.1 11.55 221.2 11.55 220.65 12.35 220.4 12.75 220.15 13.1 220.05 13.9 220.05 14.7 219.85 14.7 219.85 15 219.4 15 219.05 15.25 218.6 15.25 218.25 15.45 218.25 15 218.25 14.9 218.25 13.9 218.25 13.1 218.25 11.95 217.25 11.25
L 214.6 11.4 213.8 11.95 214.2 15
Q 213.8 14.9 213.65 14.9 213.1 14.45 212.65 13.9 212.3 13.55 211.85 13.3
L 211.85 13.25 211.75 13.1
Q 211.3 12.35 211 11.8 211 11.65 210.5 11.4 209.65 10.75 207 9.65 206.95 9.5 206.7 9.4 206.6 9.3 206.45 9.3 205.5 8.85 204.55 8.5 203.8 8.5 203 8.85 202.55 8.95 202.2 9.2 202 9.2 201.9 9.3 201.35 9.3 200.85 9.65 200.65 9.75 200.55 10.05 200.1 10.45 200.3 10.85 200.1 10.6 200.1 10.45 199.45 9.3 198.35 9.1 197 8.5 195.8 9.3 194.45 9.9 194.1 11 194.1 11.25 193.85 11.25 193.65 11 193.65 10.85 193.65 10.45 193.55 10.05 193 9.3 191.95 9.3 191.8 9.25 191.65 9.2 191.25 9.05 190.85 8.85 190.05 8.5 189.25 8.5 188.25 8.85 187.5 9.3 182.85 11.4 182.85 11.8 182.65 12.35 182.05 13.1 182 13.2 181.9 13.3
L 181.85 13.35
Q 181.6 13.65 181.2 13.9 180.7 14.45 180.4 14.9 179.95 14.9 179.85 15
L 179.95 11.95 179.2 11.4 176.5 11.25
Q 175.65 11.95 175.55 13.1 175.55 13.9 175.55 14.9 175.65 15 175.65 15.45 175.1 15.25 174.75 15.25 174.3 15 174.2 15 173.95 14.7 173.75 14.7 173.75 13.9 173.65 13.1 173.65 12.75 173.15 12.35 172.85 11.55 171.6 11.55 170.45 11.4 169.35 11.55 168.9 11.55 168.55 11.55 163.85 12.75 159.05 13.1
L 158.9 13.1
Q 159.25 13.65 159.7 14.1 160.6 14.7 161.85 15.45 163.5 17.15 165.65 18.5 166 18.95 166.65 19.15 168.15 19.7 169.9 19.55 170.25 19.55 170.8 19.3 171.25 18.5 171.8 17.8 172.05 17.6 172.35 17.4
L 172.35 16.8 173.75 17.05
Q 172.15 18.75 172.6 21.05 172.6 21.65 172.85 22.4 173.4 23.3 174.3 23.75 174.95 23.75 175.3 23.3 175.85 23.2 176.35 22.75 176.7 22.4 177.15 22.4 177.45 22.2 177.45 21.65 177.7 21.3 177.85 20.85 177.85 20.25 177.85 20.1 177.7 19.3 177.45 18.75
L 180.7 17.6
Q 181.2 17.15 181.3 17.05 182.55 16.35 183.35 15.25 183.5 14.9 183.65 14.6
L 183.7 14.55
Q 183.9 14.3 184 14.1 184.45 13.9 184.65 13.55 185.35 13.1 186.35 12.75 186.8 12.35 187.35 12.55 189.25 12.35 191.15 12.75 191.4 12.85 191.65 13.05 191.95 13.25 192.2 13.55 192.3 13.9 192.5 14.35 193 14.7 193 15.25
L 193 15.4
Q 193.1 16.25 193 17.05
L 191.75 17.95 191.65 17.95
Q 191.4 17.8 191.65 17.6
L 191.4 17.4 191.4 17.15 191.65 16.8
Q 190.6 15.8 189.25 15.7 187.9 15.45 187.1 16.8 186.9 17.15 186.8 17.8 186.35 19.55 187.5 21.05 188.15 21.65 188.8 22 190.85 23 193 21.85 193.3 21.65 193.65 21.4 194.45 19.3 194.85 17.05 194.85 16.8 195.1 16.35 195.1 16.1 195.1 15.8
L 195.1 15.7
Q 195.1033203125 15.8 195.2 15.8
L 195.2 15.95
Q 196.75 17.6 198.6 16.8 198.6 16.7 198.65 16.6 198.8 16.5 198.9 16.35 198.9 16.5 198.9 16.7 199 16.9 199.15 17.05 199.45 19.3 200.3 21.4 200.65 21.65 201.1 21.85 203 23 205.1 22 205.65 21.65 206.25 21.05 207.5 19.55 207 17.8 206.95 17.15 206.7 16.8 205.9 15.45 204.55 15.7 203.25 15.8 202.2 16.8
L 202.45 17.15 202.45 17.4 202.2 17.6
Q 202.45 17.8 202.2 17.95
L 200.85 17.05
Q 200.65 16.25 200.85 15.25 200.85 14.7 201.35 14.35 201.45 13.9 201.65 13.55 201.9 13.25 202.2 13 202.45 12.9 202.8 12.75 204.55 12.35 206.45 12.55 206.6 12.55 206.7 12.55 206.85 12.45 207 12.55 207.25 12.55 207.6 12.75 208.4 13.1 209.15 13.55 209.65 13.9 209.75 14.1 209.8 14.3 210 14.55
L 210.05 14.6
Q 210.45 14.9 210.75 15.25 211.55 16.35 212.65 17.05 212.85 17.15 213.1 17.6
L 216.35 18.75
Q 216.1 19.3 215.9 20.1 215.9 20.25 216.1 20.85 216.1 21.3 216.35 21.65 216.35 22.2 216.7 22.4 217.25 22.4 217.7 22.75 217.95 23.2 218.5 23.3 219.05 23.75 219.6 23.75 220.65 23.3 220.95 22.4 221.4 21.65 221.4 21.05 221.4 20.1 221.2 19.3 220.95 18.05 220.05 17.05
L 221.4 16.8 221.55 17.4
Q 221.75 17.6 221.95 17.8 222.5 18.5 223.05 19.3 223.3 19.4 223.6 19.55 223.65 19.55 223.9 19.55 225.6 19.7 227.15 19.15 227.75 18.95 228.2 18.5 230.3 17.15 232.2 15.45 233.25 14.7 234.1 14.1 234.7 13.65 235.15 13.1 234.9 13.1 234.7 13.1 229.9 12.75 225.5 11.55 Z"/>
</g>
</defs>

<g transform="matrix( 1, 0, 0, 1, 0,0) ">
<use xlink:href="#Layer1_0_FILL"/>
</g>

<g transform="matrix( 1, 0, 0, 1, 0,0) ">
<use xlink:href="#Layer0_0_FILL"/>
</g>

<g transform="matrix( 1, 0, 0, 1, 0,0) ">
<use xlink:href="#Layer0_0_MEMBER_0_FILL"/>
</g>

<g transform="matrix( 1, 0, 0, 1, 0,0) ">
<use xlink:href="#Layer0_0_MEMBER_1_FILL"/>
</g>
</svg>
