
<svg xmlns="http://www.w3.org/2000/svg" version="1.1" xmlns:xlink="http://www.w3.org/1999/xlink" preserveAspectRatio="none" x="0px" y="0px" width="23px" height="99px" viewBox="0 0 23 99">
<defs>
<g id="Layer1_0_FILL">
<path fill="#000000" stroke="none" d="
M 2.9 60.95
L 3.7 60.95 6.65 60.65 2.9 60.95
M 3.45 58.4
L 3 58.45 3.85 58.4 3.45 58.4
M 19.6 59.5
L 19.85 59.5 20.3 59.45 19.6 59.5 Z"/>

<path fill="#1A1A1A" stroke="none" d="
M 4.4 58.35
L 3.85 58.4 4.4 58.4 4.4 58.35
M 19 59.55
L 19.6 59.5 19 59.5 19 59.55
M 19 56.95
L 19 57 19.8 57 19.8 56.9 19 56.95
M 19.4 41.9
L 19.45 42.55 19.45 41.9 19.4 41.9
M 19.35 39.4
L 19.4 39.4 19.35 38.15 19.35 39.4
M 19.45 40.05
L 19.4 40.05 19.4 41.35 19.45 41.35 19.45 40.05 Z"/>

<path fill="#C1875B" stroke="none" d="
M 19.6 59.5
L 19 59.55 19 59.5 6.65 60.65 3.7 60.95 4.4 98
Q 4.4 98.45 4.8 98.7 4.85 99 5.5 98.95
L 19.45 98.7
Q 20 98.7 20.35 98.3 20.55 98 20.55 97.55
L 19.85 59.5 19.6 59.5
M 19 57
L 19 56.95 18.85 56.95 4.4 58.35 4.4 58.4 18.85 57 19 57 Z"/>

<path fill="#888985" stroke="none" d="
M 19.35 39.4
L 19.4 40.05 19.45 40.05 19.45 41.35 19.4 41.35 19.4 41.9 19.45 41.9 20 41.9 20.4 56.85 19.8 57 19 57 18.85 57 4.4 58.4 3.85 58.4 3 58.45 2.05 58.65
Q 0.9 58.7 0.95 60.05 0.95 60.65 1.2 60.9 1.6 61.15 2.15 60.95
L 2.9 60.95 6.65 60.65 19 59.5 19.6 59.5 20.3 59.45 21.8 59.25
Q 22.9 59.1 22.9 58
L 22.5 40.25
Q 22.5 39.65 22.2 39.65 22.2 39.4 21.6 39.4
L 19.4 39.4 19.35 39.4
M 1.65 39.8
Q 0.95 39.8 0.5 40.1 0.1 40.25 0.1 40.75
L 0.4 56.85
Q 0.5 57.2 0.9 57.45 1.1 57.55 1.65 57.45 3 57.45 3 56.75
L 2.5 42.3 3.2 42.3 3.2 40.35 3.15 40.35 3.15 39.8 1.65 39.8 Z"/>

<path fill="#F0B380" stroke="none" d="
M 18.3 0.45
Q 17.9 0.1 17.5 0.1
L 3.45 0.35
Q 2.85 0.45 2.75 0.65
L 2.6 0.65
Q 2.35 0.9 2.35 1.5
L 3.2 39.8 3.15 39.8 3.15 40.35 3.2 40.35 3.2 42.3 3.55 56.15
Q 3.55 56.3 3.45 56.3
L 3.45 58.4 3.85 58.4 4.4 58.35 18.85 56.95 19 56.95 19.8 56.9 19.85 55.8 19.7 55.75 19.45 42.55 19.4 41.9 19.4 41.35 19.4 40.05 19.35 39.4 19.35 38.15 18.6 1.15
Q 18.6 0.6 18.3 0.45 Z"/>
</g>

<g id="Layer0_0_FILL">
<path fill="#1A1A1A" stroke="none" d="
M 18.6 1.15
Q 18.6 0.6 18.3 0.45 17.9 0.1 17.5 0.1
L 3.45 0.35
Q 2.85 0.45 2.75 0.65
L 2.6 0.65
Q 2.35 0.9 2.35 1.5
L 3.2 39.8 1.65 39.8
Q 0.95 39.8 0.5 40.1 0.1 40.25 0.1 40.75
L 0.4 56.85
Q 0.5 57.2 0.9 57.45 1.1 57.55 1.65 57.45 3 57.45 3 56.75
L 2.5 42.3 3.2 42.3 3.55 56.15
Q 3.55 56.3 3.45 56.3
L 3.45 58.4 2.05 58.65
Q 0.9 58.7 0.95 60.05 0.95 60.65 1.2 60.9 1.6 61.15 2.15 60.95
L 3.7 60.95 4.4 98
Q 4.4 98.45 4.8 98.7 4.85 99 5.5 98.95
L 19.45 98.7
Q 20 98.7 20.35 98.3 20.55 98 20.55 97.55
L 19.85 59.5 21.8 59.25
Q 22.9 59.1 22.9 58
L 22.5 40.25
Q 22.5 39.65 22.2 39.65 22.2 39.4 21.6 39.4
L 19.4 39.4 18.6 1.15
M 17.75 0.9
Q 17.75 1.05 17.75 1.15
L 18.6 41.6 18.7 41.6 19 55.8 18.85 56.05 4.55 56.3
Q 4.4 56.3 4.4 56.15
L 3.2 1.3
Q 3.2 1.15 3.45 1.3
L 17.5 0.9
Q 17.65 0.9 17.75 0.9
M 0.55 40.8
Q 0.55 40.6 0.9 40.5 1.1 40.35 1.6 40.35
L 3.2 40.35 3.2 41.85 2.05 41.7 2.35 56.75
Q 2.3 57 1.65 57
L 1.6 57
Q 1.35 57 1.1 57 0.95 57 0.95 56.85
L 0.55 40.8
M 19.45 41.9
L 20 41.9 20.4 56.85 19.8 57 19.85 55.8 19.7 55.75 19.45 41.9
M 19 56.85
L 19 57 4.4 58.4 4.4 57.05 18.7 56.85
Q 18.85 56.85 19 56.85
M 4.4 60.9
L 19 59.5 19.8 97.6
Q 19.8 97.75 19.7 97.75 19.55 97.85 19.55 97.75
L 5.5 98.1
Q 5.25 98.1 5.25 98
L 4.4 60.9
M 19.45 41.35
L 19.45 40.05 21.75 39.9
Q 21.8 39.9 21.95 39.9 21.95 40.05 21.95 40.25
L 22.3 57.95
Q 22.3 58.65 21.8 58.65
L 19.65 58.85
Q 19.6322265625 58.8232421875 19.6 58.8
L 4.4 60.25
Q 4.15 60.25 4.1 60.25 3.927734375 60.25 3.8 60.35
L 2.15 60.5
Q 1.8 60.65 1.6 60.5 1.4 60.25 1.4 59.95 1.35 59.25 2.05 59.25
L 4.4 58.9 4.4 58.85 17.4 57.7 16.65 57.7 20.95 57.45 20.65 41.35 19.45 41.35 Z"/>

<path fill="#888985" stroke="none" d="
M 19.45 40.05
L 19.45 41.35 20.65 41.35 20.95 57.45 16.65 57.7 17.4 57.7 4.4 58.85 4.4 58.9 2.05 59.25
Q 1.35 59.25 1.4 59.95 1.4 60.25 1.6 60.5 1.8 60.65 2.15 60.5
L 3.8 60.35
Q 3.927734375 60.25 4.1 60.25 4.15 60.25 4.4 60.25
L 19.6 58.8
Q 19.6322265625 58.8232421875 19.65 58.85
L 21.8 58.65
Q 22.3 58.65 22.3 57.95
L 21.95 40.25
Q 21.95 40.05 21.95 39.9 21.8 39.9 21.75 39.9
L 19.45 40.05
M 0.9 40.5
Q 0.55 40.6 0.55 40.8
L 0.95 56.85
Q 0.95 57 1.1 57 1.35 57 1.6 57
L 1.65 57
Q 2.3 57 2.35 56.75
L 2.05 41.7 3.2 41.85 3.2 40.35 1.6 40.35
Q 1.1 40.35 0.9 40.5 Z"/>

<path fill="#C1875B" stroke="none" d="
M 19 59.5
L 4.4 60.9 5.25 98
Q 5.25 98.1 5.5 98.1
L 19.55 97.75
Q 19.55 97.85 19.7 97.75 19.8 97.75 19.8 97.6
L 19 59.5
M 19 57
L 19 56.85
Q 18.85 56.85 18.7 56.85
L 4.4 57.05 4.4 58.4 19 57 Z"/>

<path fill="#F0B380" stroke="none" d="
M 17.75 1.15
Q 17.75 1.05 17.75 0.9 17.65 0.9 17.5 0.9
L 3.45 1.3
Q 3.2 1.15 3.2 1.3
L 4.4 56.15
Q 4.4 56.3 4.55 56.3
L 18.85 56.05 19 55.8 18.7 41.6 18.6 41.6 17.75 1.15 Z"/>
</g>
</defs>

<g transform="matrix( 1, 0, 0, 1, 0,0) ">
<use xlink:href="#Layer1_0_FILL"/>
</g>

<g transform="matrix( 1, 0, 0, 1, 0,0) ">
<use xlink:href="#Layer0_0_FILL"/>
</g>
</svg>
